<svg width="1099" height="1136" viewBox="0 0 1099 1136" fill="none" xmlns="http://www.w3.org/2000/svg">
<g clip-path="url(#clip0_422_50)">
<path d="M153.629 609.612C154.164 391.764 329.111 214.118 549.777 214.282C769.4 214.445 945.214 391.592 945.288 610.268C945.362 828.656 767.64 1005.8 549.213 1005.53C330.731 1005.27 153.554 827.943 153.629 609.612ZM551.964 220.046C551.964 222.077 551.964 223.582 551.964 225.088C551.989 334.378 552.013 443.668 552.035 552.959C552.036 554.152 552.327 555.481 551.897 556.5C551.468 557.515 550.301 558.218 549.458 559.058C548.632 558.2 547.452 557.472 547.074 556.449C546.649 555.298 546.935 553.88 546.936 552.579C546.958 443.21 546.983 333.842 547.007 224.473C547.008 223.102 547.007 221.73 547.007 220.432C527.184 217.4 451.916 229.003 434.897 237.635C435.145 238.734 435.362 239.891 435.666 241.024C463.097 343.193 490.536 445.359 517.973 547.525C518.93 551.085 520.1 554.608 520.718 558.225C520.926 559.44 519.724 560.895 519.167 562.241C517.981 561.412 516.525 560.79 515.692 559.694C514.963 558.735 514.934 557.243 514.598 555.987C487.768 455.68 460.939 355.373 434.104 255.068C432.684 249.761 431.22 244.466 429.682 238.821C392.837 250.654 359.087 267.799 327.358 289.404C328.022 290.624 328.512 291.578 329.048 292.505C382.377 384.688 435.709 476.868 489.035 569.051C489.522 569.892 490.265 570.761 490.301 571.641C490.343 572.688 490.016 574.397 489.366 574.671C488.429 575.065 486.955 574.639 485.906 574.147C485.242 573.836 484.902 572.786 484.47 572.036C431.773 480.617 379.082 389.194 326.386 297.773C325.381 296.029 324.326 294.313 323.193 292.413C293.5 313.558 267.588 338.142 244.975 366.403C245.966 367.441 246.692 368.234 247.452 368.994C264.017 385.578 280.566 402.176 297.156 418.734C353.3 474.771 409.461 530.792 465.604 586.83C467.097 588.321 469.415 589.952 467.218 592.228C464.983 594.544 463.392 592.16 461.826 590.749C461.746 590.676 461.673 590.595 461.597 590.518C389.117 517.976 316.637 445.433 244.154 372.893C243.41 372.149 242.619 371.452 241.854 370.738C227.098 385.952 191.882 447.079 188.835 462.758C189.609 463.233 190.418 463.757 191.253 464.239C208.535 474.216 225.85 484.137 243.085 494.196C247.438 496.736 251.744 498.914 256.969 499.084C259.505 499.167 261.977 500.478 264.533 500.857C266.45 501.142 268.723 501.419 270.379 500.677C279.731 496.494 287.68 498.268 294.555 505.681C294.874 505.541 295.219 505.472 295.451 505.273C308.291 494.297 328.748 503.802 332.14 518.723C332.479 520.214 333.71 521.754 334.95 522.741C339.291 526.201 341.272 530.65 339.94 535.928C338.967 539.78 336.915 543.36 335.279 547.217C335.471 547.342 335.994 547.721 336.55 548.041C373.019 569.04 409.491 590.032 445.961 611.03C446.899 611.57 448.113 611.954 448.657 612.772C449.278 613.703 449.847 615.355 449.416 616.112C448.976 616.884 447.308 617.181 446.153 617.243C445.411 617.283 444.608 616.554 443.861 616.121C430.256 608.233 416.656 600.334 403.048 592.451C402.303 592.019 401.489 591.708 400.023 591.019C400.725 592.246 400.992 592.711 401.256 593.178C406.865 603.091 402.298 614.903 391.45 618.427C386.807 619.935 382.125 620.035 377.332 618.905C376.163 618.63 374.487 619.254 373.441 620.012C371.915 621.118 370.748 622.718 369.279 624.265C370.294 624.611 370.996 624.898 371.722 625.091C392.365 630.578 413.011 636.054 433.653 641.544C434.696 641.822 435.972 641.951 436.665 642.632C437.453 643.406 438.2 644.807 438.035 645.778C437.906 646.536 436.43 647.286 435.415 647.599C434.695 647.822 433.737 647.35 432.902 647.125C411.233 641.285 389.556 635.474 367.91 629.551C364.59 628.642 361.522 628.279 358.091 629.353C355.368 630.206 352.091 630.814 349.448 630.098C343.232 628.413 339.192 631.202 334.561 634.727C326.085 641.178 315.822 644.099 305.78 647.267C295.252 650.587 284.716 653.884 274.14 657.206V667.667C277.593 668.96 280.917 669.986 284.037 671.448C286.155 672.44 288.02 672.77 290.208 671.84C294.838 669.871 299.604 669.576 304.554 670.639C305.585 670.86 307.178 670.108 308.023 669.296C316.392 661.247 326.446 660.306 335.779 666.872C336.928 667.68 337.856 668.867 339.086 669.478C340.148 670.005 341.745 670.51 342.672 670.083C349.084 667.135 355.091 668.243 361.116 671.224C362.775 672.045 364.74 672.663 366.566 672.667C395.326 672.741 424.086 672.699 452.846 672.684C453.998 672.683 455.15 672.684 456.286 672.684C457.668 623.243 495.349 585.277 541.619 581.639C565.725 579.743 587.649 586.231 606.602 601.389C629.275 619.524 640.546 643.576 641.935 672.544H783.54C783.17 671.562 782.884 670.767 782.572 669.982C779.519 662.284 782.021 655.506 789.423 651.649C796.708 647.853 804.506 648.286 812.338 648.95C814.017 649.092 816.058 649.467 817.353 648.725C820.095 647.154 822.456 644.917 824.998 642.933C820.791 638.198 816.713 633.609 812.664 629.052C802.198 636.44 795.124 633.53 789.774 629.031C786.573 626.34 783.581 623.932 779.274 623.254C777.364 622.953 775.385 621.707 773.916 620.366C772.307 618.897 770.925 618.801 768.977 619.329C741.248 626.845 713.5 634.292 685.759 641.762C678.744 643.65 671.763 645.675 664.696 647.341C663.572 647.606 661.426 646.646 660.898 645.648C659.957 643.869 661.499 642.716 663.205 642.136C663.821 641.927 664.453 641.764 665.082 641.597C692.74 634.227 720.399 626.858 748.059 619.49C755.052 617.627 762.045 615.763 769.194 613.858C768.408 608.085 770.074 603.467 774.698 600.262C782.33 594.972 790.63 593.65 799.421 596.836C801.196 597.48 802.311 597.385 803.737 596.175C808.992 591.718 814.987 590.728 821.384 593.19C823.759 594.104 825.888 595.659 828.27 597.002C832.028 593.233 836.503 590.608 841.968 589.684C842.761 589.55 843.697 587.971 843.889 586.935C845.585 577.794 850.151 570.847 858.803 566.953C866.223 563.613 873.77 563.841 881.292 566.542C882.935 567.131 883.844 567.041 885.166 565.69C889.953 560.801 896.092 559.194 902.712 559.715C904.708 559.872 905.926 559.59 907.154 558.076C910.743 553.65 915.529 551.072 921.108 550.532C925.633 550.094 930.234 550.443 934.968 550.443C930.34 521.987 923.094 494.357 912.506 467.416C911.347 468.046 910.679 468.389 910.029 468.765C825.145 517.83 740.264 566.898 655.377 615.958C654.445 616.497 653.461 617.281 652.482 617.311C651.465 617.342 649.943 616.861 649.529 616.113C649.114 615.363 649.577 613.895 650.066 612.954C650.414 612.284 651.418 611.927 652.167 611.495C734.674 563.951 817.185 516.414 899.694 468.873C903.244 466.827 906.776 464.75 910.493 462.584C897.018 429.301 879.242 398.812 857.307 370.517C856.392 371.382 855.67 372.032 854.985 372.718C782.503 445.259 710.026 517.805 637.525 590.326C635.957 591.895 634.24 594.813 631.714 592.15C629.424 589.736 632.138 588.071 633.663 586.547C706.29 513.999 778.936 441.469 851.576 368.933C852.389 368.12 853.149 367.253 853.877 366.473C841.109 347.351 788.658 298.048 775.493 292.769C774.745 294.051 773.978 295.352 773.224 296.661C720.416 388.268 667.61 479.875 614.796 571.478C614.203 572.506 613.709 573.782 612.799 574.378C611.969 574.921 610.45 575.09 609.587 574.681C608.936 574.372 608.597 572.895 608.577 571.929C608.562 571.156 609.179 570.336 609.609 569.591C661.846 479.283 714.092 388.979 766.337 298.675C768.067 295.684 769.798 292.693 771.683 289.437C740 267.575 706.101 250.731 669.419 238.838C668.927 240.372 668.486 241.567 668.158 242.792C640.043 347.916 611.937 453.042 583.82 558.165C583.569 559.102 583.407 560.243 582.779 560.849C582.037 561.566 580.677 562.337 579.873 562.102C579.051 561.861 578.35 560.502 578.03 559.495C577.8 558.771 578.231 557.806 578.455 556.973C604.321 460.668 630.199 364.367 656.067 268.063C658.79 257.927 661.464 247.778 664.249 237.307C627.677 225.962 590.518 220.14 551.964 220.046ZM274.157 763.854C277.604 762.834 280.865 761.236 284.214 761.027C288.982 760.729 292.881 758.596 296.968 756.695C298.049 756.192 299.077 755.221 300.162 755.171C301.548 755.106 302.967 755.757 304.372 756.099C303.849 757.374 303.614 758.924 302.728 759.853C301.699 760.931 300.098 761.463 298.08 762.611C299.459 762.969 300.038 763.232 300.626 763.254C307.433 763.513 314.242 763.746 321.052 763.963C323.007 764.025 325.352 763.721 325.549 766.448C325.76 769.367 323.342 769.479 321.251 769.653C311.994 770.427 302.848 770.131 293.898 767.214C287.877 765.252 282.147 766.368 276.626 769.28C274.668 770.312 273.934 771.585 273.951 773.859C274.063 788.396 274.004 802.933 274.016 817.47C274.016 818.51 274.13 819.55 274.206 820.847C276.509 820.847 278.546 820.822 280.582 820.854C282.481 820.885 284.435 821.502 284.088 823.641C283.918 824.697 282.029 825.96 280.728 826.236C278.679 826.67 276.469 826.351 274.212 826.351C274.122 827.666 274.015 828.509 274.015 829.353C274.019 847.036 274.078 864.719 273.997 882.402C273.986 884.911 274.838 886.637 276.589 888.353C301.621 912.871 329.497 933.568 360.084 950.627C365.655 953.734 371.345 956.626 377.249 959.76C387.248 946.041 397.044 932.603 406.868 919.127C401.659 917.104 396.782 915.332 392.03 913.273C390.944 912.803 389.456 911.152 389.631 910.381C389.889 909.248 391.327 907.876 392.523 907.545C405.033 904.074 416.119 897.761 426.799 890.634C428.113 889.758 429.216 888.449 430.161 887.154C455.534 852.363 480.876 817.549 506.214 782.732C506.753 781.991 507.185 781.172 507.93 779.962C501.17 779.962 494.902 780.115 488.643 779.934C465.555 779.266 443.898 774.402 424.716 760.342C414.611 752.935 403.465 746.888 391.346 743.011C375.34 737.891 359.195 739.201 343.054 741.982C321.152 745.754 299.658 745.331 278.815 736.588C277.458 736.019 275.793 736.185 274.157 735.996L274.157 763.854ZM378.194 711.461C384.344 711.759 389.718 711.863 395.062 712.312C404.989 713.148 414.963 713.757 424.798 715.249C436.586 717.037 446.751 723.161 456.843 729.084C466.55 734.78 476.969 737.668 488.119 737.647C502.651 737.62 517.182 737.02 531.713 737.086C537.469 737.112 541.602 735.51 544.421 730.281C545.543 728.199 545.991 726.896 544.439 724.852C539.783 718.72 535.347 712.42 530.848 706.17C530.219 705.297 529.417 704.387 529.24 703.396C529.082 702.511 529.393 701.079 530.02 700.647C530.659 700.206 532.1 700.399 532.891 700.845C533.77 701.342 534.35 702.407 534.991 703.277C538.753 708.38 542.495 713.499 546.748 719.301C546.852 717.384 546.952 716.356 546.956 715.327C546.975 708.818 546.957 702.309 546.987 695.799C546.996 693.773 547.171 691.518 549.841 691.561C552.477 691.603 552.625 693.85 552.632 695.88C552.654 702.389 552.641 708.899 552.67 715.408C552.673 716.164 552.851 716.92 553.015 718.201C554.231 716.565 555.074 715.442 555.905 714.311C559.053 710.028 562.101 705.665 565.428 701.527C566.062 700.74 567.799 700.839 569.026 700.529C569.159 701.785 569.535 703.079 569.344 704.283C569.206 705.151 568.326 705.909 567.754 706.7C564.004 711.885 560.192 717.027 556.506 722.258C552.167 728.419 551.803 726.343 556.629 732.806C557.593 734.097 559.375 735.573 560.806 735.601C579.247 735.961 597.702 736.543 616.134 736.147C650.43 735.412 684.708 735.423 718.964 737.169C727.366 737.597 735.885 738.507 744.037 740.485C758.453 743.983 768.786 752.306 771.318 767.919C771.855 771.226 771.906 774.61 772.223 777.955C773.114 787.37 776.414 795.28 785.909 799.084C789.922 800.691 793.943 802.754 798.136 803.332C806.799 804.527 815.573 805.316 824.315 805.458C840.798 805.725 857.292 805.437 873.78 805.28C874.568 805.273 876.007 804.337 876.027 803.792C876.205 798.964 876.13 794.126 876.13 788.975C872.835 789.254 870.032 789.752 867.265 789.598C866.137 789.536 865.088 788.058 864.003 787.225C864.877 786.269 865.604 785.061 866.673 784.437C867.519 783.943 868.784 784.174 869.862 784.068C871.877 783.87 873.891 783.661 876.095 783.437C876.095 780.695 876.302 778.291 875.984 775.958C875.872 775.128 874.427 773.783 873.693 773.847C868.854 774.27 863.623 774.02 859.305 775.846C847.995 780.626 836.247 780.42 824.445 780.564C822.514 780.588 820.444 780.381 820.347 777.919C820.24 775.191 822.451 774.994 824.479 774.975C829.361 774.929 834.244 774.956 839.126 774.938C845.195 774.916 850.827 773.145 856.333 770.467C853.842 769.748 851.342 769.272 848.824 768.934C846.776 768.66 844.56 768.295 844.837 765.713C845.118 763.104 847.354 763.114 849.404 763.521C852.379 764.111 855.328 764.831 858.307 765.401C864.104 766.511 869.915 767.554 876.071 768.69C876.071 766.657 875.901 765.234 876.105 763.866C876.619 760.412 875.292 757.957 872.676 755.742C867.962 751.748 863.527 747.427 858.806 743.441C857.98 742.744 856.175 742.559 855.085 742.923C845.767 746.037 836.448 745.399 827.779 741.502C822.514 739.134 817.414 736.774 811.811 735.173C805.497 733.37 801.043 728.785 800.36 721.96C799.651 714.878 804.439 710.774 809.986 707.823C817.296 703.934 825.013 703.984 832.637 707.004C834.771 707.849 836.109 707.746 838.113 706.356C840.395 704.774 843.413 703.484 846.132 703.443C855.68 703.3 862.112 708.793 865.935 716.888C869.471 724.373 868.712 731.889 862.862 738.359C862.602 738.647 862.463 739.043 862.138 739.62C866.608 743.64 870.996 747.586 876.071 752.15C876.071 750.078 876.071 748.922 876.071 747.766C876.068 732.36 875.98 716.954 876.134 701.55C876.164 698.548 875.435 696.532 872.943 694.735C870.972 693.315 869.425 691.235 867.898 689.284C865.313 685.981 859.451 685.27 856.49 688.097C849.943 694.347 842.002 696.066 833.328 695.062C825.675 694.176 818.939 691.118 813.376 685.704C811.402 683.783 809.394 682.985 806.429 683.46C801.146 684.305 795.975 683.145 791.521 680.124C789.108 678.487 786.709 678.026 783.913 678.029C699.815 678.121 615.718 678.193 531.62 678.204C478.554 678.211 425.489 678.115 372.423 678.066C371.11 678.065 369.798 678.066 368.486 678.066C368.429 678.498 368.373 678.931 368.317 679.363C369.429 679.726 370.541 680.089 371.653 680.45C375.019 681.541 378.664 682.127 381.699 683.812C392.428 689.77 392.945 700.952 383.056 708.244C381.706 709.239 380.258 710.101 378.194 711.461ZM856.452 849.933C833.577 851.662 811.047 852.69 788.486 851.564C775.275 850.904 761.955 850.695 748.913 848.746C714.017 843.531 681.922 831.046 653.873 809.187C640.556 798.809 625.817 791.106 609.951 785.562C604.288 783.584 598.344 782.408 592.528 780.866C592.68 782.456 593.146 783.29 593.703 784.056C618.729 818.434 643.759 852.809 668.811 887.168C669.633 888.296 670.526 889.491 671.655 890.259C682.281 897.479 693.385 903.748 705.829 907.394C707.234 907.805 708.309 909.338 709.537 910.351C708.48 911.441 707.506 912.633 706.335 913.582C705.608 914.172 704.598 914.435 703.688 914.773C699.899 916.179 696.1 917.558 692.036 919.046C701.387 931.868 710.569 944.36 719.609 956.953C721.121 959.059 722.311 959.259 724.594 958.109C775.676 932.374 818.96 897.064 854.705 852.464C855.288 851.737 855.769 850.928 856.452 849.933ZM704.382 967.936C704.359 967.641 704.336 967.346 704.313 967.051C696.994 967.745 689.687 968.673 682.352 969.077C672.001 969.647 661.733 968.964 651.981 964.974C647.45 963.12 643.673 960.371 641.735 955.572C638.005 946.333 634.24 937.107 630.307 927.955C629.816 926.811 628.333 925.598 627.112 925.337C607.234 921.093 587.094 918.659 566.799 918.148C552.283 917.783 537.732 918.183 523.212 918.691C505.951 919.296 488.882 921.76 471.989 925.325C470.689 925.599 469.116 926.91 468.588 928.134C464.646 937.283 461.07 946.59 457.061 955.708C456.018 958.078 454.222 960.519 452.105 961.92C448.909 964.035 445.263 965.746 441.571 966.779C430.331 969.924 418.835 969.641 407.337 968.454C405.183 968.231 403.039 967.898 400.889 967.631C398.78 967.369 396.67 967.126 394.56 966.875C394.553 967.227 394.546 967.581 394.54 967.934C497.836 1010.49 601.116 1010.45 704.382 967.936ZM549.486 736.918C523.608 797.996 498.11 858.176 472.356 918.96C498.23 914.328 523.745 912.117 549.468 912.117C575.202 912.118 600.728 914.319 626.618 918.968C600.87 858.195 575.371 798.012 549.486 736.918ZM461.936 672.447H636.371C634.771 641.248 621.9 616.414 595.427 600.125C565.216 581.535 533.82 581.393 503.462 599.781C476.636 616.029 463.598 640.982 461.936 672.447ZM572.318 752.598C572.185 753.063 572.051 753.529 571.918 753.994C576.485 760.288 580.973 766.642 585.687 772.824C586.616 774.042 588.332 775.148 589.827 775.374C613.529 778.964 634.34 789.132 653.848 802.641C664.792 810.221 675.678 818.18 687.525 824.101C712.356 836.511 738.736 843.957 766.72 845.354C795.679 846.8 824.59 847.103 853.514 844.705C858.803 844.267 863.006 843.061 865.729 837.995C867.717 834.297 870.508 831.031 872.908 827.55C873.363 826.89 873.664 826.125 874.228 825.037C872.244 825.159 870.737 825.222 869.235 825.349C862.864 825.887 856.503 826.57 850.124 826.972C827.37 828.408 804.617 828.353 781.852 827.035C757.199 825.609 736.446 816.517 721.042 796.714C717.25 791.84 713.758 786.729 710.2 781.676C704.774 773.969 698.352 767.271 689.018 764.767C676.815 761.493 664.553 757.954 652.081 756.291C636.008 754.147 619.714 753.485 603.491 752.692C593.123 752.186 582.711 752.598 572.318 752.598ZM268.665 737.016C263.546 734.475 258.767 732.776 254.804 729.938C251.15 727.322 247.783 726.225 243.276 726.612C236.198 727.221 229.59 725.324 224.906 719.543C223.338 717.608 221.768 716.892 219.454 716.841C205.353 716.535 191.253 716.154 177.151 715.818C176.333 715.799 175.51 715.959 174.273 716.074C192.224 778.566 223.556 832.923 268.643 880.388V794.956C263.794 795.205 259.165 795.414 254.541 795.692C252.575 795.809 250.486 795.766 250.251 793.375C249.999 790.811 252.183 790.304 254.21 790.062C255.283 789.934 256.377 789.986 257.461 789.934C261.137 789.758 264.814 789.572 268.464 789.39C268.612 788.898 268.782 788.595 268.783 788.292C268.8 777.877 268.756 767.462 268.838 757.048C268.857 754.73 267.385 754.629 265.854 754.65C252.961 754.827 240.067 754.979 227.178 755.306C220.903 755.466 214.639 756.071 208.364 756.296C205.776 756.39 203.127 756.233 200.593 755.741C199.633 755.555 198.284 754.117 198.268 753.228C198.251 752.324 199.493 751.062 200.488 750.569C201.459 750.087 202.815 750.324 204.002 750.342C208.447 750.407 212.9 750.719 217.334 750.54C221.609 750.368 225.865 749.704 230.129 749.257C226.123 745.683 221.597 744.151 216.729 743.499C214.674 743.223 212.501 742.718 212.946 740.11C213.377 737.592 215.725 737.448 217.651 737.988C221.807 739.152 226.342 739.887 229.895 742.116C241.973 749.691 255.266 748.946 268.665 748.948V737.016ZM560.848 738.817C563.954 742.965 566.073 746.924 569.27 749.591C570.885 750.939 574.451 749.986 577.136 750.003C578.761 750.013 580.387 749.878 582.014 749.824C614.084 748.775 645.955 750.135 677.275 757.887C689.058 760.804 700.606 764.338 708.617 774.348C712.338 778.997 715.757 783.9 719.12 788.82C733.577 809.974 753.525 821.704 779.081 823.582C806.932 825.629 834.784 825.472 862.606 822.875C867.01 822.464 871.418 822.104 875.975 821.708V808.704C872.324 808.704 868.891 808.731 865.459 808.699C846.692 808.527 827.924 808.404 809.158 808.127C801.502 808.014 794.144 806.265 786.988 803.493C776.654 799.489 770.447 792.313 769.171 781.158C768.863 778.467 768.521 775.77 768.414 773.067C767.851 758.848 760.486 748.575 746.678 744.49C739.575 742.388 732.068 740.97 724.681 740.632C701.604 739.577 678.501 738.827 655.403 738.621C625.354 738.354 595.3 738.722 565.248 738.817C564.099 738.82 562.95 738.817 560.848 738.817ZM294.357 558.134C299.539 557.453 304.779 557.206 309.794 556.011C319.435 553.714 327.79 549.115 333.449 540.568C336.675 535.696 336.395 529.581 332.407 526.791C329.529 524.777 328.067 522.301 327.165 518.991C323.618 505.971 303.987 499.796 295.913 511.58C294.18 514.109 292.332 513.408 290.739 510.758C289.463 508.636 287.732 506.505 285.682 505.187C281.255 502.342 276.516 503.128 272.043 505.397C268.897 506.992 265.973 506.805 262.67 505.671C259.223 504.488 255.526 503.646 251.897 503.464C244.661 503.102 237.491 504.234 232.808 510.398C229.015 515.389 224.759 517.318 218.445 517.194C210.327 517.035 202.484 519.081 196.423 525.204C190.331 531.359 190.402 540.73 196.606 546.752C202.127 552.11 209.01 554.608 216.473 554.105C223.668 553.621 230.032 555.004 236.439 558.205C246.458 563.21 256.68 563.385 266.576 557.478C270.148 555.346 273.902 555.264 277.884 555.909C283.321 556.79 288.803 557.397 294.357 558.134ZM939.399 605.355L939.149 605.356C939.149 602.104 939.371 598.832 939.087 595.605C938.798 592.314 938.634 588.785 937.314 585.856C934.522 579.658 929.058 576.184 922.685 574.374C914.016 571.911 906.261 574.394 898.964 579.212C894.573 582.112 893.322 581.89 889.719 578.117C884.539 572.692 878.382 569.655 870.768 569.383C860.153 569.003 851.434 575.484 849.201 585.785C848.925 587.053 848.761 588.347 848.581 589.634C848.164 592.628 846.482 594.076 843.462 594.587C840.945 595.012 838.325 595.715 836.121 596.954C828.807 601.065 828.751 609.503 836.254 613.262C839.776 615.027 844.051 615.686 848.049 615.979C851.319 616.218 853.692 617.013 855.948 619.494C866.863 631.498 884.022 635.226 896.414 622.722C899.859 619.246 901.093 619.488 905.349 621.921C914.72 627.277 924.615 627.989 934.866 625.137C937.87 624.302 939.629 622.524 939.454 619.02C939.228 614.475 939.399 609.911 939.399 605.355ZM161.687 568.92C166.588 570.22 171.057 571.484 175.575 572.538C176.469 572.746 177.695 572.388 178.522 571.887C187.154 566.658 196.38 565.353 206.059 567.912C215.449 570.394 222.839 575.831 228.142 583.998C229.218 585.657 230.17 586.76 232.538 586.114C241.186 583.755 248.704 586.574 255.056 592.256C259.098 595.873 263.951 595.959 268.637 597.406C269.074 591.961 266.915 588.423 262.161 586.79C260.829 586.333 259.479 585.923 258.158 585.437C248.256 581.792 240.43 575.931 236.838 565.519C236.565 564.728 236.185 563.634 235.557 563.358C230.889 561.312 226.755 557.972 220.978 558.883C212.647 560.196 204.765 558.196 197.677 553.687C192.177 550.189 188.172 545.438 187.463 538.617C186.444 528.828 191.401 520.769 201.226 516.145C207.629 513.131 214.433 512.122 221.447 512.002C222.967 511.976 225.078 511.801 225.888 510.833C230.127 505.772 234.733 501.348 242.115 499.451C223.15 488.505 204.937 477.992 186.44 467.316C173.841 500.367 165.403 533.846 161.687 568.92ZM297.708 722.831C297.723 722.921 297.739 723.012 297.754 723.102C300.514 722.595 303.307 722.222 306.025 721.548C309.956 720.574 312.982 718.374 313.772 714.16C314.656 709.448 313.655 705.417 309.262 702.579C306.012 700.48 306.191 698.565 309.474 696.497C313.144 694.186 314.385 691.401 313.643 687.144C311.993 677.68 303.388 672.582 293.698 675.941C288.822 677.631 284.787 677.382 280.088 675.222C265.908 668.703 251.923 674.318 245.947 688.516C244.405 692.18 241.955 694.808 238.53 696.811C235.563 698.546 232.448 700.342 230.122 702.796C223.9 709.36 225.743 717.388 234.344 720.139C238.532 721.479 243.296 720.943 247.764 721.525C249.787 721.788 251.884 722.417 253.667 723.393C256.598 724.996 259.134 727.368 262.134 728.79C269.82 732.434 277.707 732.823 284.373 726.944C288.267 723.51 291.847 721.227 297.06 722.823C297.258 722.884 297.491 722.831 297.708 722.831ZM284.768 733.176C294.243 736.419 303.534 739.473 313.243 738.997C325.987 738.372 338.731 737.105 351.384 735.432C372.126 732.689 391.841 735.126 410.167 745.641C417.87 750.061 425.469 754.687 432.908 759.538C441.18 764.932 450.022 768.826 459.619 771.067C472.368 774.045 485.327 774.887 498.367 774.806C502.809 774.778 507.943 775.865 511.496 774.016C515.144 772.117 517.282 767.279 520.013 763.675C522.069 760.962 524.017 758.167 525.929 755.526C515.297 755.526 505.009 755.282 494.736 755.575C471.524 756.237 450.166 750.427 430.494 738.125C427.022 735.954 423.333 734.02 419.536 732.496C405.329 726.793 390.296 725.582 375.222 725.187C354.632 724.648 334.03 724.513 313.433 724.227C312.694 724.217 311.872 724.287 311.221 724.597C305.551 727.3 299.567 727.682 293.423 727.288C292.373 727.221 291.091 727.675 290.237 728.315C288.431 729.67 286.837 731.306 284.768 733.176ZM698.009 910.925C652.339 889.795 619.087 854.992 588.982 816.46C606.902 858.782 624.823 901.104 642.821 943.61C656.936 925.103 677.407 918.281 698.009 910.925ZM401.026 910.935C421.517 918.293 442.192 925.092 456.149 943.63C474.202 900.983 492.112 858.673 510.022 816.363C479.891 855.027 446.612 889.765 401.026 910.935ZM159.817 613.288C160.321 613.464 160.937 613.889 161.523 613.85C165.752 613.567 168.814 615.764 172.025 618.146C178.54 622.978 188.182 622.433 194.754 617.249C199.674 613.368 199.693 613.338 205.094 616.896C211.169 620.896 217.387 621.003 223.42 617.144C226.332 615.281 228.876 615.202 231.973 616.363C235.606 617.726 239.341 619.069 243.15 619.662C252.453 621.109 260.389 611.951 257.406 603.543C254.364 594.973 243.303 588.877 234.499 590.921C228.026 592.423 227.561 592.353 223.798 586.687C220.459 581.66 216.065 577.931 210.781 575.179C199.596 569.354 180.363 570.405 173.11 585.929C170.701 591.086 168.149 594.147 162.236 593.732C161.486 593.679 159.953 595.15 159.924 595.956C159.722 601.683 159.817 607.42 159.817 613.288ZM804.702 653.335C804.641 653.156 804.58 652.977 804.519 652.798C800.242 653.8 795.766 654.305 791.738 655.924C786.188 658.155 784.722 663.026 787.149 668.514C790.128 675.248 796.787 679.202 805.588 678.514C810.399 678.138 813.728 679.88 817.316 682.683C820.745 685.362 824.697 687.821 828.815 689.074C836.703 691.474 845.121 691.963 851.584 685.938C856.239 681.599 860.166 680.477 866.228 682.621C873.789 685.295 881.967 681.424 885.952 674.43C887.387 671.911 887.875 669.179 886.551 666.369C883.075 658.989 872.741 654.194 865.169 656.987C860.739 658.622 857.998 657.618 855.123 654.035C847.658 644.733 829.969 642.257 821.438 651.764C819.178 654.282 816.274 654.668 813.093 654.238C810.306 653.861 807.5 653.63 804.702 653.335ZM318.586 716.569C322.662 715.575 326.61 715.095 330.15 713.632C335.126 711.574 339.896 711.423 345.027 712.748C350.683 714.209 356.045 713.204 360.573 709.304C362.482 707.66 364.358 707.341 366.84 707.783C373.812 709.027 379.393 706.362 383.562 700.801C386.007 697.541 385.999 693.101 382.906 690.802C379.805 688.498 376.078 686.417 372.353 685.738C368.302 685.001 365.43 683.948 363.281 680.167C359.843 674.117 351.684 671.347 345.769 674.442C341.328 676.766 338.259 676.383 334.97 672.714C333.447 671.015 331.171 669.828 329.028 668.877C322.779 666.106 316.042 668.041 311.618 673.736C315.325 677.215 317.806 681.435 318.667 686.525C319.586 691.965 317.833 696.504 313.771 700.053C316.722 703.569 318.327 709.074 318.586 716.569ZM318.017 721.558C320.224 721.669 323.674 721.978 327.124 721.992C343.287 722.056 359.459 721.719 375.613 722.13C397.706 722.691 418.935 726.083 438.14 738.739C450.711 747.024 465.342 751.353 480.522 751.918C495.784 752.487 511.086 751.991 526.37 751.921C527.193 751.917 528.364 751.813 528.779 751.286C531.61 747.702 534.282 743.992 536.754 740.66C528.757 740.66 521.071 740.695 513.385 740.652C502.766 740.593 492.132 740.807 481.534 740.29C471.04 739.778 461.677 735.564 452.652 730.302C442.731 724.517 432.61 718.7 420.876 717.702C402.203 716.114 383.484 715.062 364.781 713.84C363.757 713.773 362.512 713.944 361.686 714.485C355.417 718.589 348.784 718.9 341.711 717.068C339.532 716.504 336.986 716.548 334.78 717.057C328.818 718.433 322.949 720.208 318.017 721.558ZM344.568 607.117C347.969 606.824 351.571 606.776 355.071 606.152C360.577 605.172 365.841 603.463 369.434 598.695C373.853 592.83 372.295 585.696 365.837 582.151C359.148 578.479 350.144 580.049 345.067 585.77C343.045 588.049 340.93 588.174 338.605 586.212C337.624 585.385 336.665 584.423 335.522 583.913C324.559 579.025 307.416 584.404 301.13 594.572C299.248 597.616 298.781 600.474 301.014 603.622C301.81 604.745 302.448 606.544 302.14 607.781C301.142 611.789 302.964 614.207 305.987 616.248C313.621 621.4 325.209 619.756 331.812 611.858C335.336 607.644 338.9 605.299 344.568 607.117ZM714.718 959.459C705.284 946.457 696.474 934.263 687.542 922.16C687.089 921.546 685.411 921.26 684.594 921.575C674.766 925.37 665.2 929.782 656.963 936.44C653.484 939.252 650.285 942.665 647.775 946.358C644.546 951.11 645.759 955.705 650.689 958.519C653.737 960.259 657.176 961.573 660.605 962.34C671.628 964.807 682.799 964.222 693.899 962.938C700.627 962.159 707.279 960.726 714.718 959.459ZM384.659 958.914C385.426 959.259 385.883 959.559 386.382 959.675C400.806 963.037 415.407 964.669 430.21 963.635C436.377 963.204 442.494 962.129 447.929 958.865C453.069 955.777 454.502 951.145 451.119 946.207C448.595 942.524 445.358 939.149 441.871 936.341C433.709 929.766 424.218 925.466 414.559 921.536C412.784 920.813 411.883 921.274 410.839 922.744C405.823 929.806 400.697 936.79 395.612 943.803C392 948.783 388.391 953.764 384.659 958.914ZM252.246 672.414C251.211 671.238 250.57 670.437 249.855 669.708C246.055 665.84 242.349 661.867 238.366 658.196C236.888 656.833 234.842 655.677 232.889 655.312C224.37 653.719 215.806 652.336 207.228 651.094C193.873 649.161 184.764 642.048 180.028 629.388C179.838 628.881 179.756 628.261 179.409 627.9C178.644 627.104 177.834 626.272 176.879 625.755C173.857 624.117 170.792 622.551 167.683 621.084C165.272 619.946 162.772 618.997 160.311 617.964C159.937 618.284 159.563 618.603 159.189 618.923C160.451 634.395 161.713 649.867 162.955 665.091C165.836 665.234 167.881 665.464 169.912 665.379C170.868 665.338 172.042 664.936 172.702 664.28C178.989 658.033 186.747 656.031 195.153 657.273C203.615 658.523 211.117 661.682 213.693 671.187C213.884 671.89 215.403 672.667 216.311 672.675C227.375 672.774 238.439 672.74 249.504 672.721C250.212 672.72 250.921 672.568 252.246 672.414ZM929.763 694.115C921.927 697.138 914.456 696.087 906.931 693.825C905.583 693.42 903.705 694.159 902.264 694.8C898.257 696.582 894.49 699.02 890.355 700.352C887.747 701.191 884.648 700.508 881.694 700.508V768.164C887.605 766.01 891.049 761.744 894.148 756.943C893.586 756.324 893.231 755.927 892.868 755.535C885.657 747.738 887.031 736.466 896.257 731.088C899.419 729.244 903.294 728.383 906.96 727.738C909.092 727.364 910.511 726.763 911.681 724.99C914.131 721.279 917.609 719.123 922.022 718.28C922.981 718.097 924.24 716.985 924.505 716.057C926.342 709.598 927.966 703.079 929.619 696.569C929.794 695.881 929.711 695.128 929.763 694.115ZM387.647 583.604C386.487 582.902 385.486 582.271 384.463 581.68C367.371 571.808 350.289 561.918 333.149 552.131C332.169 551.571 330.288 551.288 329.527 551.841C321.138 557.94 311.809 561.362 301.5 562.058C298.701 562.247 297.622 563.091 297.232 566.208C295.616 579.095 292.458 591.427 281.623 600.146C281.498 600.247 281.528 600.543 281.44 600.967C286.071 602.18 290.701 603.392 296.031 604.788C293.829 599.679 294.686 595.551 297.334 591.838C298.958 589.562 300.682 587.17 302.88 585.52C315.125 576.332 328.203 573.92 342.343 581.333C355.006 571.483 367.104 573.332 376.011 586.287C379.88 585.395 383.614 584.534 387.647 583.604ZM843.841 739.876C849.002 740.135 853.775 738.904 858.095 736.146C861.915 733.708 863.852 729.773 863.25 725.598C862.299 718.998 857.91 711.022 849.785 708.748C846.768 707.903 843.438 707.641 841.201 710.071C837.976 713.574 834.996 713.482 830.856 711.641C822.209 707.797 812.255 709.835 807.183 715.83C804.315 719.22 804.176 722.226 806.739 725.862C809.759 730.146 814.242 731.419 819.128 731.995C820.696 732.18 822.678 732.344 823.674 733.325C829.364 738.935 836.584 739.392 843.841 739.876ZM539.159 747.487C538.934 747.301 538.709 747.115 538.484 746.928C506.997 790.282 475.509 833.635 444.021 876.989C445.632 876.659 446.656 875.865 447.649 875.034C464.422 861.01 479.686 845.478 493.337 828.425C506.689 811.747 519.605 794.748 527.709 774.675C531.391 765.558 535.334 756.547 539.159 747.487ZM560.483 746.931C560.24 747.066 559.997 747.201 559.754 747.336C561.545 751.588 563.261 755.874 565.14 760.087C569.681 770.267 573.412 780.935 579.043 790.479C598.329 823.165 623.119 851.304 652.144 875.727C652.893 876.358 653.755 876.855 654.564 877.414C654.689 877.263 654.813 877.111 654.938 876.96C623.453 833.617 591.968 790.274 560.483 746.931ZM268.821 667.32C268.821 666.201 268.82 665.027 268.821 663.853C268.831 645.421 268.841 626.99 268.851 608.558C268.852 604.621 266.881 602.26 262.937 601.476C262.771 601.443 262.567 601.6 262.192 601.737C263.838 607.447 263.282 612.849 259.41 617.61C255.575 622.327 250.382 624.469 244.27 625.002C245.999 634.339 241.381 640.167 234.237 644.576C234.454 645.066 234.513 645.41 234.712 645.621C241.931 653.265 249.151 660.908 256.419 668.504C256.872 668.977 257.77 669.391 258.374 669.293C261.778 668.745 265.155 668.031 268.821 667.32ZM164.258 670.693C165.16 675.726 165.934 680.382 166.84 685.013C167.782 689.829 168.698 690.423 173.598 689.632C174.438 689.496 175.326 689.268 176.046 688.839C178.81 687.19 181.129 687.913 183.473 689.795C185.745 691.621 188.086 693.416 190.598 694.881C197.843 699.109 208.513 698.242 213.733 693.178C218.034 689.006 217.513 682.492 212.456 679.262C210.237 677.845 209.471 675.979 208.821 673.517C208.145 670.953 206.893 668.029 204.941 666.403C196.986 659.773 183.259 660.828 176.179 668.315C174.385 670.213 172.547 671.169 169.889 670.743C168.233 670.477 166.5 670.693 164.258 670.693ZM874.698 689.072C881.555 696.432 889.937 698.096 897.808 691.631C901.806 688.346 905.445 687.707 910.291 689.443C916.312 691.601 922.562 691.862 928.667 689.061C930.743 688.108 931.899 686.817 932.249 684.538C933.136 678.765 933.971 672.971 935.232 667.275C935.819 664.625 934.79 663.738 932.662 663.11C924.376 660.665 916.424 662.053 909.155 666.153C904.992 668.501 901.25 670.927 896.233 669.578C895.47 669.372 894.373 669.556 893.72 669.993C892.785 670.619 891.938 671.539 891.371 672.517C889.883 675.084 889.129 678.373 887.06 680.242C883.302 683.638 878.803 686.213 874.698 689.072ZM831.874 616.836C827.148 611.57 827.052 611.202 825.549 604.163C825.257 602.79 824.378 601.32 823.337 600.368C818.364 595.82 811.521 595.805 806.294 600.461C803.685 602.786 801.35 603.191 798.079 601.782C791.726 599.045 785.367 599.775 779.304 603.002C775.814 604.86 773.36 607.437 774.028 611.79C774.659 615.902 777.559 618.18 781.237 618.737C785.727 619.419 788.847 621.764 792.025 624.701C797.56 629.815 803.548 629.941 809.258 625.054C812.192 622.543 814.935 621.747 818.718 622.703C823.59 623.934 829.378 621.116 831.874 616.836ZM274.164 604.428V651.115C284.043 648.88 293.326 645.577 301.809 640.47C307.887 636.812 310.495 630.536 312.552 623.827C311.725 623.548 311.154 623.315 310.562 623.163C304.169 621.519 298.871 618.602 296.92 611.668C296.77 611.132 296.302 610.407 295.84 610.278C288.76 608.314 281.657 606.434 274.164 604.428ZM345.691 611.394C344.989 611.394 343.689 611.401 342.39 611.393C339.28 611.374 335.107 614.087 334.17 616.871C334.006 617.358 334.198 618.227 334.558 618.586C337.746 621.767 341.339 624.461 345.936 624.949C355.528 625.969 364.006 623.71 370.339 615.834C372.251 613.456 374.599 613.202 377.602 613.693C381.255 614.29 385.14 614.517 388.772 613.942C394.078 613.102 397.279 609.378 398.437 604.184C399.52 599.326 397.192 594.07 392.707 591.344C388.207 588.61 383.456 588.466 378.852 591.17C377.956 591.696 377.101 592.823 376.849 593.828C375.106 600.775 370.777 605.421 364.347 608.221C358.597 610.723 352.552 611.737 345.691 611.394ZM939.177 628.958C934.77 629.865 930.962 630.574 927.201 631.477C926.299 631.693 925.194 632.37 924.791 633.15C921.383 639.74 915.684 643.496 908.664 643.725C899.173 644.034 894.108 648.795 890.864 657.087C889.699 660.065 889.354 662.29 891.435 664.441C897.76 664.805 903.711 664.416 908.968 660.481C910.534 659.309 912.776 658.973 914.757 658.433C921.881 656.49 929.006 656.202 936.5 659.204C937.418 648.826 938.294 638.928 939.177 628.958ZM818.845 627.983C822.929 632.642 826.51 636.805 830.22 640.851C830.633 641.302 831.791 641.229 832.58 641.151C843.075 640.119 852.089 643.133 859.206 651.05C860.848 652.877 862.212 653.227 863.776 651.826C861.919 647.795 859.861 644.078 858.484 640.125C857.102 636.157 856.336 631.967 855.417 627.848C854.371 623.167 851.887 621.252 847.195 621.058C844.199 620.933 841.233 620.147 838.24 619.768C837.417 619.664 836.102 619.641 835.761 620.117C831.8 625.648 826.146 627.555 818.845 627.983ZM229.678 649.406C229.615 648.674 229.674 648.412 229.569 648.276C223.696 640.655 217.815 633.041 211.909 625.446C211.599 625.048 211.109 624.731 210.638 624.528C207.008 622.959 203.361 621.427 200.11 620.049C195.221 622.391 190.315 624.74 185.149 627.215C188.06 634.541 192.298 641.451 201.004 643.6C210.415 645.923 220.014 647.483 229.678 649.406ZM221.324 710.972C222.6 704.48 222.532 704.581 216.741 700.674C214.857 699.403 213.483 699.428 211.453 700.308C206.811 702.32 201.928 702.885 196.823 702.105C190.883 701.198 186.125 698.167 181.541 694.612C180.655 693.925 179.435 692.986 178.526 693.133C175.406 693.641 172.356 694.579 169.042 695.413C170.001 699.349 171.054 703.432 171.976 707.544C172.497 709.868 173.825 710.68 176.15 710.646C179.29 710.6 182.433 710.944 185.576 710.955C197.38 710.997 209.184 710.972 221.324 710.972ZM938.215 577.607C937.54 571.404 936.787 565.74 936.362 560.051C936.156 557.299 934.825 555.711 932.374 555.269C925.691 554.065 918.614 553.87 913.575 558.714C909.067 563.049 904.794 565.125 898.521 564.668C894.56 564.379 890.518 566.067 887.936 569.79C889.927 571.615 891.578 573.361 893.486 574.755C894.196 575.275 895.646 575.321 896.516 574.975C898.415 574.219 900.125 573.003 901.971 572.097C914.014 566.183 925.25 567.65 935.732 575.852C936.385 576.363 937.087 576.813 938.215 577.607ZM892.345 795.851C895.349 789.819 898.6 783.455 901.696 777.018C903.943 772.346 905.984 767.575 908.161 762.75C904.809 761.833 901.713 760.986 898.438 760.09C894.484 766.106 889.517 770.974 882.73 773.746C882.176 773.972 881.519 774.816 881.512 775.381C881.426 781.858 881.457 788.336 881.457 795.082C883.523 794.87 885.233 794.477 886.911 794.584C888.528 794.686 890.112 795.304 892.345 795.851ZM922.743 723.961C918.435 724.324 916.713 726.597 915.175 728.939C913.271 731.837 910.793 733.333 907.275 733.017C906.419 732.94 905.538 733.025 904.678 733.122C896.611 734.039 891.591 741.165 893.964 748.302C895.812 753.864 903.992 757.583 909.342 757.233C909.913 757.196 910.722 756.5 910.936 755.928C914.832 745.516 918.654 735.076 922.743 723.961ZM274.193 560.342V598.419C288.023 590.147 290.223 576.68 292.143 562.871C286.016 562.008 280.259 561.197 274.193 560.342ZM245.136 678.213H218.897C222.269 684.135 222.555 689.757 218.533 695.39C221.003 697.005 223.314 698.515 225.185 699.738C229.361 696.966 233.255 694.479 237.029 691.823C238.32 690.915 239.645 689.763 240.375 688.41C242.102 685.21 243.481 681.821 245.136 678.213ZM242.923 565.693C248.08 577.418 258.693 579.725 268.559 583.311V561.849C260.486 566.59 252.214 567.733 242.923 565.693ZM881.45 634.963C881.45 640.568 881.614 645.751 881.386 650.916C881.255 653.879 882.26 655.599 885.151 656.33C888.086 651.131 890.993 645.962 893.917 640.802C896.773 635.762 899.647 630.731 902.513 625.696L901.436 624.722C895.551 629.452 889.936 634.725 881.45 634.963ZM218.325 624.992C218.472 625.272 218.618 625.69 218.875 626.023C221.388 629.291 223.861 632.591 226.459 635.79C230.645 640.946 232.011 640.918 236.398 635.763C236.957 635.106 237.493 634.403 237.898 633.645C240.505 628.761 238.872 624.373 233.786 622.46C232.366 621.926 231 621.184 229.537 620.849C228.583 620.631 227.395 620.732 226.493 621.114C223.819 622.247 221.234 623.591 218.325 624.992ZM329.203 620.909C326.005 621.851 322.809 622.747 319.653 623.766C319.059 623.958 318.406 624.545 318.151 625.116C316.069 629.779 314.075 634.482 311.992 639.318C320.576 636.21 329.235 633.209 335.984 626.64C333.472 624.516 331.271 622.656 329.203 620.909ZM876.018 635.688C870.792 633.965 866.193 632.448 860.456 630.556C863.049 636.537 865.189 641.9 867.691 647.088C869.231 650.281 872.244 651.367 875.866 651.351C875.923 650.21 876.008 649.254 876.011 648.298C876.026 643.991 876.018 639.683 876.018 635.688ZM907.212 628.454C905.483 631.531 903.743 634.616 902.019 637.711C901.767 638.162 901.591 638.655 901.361 639.173C908.759 640.234 916.811 636.679 919.087 631.454C915.271 630.49 911.455 629.526 907.212 628.454ZM161.155 574.067C160.78 578.968 160.441 583.403 160.03 588.765C162.615 588.015 165.377 588.054 166.464 586.725C168.728 583.955 170.107 580.461 171.964 577.053C168.592 576.122 165.204 575.186 161.155 574.067ZM889.317 800.128C889.224 800.074 889.128 799.97 889.038 799.975C887.647 800.045 886.256 800.13 884.865 800.21C881.104 800.424 880.981 800.598 881.862 804.468C887.263 805.158 887.766 804.865 889.317 800.128ZM881.723 808.068V812.874C881.907 812.906 882.092 812.937 882.276 812.969C883.13 811.446 883.985 809.924 885.026 808.068H881.723Z" fill="white" stroke="white" stroke-width="3" stroke-miterlimit="10"/>
<path d="M1019.53 317.703C1021.76 316.601 1023.35 315.73 1025.02 315.007C1027.34 313.997 1029.67 313.958 1030.89 316.536C1032.13 319.138 1030.55 320.67 1028.32 321.978C1008.21 333.772 988.069 345.509 968.116 357.558C962.571 360.906 957.297 364.883 952.507 369.24C948.978 372.45 945.718 376.39 943.614 380.637C939.809 388.316 944.012 394.965 952.581 395.513C962.307 396.134 971.543 393.921 980.349 389.822C981.922 389.09 983.462 387.932 985.09 387.788C986.432 387.67 988.537 388.401 989.097 389.419C989.659 390.441 988.838 392.318 988.389 393.748C988.238 394.229 987.404 394.552 986.827 394.836C976.772 399.799 966.228 402.916 954.934 402.9C952.472 402.897 949.931 402.533 947.564 401.854C937.993 399.108 933.106 390.41 935.997 380.752C937.157 376.879 939.379 373.324 941.307 369.221C940.471 369.221 939.365 369.342 938.294 369.201C932.417 368.424 926.277 368.414 920.733 366.597C908.104 362.458 902.943 351.616 906.811 338.896C907.811 335.611 909.349 332.49 910.763 328.988C908.775 329.157 906.872 329.583 905.022 329.416C901.922 329.135 898.679 328.954 895.811 327.886C888.298 325.086 885.068 318.38 888.351 311.123C890.535 306.294 893.615 301.448 897.469 297.878C907.481 288.602 918.116 279.996 928.554 271.184C934.603 266.077 940.927 261.281 946.788 255.971C949.881 253.169 952.637 249.809 954.852 246.268C958.453 240.512 957.154 234.123 951.242 230.783C947.33 228.574 942.554 226.952 938.105 226.797C919.555 226.152 902.552 231.304 887.337 242.079C878.134 248.596 869.125 255.421 859.619 261.464C854.759 264.554 849.192 267.014 843.607 268.387C830.019 271.726 821.476 262.657 824.799 249.067C825.051 248.036 825.3 247.005 825.698 245.369C824.013 245.835 822.725 246.187 821.44 246.549C814.136 248.608 806.893 248.902 799.794 245.726C787.262 240.122 781.637 228.729 784.774 215.333C785.04 214.199 785.342 213.073 785.476 212.541C779.243 211.172 773.163 210.211 767.336 208.423C763.569 207.267 760.053 205.096 756.659 203C754.824 201.867 753.376 201.469 751.301 202.218C743.206 205.138 735.156 205.614 727.512 200.829C725.889 199.812 724.33 198.527 723.124 197.053C721.748 195.372 721.748 193.329 723.539 191.815C725.324 190.306 727.266 190.618 728.776 192.264C733.986 197.943 740.255 197.981 747.529 195.88C741.667 189.91 737.323 183.229 735.363 175.515C733.43 167.912 732.572 160.035 731.299 152.604C731.22 152.721 730.693 153.458 730.213 154.224C726.756 159.735 723.82 165.674 719.719 170.654C715.288 176.033 710.158 181.038 704.581 185.197C701.214 187.708 696.514 188.863 692.236 189.619C685.886 190.741 681.109 187.322 679.125 181.053C678.477 179.005 678.132 176.825 677.931 174.679C677.732 172.542 677.888 170.371 677.888 167.758C676.971 168.329 676.332 168.619 675.823 169.059C669.626 174.415 662.372 177.276 654.304 178.233C639.726 179.961 627.801 169.893 626.992 155.19C626.923 153.936 626.771 152.686 626.579 150.571C625.254 152.041 624.559 152.947 623.732 153.709C618.084 158.908 612.697 164.448 606.657 169.149C600.994 173.558 594.089 175.579 586.865 175.686C575.993 175.848 568.004 170.796 562.61 161.486C561.594 159.733 560.724 157.896 559.64 155.816C558.111 157.932 557.022 160.014 555.411 161.547C552.148 164.651 548.935 168.033 545.096 170.254C538.961 173.803 532.859 172.054 529.026 166.032C526.792 162.523 525.3 158.541 523.403 154.626C519.083 163.18 512.381 169.604 503.312 173.285C493.8 177.146 485.058 175.575 477.272 168.623C471.868 176.012 466.208 182.923 456 182.026C445.679 181.119 441.731 173.313 438.457 164.077C437.732 165.997 437.293 167.161 436.854 168.325C434.425 174.777 431.287 180.8 426.387 185.772C416.913 195.387 405.875 193.481 400.419 181.086C395.785 170.558 393.603 159.391 392.643 147.972C391.754 137.386 391.016 126.785 389.953 116.216C389.665 113.353 388.712 110.472 387.597 107.793C384.612 100.628 377.573 98.6678 371.802 103.877C368.268 107.067 365.269 111.163 362.995 115.373C356.463 127.462 353.431 140.602 352.103 154.256C350.984 165.752 353.383 176.931 354.444 188.22C355.213 196.408 356.864 204.514 358.148 212.653C358.655 215.87 357.61 218.039 355.218 218.121C352.176 218.226 351.71 216.106 351.35 213.599C349.784 202.692 348.046 191.809 346.381 180.994C342.781 185.24 339.575 190.085 335.335 193.724C331.007 197.438 329.568 201.451 329.178 206.995C328.454 217.289 326.152 227.335 321.078 236.583C313.479 250.432 300.24 253.143 288.006 243.092C283.308 239.232 279.742 234.493 277.935 228.604C276.904 225.246 277.915 222.784 280.387 222.198C282.759 221.635 284.284 223.18 285.287 226.57C287.394 233.685 291.97 238.692 298.981 241.142C304.895 243.208 309.789 241.32 313.299 235.935C318.263 228.32 320.786 219.874 321.593 210.869C321.823 208.303 322.124 205.744 322.403 203.073C318.561 203.831 315.112 204.976 311.622 205.119C297.225 205.708 286.243 198.726 277.995 187.828C263.582 168.783 262.065 148.09 272.445 126.641C275.717 119.88 280.934 115.114 288.713 113.998C295.089 113.082 301.035 114.704 305.469 119.232C309.203 123.046 312.597 127.481 315.047 132.209C324.12 149.709 328.189 168.597 329.358 188.174C329.384 188.603 329.455 189.028 329.623 190.467C332.508 187.341 335.168 184.892 337.313 182.054C343.918 173.313 346.148 163.661 344.333 152.638C341.885 137.772 340.334 122.756 338.434 107.8C338.027 104.592 339.27 102.454 341.614 102.393C344.748 102.313 345.524 104.446 345.787 107.098C346.542 114.745 347.382 122.384 348.708 130.115C349.861 127.145 350.948 124.147 352.181 121.21C355.207 113.998 358.243 106.765 364.002 101.178C365.627 99.6015 367.356 98.0463 369.276 96.8718C378.564 91.1909 388.963 94.3103 393.522 104.192C396.894 111.502 397.677 119.395 398.343 127.317C399.325 138.979 400.214 150.662 401.731 162.26C402.384 167.243 404.252 172.131 406.027 176.891C409.671 186.658 415.674 187.623 422.601 179.749C428.061 173.544 430.679 165.991 432.844 158.202C434.68 151.592 434.333 144.976 433.813 138.213C432.275 118.206 431.144 98.1669 429.842 78.1412C429.294 69.7216 428.717 61.3039 428.116 52.3279C414.587 54.0992 401.086 55.1219 392.287 67.5703C391.013 69.3732 389.408 70.3022 387.284 69.2441C385.179 68.1962 384.694 66.168 385.508 64.2425C386.244 62.5036 387.481 60.8647 388.831 59.5169C395.351 53.0111 403.467 49.5272 412.348 47.7455C417.319 46.7483 422.363 46.1159 427.488 45.3009C426.915 36.6456 426.38 28.0121 425.756 19.3849C425.467 15.385 425.009 11.397 424.621 7.40415C424.371 4.83761 425.082 2.66927 427.875 2.27448C430.67 1.87968 432.166 3.74581 432.368 6.30687C433.016 14.5243 433.469 22.7566 434.045 30.9799C434.369 35.6101 434.786 40.2337 435.183 45.1314C451.076 44.3581 466.755 44.8204 480.157 34.9501C482.064 33.5456 484.292 32.7567 485.835 35.1465C487.468 37.6749 485.661 39.2105 483.612 40.663C472.013 48.8819 458.719 50.9012 444.995 51.4143C435.608 51.7653 435.518 51.7605 436.118 61.1463C437.79 87.3433 439.389 113.547 441.35 139.723C442.036 148.889 443.258 158.041 447.166 166.621C451.381 175.872 458.904 177.466 466.171 170.309C467.475 169.025 468.653 167.575 469.688 166.065C471.611 163.258 471.998 160.617 470.546 157.055C465.684 145.133 465.106 132.583 466.7 119.918C469.002 101.619 473.513 84.0268 485.16 69.2004C488.731 64.6538 493.061 60.4982 497.694 57.0324C506.891 50.1517 515.88 50.7751 524.77 58.1182C526.171 59.275 527.473 60.5514 529.222 62.136C529.706 59.0743 530.102 56.4498 530.54 53.8324C531.153 50.1699 532.839 48.4518 535.324 48.9036C537.833 49.3595 538.673 51.4868 538.037 55.1771C533.056 84.0695 529.107 113.066 529.803 142.489C529.949 148.664 530.204 154.872 533.286 160.523C536.276 166.006 539.169 166.899 544.305 163.496C550.541 159.365 553.751 152.896 556.879 146.436C557.213 145.746 556.946 144.739 556.879 143.885C554.334 111.351 564.769 83.4777 587.346 60.1415C590.52 56.8604 594.55 54.1043 598.667 52.0934C612.495 45.3394 627.556 53.0624 630.078 68.2415C632.212 81.0856 628.351 92.4805 620.086 102.403C617.919 105.005 615.312 105.428 613.624 103.648C611.479 101.387 612.489 99.3065 614.259 97.3552C620.068 90.9547 622.709 83.2369 623.008 74.7836C623.115 71.7372 622.503 68.4417 621.345 65.6178C618.341 58.2884 610.855 54.8275 603.699 58.1219C598.809 60.3727 594.017 63.6875 590.363 67.6229C572.113 87.2739 563.289 110.795 563.855 137.564C563.978 143.382 565.413 149.475 567.613 154.885C572.541 167.006 582.581 171.32 594.922 166.889C599.417 165.274 603.707 162.606 607.523 159.679C615.878 153.271 622.016 144.779 627.916 136.172C628.798 134.886 629.033 133.152 629.543 131.618C637.221 108.531 649.333 88.4774 669.79 74.4947C674.543 71.2466 680.082 68.8368 685.588 67.0675C697.395 63.2745 706.386 67.3411 712.225 78.3101C712.817 79.421 713.402 80.5352 714.271 82.1774C716.065 78.9875 717.344 76.1174 719.196 73.6824C720.064 72.5419 722.069 71.67 723.496 71.7532C724.508 71.8123 725.931 73.554 726.218 74.7692C726.489 75.9186 725.699 77.458 725.062 78.6594C719.175 89.7605 712.952 100.692 707.346 111.932C698.876 128.917 690.661 146.064 685.984 164.577C684.998 168.48 684.821 172.742 685.118 176.775C685.53 182.372 688.334 184.233 693.803 182.871C700.832 181.12 706.564 176.975 710.298 170.933C719.072 156.736 727.957 142.553 735.73 127.803C750.896 99.0236 765.328 69.858 780.08 40.8602C780.913 39.2213 781.556 37.2461 782.889 36.1715C784.076 35.2136 786.516 34.5177 787.63 35.1245C788.725 35.7207 789.107 38.0725 789.296 39.7119C789.401 40.627 788.507 41.6775 788.008 42.638C777.607 62.6565 767.195 82.6694 756.797 102.69C756.271 103.703 755.853 104.773 755.044 106.574C756.77 105.666 757.759 105.119 758.772 104.617C768.41 99.8362 778.304 98.0226 788.564 102.485C799.089 107.062 803.445 115.876 804.612 126.683C805.837 138.03 803.376 148.753 798.299 158.815C790.216 174.834 779.03 188.128 763.231 197.15C762.884 197.348 762.597 197.652 761.873 198.239C768.724 202.221 775.596 204.516 783.301 204.416C787.075 204.367 789.34 203.178 791.576 199.774C804.899 179.494 821.266 162.435 844.121 152.728C850.354 150.081 856.788 148.124 863.638 148.178C876.65 148.279 884.796 155.151 887.245 167.947C887.421 168.872 887.575 169.8 887.807 171.107C890.027 169.231 891.87 167.432 893.957 165.986C895.853 164.673 897.968 164.745 899.446 166.754C900.832 168.637 900.186 170.426 898.674 172.013C888.654 182.532 878.514 192.943 868.662 203.618C859.249 213.817 849.904 224.099 841.011 234.747C837.599 238.833 835.415 243.976 832.897 248.757C832.118 250.234 831.913 252.087 831.745 253.797C831.26 258.725 834.175 262.166 838.98 261.327C843.59 260.522 848.509 259.294 852.371 256.816C863.395 249.742 874.468 242.567 884.565 234.267C898.38 222.911 911.313 210.481 924.626 198.514C925.19 198.007 925.746 197.156 926.36 197.104C928.025 196.963 930.141 196.56 931.306 197.37C933.184 198.677 932.63 200.836 931.209 202.522C930.584 203.264 929.833 203.905 929.104 204.552C923.345 209.67 917.575 214.774 911.815 219.891C910.944 220.664 910.109 221.477 909.518 222.749C913.068 221.998 916.603 221.167 920.17 220.51C929.111 218.865 938.103 218.196 946.927 220.91C950.178 221.91 953.437 223.465 956.163 225.482C964.065 231.329 965.914 240.578 961.246 249.217C957.127 256.843 950.672 262.384 944.129 267.754C933.48 276.496 922.593 284.948 911.951 293.698C908.192 296.789 904.764 300.306 901.366 303.805C899.566 305.658 897.984 307.781 896.601 309.969C892.078 317.122 894.681 322.362 903.127 322.165C910.327 321.998 917.069 320.694 923.002 315.139C941.055 298.239 962.52 288.313 987.414 286.511C993.862 286.044 1000.21 286.819 1006.28 289.212C1017.46 293.622 1022.52 302.913 1020.2 314.676C1020.06 315.41 1019.88 316.139 1019.53 317.703ZM473.342 130.36C473.869 140.525 474.56 150.526 479.987 159.563C484.161 166.514 491.08 169.199 498.889 167.092C510.706 163.905 522.221 146.08 522.71 135.535C523.598 116.389 525.59 97.2954 526.956 78.1682C527.117 75.9203 526.764 73.3112 525.712 71.3794C524.242 68.6796 522.16 66.16 519.863 64.0924C513.998 58.8128 508.395 58.2462 502.234 63.0921C497.529 66.7929 493.054 71.1374 489.577 75.9838C477.954 92.181 474.826 111.077 473.342 130.36ZM634.195 151.636C634.529 153.531 634.847 156.791 635.703 159.902C637.394 166.045 642.895 170.031 649.308 170.776C662.27 172.281 678.845 159.357 682.876 150.01C690.591 132.121 698.799 114.444 706.74 96.652C707.427 95.1122 708.101 93.3454 708.017 91.7234C707.754 86.6285 705.971 82.0176 702.68 78.0365C699.665 74.391 695.776 72.3388 691.21 73.7389C685.677 75.4355 679.989 77.2709 675.076 80.2238C660.352 89.0733 651.232 102.921 643.394 117.719C637.997 127.908 634.69 138.701 634.195 151.636ZM934.997 362.371C940.977 361.708 945.403 361.281 949.805 360.684C950.914 360.534 952.107 360.043 952.994 359.361C968.178 347.681 984.579 337.893 1001.38 328.818C1007.51 325.509 1010.63 320.537 1012.5 314.406C1015.23 305.47 1011.81 298.354 1002.81 295.854C997.38 294.348 991.391 293.532 985.828 294.098C960.274 296.696 938.806 307.767 921.708 326.986C917.65 331.547 914.555 336.808 913.26 342.925C911.673 350.422 914.473 356.553 921.622 359.232C926.314 360.99 931.446 361.573 934.997 362.371ZM862.984 155.525C861.594 155.685 859.961 155.773 858.368 156.072C849.148 157.804 840.849 161.777 833.127 166.929C818.447 176.724 806.983 189.688 797.378 204.318C794.102 209.308 791.869 214.902 791.499 221.018C791.074 228.03 793.789 233.468 799.796 237.191C807.982 242.265 824.831 240.495 831.997 233.805C832.468 233.365 832.827 232.806 833.25 232.313C841.514 222.693 849.675 212.983 858.079 203.487C863.971 196.83 870.527 190.741 876.171 183.891C881.259 177.716 881.237 170.398 877.922 163.315C875.058 157.199 869.343 155.856 862.984 155.525ZM798.573 131.361C798.392 131.325 798.21 131.29 798.028 131.254C797.939 129.956 797.866 128.656 797.758 127.359C796.546 112.872 786.671 105.064 772.331 107.359C759.844 109.357 751.315 116.9 745.666 127.663C739.763 138.91 738.016 151.07 739.708 163.686C741.1 174.068 744.768 183.355 752.392 190.87C754.342 192.793 755.928 193.019 758.318 191.672C776.63 181.343 788.997 166.096 795.647 146.287C797.247 141.521 797.63 136.347 798.573 131.361ZM322.212 188.162C321.444 175.894 319.504 162.374 314.837 149.449C311.907 141.336 309.118 133.013 303.126 126.417C295.338 117.843 284.966 118.963 279.155 128.95C267.088 149.688 272.621 177.316 291.769 191.754C298.949 197.168 306.877 199.586 315.887 197.582C322.385 196.136 322.395 196.18 322.212 188.162Z" fill="white" stroke="white" stroke-width="3" stroke-miterlimit="10"/>
<path d="M189.54 256.012C190.027 257.973 190.259 258.992 190.534 260C195.952 279.907 200.868 299.923 201.997 320.624C202.919 337.511 202.183 354.295 196.472 370.432C191.772 383.713 183.978 394.808 171.406 401.732C155.323 410.59 139.15 408.521 123.319 400.873C110.535 394.697 99.7813 385.743 90.5592 375.046C68.6022 349.576 54.2255 320.709 51.7458 286.667C51.1266 278.167 51.7918 269.746 53.9983 261.498C58.9961 242.815 74.7142 234.327 92.9827 240.714C97.3276 242.233 101.728 244.319 105.32 247.141C122.629 260.74 134.054 278.504 140.787 299.335C141.606 301.867 141.667 304.674 141.857 307.369C142.029 309.798 141.026 311.744 138.379 312.028C135.672 312.318 134.428 310.499 134.081 308.125C130.866 286.112 118.481 269.474 102.684 254.937C97.908 250.542 92.0302 247.887 85.5698 246.751C75.4091 244.964 66.9303 249.496 63.0035 259.066C58.9392 268.971 58.5378 279.394 59.8139 289.818C64.5472 328.482 82.5603 359.985 112.39 384.675C118.137 389.432 125.031 393.255 131.989 396.014C154.275 404.852 173.95 397.339 185.463 376.287C191.267 365.674 193.211 354.048 194.127 342.18C195.965 318.371 191.722 295.275 185.812 272.393C184.241 266.309 182.312 260.317 180.644 254.257C179.937 251.691 178.51 250.056 176.108 248.75C163.721 242.015 151.416 235.127 139.13 228.208C121.473 218.263 107.516 204.582 98.4219 186.399C95.8459 181.248 94.1835 175.484 93.0452 169.812C91.7408 163.312 93.2879 157.115 99.032 152.993C104.672 148.945 110.568 150.357 116.305 153.122C126.294 157.936 133.93 165.659 141.381 173.571C160.281 193.638 174.769 216.478 184.507 242.307C185.036 243.711 186.119 245.166 187.349 246.006C198.168 253.403 209.078 260.667 219.964 267.966C220.224 268.14 220.524 268.256 221.131 268.565C220.98 267.646 220.925 266.966 220.753 266.318C215.139 245.165 213.353 223.634 214.183 201.816C214.26 199.785 213.73 197.487 212.769 195.696C202.173 175.939 192.906 155.675 188.478 133.527C185.252 117.391 184.815 101.232 188.764 85.1416C190.229 79.1718 192.731 73.6588 197.258 69.2886C203.601 63.1643 211.139 63.1901 217.438 69.3875C222.525 74.3937 224.737 80.9341 226.311 87.5729C227.678 93.3425 228.57 99.3009 228.923 105.22C229.946 122.388 228.179 139.44 226.22 156.478C224.722 169.507 223.464 182.564 222.216 195.62C222.103 196.795 222.588 198.212 223.231 199.245C237.281 221.794 252.867 243.109 273.158 260.578C275.782 262.837 278.576 264.91 281.383 266.942C284.225 268.999 285.006 271.081 283.459 273.11C281.997 275.028 279.862 274.972 277.21 272.974C255.966 256.968 239.303 236.811 224.554 214.919C223.712 213.669 222.885 212.41 221.943 210.994C221.663 211.375 221.364 211.591 221.367 211.803C221.66 231.932 223.134 251.891 230.022 271.059C232.462 277.849 235.595 284.239 240.501 289.641C241.076 290.274 241.94 291.107 241.875 291.769C241.711 293.451 241.591 295.734 240.517 296.56C239.463 297.371 237.107 297.084 235.602 296.527C234.458 296.103 233.612 294.586 232.874 293.405C225.642 281.827 215.354 273.393 204.352 265.721C199.76 262.518 194.99 259.571 189.54 256.012ZM215.308 184.56C215.558 184.491 215.808 184.421 216.058 184.351C217.966 164.072 220.376 143.823 221.571 123.502C222.176 113.2 221.006 102.721 219.835 92.4136C219.13 86.2186 217.016 80.1082 212.87 75.1165C209.25 70.7593 205.142 70.4703 201.66 74.8714C199.171 78.0178 197.129 81.8058 195.937 85.6343C192.468 96.7831 192.472 108.354 193.585 119.819C195.777 142.395 203.859 163.139 214.276 183.073C214.554 183.604 214.961 184.066 215.308 184.56ZM174.741 239.227C174.173 237.6 173.97 236.879 173.676 236.197C162.361 209.874 145.84 187.26 124.556 168.177C120.584 164.616 115.812 161.726 110.992 159.387C104.961 156.461 100.291 159.471 100.683 166.146C100.967 171.003 102.069 176.126 104.131 180.507C110.652 194.359 119.834 206.354 132.786 214.774C143.861 221.974 155.469 228.359 166.868 235.06C169.177 236.417 171.603 237.574 174.741 239.227Z" fill="white" stroke="white" stroke-width="3" stroke-miterlimit="10"/>
<path d="M98.0823 852.255C119.983 851.249 140.974 850.286 161.965 849.322C162.065 849.516 162.165 849.71 162.265 849.905C143.916 862.668 125.567 875.431 107.047 888.313C106.098 886.561 105.281 885.052 104.278 883.2C117.204 874.171 130.038 865.206 142.872 856.241C142.819 856.01 142.767 855.778 142.714 855.546C124.493 856.372 106.272 857.199 87.1877 858.064C98.441 842.89 109.341 828.192 120.241 813.495C120.123 813.306 120.006 813.117 119.889 812.929C105.333 818.621 90.7776 824.313 75.9617 830.107C75.0743 828.449 74.2733 826.951 73.2915 825.116C94.1533 816.917 114.847 808.785 135.54 800.652C135.712 800.871 135.883 801.089 136.055 801.307C123.55 818.085 111.045 834.862 98.0823 852.255Z" fill="white" stroke="white" stroke-width="3" stroke-miterlimit="10"/>
<path d="M316.144 1080.82C309.464 1055.86 303.02 1031.79 296.335 1006.82C287.55 1022.18 279.198 1036.79 270.724 1051.61C269.052 1050.67 267.59 1049.84 265.793 1048.83C276.573 1029.94 287.217 1011.29 298.296 991.877C304.971 1016.81 311.416 1040.88 318.106 1065.87C327.023 1050.28 335.53 1035.41 344.136 1020.36C345.848 1021.32 347.333 1022.16 349.071 1023.14C338.168 1042.24 327.362 1061.17 316.144 1080.82Z" fill="white" stroke="white" stroke-width="3" stroke-miterlimit="10"/>
<path d="M198.29 918.609C217.348 918.628 232.646 933.956 232.526 952.914C232.412 970.887 218.3 984.55 199.878 984.524C180.935 984.497 165.675 969.321 165.679 950.511C165.683 932.164 179.557 918.591 198.29 918.609ZM198.443 923.937C183.13 924.174 170.957 936.213 171.22 950.859C171.503 966.553 184.211 979.419 199.219 979.205C214.759 978.983 227.221 966.953 226.985 952.402C226.723 936.361 214.025 923.696 198.443 923.937Z" fill="white" stroke="white" stroke-width="3" stroke-miterlimit="10"/>
<path d="M50.4548 649.336C54.161 648.996 54.7394 650.937 54.9843 652.946C55.5741 657.784 55.9942 662.642 56.5334 667.487C59.972 698.382 66.4828 728.63 75.6886 758.311C76.1041 759.65 76.9034 761.156 76.6073 762.359C76.2237 763.918 75.1522 766.112 73.945 766.439C72.7385 766.765 70.8973 765.268 69.5424 764.284C68.9652 763.865 68.8889 762.727 68.632 761.901C57.9744 727.643 50.9417 692.658 47.6844 656.928C47.5221 655.148 47.7356 653.205 48.3254 651.532C48.7125 650.435 50.0923 649.687 50.4548 649.336Z" fill="white" stroke="white" stroke-width="3" stroke-miterlimit="10"/>
<path d="M1052 655.615C1049.64 671.466 1047.98 687.464 1044.73 703.13C1040.67 722.727 1035.34 742.064 1030.44 761.485C1029.32 765.918 1027.31 767.466 1024.75 766.614C1022.24 765.78 1021.68 763.374 1023.04 759.027C1033.7 724.983 1040.68 690.209 1043.75 654.659C1043.83 653.695 1043.82 652.566 1044.32 651.83C1045.02 650.808 1046.16 649.392 1047.1 649.405C1048.31 649.423 1049.85 650.424 1050.61 651.469C1051.37 652.506 1051.32 654.123 1051.63 655.485C1051.75 655.529 1051.88 655.572 1052 655.615Z" fill="white" stroke="white" stroke-width="3" stroke-miterlimit="10"/>
<path d="M78.4076 451.11C77.8576 453.283 77.5658 454.768 77.1073 456.199C66.5532 489.145 59.3675 522.796 55.8964 557.228C55.81 558.085 55.8574 559.16 55.3699 559.728C54.4171 560.838 52.9918 562.54 52.0147 562.387C50.6947 562.18 49.3463 560.624 48.5224 559.323C47.9698 558.45 48.1454 556.999 48.2678 555.834C51.9408 520.896 59.1527 486.699 69.8639 453.241C70.2558 452.017 70.648 450.543 71.547 449.792C72.7199 448.813 74.5034 447.794 75.8281 448.008C76.8954 448.18 77.672 450.156 78.4076 451.11Z" fill="white" stroke="white" stroke-width="3" stroke-miterlimit="10"/>
<path d="M1050.8 556.898C1050.78 557.292 1050.8 557.947 1050.71 558.589C1050.42 560.883 1049.31 562.491 1046.83 562.587C1044.44 562.679 1043.7 560.839 1043.35 558.993C1042.91 556.657 1042.75 554.265 1042.49 551.895C1038.86 519.242 1031.83 487.323 1021.83 456.039C1021.31 454.421 1020.91 452.612 1021.11 450.971C1021.25 449.828 1022.32 448.221 1023.31 447.916C1024.33 447.603 1026.03 448.323 1026.93 449.14C1027.91 450.021 1028.5 451.474 1028.93 452.787C1039.8 486.427 1047.02 520.842 1050.74 555.993C1050.76 556.209 1050.77 556.426 1050.8 556.898Z" fill="white" stroke="white" stroke-width="3" stroke-miterlimit="10"/>
<path d="M507.974 1131.24C518.084 1109.66 528.159 1088.15 538.573 1065.92C547.152 1088.83 555.441 1110.96 563.736 1133.12C558.642 1134.42 557.917 1134.07 556.256 1129.6C554.447 1124.73 552.592 1119.87 550.868 1114.97C550.334 1113.45 549.641 1112.73 547.901 1112.69C540.529 1112.54 533.157 1112.29 525.792 1111.92C523.85 1111.82 522.875 1112.44 522.119 1114.21C520.207 1118.69 518.094 1123.08 516.06 1127.51C514.574 1130.75 511.878 1131.99 507.974 1131.24ZM547.597 1106.74C544.515 1098.22 541.407 1089.62 538.032 1080.28C533.876 1089.28 530.013 1097.64 525.813 1106.74H547.597Z" fill="white" stroke="white" stroke-width="3" stroke-miterlimit="10"/>
<path d="M938.326 954.556C922.292 940.428 906.595 926.596 890.605 912.507C897.883 904.238 905.082 896.057 912.54 887.583C913.864 888.706 915.132 889.78 916.653 891.068C910.549 898.01 904.563 904.817 898.424 911.799C903.614 916.377 908.633 920.805 913.973 925.515C919.902 918.802 925.747 912.182 931.815 905.311C933.175 906.467 934.376 907.488 935.905 908.788C929.972 915.538 924.14 922.173 918.055 929.095C924.716 934.971 931.275 940.755 938.025 946.709C944.078 939.858 950.026 933.125 956.242 926.089C957.593 927.228 958.869 928.303 960.352 929.552C952.994 937.904 945.771 946.104 938.326 954.556Z" fill="white" stroke="white" stroke-width="3" stroke-miterlimit="10"/>
<path d="M800.064 994.002C802.924 991.225 805.809 990.852 808.717 992.884C821.15 1001.58 833.581 1010.29 846.016 1018.99C846.894 1019.6 847.802 1020.17 849.281 1021.15C848.239 1017.34 847.376 1014.14 846.491 1010.94C843.08 998.635 839.668 986.326 836.245 974.021C835.286 970.571 836.528 967.842 839.973 965.831C846.267 988.724 852.53 1011.5 859.011 1035.08C838.935 1021.09 819.523 1007.56 800.064 994.002Z" fill="white" stroke="white" stroke-width="3" stroke-miterlimit="10"/>
<path d="M12.6004 640.066C8.83045 639.587 5.63362 638.441 3.52695 635.606C2.74204 634.55 3.21948 632.556 3.12123 630.989C4.60999 630.932 6.62154 630.226 7.49743 630.93C11.388 634.06 14.8132 633.262 18.4275 630.605C23.2374 627.069 28.2281 626.692 33.1524 630.356C37.1245 633.312 40.7319 633.634 44.8965 630.351C49.6476 626.605 54.9311 626.965 59.5995 630.67C63.3252 633.627 66.6885 633.353 70.2205 630.702C75.5718 626.687 80.8211 627.009 86.0642 630.931C89.3546 633.393 92.6653 633.989 96.1068 631.051C97.6693 629.716 99.5776 629.433 101.001 631.237C102.42 633.033 101.526 634.695 100.13 636.139C96.5048 639.891 90.259 640.657 85.0437 637.91C83.7074 637.207 82.4744 636.299 81.2248 635.44C79.0114 633.919 76.8269 633.858 74.5623 635.359C73.2994 636.195 71.993 636.991 70.6308 637.649C66.2038 639.787 61.9252 639.803 57.7316 636.865C53.0223 633.565 50.9479 633.567 46.261 636.843C41.5778 640.117 36.7247 640.028 32.2764 636.971C27.8972 633.961 24.2736 633.659 19.9985 637.152C18.0441 638.749 15.0971 639.132 12.6004 640.066Z" fill="white" stroke="white" stroke-width="3" stroke-miterlimit="10"/>
<path d="M1086.61 613.777C1083.22 612.229 1080.1 611.24 1077.49 609.495C1074.38 607.42 1071.74 607.014 1068.58 609.243C1062.85 613.287 1057.1 613.823 1051.24 609.182C1048.49 607.003 1045.23 607.159 1042.48 609.331C1036.84 613.79 1031.22 613.294 1025.71 609.415C1022.33 607.035 1019.53 607.324 1016.26 609.696C1010.25 614.069 1003.22 613.957 999.047 609.523C998.096 608.513 997.442 606.606 997.65 605.268C997.983 603.124 1000.62 602.827 1002.99 604.407C1006.89 607.001 1008.89 607.128 1012.73 604.325C1018.12 600.387 1023.39 599.974 1028.87 604.072C1032.27 606.621 1035.5 606.872 1039.22 604.107C1044.78 599.97 1049.18 599.964 1054.73 604.09C1058.44 606.847 1061.67 606.647 1065.08 604.089C1070.55 599.994 1075.82 600.365 1081.22 604.307C1085.07 607.117 1087.13 607.017 1090.95 604.418C1092.64 603.273 1094.4 602.679 1095.9 604.426C1097.52 606.324 1096.71 608.362 1094.97 609.491C1092.44 611.141 1089.58 612.29 1086.61 613.777Z" fill="white" stroke="white" stroke-width="3" stroke-miterlimit="10"/>
<path d="M91.7668 613.75C88.3688 612.229 85.1386 611.238 82.433 609.452C79.2928 607.38 76.6596 607.077 73.5186 609.275C67.912 613.199 62.2387 613.881 56.4602 609.315C53.5923 607.049 50.2885 607.109 47.4191 609.367C41.8979 613.71 36.3486 613.357 30.9322 609.541C27.32 606.996 24.3785 607.377 20.9351 609.915C15.4979 613.923 9.08885 613.849 4.66257 610.181C2.91138 608.729 1.24688 606.941 2.90738 604.661C4.60967 602.323 6.69234 603.375 8.55007 604.852C11.3501 607.079 14.3679 606.835 16.9594 604.826C22.9296 600.197 28.7008 599.956 34.7666 604.594C37.6596 606.807 40.59 606.659 43.7149 604.415C49.9816 599.914 53.9956 599.939 60.3358 604.468C63.3425 606.617 66.2135 606.838 69.0045 604.709C75.1545 600.016 80.9999 600.132 87.0962 604.873C89.8116 606.985 92.9158 606.992 95.7621 604.603C97.4113 603.218 99.3301 602.572 100.934 604.479C102.535 606.384 101.651 608.406 99.9215 609.54C97.4746 611.144 94.7098 612.264 91.7668 613.75Z" fill="white" stroke="white" stroke-width="3" stroke-miterlimit="10"/>
<path d="M1086.11 586.21C1083.22 584.886 1080.1 583.897 1077.49 582.151C1074.38 580.075 1071.73 579.673 1068.58 581.901C1062.85 585.946 1057.1 586.48 1051.24 581.839C1048.49 579.66 1045.22 579.818 1042.48 581.99C1036.84 586.449 1031.22 585.951 1025.71 582.071C1022.33 579.691 1019.52 579.984 1016.26 582.355C1010.25 586.727 1003.22 586.615 999.045 582.179C998.095 581.169 997.459 579.273 997.65 577.921C997.938 575.879 1000.7 575.272 1002.69 576.927C1006.42 580.031 1009.8 579.234 1013.3 576.655C1018.22 573.025 1023.27 572.656 1028.3 576.404C1032.17 579.287 1035.71 579.596 1039.76 576.396C1044.49 572.662 1049.78 572.835 1054.47 576.55C1058.3 579.588 1061.73 579.308 1065.37 576.584C1070.61 572.661 1075.8 572.984 1080.93 576.814C1084.34 579.357 1087.63 579.86 1091.32 577.014C1092.27 576.274 1094.37 577.001 1095.94 577.054C1095.78 578.62 1096.17 580.607 1095.36 581.671C1093.21 584.477 1090 585.583 1086.11 586.21Z" fill="white" stroke="white" stroke-width="3" stroke-miterlimit="10"/>
<path d="M91.1185 586.21C88.2235 584.888 85.1049 583.901 82.4913 582.157C79.3863 580.086 76.7431 579.666 73.5828 581.896C67.8585 585.934 62.1074 586.488 56.2433 581.844C53.4916 579.665 50.2285 579.813 47.4821 581.984C41.8438 586.442 36.2248 585.957 30.7117 582.077C27.3344 579.7 24.5307 579.974 21.2666 582.348C15.2502 586.724 8.22842 586.617 4.04782 582.186C3.09576 581.177 2.43725 579.273 2.64189 577.933C2.96937 575.788 5.61482 575.484 7.98185 577.06C11.8938 579.664 13.8736 579.793 17.7159 576.988C23.1095 573.051 28.3798 572.627 33.8542 576.726C37.2554 579.272 40.4891 579.538 44.2093 576.77C49.7752 572.629 54.1689 572.62 59.7166 576.743C63.4229 579.498 66.6557 579.312 70.0711 576.751C75.5307 572.658 80.8523 572.952 86.1953 576.982C89.5146 579.485 92.7573 579.73 96.3028 577.021C97.2715 576.281 99.3541 576.998 100.926 577.047C100.773 578.613 101.174 580.6 100.362 581.663C98.2185 584.471 95.0134 585.587 91.1185 586.21Z" fill="white" stroke="white" stroke-width="3" stroke-miterlimit="10"/>
<path d="M1086.69 640.429C1083.37 638.951 1080.22 638.02 1077.62 636.268C1074.41 634.099 1071.7 633.717 1068.43 636.017C1062.81 639.971 1057.13 640.498 1051.37 635.953C1048.5 633.686 1045.2 633.862 1042.33 636.112C1036.93 640.355 1031.45 640.078 1026.13 636.338C1022.43 633.732 1019.42 634.008 1015.85 636.66C1010.36 640.734 1003.68 640.499 999.335 636.598C997.706 635.134 996.332 633.364 997.969 631.266C999.62 629.149 1001.61 629.977 1003.38 631.415C1006.26 633.775 1009.34 633.552 1012.05 631.462C1017.91 626.951 1023.6 626.618 1029.58 631.175C1032.58 633.46 1035.57 633.396 1038.81 631.049C1044.91 626.636 1049.07 626.634 1055.15 631.041C1058.39 633.385 1061.38 633.47 1064.38 631.182C1070.36 626.629 1076.04 626.945 1081.91 631.453C1084.75 633.636 1087.89 633.728 1090.85 631.232C1092.51 629.833 1094.47 629.294 1096.01 631.249C1097.53 633.194 1096.58 635.193 1094.85 636.303C1092.39 637.881 1089.62 638.982 1086.69 640.429Z" fill="white" stroke="white" stroke-width="3" stroke-miterlimit="10"/>
<path d="M412.241 1113.6C410.255 1113 408.643 1112.52 406.825 1111.97C412.157 1093.35 417.421 1074.96 422.807 1056.15C417.433 1054.57 412.196 1053.02 406.673 1051.39C407.106 1049.68 407.491 1048.16 407.98 1046.23C420.713 1049.87 433.241 1053.46 446.113 1057.14C445.588 1058.86 445.13 1060.37 444.558 1062.24C439.2 1060.75 434.032 1059.3 428.317 1057.71C422.984 1076.25 417.681 1094.69 412.241 1113.6Z" fill="white" stroke="white" stroke-width="3" stroke-miterlimit="10"/>
<path d="M968.676 796.549C970.476 797.493 971.883 798.23 973.433 799.043C970.842 804.057 968.369 808.845 965.674 814.061C982.829 823.009 999.869 831.898 1017.25 840.966C1016.41 842.593 1015.64 844.083 1014.65 845.987C997.491 837.059 980.44 828.189 963.039 819.136C960.41 824.128 957.812 829.06 955.151 834.113C953.473 833.238 952.068 832.505 950.405 831.637C956.504 819.924 962.49 808.428 968.676 796.549Z" fill="white" stroke="white" stroke-width="3" stroke-miterlimit="10"/>
<path d="M636.746 1059.61C638.751 1059.27 640.419 1058.99 642.341 1058.67C645.461 1077.82 648.541 1096.73 651.686 1116.04C657.442 1115.14 663.057 1114.27 668.924 1113.35C669.23 1115.08 669.505 1116.63 669.852 1118.59C662.268 1119.83 654.831 1121.05 646.95 1122.33C643.544 1101.4 640.178 1080.7 636.746 1059.61Z" fill="white" stroke="white" stroke-width="3" stroke-miterlimit="10"/>
<path d="M760.619 1087.68C758.788 1088.49 757.232 1089.17 755.421 1089.96C747.003 1070.49 738.652 1051.17 730.218 1031.65C732.074 1030.83 733.628 1030.14 735.405 1029.35C743.84 1048.86 752.193 1068.19 760.619 1087.68Z" fill="white" stroke="white" stroke-width="3" stroke-miterlimit="10"/>
</g>
<defs>
<clipPath id="clip0_422_50">
<rect width="1099" height="1136" fill="white"/>
</clipPath>
</defs>
</svg>
