<?xml version="1.0" encoding="UTF-8"?>
<svg id="Calque_2" data-name="Calque 2" xmlns="http://www.w3.org/2000/svg" xmlns:xlink="http://www.w3.org/1999/xlink" viewBox="0 0 497.142857 290.285714">
  <defs>
    <style>
      .cls-1 {
        fill: #7fa65e;
      }

      .cls-1, .cls-2, .cls-3 {
        stroke-width: 0px;
      }

      .cls-2 {
        fill: none;
      }

      .cls-3 {
        fill: url(#Nouveau_motif_3);
      }
    </style>
    <pattern id="Nouveau_motif_3" data-name="Nouveau motif 3" x="0" y="0" width="255" height="336" patternTransform="translate(-587.285714 -107.285714)" patternUnits="userSpaceOnUse" viewBox="0 0 255 336">
      <g>
        <rect class="cls-2" width="255" height="336"/>
        <path class="cls-1" d="M214.776024,343.513386c6.278589,5.112031,14.887331,1.941432,21.12245-1.608068,7.82704-4.455741,14.953543-11.759005,24.25366-12.959403,2.346784-.302907,4.874644-.069693,6.857614,1.324671,1.879194,1.321392,2.948216,3.816074,1.844561,5.976607l2.741625.358319c-1.187975-3.739021-6.136102-4.751529-8.503426-1.48111-2.473011,3.416423.409896,7.482801,3.75313,8.792432,1.92542.754237,4.055868.898105,6.099419,1.070203,2.375511.200055,4.763435.295006,7.146447.192621,4.784477-.205563,9.413757-1.897977,14.193669-1.858063,1.930917.016124,1.932722-2.983861,0-3-3.353861-.028006-6.574407.871392-9.857025,1.421828-3.393532.569035-6.86871.567607-10.293372.334229-2.619835-.178532-6.574578-.089723-8.318103-2.447227-.716659-.969029-.970401-2.374332.123572-3.181473,1.013692-.747909,2.395622-.201739,2.762852.954079.367853,1.157777,2.12651,1.562478,2.741625.358319,2.065759-4.043962.008965-8.66399-3.89083-10.654739-4.245344-2.167143-9.346206-1.245035-13.600123.41524-8.865587,3.460179-15.587352,10.736026-24.4513,14.161606-3.941282,1.523156-9.012233,2.633942-12.605125-.291393-1.484774-1.208904-3.619733.901312-2.12132,2.12132h0Z"/>
        <path class="cls-1" d="M-40.223976,343.513386c6.278589,5.112031,14.887331,1.941432,21.12245-1.608068,7.82704-4.455741,14.953543-11.759005,24.25366-12.959403,2.346784-.302907,4.874644-.069693,6.857614,1.324671,1.879194,1.321392,2.948216,3.816074,1.844561,5.976607l2.741625.358319c-1.187975-3.739021-6.136102-4.751529-8.503426-1.48111-2.473011,3.416423.409896,7.482801,3.75313,8.792432,1.92542.754237,4.055868.898105,6.099419,1.070203,2.375511.200055,4.763435.295006,7.146447.192621,4.784477-.205563,9.413757-1.897977,14.193669-1.858063,1.930917.016124,1.932722-2.983861,0-3-3.353861-.028006-6.574407.871392-9.857025,1.421828-3.393532.569035-6.86871.567607-10.293372.334229-2.619835-.178532-6.574578-.089723-8.318103-2.447227-.716659-.969029-.970401-2.374332.123572-3.181473,1.013692-.747909,2.395622-.201739,2.762852.954079.367853,1.157777,2.12651,1.562478,2.741625.358319,2.065759-4.043962.008965-8.66399-3.89083-10.654739-4.245344-2.167143-9.346206-1.245035-13.600123.41524-8.865587,3.460179-15.587352,10.736026-24.4513,14.161606-3.941282,1.523156-9.012233,2.633942-12.605125-.291393-1.484774-1.208904-3.619733.901312-2.12132,2.12132h0Z"/>
        <path class="cls-1" d="M87.276024,175.513386c6.278589,5.112031,14.887331,1.941432,21.12245-1.608068,7.82704-4.455741,14.953543-11.759005,24.25366-12.959403,2.346784-.302907,4.874644-.069693,6.857614,1.324671,1.879194,1.321392,2.948216,3.816074,1.844561,5.976607l2.741625.358319c-1.187975-3.739021-6.136102-4.751529-8.503426-1.48111-2.473011,3.416423.409896,7.482801,3.75313,8.792432,1.92542.754237,4.055868.898105,6.099419,1.070203,2.375511.200055,4.763435.295006,7.146447.192621,4.784477-.205563,9.413757-1.897977,14.193669-1.858063,1.930917.016124,1.932722-2.983861,0-3-3.353861-.028006-6.574407.871392-9.857025,1.421828-3.393532.569035-6.86871.567607-10.293372.334229-2.619835-.178532-6.574578-.089723-8.318103-2.447227-.716659-.969029-.970401-2.374332.123572-3.181473,1.013692-.747909,2.395622-.201739,2.762852.954079.367853,1.157777,2.12651,1.562478,2.741625.358319,2.065759-4.043962.008965-8.66399-3.89083-10.654739-4.245344-2.167143-9.346206-1.245035-13.600123.41524-8.865587,3.460179-15.587352,10.736026-24.4513,14.161606-3.941282,1.523156-9.012233,2.633942-12.605125-.291393-1.484774-1.208904-3.619733.901312-2.12132,2.12132h0Z"/>
        <path class="cls-1" d="M214.776024,7.513386c6.278589,5.112031,14.887331,1.941432,21.12245-1.608068,7.82704-4.455741,14.953543-11.759005,24.25366-12.959403,2.346784-.302907,4.874644-.069693,6.857614,1.324671,1.879194,1.321392,2.948216,3.816074,1.844561,5.976607l2.741625.358319c-1.187975-3.739021-6.136102-4.751529-8.503426-1.48111-2.473011,3.416423.409896,7.482801,3.75313,8.792432,1.92542.754237,4.055868.898105,6.099419,1.070203,2.375511.200055,4.763435.295006,7.146447.192621,4.784477-.205563,9.413757-1.897977,14.193669-1.858063,1.930917.016124,1.932722-2.983861,0-3-3.353861-.028006-6.574407.871392-9.857025,1.421828-3.393532.569035-6.86871.567607-10.293372.334229-2.619835-.178532-6.574578-.089723-8.318103-2.447227-.716659-.969029-.970401-2.374332.123572-3.181473,1.013692-.747909,2.395622-.201739,2.762852.954079.367853,1.157777,2.12651,1.562478,2.741625.358319,2.065759-4.043962.008965-8.66399-3.89083-10.654739-4.245344-2.167143-9.346206-1.245035-13.600123.41524-8.865587,3.460179-15.587352,10.736026-24.4513,14.161606-3.941282,1.523156-9.012233,2.633942-12.605125-.291393-1.484774-1.208904-3.619733.901312-2.12132,2.12132h0Z"/>
        <path class="cls-1" d="M-40.223976,7.513386c6.278589,5.112031,14.887331,1.941432,21.12245-1.608068C-11.274486,1.449577-4.147983-5.853687,5.152134-7.054084c2.346784-.302907,4.874644-.069693,6.857614,1.324671,1.879194,1.321392,2.948216,3.816074,1.844561,5.976607l2.741625.358319c-1.187975-3.739021-6.136102-4.751529-8.503426-1.48111-2.473011,3.416423.409896,7.482801,3.75313,8.792432,1.92542.754237,4.055868.898105,6.099419,1.070203,2.375511.200055,4.763435.295006,7.146447.192621,4.784477-.205563,9.413757-1.897977,14.193669-1.858063,1.930917.016124,1.932722-2.983861,0-3-3.353861-.028006-6.574407.871392-9.857025,1.421828-3.393532.569035-6.86871.567607-10.293372.334229-2.619835-.178532-6.574578-.089723-8.318103-2.447227-.716659-.969029-.970401-2.374332.123572-3.181473,1.013692-.747909,2.395622-.201739,2.762852.954079.367853,1.157777,2.12651,1.562478,2.741625.358319,2.065759-4.043962.008965-8.66399-3.89083-10.654739-4.245344-2.167143-9.346206-1.245035-13.600123.41524C-9.911818-5.017968-16.633583,2.257878-25.497531,5.683459c-3.941282,1.523156-9.012233,2.633942-12.605125-.291393-1.484774-1.208904-3.619733.901312-2.12132,2.12132h0Z"/>
      </g>
    </pattern>
  </defs>
  <g id="motif_vague_2" data-name="motif vague 2">
    <rect class="cls-3" width="497.142857" height="290.285714"/>
  </g>
</svg>