<svg width="195" height="202" viewBox="0 0 195 202" fill="none" xmlns="http://www.w3.org/2000/svg">
<g clip-path="url(#clip0_624_306)">
<path d="M27.308 107.758C27.4658 69.2663 58.441 37.9283 97.4461 38.0211C136.267 38.1136 167.293 69.465 167.243 108.103C167.193 146.691 135.727 177.939 97.1174 177.829C58.4983 177.719 27.2316 146.335 27.308 107.758ZM97.8312 39.0403C97.8306 39.3991 97.8301 39.665 97.8297 39.9311C97.8024 59.2418 97.7751 78.5526 97.7473 97.8634C97.747 98.0742 97.7981 98.3091 97.7218 98.489C97.6458 98.6682 97.4393 98.7921 97.29 98.9403C97.1443 98.7884 96.9358 98.6595 96.8693 98.4786C96.7946 98.2751 96.8456 98.0247 96.846 97.7947C96.8817 78.4702 96.9177 59.1456 96.9537 39.8211C96.9542 39.5787 96.9545 39.3364 96.9549 39.107C93.4517 38.5655 80.1439 40.5939 77.1332 42.1141C77.1766 42.3085 77.2146 42.513 77.268 42.7133C82.0873 60.7735 86.9077 78.8334 91.7281 96.8934C91.896 97.5226 92.102 98.1455 92.2101 98.7848C92.2465 98.9995 92.0337 99.2563 91.9348 99.4939C91.7254 99.3471 91.4681 99.2367 91.3212 99.0428C91.1927 98.8732 91.1881 98.6097 91.1291 98.3875C86.4155 80.6564 81.7022 62.9252 76.9879 45.1942C76.7385 44.2561 76.4811 43.3201 76.2109 42.3222C69.6948 44.4024 63.7242 47.4219 58.1094 51.2302C58.2263 51.446 58.3127 51.6147 58.4073 51.7787C67.8069 68.0821 77.2073 84.385 86.6067 100.689C86.6925 100.837 86.8236 100.991 86.8296 101.146C86.8367 101.331 86.7785 101.633 86.6635 101.682C86.4978 101.751 86.2374 101.675 86.0521 101.588C85.9348 101.533 85.875 101.347 85.7988 101.215C76.5106 85.0462 67.2232 68.8772 57.9352 52.7087C57.7579 52.4002 57.5721 52.0967 57.3723 51.7607C52.1176 55.4883 47.5302 59.8245 43.525 64.8115C43.6998 64.9952 43.828 65.1355 43.962 65.2701C46.8852 68.205 49.8058 71.1425 52.7334 74.073C62.6413 83.9906 72.5521 93.9053 82.4598 103.823C82.7234 104.087 83.1326 104.376 82.7436 104.777C82.3478 105.186 82.0673 104.764 81.7909 104.514C81.7767 104.502 81.7639 104.487 81.7504 104.474C68.9598 91.6349 56.1692 78.7961 43.3779 65.958C43.2467 65.8263 43.107 65.703 42.972 65.5764C40.3594 68.2604 34.1167 79.0509 33.5737 81.8204C33.7102 81.9045 33.8533 81.9973 34.0006 82.0827C37.0526 83.8505 40.1103 85.6086 43.1538 87.3909C43.9226 87.841 44.683 88.2271 45.6067 88.2586C46.0548 88.274 46.4913 88.5065 46.9431 88.5742C47.282 88.6249 47.6835 88.6745 47.9766 88.544C49.6307 87.8075 51.0354 88.1233 52.2485 89.4352C52.3048 89.4104 52.3658 89.3985 52.407 89.3634C54.6797 87.4276 58.2929 89.1131 58.8882 91.7505C58.9477 92.0139 59.1649 92.2864 59.3837 92.4613C60.15 93.0738 60.499 93.8604 60.2619 94.7928C60.0889 95.4731 59.7252 96.105 59.4348 96.786C59.4687 96.8082 59.561 96.8753 59.6593 96.9321C66.0995 100.653 72.5403 104.373 78.9806 108.093C79.1463 108.189 79.3607 108.257 79.4567 108.402C79.5662 108.567 79.6662 108.859 79.5899 108.992C79.5119 109.129 79.2169 109.18 79.0128 109.191C78.8816 109.198 78.7399 109.069 78.608 108.992C76.2054 107.595 73.8038 106.195 71.4007 104.798C71.2692 104.722 71.1254 104.666 70.8665 104.544C70.99 104.761 71.0372 104.844 71.0838 104.926C72.0722 106.679 71.2617 108.765 69.3431 109.384C68.522 109.65 67.6944 109.666 66.8474 109.465C66.6409 109.416 66.3444 109.526 66.1593 109.659C65.8892 109.854 65.6825 110.137 65.4224 110.41C65.6018 110.471 65.7257 110.522 65.854 110.556C69.5013 111.532 73.1491 112.505 76.7962 113.481C76.9806 113.531 77.206 113.554 77.3283 113.675C77.4673 113.812 77.599 114.059 77.5696 114.231C77.5466 114.365 77.2854 114.497 77.106 114.552C76.9786 114.591 76.8095 114.507 76.6619 114.467C72.8334 113.429 69.0035 112.396 65.179 111.343C64.5923 111.182 64.0501 111.117 63.4434 111.305C62.9617 111.455 62.3823 111.562 61.9154 111.435C60.8172 111.135 60.1022 111.627 59.2826 112.248C57.7826 113.385 55.9676 113.899 54.1915 114.455C52.3296 115.039 50.4664 115.619 48.596 116.202L48.593 118.051C49.2029 118.28 49.7902 118.463 50.3412 118.722C50.7154 118.898 51.0448 118.957 51.4319 118.793C52.2509 118.446 53.0935 118.396 53.9681 118.585C54.1503 118.624 54.4321 118.492 54.5817 118.348C56.0633 116.929 57.8408 116.765 59.4886 117.928C59.6915 118.071 59.8552 118.281 60.0723 118.39C60.2599 118.483 60.542 118.573 60.7061 118.498C61.8404 117.979 62.9017 118.176 63.9659 118.705C64.2589 118.85 64.606 118.96 64.9288 118.961C70.0125 118.983 75.0962 118.983 80.1799 118.989C80.3835 118.989 80.5872 118.99 80.7878 118.99C81.0465 110.255 87.718 103.557 95.8978 102.928C100.159 102.6 104.033 103.753 107.379 106.436C111.381 109.647 113.366 113.9 113.603 119.019L138.634 119.06C138.569 118.887 138.518 118.746 138.463 118.607C137.926 117.246 138.37 116.049 139.68 115.37C140.968 114.701 142.347 114.78 143.731 114.9C144.028 114.925 144.388 114.992 144.618 114.861C145.103 114.585 145.521 114.19 145.971 113.84C145.228 113.002 144.509 112.19 143.794 111.384C141.942 112.686 140.693 112.17 139.748 111.374C139.183 110.897 138.655 110.471 137.894 110.35C137.556 110.296 137.207 110.075 136.948 109.838C136.664 109.578 136.42 109.561 136.075 109.653C131.171 110.973 126.265 112.281 121.359 113.593C120.118 113.925 118.884 114.28 117.634 114.572C117.435 114.619 117.056 114.449 116.963 114.272C116.797 113.958 117.07 113.755 117.372 113.653C117.481 113.616 117.593 113.587 117.704 113.558C122.595 112.264 127.486 110.97 132.377 109.676C133.614 109.348 134.851 109.021 136.115 108.687C135.978 107.666 136.274 106.851 137.092 106.286C138.442 105.353 139.91 105.122 141.463 105.688C141.777 105.802 141.973 105.786 142.226 105.572C143.156 104.786 144.216 104.613 145.346 105.05C145.766 105.212 146.142 105.488 146.562 105.725C147.228 105.061 148.019 104.598 148.986 104.436C149.126 104.413 149.292 104.134 149.326 103.951C149.628 102.337 150.438 101.11 151.968 100.425C153.28 99.837 154.615 99.8794 155.943 100.359C156.233 100.463 156.394 100.448 156.628 100.209C157.476 99.3469 158.561 99.0648 159.732 99.1587C160.084 99.187 160.3 99.1375 160.517 98.8704C161.153 98.0894 161.999 97.6353 162.986 97.5415C163.786 97.4655 164.599 97.5285 165.436 97.5298C164.626 92.5004 163.353 87.6164 161.489 82.853C161.284 82.964 161.166 83.0245 161.051 83.0907C146.033 91.7356 131.015 100.381 115.996 109.025C115.831 109.12 115.657 109.258 115.484 109.263C115.304 109.268 115.035 109.183 114.962 109.051C114.889 108.918 114.971 108.659 115.058 108.492C115.12 108.374 115.297 108.311 115.43 108.235C130.028 99.8585 144.626 91.483 159.224 83.1068C159.852 82.7464 160.477 82.3803 161.135 81.9987C158.763 76.1139 155.63 70.7216 151.76 65.7158C151.598 65.8684 151.471 65.983 151.349 66.104C138.516 78.9003 125.684 91.6977 112.848 104.491C112.57 104.767 112.266 105.282 111.82 104.811C111.416 104.384 111.896 104.091 112.166 103.822C125.025 91.0241 137.887 78.2297 150.748 65.4342C150.892 65.2908 151.026 65.1379 151.155 65.0003C148.904 61.6178 139.647 52.8912 137.321 51.9546C137.189 52.1808 137.053 52.4106 136.919 52.6417C127.558 68.8125 118.198 84.9835 108.836 101.154C108.731 101.335 108.643 101.561 108.482 101.666C108.335 101.761 108.066 101.791 107.914 101.718C107.799 101.663 107.74 101.402 107.736 101.232C107.734 101.095 107.843 100.95 107.919 100.819C117.179 84.8772 126.44 68.9364 135.701 52.9955C136.008 52.4675 136.315 51.9396 136.649 51.3648C131.055 47.4928 125.068 44.5068 118.587 42.3946C118.5 42.6656 118.421 42.8766 118.363 43.0929C113.363 61.6594 108.365 80.2262 103.364 98.7925C103.32 98.9579 103.29 99.1595 103.179 99.2664C103.048 99.3928 102.807 99.5287 102.665 99.4869C102.52 99.4442 102.397 99.2038 102.34 99.0257C102.3 98.8977 102.376 98.7275 102.416 98.5802C107.016 81.5715 111.618 64.5633 116.219 47.5546C116.703 45.7645 117.179 43.972 117.674 42.1227C111.213 40.1074 104.646 39.0681 97.8312 39.0403ZM48.5681 135.046C49.1776 134.867 49.7546 134.586 50.3466 134.55C51.1895 134.498 51.8793 134.123 52.6022 133.788C52.7935 133.699 52.9755 133.528 53.1673 133.52C53.4123 133.509 53.663 133.624 53.9113 133.685C53.8185 133.91 53.7764 134.184 53.6195 134.348C53.4372 134.538 53.1541 134.631 52.7971 134.834C53.0407 134.897 53.143 134.944 53.2469 134.948C54.4502 134.996 55.6537 135.039 56.8572 135.079C57.2028 135.091 57.6174 135.038 57.6515 135.52C57.6879 136.035 57.2605 136.054 56.8909 136.085C55.2544 136.219 53.6378 136.164 52.0566 135.646C50.9929 135.297 49.9797 135.493 49.0029 136.006C48.6566 136.188 48.5264 136.412 48.5288 136.814C48.5444 139.383 48.5298 141.951 48.5276 144.52C48.5274 144.704 48.5472 144.887 48.5602 145.117C48.9674 145.117 49.3274 145.113 49.6874 145.12C50.023 145.126 50.3681 145.235 50.3063 145.613C50.2758 145.8 49.9416 146.022 49.7116 146.071C49.3491 146.147 48.9587 146.09 48.5596 146.089C48.5435 146.321 48.5243 146.47 48.5241 146.619C48.5195 149.744 48.525 152.868 48.5055 155.993C48.5027 156.436 48.6528 156.741 48.962 157.045C53.3795 161.385 58.3009 165.05 63.7026 168.073C64.6864 168.623 65.6914 169.136 66.734 169.691C68.5056 167.27 70.2409 164.899 71.9813 162.52C71.0611 162.161 70.1996 161.847 69.3602 161.482C69.1684 161.398 68.9058 161.106 68.9371 160.97C68.983 160.77 69.2376 160.528 69.449 160.47C71.6614 159.86 73.6227 158.748 75.5127 157.492C75.7451 157.337 75.9405 157.106 76.1078 156.878C80.603 150.738 85.0925 144.594 89.5813 138.449C89.6768 138.318 89.7534 138.174 89.8855 137.96C88.6905 137.958 87.5825 137.984 86.4764 137.95C82.3955 137.825 78.5687 136.959 75.1821 134.469C73.3981 133.158 71.4297 132.086 69.2886 131.398C66.4609 130.488 63.6067 130.715 60.7528 131.202C56.8802 131.862 53.0811 131.781 49.3993 130.23C49.1597 130.129 48.8654 130.158 48.5761 130.124L48.5681 135.046ZM66.9731 125.819C68.06 125.873 69.0098 125.893 69.9544 125.974C71.7088 126.125 73.4717 126.235 75.2098 126.502C77.2928 126.821 79.0879 127.906 80.87 128.956C82.5842 129.965 84.4249 130.478 86.3959 130.478C88.9645 130.477 91.5334 130.375 94.1017 130.391C95.1193 130.398 95.8502 130.116 96.35 129.193C96.549 128.825 96.6285 128.595 96.3548 128.233C95.5336 127.148 94.7514 126.034 93.9578 124.928C93.8469 124.774 93.7054 124.613 93.6744 124.438C93.6468 124.281 93.7021 124.028 93.813 123.952C93.9263 123.875 94.1809 123.909 94.3205 123.988C94.4757 124.076 94.5781 124.265 94.6911 124.418C95.3546 125.321 96.0146 126.227 96.7646 127.253C96.7835 126.915 96.8016 126.733 96.8024 126.551C96.8077 125.401 96.8065 124.251 96.8136 123.101C96.8158 122.743 96.8475 122.344 97.3193 122.353C97.7852 122.361 97.8108 122.758 97.8114 123.117C97.8134 124.267 97.8093 125.417 97.8124 126.567C97.8128 126.701 97.844 126.834 97.8727 127.061C98.0881 126.772 98.2373 126.574 98.3847 126.374C98.9423 125.618 99.4823 124.848 100.072 124.118C100.184 123.979 100.491 123.997 100.708 123.943C100.731 124.165 100.797 124.393 100.763 124.606C100.738 124.759 100.583 124.893 100.481 125.033C99.8169 125.948 99.1415 126.855 98.4886 127.779C97.7198 128.866 97.6561 128.499 98.5072 129.642C98.6772 129.871 98.9918 130.132 99.2448 130.137C102.504 130.206 105.766 130.314 109.025 130.25C115.087 130.13 121.146 130.142 127.2 130.46C128.686 130.538 130.191 130.702 131.632 131.053C134.179 131.676 136.003 133.149 136.446 135.909C136.54 136.493 136.548 137.091 136.603 137.682C136.758 139.346 137.339 140.745 139.016 141.419C139.725 141.705 140.435 142.07 141.176 142.174C142.707 142.387 144.258 142.529 145.803 142.557C148.716 142.609 151.632 142.563 154.546 142.54C154.686 142.539 154.94 142.374 154.944 142.277C154.977 141.424 154.965 140.57 154.966 139.659C154.384 139.708 153.888 139.795 153.399 139.767C153.2 139.756 153.015 139.494 152.823 139.347C152.978 139.178 153.107 138.965 153.296 138.855C153.446 138.768 153.669 138.809 153.86 138.791C154.216 138.756 154.572 138.72 154.962 138.681C154.963 138.196 155 137.772 154.944 137.359C154.925 137.213 154.67 136.975 154.54 136.986C153.685 137.059 152.76 137.013 151.996 137.335C149.996 138.176 147.919 138.136 145.833 138.158C145.492 138.162 145.126 138.125 145.109 137.69C145.091 137.208 145.482 137.174 145.84 137.171C146.704 137.164 147.567 137.17 148.43 137.169C149.502 137.166 150.498 136.855 151.472 136.383C151.032 136.256 150.591 136.171 150.146 136.111C149.784 136.061 149.392 135.996 149.442 135.54C149.492 135.079 149.887 135.082 150.25 135.154C150.775 135.259 151.296 135.387 151.823 135.489C152.847 135.687 153.874 135.873 154.962 136.075C154.963 135.716 154.933 135.464 154.969 135.223C155.061 134.613 154.827 134.179 154.366 133.786C153.533 133.079 152.751 132.315 151.917 131.609C151.772 131.486 151.453 131.452 151.26 131.516C149.612 132.064 147.965 131.948 146.434 131.257C145.504 130.837 144.603 130.419 143.613 130.134C142.497 129.814 141.711 129.003 141.593 127.796C141.469 126.545 142.317 125.821 143.298 125.301C144.592 124.616 145.956 124.627 147.302 125.163C147.679 125.313 147.916 125.295 148.27 125.05C148.674 124.771 149.208 124.544 149.689 124.538C151.377 124.515 152.512 125.488 153.185 126.919C153.808 128.243 153.672 129.571 152.636 130.712C152.59 130.763 152.565 130.833 152.507 130.935C153.296 131.646 154.071 132.345 154.967 133.153C154.967 132.787 154.968 132.582 154.968 132.378C154.972 129.656 154.961 126.934 154.992 124.212C154.999 123.682 154.87 123.325 154.43 123.007C154.082 122.756 153.809 122.388 153.54 122.042C153.084 121.458 152.048 121.331 151.524 121.829C150.365 122.932 148.961 123.233 147.428 123.053C146.075 122.895 144.886 122.352 143.904 121.394C143.555 121.054 143.201 120.913 142.676 120.996C141.742 121.143 140.829 120.937 140.042 120.402C139.616 120.112 139.192 120.03 138.698 120.029C123.833 120.021 108.968 120.01 94.1024 119.987C84.7225 119.973 75.3425 119.941 65.9626 119.917C65.7306 119.916 65.4986 119.916 65.2666 119.916C65.2565 119.992 65.2465 120.068 65.2364 120.145C65.4329 120.209 65.6293 120.274 65.8259 120.338C66.4204 120.532 67.0646 120.636 67.6006 120.935C69.4952 121.991 69.5835 123.966 67.8334 125.252C67.5945 125.427 67.3382 125.579 66.9731 125.819ZM151.471 150.424C147.426 150.723 143.444 150.899 139.456 150.693C137.121 150.573 134.767 150.532 132.462 150.184C126.295 149.252 120.626 147.037 115.674 143.166C113.323 141.329 110.72 139.963 107.917 138.979C106.917 138.628 105.866 138.419 104.839 138.144C104.865 138.426 104.947 138.573 105.046 138.708C109.459 144.79 113.874 150.871 118.292 156.949C118.437 157.149 118.594 157.36 118.794 157.496C120.67 158.775 122.631 159.886 124.83 160.534C125.078 160.607 125.267 160.878 125.484 161.057C125.297 161.25 125.124 161.46 124.917 161.627C124.788 161.731 124.61 161.778 124.449 161.837C123.779 162.084 123.107 162.327 122.388 162.589C124.037 164.857 125.657 167.067 127.251 169.295C127.518 169.667 127.728 169.703 128.132 169.5C137.169 164.968 144.83 158.741 151.161 150.871C151.264 150.743 151.349 150.6 151.471 150.424ZM124.556 171.231C124.552 171.179 124.548 171.126 124.544 171.074C123.25 171.195 121.959 171.357 120.662 171.426C118.832 171.524 117.017 171.4 115.295 170.692C114.494 170.363 113.827 169.876 113.486 169.028C112.83 167.394 112.167 165.763 111.474 164.145C111.388 163.943 111.126 163.728 110.91 163.681C107.398 162.926 103.839 162.49 100.251 162.394C97.6854 162.325 95.1132 162.391 92.5465 162.477C89.4954 162.579 86.4774 163.009 83.4904 163.634C83.2606 163.682 82.982 163.914 82.8884 164.13C82.189 165.745 81.5543 167.389 80.8428 168.998C80.6579 169.417 80.3397 169.848 79.965 170.095C79.3996 170.467 78.7546 170.769 78.1017 170.95C76.1139 171.503 74.0819 171.449 72.05 171.236C71.6692 171.196 71.2904 171.137 70.9104 171.089C70.5378 171.042 70.1647 170.998 69.7919 170.953C69.7906 171.016 69.7893 171.078 69.788 171.14C88.0345 178.689 106.291 178.712 124.556 171.231ZM97.2435 130.367C92.6515 141.151 88.127 151.777 83.5571 162.51C88.132 161.699 92.6426 161.316 97.1896 161.323C101.738 161.331 106.25 161.727 110.825 162.556C106.291 151.81 101.801 141.169 97.2435 130.367ZM81.7867 118.95L112.62 119C112.346 113.487 110.078 109.096 105.404 106.21C100.069 102.916 94.5193 102.882 89.148 106.122C84.4014 108.986 82.0895 113.391 81.7867 118.95ZM101.275 133.144C101.251 133.226 101.227 133.308 101.204 133.391C102.009 134.504 102.801 135.628 103.632 136.722C103.796 136.937 104.099 137.133 104.363 137.173C108.552 137.814 112.227 139.617 115.672 142.01C117.604 143.352 119.526 144.762 121.618 145.811C126.004 148.011 130.664 149.335 135.611 149.589C140.729 149.853 145.839 149.915 150.953 149.5C151.888 149.424 152.631 149.212 153.114 148.318C153.466 147.665 153.96 147.089 154.386 146.474C154.466 146.358 154.52 146.223 154.62 146.031C154.269 146.052 154.003 146.062 153.737 146.084C152.611 146.178 151.486 146.296 150.358 146.366C146.336 146.613 142.314 146.596 138.291 146.357C133.933 146.098 130.268 144.485 127.551 140.982C126.882 140.12 126.266 139.216 125.639 138.322C124.682 136.958 123.548 135.773 121.899 135.328C119.743 134.746 117.577 134.117 115.373 133.82C112.532 133.436 109.652 133.314 106.785 133.17C104.952 133.077 103.112 133.147 101.275 133.144ZM47.6052 130.303C46.7009 129.852 45.8568 129.551 45.1571 129.048C44.512 128.585 43.917 128.39 43.1203 128.457C41.869 128.563 40.7015 128.226 39.8752 127.203C39.5986 126.86 39.3213 126.733 38.9124 126.724C36.4198 126.666 33.9276 126.594 31.4352 126.531C31.2905 126.527 31.145 126.555 30.9263 126.575C34.0813 137.622 39.6038 147.236 47.5597 155.635L47.5845 140.54C46.7272 140.583 45.909 140.619 45.0916 140.666C44.744 140.686 44.3747 140.678 44.3339 140.256C44.2901 139.803 44.6763 139.714 45.0346 139.671C45.2244 139.649 45.4177 139.659 45.6093 139.65C46.2592 139.62 46.9091 139.588 47.5544 139.557C47.5807 139.47 47.6109 139.416 47.611 139.363C47.6171 137.523 47.6123 135.682 47.6299 133.842C47.6339 133.433 47.3738 133.414 47.103 133.418C44.8241 133.445 42.545 133.468 40.2666 133.522C39.1572 133.549 38.05 133.654 36.9407 133.692C36.4831 133.708 36.015 133.679 35.5672 133.592C35.3975 133.558 35.1594 133.304 35.1569 133.147C35.1542 132.987 35.3741 132.764 35.55 132.678C35.7219 132.593 35.9616 132.635 36.1712 132.639C36.9569 132.651 37.744 132.708 38.5278 132.677C39.2836 132.648 40.036 132.532 40.7899 132.454C40.0828 131.822 39.2831 131.55 38.423 131.433C38.0597 131.384 37.6758 131.294 37.7553 130.833C37.8321 130.388 38.2472 130.364 38.5875 130.46C39.3219 130.667 40.1232 130.798 40.7506 131.193C42.8832 132.535 45.2332 132.407 47.6017 132.411L47.6052 130.303ZM99.2513 130.706C99.7991 131.439 100.172 132.14 100.737 132.612C101.022 132.85 101.653 132.683 102.127 132.687C102.414 132.689 102.702 132.666 102.989 132.657C108.658 132.48 114.292 132.73 119.826 134.109C121.907 134.628 123.948 135.255 125.361 137.026C126.017 137.849 126.62 138.716 127.213 139.587C129.763 143.329 133.285 145.407 137.802 145.746C142.724 146.116 147.647 146.096 152.566 145.645C153.345 145.574 154.124 145.512 154.93 145.443L154.933 143.145C154.288 143.144 153.681 143.148 153.074 143.141C149.757 143.106 146.44 143.079 143.123 143.024C141.77 143.002 140.47 142.691 139.205 142.199C137.38 141.488 136.285 140.219 136.062 138.247C136.009 137.772 135.949 137.295 135.931 136.817C135.836 134.305 134.537 132.488 132.097 131.762C130.842 131.388 129.516 131.136 128.21 131.074C124.131 130.881 120.048 130.741 115.965 130.698C110.654 130.642 105.341 130.699 100.029 130.707C99.8259 130.707 99.6229 130.706 99.2513 130.706ZM52.1983 98.7032C53.1144 98.5844 54.0408 98.5422 54.9275 98.3326C56.6323 97.9294 58.1106 97.1192 59.1133 95.6107C59.685 94.7508 59.6373 93.6703 58.9332 93.1761C58.425 92.8195 58.1673 92.3814 58.0088 91.7963C57.3855 89.4948 53.9174 88.3981 52.4869 90.4778C52.1798 90.9243 51.8533 90.7998 51.5725 90.3312C51.3476 89.9557 51.0421 89.5787 50.6801 89.3453C49.8985 88.8414 49.0606 88.9789 48.2693 89.3784C47.7127 89.6594 47.196 89.6255 46.6124 89.4242C46.0035 89.2142 45.3501 89.0643 44.7088 89.0311C43.4298 88.9649 42.1622 89.163 41.3325 90.2506C40.6607 91.1314 39.9078 91.4711 38.7919 91.4474C37.357 91.417 35.9699 91.7761 34.8968 92.8563C33.8183 93.942 33.8281 95.5978 34.923 96.6636C35.8973 97.6121 37.1132 98.0553 38.4325 97.9687C39.7044 97.8852 40.8289 98.1314 41.9606 98.6988C43.7302 99.5861 45.5369 99.62 47.2879 98.5791C47.9198 98.2035 48.5833 98.1901 49.2871 98.3053C50.2479 98.4625 51.2167 98.5714 52.1983 98.7032ZM166.203 107.234L166.159 107.234C166.16 106.659 166.2 106.081 166.151 105.511C166.101 104.929 166.073 104.306 165.84 103.788C165.348 102.692 164.384 102.076 163.258 101.755C161.726 101.317 160.355 101.753 159.063 102.603C158.286 103.114 158.065 103.074 157.429 102.406C156.515 101.446 155.428 100.908 154.082 100.858C152.206 100.787 150.663 101.93 150.265 103.75C150.216 103.974 150.187 104.202 150.155 104.429C150.08 104.958 149.782 105.214 149.248 105.303C148.803 105.378 148.34 105.501 147.95 105.719C146.656 106.443 146.644 107.934 147.969 108.601C148.591 108.914 149.346 109.031 150.053 109.084C150.631 109.127 151.05 109.269 151.448 109.708C153.374 111.832 156.406 112.495 158.6 110.29C159.21 109.677 159.428 109.72 160.18 110.151C161.834 111.1 163.583 111.229 165.396 110.728C165.927 110.581 166.239 110.267 166.209 109.648C166.17 108.845 166.202 108.039 166.203 107.234ZM28.7442 100.571C29.6101 100.802 30.3997 101.026 31.1981 101.214C31.3559 101.251 31.5727 101.188 31.7191 101.1C33.2464 100.178 34.8776 99.9504 36.5878 100.405C38.2468 100.846 39.5515 101.809 40.4865 103.254C40.6763 103.547 40.8441 103.743 41.2629 103.629C42.7922 103.215 44.1204 103.715 45.2414 104.721C45.9549 105.361 46.8127 105.378 47.6406 105.635C47.7194 104.673 47.3389 104.047 46.499 103.757C46.2636 103.676 46.0252 103.603 45.7917 103.517C44.0426 102.87 42.6608 101.832 42.0291 99.9914C41.981 99.8515 41.9141 99.658 41.8032 99.6092C40.9787 99.2463 40.249 98.6549 39.2274 98.8141C37.7544 99.0437 36.3619 98.6881 35.1103 97.8894C34.1391 97.2696 33.4326 96.4291 33.3091 95.2236C33.1319 93.4938 34.0105 92.0713 35.7485 91.257C36.8811 90.7264 38.0841 90.55 39.3239 90.5308C39.5926 90.5266 39.9658 90.4964 40.1093 90.3256C40.86 89.4325 41.6755 88.6521 42.9809 88.3192C39.6318 86.3796 36.4154 84.5168 33.149 82.625C30.9124 88.4612 29.4112 94.3742 28.7442 100.571ZM52.7429 127.805C52.7456 127.821 52.7483 127.837 52.751 127.853C53.2389 127.764 53.7327 127.699 54.2134 127.581C54.9086 127.409 55.444 127.022 55.5849 126.277C55.7425 125.445 55.5667 124.733 54.791 124.23C54.2172 123.858 54.2494 123.52 54.8303 123.155C55.4797 122.748 55.6999 122.256 55.5699 121.504C55.281 119.831 53.7615 118.928 52.0476 119.518C51.1854 119.816 50.472 119.771 49.6422 119.388C47.1376 118.232 44.6639 119.22 43.6035 121.727C43.3299 122.373 42.896 122.837 42.29 123.19C41.7651 123.496 41.2139 123.812 40.8021 124.245C39.7004 125.403 40.0239 126.822 41.5433 127.311C42.2833 127.549 43.1254 127.455 43.915 127.559C44.2726 127.607 44.643 127.718 44.9579 127.891C45.4756 128.175 45.9232 128.595 46.453 128.847C47.8105 129.493 49.2047 129.564 50.3847 128.528C51.0738 127.922 51.7073 127.52 52.6283 127.803C52.6633 127.814 52.7045 127.805 52.7429 127.805ZM50.4526 129.629C52.1265 130.205 53.7678 130.747 55.4842 130.666C57.737 130.559 59.99 130.339 62.2272 130.047C65.8943 129.568 69.3784 130.004 72.6147 131.868C73.9751 132.651 75.3169 133.471 76.6304 134.33C78.091 135.285 79.6528 135.976 81.3485 136.375C83.6013 136.904 85.8917 137.057 88.1967 137.046C88.9817 137.043 89.8889 137.236 90.5176 136.911C91.1629 136.576 91.5423 135.722 92.0261 135.086C92.3903 134.607 92.7354 134.114 93.0741 133.648C91.1948 133.645 89.3763 133.599 87.5603 133.647C83.4571 133.758 79.6835 132.725 76.2099 130.546C75.5968 130.161 74.9454 129.818 74.2747 129.548C71.765 128.536 69.1081 128.318 66.4437 128.244C62.8043 128.142 59.1628 128.112 55.5221 128.056C55.3914 128.054 55.2462 128.066 55.131 128.121C54.1279 128.597 53.0701 128.662 51.9841 128.591C51.7987 128.579 51.5719 128.659 51.4208 128.772C51.1011 129.01 50.8188 129.299 50.4526 129.629ZM123.446 161.155C115.38 157.409 109.512 151.25 104.202 144.433C107.357 151.916 110.513 159.399 113.682 166.915C116.182 163.649 119.802 162.449 123.446 161.155ZM70.951 161.071C74.571 162.377 78.2234 163.584 80.6852 166.864C83.8886 159.334 87.0666 151.863 90.2447 144.393C84.9075 151.216 79.0151 157.344 70.951 161.071ZM28.4007 108.409C28.4898 108.441 28.5987 108.516 28.7022 108.509C29.4498 108.46 29.9903 108.85 30.5573 109.271C31.7076 110.127 33.412 110.033 34.5752 109.119C35.4459 108.435 35.4494 108.43 36.4031 109.06C37.4756 109.769 38.5748 109.789 39.6422 109.109C40.1575 108.781 40.6072 108.768 41.1543 108.974C41.7961 109.215 42.4559 109.454 43.129 109.56C44.7729 109.818 46.1785 108.202 45.6535 106.716C45.1184 105.201 43.165 104.12 41.6082 104.479C40.4636 104.743 40.3814 104.73 39.7178 103.728C39.1291 102.839 38.3535 102.178 37.4203 101.691C35.4449 100.658 32.045 100.838 30.7584 103.579C30.3311 104.49 29.879 105.03 28.8341 104.955C28.7014 104.945 28.4301 105.205 28.4248 105.347C28.3873 106.359 28.4024 107.373 28.4007 108.409ZM142.38 115.672C142.369 115.64 142.358 115.609 142.348 115.577C141.592 115.753 140.8 115.841 140.088 116.126C139.106 116.518 138.845 117.379 139.273 118.349C139.798 119.54 140.973 120.241 142.529 120.121C143.38 120.056 143.968 120.365 144.601 120.861C145.207 121.336 145.904 121.771 146.632 121.994C148.025 122.42 149.513 122.509 150.658 121.446C151.481 120.681 152.176 120.484 153.247 120.865C154.583 121.339 156.029 120.658 156.736 119.423C156.99 118.978 157.077 118.496 156.844 117.999C156.232 116.694 154.406 115.844 153.067 116.335C152.284 116.623 151.799 116.444 151.292 115.81C149.975 114.165 146.849 113.722 145.339 115.399C144.938 115.844 144.425 115.911 143.863 115.834C143.37 115.767 142.875 115.725 142.38 115.672ZM56.4352 126.704C57.1559 126.53 57.8538 126.446 58.48 126.189C59.3602 125.827 60.2034 125.801 61.1099 126.037C62.1093 126.297 63.0575 126.121 63.859 125.433C64.1968 125.143 64.5286 125.087 64.9671 125.166C66.1992 125.388 67.1863 124.918 67.9249 123.937C68.358 123.362 68.358 122.577 67.8119 122.17C67.2645 121.762 66.6063 121.393 65.9479 121.272C65.2322 121.141 64.7249 120.954 64.3461 120.285C63.7401 119.215 62.2987 118.724 61.2522 119.269C60.4666 119.678 59.9241 119.609 59.3439 118.96C59.0751 118.66 58.6731 118.449 58.2946 118.281C57.191 117.789 55.9995 118.129 55.2159 119.134C55.8701 119.75 56.3075 120.496 56.4581 121.396C56.619 122.357 56.3079 123.159 55.5887 123.785C56.1094 124.407 56.3916 125.38 56.4352 126.704ZM56.3332 127.586C56.7233 127.606 57.3329 127.662 57.9427 127.665C60.7998 127.681 63.6585 127.626 66.5137 127.703C70.4187 127.809 74.1702 128.414 77.5612 130.656C79.7809 132.124 82.3658 132.893 85.0489 132.997C87.7464 133.102 90.4514 133.019 93.153 133.011C93.2985 133.011 93.5056 132.992 93.5791 132.9C94.0806 132.267 94.5539 131.612 94.9918 131.024C93.5783 131.022 92.2197 131.026 90.8611 131.016C88.9842 131.003 87.1043 131.037 85.2312 130.943C83.3764 130.849 81.7226 130.102 80.1288 129.17C78.3769 128.145 76.5895 127.114 74.5157 126.934C71.2155 126.648 67.9071 126.457 64.6015 126.236C64.4204 126.223 64.2004 126.253 64.0541 126.349C62.9449 127.072 61.7723 127.125 60.5226 126.799C60.1377 126.699 59.6875 126.706 59.2974 126.795C58.2432 127.037 57.2053 127.349 56.3332 127.586ZM61.0594 107.373C61.6607 107.322 62.2974 107.314 62.9162 107.205C63.8897 107.033 64.8207 106.733 65.4572 105.892C66.2401 104.857 65.9668 103.596 64.8261 102.967C63.6449 102.317 62.0529 102.591 61.1538 103.601C60.7957 104.003 60.4219 104.024 60.0114 103.677C59.8383 103.531 59.6691 103.36 59.4672 103.27C57.5308 102.403 54.499 103.349 53.3849 105.143C53.0513 105.681 52.9679 106.185 53.3618 106.742C53.5022 106.941 53.6144 107.259 53.5596 107.478C53.3821 108.186 53.7034 108.613 54.2372 108.975C55.585 109.887 57.6339 109.6 58.8033 108.207C59.4274 107.463 60.0581 107.05 61.0594 107.373ZM126.386 169.736C124.722 167.436 123.168 165.279 121.593 163.138C121.513 163.029 121.216 162.978 121.072 163.033C119.333 163.701 117.641 164.478 116.183 165.652C115.568 166.148 115.001 166.75 114.557 167.402C113.984 168.24 114.197 169.053 115.068 169.551C115.606 169.859 116.214 170.093 116.82 170.229C118.767 170.668 120.742 170.568 122.705 170.344C123.894 170.209 125.07 169.958 126.386 169.736ZM68.0442 169.544C68.1796 169.605 68.2602 169.658 68.3484 169.679C70.8971 170.277 73.4775 170.57 76.0945 170.391C77.1845 170.317 78.2662 170.129 79.2278 169.554C80.1372 169.009 80.3918 168.191 79.7953 167.318C79.3503 166.666 78.779 166.069 78.1636 165.572C76.7228 164.408 75.0463 163.645 73.3402 162.948C73.0265 162.82 72.8671 162.901 72.6822 163.161C71.7935 164.407 70.8854 165.64 69.9845 166.877C69.3447 167.756 68.7053 168.635 68.0442 169.544ZM44.7215 118.883C44.539 118.675 44.4259 118.533 44.2996 118.405C43.6291 117.72 42.9752 117.017 42.2723 116.367C42.0114 116.126 41.65 115.921 41.3049 115.856C39.7995 115.572 38.2863 115.325 36.7702 115.103C34.4101 114.758 32.8022 113.498 31.9687 111.26C31.9353 111.17 31.9209 111.061 31.8597 110.997C31.7247 110.856 31.5817 110.709 31.4131 110.617C30.8794 110.327 30.338 110.049 29.789 109.789C29.3632 109.587 28.9215 109.419 28.4868 109.236C28.4206 109.292 28.3543 109.349 28.2881 109.405C28.5067 112.139 28.7253 114.873 28.9404 117.563C29.4497 117.59 29.8111 117.631 30.1701 117.616C30.3391 117.61 30.5468 117.539 30.6637 117.423C31.7767 116.321 33.1487 115.97 34.6341 116.191C36.1295 116.415 37.4546 116.975 37.9072 118.655C37.9407 118.78 38.2091 118.917 38.3696 118.919C40.3252 118.94 42.281 118.937 44.2367 118.937C44.362 118.937 44.4872 118.91 44.7215 118.883ZM164.474 122.914C163.088 123.446 161.768 123.258 160.438 122.856C160.2 122.784 159.868 122.914 159.613 123.027C158.904 123.341 158.238 123.77 157.506 124.005C157.045 124.152 156.498 124.031 155.976 124.03L155.956 135.984C157.001 135.605 157.611 134.852 158.161 134.005C158.061 133.895 157.999 133.825 157.935 133.756C156.662 132.376 156.909 130.385 158.541 129.437C159.1 129.112 159.786 128.961 160.434 128.848C160.811 128.783 161.062 128.677 161.269 128.364C161.703 127.709 162.319 127.329 163.099 127.181C163.268 127.149 163.491 126.953 163.538 126.789C163.865 125.649 164.154 124.497 164.448 123.348C164.479 123.226 164.465 123.093 164.474 122.914ZM68.681 103.231C68.476 103.106 68.2994 102.994 68.1187 102.89C65.1004 101.14 62.0839 99.3879 59.0569 97.6537C58.8838 97.5545 58.5514 97.5039 58.4168 97.6013C56.9322 98.6765 55.2822 99.2785 53.4597 99.3986C52.9649 99.4312 52.774 99.58 52.704 100.131C52.4147 102.407 51.8529 104.585 49.9352 106.123C49.913 106.14 49.9183 106.193 49.9026 106.268C50.7208 106.483 51.539 106.699 52.4806 106.947C52.0929 106.044 52.2456 105.314 52.7147 104.659C53.0024 104.257 53.3079 103.835 53.6969 103.544C55.864 101.925 58.1763 101.502 60.6737 102.816C62.9148 101.079 65.0528 101.409 66.6234 103.701C67.3075 103.545 67.9679 103.394 68.681 103.231ZM149.273 130.975C150.185 131.022 151.029 130.806 151.794 130.32C152.47 129.89 152.813 129.195 152.708 128.458C152.542 127.291 151.768 125.881 150.333 125.476C149.8 125.326 149.211 125.279 148.815 125.708C148.244 126.326 147.717 126.309 146.986 125.982C145.459 125.3 143.699 125.658 142.8 126.715C142.292 127.313 142.267 127.845 142.719 128.488C143.252 129.246 144.044 129.472 144.907 129.575C145.184 129.608 145.535 129.638 145.71 129.811C146.714 130.804 147.991 130.887 149.273 130.975ZM95.4149 132.231C95.3752 132.198 95.3356 132.165 95.2959 132.132C89.7175 139.783 84.1392 147.435 78.5608 155.086C78.8457 155.028 79.0268 154.888 79.2027 154.741C82.1716 152.268 84.874 149.528 87.292 146.519C89.6569 143.576 91.9449 140.576 93.3832 137.032C94.0366 135.422 94.7363 133.831 95.4149 132.231ZM99.1843 132.139C99.1414 132.163 99.0984 132.187 99.0554 132.21C99.3707 132.962 99.6729 133.72 100.004 134.465C100.803 136.265 101.46 138.151 102.452 139.839C105.852 145.62 110.226 150.599 115.349 154.923C115.481 155.035 115.634 155.123 115.776 155.222C115.799 155.195 115.821 155.168 115.843 155.142C110.29 147.474 104.737 139.807 99.1843 132.139ZM47.6528 117.988C47.6532 117.79 47.6534 117.583 47.6538 117.375C47.6609 114.119 47.6682 110.862 47.6751 107.605C47.6766 106.91 47.3288 106.492 46.6319 106.352C46.6026 106.346 46.5665 106.374 46.5001 106.398C46.7894 107.408 46.6896 108.362 46.0038 109.202C45.3245 110.034 44.4059 110.411 43.3255 110.504C43.6284 112.154 42.8105 113.182 41.5463 113.959C41.5845 114.046 41.5949 114.107 41.6301 114.144C42.9038 115.497 44.1778 116.849 45.4604 118.194C45.5403 118.277 45.6989 118.351 45.8057 118.334C46.4075 118.238 47.0047 118.113 47.6528 117.988ZM29.1692 118.554C29.3271 119.443 29.4626 120.266 29.6214 121.085C29.7865 121.936 29.9482 122.041 30.8146 121.903C30.9632 121.879 31.1202 121.839 31.2477 121.763C31.7367 121.473 32.1463 121.601 32.56 121.934C32.9613 122.258 33.3745 122.576 33.818 122.835C35.0975 123.584 36.9838 123.434 37.908 122.541C38.6693 121.805 38.5791 120.654 37.6863 120.082C37.2944 119.831 37.1595 119.501 37.0454 119.066C36.9266 118.612 36.7061 118.095 36.3617 117.807C34.9574 116.634 32.5307 116.816 31.2771 118.137C30.9593 118.472 30.6342 118.64 30.1645 118.564C29.8718 118.517 29.5654 118.554 29.1692 118.554ZM154.742 122.007C155.952 123.309 157.433 123.606 158.826 122.466C159.534 121.887 160.178 121.775 161.034 122.083C162.097 122.466 163.202 122.514 164.282 122.021C164.649 121.853 164.854 121.625 164.916 121.222C165.075 120.203 165.224 119.179 165.449 118.173C165.553 117.705 165.371 117.548 164.996 117.437C163.532 117.002 162.126 117.245 160.839 117.967C160.103 118.381 159.441 118.808 158.555 118.569C158.42 118.532 158.226 118.564 158.11 118.641C157.945 118.752 157.795 118.914 157.694 119.087C157.43 119.54 157.296 120.121 156.93 120.45C156.265 121.049 155.469 121.503 154.742 122.007ZM147.194 109.231C146.36 108.299 146.343 108.234 146.079 106.99C146.028 106.747 145.873 106.487 145.689 106.319C144.812 105.514 143.602 105.509 142.677 106.33C142.215 106.74 141.802 106.811 141.224 106.561C140.102 106.076 138.978 106.203 137.905 106.771C137.288 107.099 136.853 107.553 136.97 108.323C137.08 109.049 137.592 109.453 138.242 109.552C139.036 109.674 139.587 110.089 140.147 110.609C141.124 111.514 142.183 111.538 143.193 110.677C143.713 110.234 144.198 110.094 144.866 110.264C145.727 110.483 146.751 109.987 147.194 109.231ZM48.6154 106.877L48.6019 115.126C50.3489 114.734 51.9906 114.153 53.4917 113.253C54.5671 112.609 55.0298 111.501 55.3955 110.316C55.2494 110.266 55.1485 110.225 55.0439 110.198C53.9143 109.906 52.9786 109.389 52.6358 108.163C52.6094 108.068 52.5269 107.94 52.4453 107.917C51.1944 107.568 49.9395 107.234 48.6154 106.877ZM61.2567 108.129C61.1326 108.128 60.9029 108.129 60.6732 108.127C60.1235 108.123 59.385 108.601 59.2186 109.093C59.1896 109.179 59.2231 109.333 59.2867 109.396C59.8493 109.959 60.4837 110.436 61.2961 110.524C62.9913 110.707 64.4904 110.31 65.6122 108.92C65.9509 108.501 66.3659 108.456 66.8967 108.544C67.5422 108.651 68.2289 108.692 68.871 108.591C69.8092 108.444 70.3761 107.787 70.5823 106.87C70.7752 106.012 70.3651 105.083 69.5731 104.6C68.7784 104.115 67.9388 104.088 67.1241 104.565C66.9655 104.657 66.8142 104.856 66.7693 105.034C66.4592 106.261 65.6927 107.081 64.5552 107.573C63.5383 108.014 62.4694 108.191 61.2567 108.129ZM166.157 111.404C165.378 111.563 164.705 111.687 164.039 111.846C163.88 111.884 163.684 112.003 163.613 112.141C163.009 113.304 162 113.966 160.759 114.004C159.081 114.056 158.185 114.896 157.609 116.36C157.402 116.886 157.341 117.279 157.708 117.66C158.826 117.726 159.878 117.659 160.808 116.965C161.085 116.758 161.482 116.7 161.832 116.605C163.092 116.264 164.351 116.215 165.675 116.747C165.84 114.914 165.998 113.165 166.157 111.404ZM144.887 111.197C145.608 112.021 146.24 112.758 146.894 113.474C146.967 113.554 147.172 113.541 147.311 113.527C149.167 113.348 150.759 113.883 152.015 115.284C152.305 115.607 152.546 115.67 152.822 115.423C152.495 114.71 152.133 114.053 151.89 113.354C151.647 112.652 151.513 111.912 151.352 111.184C151.168 110.356 150.73 110.017 149.901 109.981C149.371 109.959 148.847 109.819 148.318 109.751C148.173 109.732 147.94 109.728 147.88 109.812C147.178 110.788 146.178 111.123 144.887 111.197ZM40.739 114.811C40.7282 114.682 40.7387 114.636 40.7202 114.612C39.6843 113.263 38.6468 111.916 37.6051 110.573C37.5505 110.502 37.464 110.446 37.3808 110.41C36.7395 110.132 36.0953 109.86 35.5212 109.616C34.6563 110.028 33.7884 110.442 32.8744 110.878C33.3869 112.173 34.1341 113.395 35.6723 113.777C37.3351 114.19 39.0315 114.469 40.739 114.811ZM39.2446 125.687C39.472 124.541 39.4599 124.558 38.4375 123.866C38.1048 123.641 37.862 123.645 37.5029 123.8C36.6817 124.154 35.8185 124.253 34.9163 124.113C33.8666 123.951 33.0264 123.414 32.2173 122.785C32.0608 122.663 31.8454 122.497 31.6848 122.523C31.1331 122.612 30.5937 122.777 30.0077 122.923C30.1761 123.619 30.3609 124.34 30.5227 125.067C30.6141 125.478 30.8487 125.622 31.2596 125.617C31.8146 125.609 32.3702 125.671 32.9257 125.674C35.0121 125.685 37.0986 125.684 39.2446 125.687ZM166.002 102.33C165.884 101.234 165.753 100.233 165.679 99.2279C165.644 98.7415 165.409 98.4605 164.976 98.3817C163.795 98.1671 162.544 98.1306 161.652 98.9851C160.854 99.7496 160.098 100.115 158.989 100.033C158.289 99.9805 157.574 100.277 157.117 100.935C157.468 101.258 157.759 101.567 158.096 101.814C158.222 101.906 158.478 101.914 158.632 101.853C158.968 101.72 159.27 101.506 159.597 101.346C161.727 100.305 163.713 100.567 165.564 102.02C165.679 102.11 165.803 102.19 166.002 102.33ZM157.831 140.879C158.363 139.814 158.94 138.691 159.489 137.554C159.887 136.729 160.25 135.887 160.636 135.035C160.044 134.872 159.497 134.721 158.918 134.562C158.217 135.624 157.338 136.483 156.137 136.97C156.039 137.01 155.923 137.159 155.922 137.259C155.905 138.403 155.908 139.548 155.906 140.74C156.271 140.703 156.574 140.634 156.871 140.654C157.156 140.672 157.436 140.782 157.831 140.879ZM163.225 128.185C162.463 128.248 162.158 128.649 161.885 129.063C161.548 129.574 161.11 129.838 160.488 129.781C160.337 129.767 160.181 129.782 160.029 129.799C158.603 129.959 157.713 131.216 158.13 132.478C158.456 133.461 159.901 134.121 160.846 134.061C160.947 134.054 161.09 133.931 161.128 133.83C161.82 131.992 162.499 130.148 163.225 128.185ZM48.6334 99.0875L48.6224 105.815C51.0695 104.358 51.4621 101.979 51.8055 99.5395C50.7227 99.3852 49.7055 99.2402 48.6334 99.0875ZM43.4632 119.906L38.825 119.898C39.4195 120.946 39.4684 121.939 38.7557 122.933C39.1919 123.219 39.5999 123.487 39.9303 123.703C40.6692 123.215 41.3582 122.777 42.0262 122.308C42.2546 122.148 42.4892 121.945 42.6186 121.706C42.9248 121.141 43.1695 120.543 43.4632 119.906ZM43.1045 100.024C44.0126 102.097 45.8879 102.508 47.6308 103.144L47.637 99.3521C46.2087 100.187 44.7462 100.387 43.1045 100.024ZM155.951 112.448C155.95 113.439 155.977 114.354 155.935 115.267C155.912 115.79 156.089 116.095 156.599 116.225C157.12 115.307 157.635 114.394 158.153 113.484C158.66 112.594 159.169 111.706 159.677 110.817L159.487 110.645C158.445 111.479 157.451 112.409 155.951 112.448ZM38.7394 110.494C38.7652 110.544 38.791 110.618 38.8362 110.677C39.2795 111.255 39.7156 111.839 40.174 112.405C40.9125 113.317 41.1539 113.312 41.9309 112.403C42.0299 112.287 42.1248 112.163 42.1966 112.029C42.6589 111.167 42.3715 110.391 41.473 110.052C41.2221 109.957 40.9809 109.825 40.7225 109.766C40.5538 109.727 40.3439 109.744 40.1842 109.812C39.7112 110.011 39.254 110.248 38.7394 110.494ZM58.3395 109.805C57.774 109.971 57.2088 110.128 56.6506 110.307C56.5456 110.341 56.43 110.444 56.3848 110.545C56.0154 111.369 55.6616 112.199 55.2919 113.053C56.8102 112.506 58.3417 111.978 59.5365 110.82C59.093 110.444 58.7045 110.114 58.3395 109.805ZM154.991 112.575C154.068 112.269 153.255 111.999 152.242 111.664C152.698 112.721 153.075 113.669 153.516 114.587C153.787 115.151 154.319 115.344 154.96 115.342C154.97 115.141 154.985 114.972 154.986 114.803C154.99 114.042 154.99 113.281 154.991 112.575ZM160.507 111.306C160.2 111.849 159.892 112.393 159.586 112.94C159.542 113.019 159.511 113.106 159.47 113.198C160.777 113.387 162.201 112.762 162.605 111.839C161.931 111.668 161.257 111.496 160.507 111.306ZM28.6487 101.48C28.581 102.346 28.5197 103.129 28.4456 104.076C28.9027 103.945 29.3909 103.952 29.5834 103.718C29.9844 103.229 30.2291 102.612 30.5585 102.011C29.9627 101.845 29.3641 101.679 28.6487 101.48ZM157.294 141.634C157.278 141.624 157.261 141.606 157.245 141.607C156.999 141.619 156.753 141.633 156.507 141.647C155.842 141.684 155.821 141.715 155.975 142.399C156.93 142.522 157.019 142.47 157.294 141.634ZM155.95 143.035L155.948 143.884C155.981 143.889 156.013 143.895 156.046 143.901C156.197 143.632 156.349 143.363 156.533 143.036L155.95 143.035Z" fill="#758963" stroke="#758963" stroke-miterlimit="10"/>
<path d="M180.451 56.431C180.844 56.2369 181.127 56.0835 181.421 55.9562C181.832 55.7783 182.244 55.7722 182.459 56.228C182.677 56.6881 182.397 56.9584 182.002 57.1889C178.445 59.2669 174.881 61.3349 171.351 63.4581C170.37 64.0481 169.436 64.7492 168.589 65.5176C167.964 66.0838 167.386 66.7791 167.013 67.5289C166.338 68.8847 167.079 70.0607 168.594 70.1599C170.313 70.2725 171.946 69.8841 173.504 69.1625C173.782 69.0336 174.055 68.8294 174.343 68.8045C174.58 68.7839 174.952 68.9137 175.05 69.0938C175.149 69.2746 175.004 69.606 174.924 69.8584C174.897 69.9435 174.75 70.0002 174.648 70.0503C172.869 70.9242 171.004 71.4719 169.008 71.4659C168.573 71.4646 168.123 71.3996 167.705 71.2789C166.014 70.7909 165.153 69.2526 165.667 67.5471C165.873 66.863 166.267 66.2355 166.609 65.5111C166.461 65.5109 166.266 65.532 166.076 65.5067C165.038 65.3678 163.952 65.3642 162.973 65.0416C160.742 64.3065 159.833 62.3893 160.52 60.143C160.698 59.5628 160.971 59.0118 161.221 58.3935C160.87 58.4227 160.533 58.4974 160.206 58.4673C159.659 58.4169 159.085 58.3839 158.579 58.1943C157.252 57.6974 156.683 56.5116 157.265 55.2303C157.652 54.3777 158.198 53.5224 158.881 52.8926C160.653 51.2566 162.535 49.739 164.383 48.1851C165.454 47.2845 166.573 46.4389 167.61 45.5024C168.158 45.0082 168.646 44.4153 169.039 43.7902C169.677 42.7742 169.449 41.6449 168.405 41.0532C167.714 40.6616 166.87 40.3737 166.084 40.3451C162.805 40.2256 159.798 41.1311 157.106 43.0305C155.477 44.1794 153.883 45.3826 152.201 46.4476C151.341 46.9922 150.356 47.4253 149.368 47.6662C146.966 48.2523 145.458 46.6473 146.049 44.2471C146.094 44.0651 146.139 43.8829 146.209 43.5939C145.911 43.6759 145.684 43.7376 145.456 43.8012C144.165 44.1629 142.884 44.2127 141.63 43.6496C139.417 42.6557 138.426 40.6411 138.984 38.2749C139.032 38.0746 139.085 37.8758 139.109 37.7819C138.008 37.5382 136.933 37.3666 135.904 37.049C135.238 36.8437 134.618 36.4589 134.018 36.0877C133.694 35.887 133.438 35.8162 133.071 35.9479C131.64 36.4616 130.217 36.5434 128.867 35.6956C128.58 35.5155 128.305 35.2881 128.092 35.0273C127.85 34.7299 127.85 34.3688 128.167 34.1018C128.483 33.8356 128.826 33.8914 129.093 34.1826C130.012 35.1875 131.12 35.1961 132.407 34.8269C131.372 33.7705 130.606 32.5887 130.262 31.2252C129.922 29.8811 129.773 28.4891 129.55 27.1758C129.536 27.1965 129.443 27.3265 129.358 27.4617C128.745 28.4345 128.225 29.483 127.498 30.3617C126.713 31.3109 125.805 32.1937 124.818 32.927C124.222 33.3696 123.391 33.5723 122.635 33.7047C121.512 33.9011 120.668 33.2956 120.32 32.1875C120.206 31.8252 120.145 31.44 120.11 31.0608C120.076 30.6831 120.104 30.2996 120.105 29.838C119.943 29.9385 119.83 29.9896 119.739 30.0672C118.642 31.0118 117.359 31.5152 115.933 31.6818C113.356 31.983 111.251 30.2007 111.112 27.6025C111.1 27.3809 111.074 27.16 111.04 26.7862C110.806 27.0456 110.683 27.2054 110.536 27.3398C109.536 28.2569 108.582 29.2342 107.514 30.0631C106.511 30.8404 105.29 31.1955 104.013 31.2124C102.091 31.2378 100.681 30.3429 99.7299 28.6964C99.5508 28.3863 99.3976 28.0614 99.2066 27.6936C98.9358 28.0669 98.7427 28.4346 98.4574 28.705C97.8797 29.2524 97.3109 29.8491 96.6316 30.2404C95.5461 30.8658 94.4681 30.5549 93.7922 29.4898C93.3983 28.8691 93.1358 28.1652 92.8016 27.4727C92.0355 28.983 90.849 30.1161 89.2449 30.7639C87.5624 31.4434 86.0177 31.1633 84.6435 29.9327C83.6861 31.2366 82.6835 32.4561 80.8795 32.2947C79.0553 32.1315 78.3598 30.751 77.7837 29.1181C77.6551 29.4572 77.5771 29.6627 77.4992 29.8683C77.068 31.0075 76.5114 32.0708 75.6439 32.948C73.9664 34.6441 72.016 34.3041 71.0551 32.1124C70.2391 30.251 69.8566 28.2772 69.6903 26.2592C69.5361 24.3884 69.4087 22.5151 69.224 20.6474C69.1739 20.1415 69.0063 19.6321 68.8099 19.1585C68.2844 17.8916 67.0407 17.5432 66.0191 18.462C65.3936 19.0246 64.8622 19.7474 64.459 20.4906C63.301 22.6248 62.7611 24.9457 62.5224 27.3578C62.3214 29.3887 62.7423 31.3647 62.9265 33.3597C63.0601 34.8066 63.3495 36.2394 63.5741 37.6778C63.6629 38.2465 63.4775 38.6294 63.0546 38.6432C62.5168 38.6609 62.4352 38.2862 62.3723 37.843C62.0986 35.9154 61.7945 33.992 61.5034 32.0805C60.8657 32.8297 60.2977 33.6848 59.5471 34.3267C58.7811 34.9817 58.5254 35.6902 58.455 36.6697C58.3241 38.4885 57.9142 40.2628 57.0147 41.8953C55.6675 44.3403 53.3265 44.8153 51.167 43.0358C50.3377 42.3524 49.7086 41.514 49.3909 40.4731C49.2097 39.8794 49.3891 39.4447 49.8262 39.3418C50.2456 39.243 50.5147 39.5165 50.6911 40.1158C51.0615 41.3736 51.8689 42.2596 53.1075 42.6944C54.1521 43.0612 55.0179 42.729 55.6398 41.7786C56.5194 40.4346 56.9679 38.943 57.1132 37.352C57.1546 36.8988 57.2084 36.4467 57.2586 35.9747C56.5791 36.1076 55.9692 36.3089 55.3523 36.3331C52.8073 36.433 50.868 35.1962 49.4134 33.2683C46.8711 29.8989 46.609 26.2423 48.45 22.4553C49.0303 21.2618 49.954 20.4211 51.3292 20.2261C52.4565 20.0663 53.5072 20.3545 54.2896 21.1559C54.9484 21.8308 55.5471 22.6155 55.9789 23.4515C57.5775 26.5463 58.2913 29.8848 58.4923 33.3443C58.4967 33.42 58.5091 33.4953 58.5385 33.7496C59.0493 33.1981 59.5202 32.7661 59.9001 32.2652C61.0702 30.7227 61.4672 29.018 61.1496 27.0697C60.7212 24.4422 60.4514 21.7887 60.1199 19.1455C60.0488 18.5784 60.2691 18.2011 60.6835 18.1911C61.2375 18.1777 61.3741 18.5548 61.4197 19.0235C61.551 20.3749 61.6973 21.7249 61.9294 23.0912C62.1341 22.5668 62.3271 22.0374 62.5458 21.5189C63.0829 20.2454 63.6216 18.9684 64.6412 17.9829C64.9289 17.7047 65.2349 17.4304 65.5747 17.2235C67.2181 16.2224 69.0553 16.7766 69.8582 18.5239C70.4523 19.8166 70.5883 21.2114 70.7038 22.6112C70.8739 24.6722 71.0277 26.7368 71.2926 28.7864C71.4064 29.6671 71.7352 30.5313 72.0477 31.3728C72.6889 33.0997 73.7497 33.2719 74.9765 31.8827C75.9433 30.7879 76.4084 29.4541 76.7932 28.0785C77.1198 26.911 77.0602 25.742 76.9703 24.5468C76.7042 21.0112 76.5101 17.4702 76.2857 13.9315C76.1914 12.4436 76.0919 10.9561 75.9883 9.36996C73.5963 9.67902 71.2095 9.8558 69.6507 12.0528C69.4249 12.371 69.141 12.5347 68.7657 12.3471C68.394 12.1613 68.3088 11.8028 68.4534 11.4628C68.5839 11.1558 68.803 10.8666 69.0421 10.6288C70.1964 9.48119 71.6319 8.86795 73.2024 8.55571C74.0813 8.38096 74.973 8.27068 75.8793 8.12815C75.7804 6.59866 75.6883 5.07303 75.5805 3.54851C75.5306 2.84166 75.4508 2.13689 75.3834 1.43127C75.3401 0.977713 75.4663 0.59479 75.9602 0.525842C76.4542 0.456894 76.7182 0.787058 76.7531 1.23964C76.8652 2.69177 76.943 4.14649 77.0423 5.59965C77.0983 6.41786 77.1706 7.23494 77.2394 8.10043C80.0489 7.9684 82.8203 8.05464 85.192 6.31451C85.5295 6.06689 85.9236 5.92816 86.1957 6.35086C86.4836 6.79807 86.1638 7.06888 85.801 7.32494C83.7485 8.77378 81.3981 9.12673 78.972 9.21343C77.3126 9.27272 77.2968 9.27185 77.4 10.9304C77.6881 15.5597 77.963 20.1901 78.3021 24.8158C78.4208 26.4356 78.634 28.0529 79.3225 29.5701C80.0647 31.2059 81.3942 31.4897 82.6808 30.2273C82.9116 30.0008 83.1201 29.745 83.3035 29.4784C83.6443 28.9831 83.7135 28.5165 83.4578 27.8867C82.6019 25.7787 82.5034 23.5611 82.7887 21.3238C83.201 18.0911 84.0034 14.9841 86.0664 12.3677C86.699 11.5654 87.4656 10.8324 88.2855 10.2214C89.9132 9.00826 91.5019 9.12101 93.0713 10.421C93.3185 10.6259 93.5483 10.8518 93.857 11.1323C93.9435 10.5914 94.0142 10.1278 94.0924 9.66547C94.2018 9.01851 94.5002 8.71542 94.9395 8.79597C95.3827 8.87724 95.5307 9.25336 95.4172 9.90523C94.5283 15.0088 93.8219 20.1312 93.9364 25.3301C93.9604 26.4214 94.0038 27.5183 94.5468 28.5176C95.0738 29.4874 95.5849 29.6459 96.4937 29.0462C97.5972 28.3179 98.1665 27.176 98.7213 26.0355C98.7806 25.9136 98.7336 25.7356 98.722 25.5846C98.2816 19.8354 100.134 14.9135 104.132 10.7967C104.694 10.2179 105.407 9.73204 106.135 9.37793C108.581 8.18855 111.241 9.55751 111.683 12.2403C112.056 14.5103 111.37 16.5226 109.907 18.2735C109.523 18.7325 109.062 18.8066 108.764 18.4916C108.386 18.0915 108.565 17.7241 108.878 17.3799C109.907 16.2506 110.376 14.8877 110.431 13.3942C110.451 12.8559 110.344 12.2734 110.14 11.7742C109.611 10.4782 108.289 9.86455 107.023 10.4446C106.158 10.8409 105.31 11.4252 104.663 12.1195C101.431 15.5864 99.8647 19.7397 99.9569 24.4698C99.977 25.4978 100.229 26.5748 100.616 27.5314C101.484 29.6745 103.257 30.4397 105.44 29.6603C106.235 29.3763 106.994 28.9061 107.669 28.39C109.148 27.2601 110.236 25.7616 111.281 24.2424C111.437 24.0154 111.479 23.7092 111.57 23.4382C112.934 19.3612 115.08 15.8214 118.7 13.3567C119.541 12.7841 120.521 12.3599 121.495 12.0489C123.583 11.3821 125.171 12.1033 126.2 14.0431C126.304 14.2396 126.408 14.4366 126.561 14.727C126.879 14.1639 127.106 13.6572 127.434 13.2275C127.587 13.0262 127.942 12.8727 128.194 12.8878C128.373 12.8986 128.624 13.2067 128.675 13.4215C128.722 13.6247 128.582 13.8964 128.469 14.1085C127.425 16.0683 126.322 17.998 125.328 19.9824C123.826 22.9811 122.369 26.0084 121.537 29.2783C121.361 29.9675 121.329 30.7205 121.38 31.4333C121.451 32.4223 121.946 32.7519 122.914 32.5128C124.156 32.2056 125.171 31.4747 125.833 30.4083C127.388 27.9023 128.962 25.3989 130.341 22.7949C133.03 17.7142 135.589 12.5651 138.205 7.44566C138.353 7.15632 138.467 6.80751 138.703 6.61802C138.913 6.44912 139.345 6.32685 139.541 6.43439C139.735 6.54006 139.802 6.9557 139.834 7.24544C139.853 7.40716 139.695 7.59251 139.606 7.76208C137.762 11.2962 135.915 14.8293 134.072 18.3637C133.978 18.5426 133.904 18.7315 133.761 19.0495C134.066 18.8896 134.241 18.7933 134.42 18.7049C136.125 17.8629 137.875 17.5453 139.687 18.3367C141.546 19.1486 142.313 20.7072 142.517 22.617C142.73 24.6222 142.292 26.5162 141.391 28.2926C139.958 31.1207 137.977 33.4665 135.182 35.0559C135.12 35.0909 135.069 35.1446 134.941 35.248C136.151 35.9535 137.365 36.361 138.727 36.3455C139.394 36.338 139.795 36.1285 140.191 35.5277C142.552 31.9484 145.45 28.9389 149.493 27.2304C150.595 26.7645 151.733 26.4205 152.944 26.432C155.244 26.4538 156.682 27.6702 157.111 29.932C157.142 30.0954 157.169 30.2595 157.209 30.4904C157.602 30.1597 157.929 29.8423 158.298 29.5873C158.633 29.3559 159.007 29.3693 159.268 29.7246C159.512 30.0578 159.398 30.3737 159.13 30.6536C157.356 32.5095 155.56 34.346 153.816 36.2294C152.149 38.0287 150.494 39.8427 148.919 41.7216C148.315 42.4425 147.927 43.3507 147.481 44.1946C147.343 44.4554 147.306 44.7827 147.276 45.0849C147.189 45.9554 147.703 46.5644 148.553 46.4175C149.368 46.2766 150.238 46.0609 150.921 45.6242C152.872 44.3775 154.831 43.113 156.618 41.6495C159.063 39.6469 161.353 37.4543 163.71 35.3437C163.809 35.2542 163.908 35.104 164.017 35.095C164.311 35.0706 164.685 35 164.891 35.1436C165.222 35.375 165.124 35.7563 164.872 36.0538C164.761 36.1847 164.628 36.2978 164.499 36.412C163.48 37.3144 162.459 38.2147 161.439 39.1171C161.285 39.2535 161.137 39.3968 161.032 39.6215C161.66 39.4897 162.285 39.3439 162.916 39.2289C164.497 38.9408 166.086 38.8253 167.645 39.3073C168.219 39.485 168.795 39.7608 169.276 40.1179C170.672 41.1533 170.996 42.788 170.168 44.3132C169.438 45.6594 168.295 46.6366 167.137 47.5836C165.252 49.125 163.325 50.6153 161.442 52.1583C160.776 52.7034 160.169 53.3238 159.568 53.941C159.249 54.2679 158.969 54.6425 158.724 55.0288C157.922 56.2914 158.381 57.218 159.874 57.1857C161.146 57.1581 162.338 56.9298 163.389 55.95C166.585 52.9691 170.382 51.2214 174.783 50.9102C175.923 50.8296 177.045 50.9684 178.116 51.3929C180.091 52.1755 180.984 53.8186 180.57 55.8963C180.544 56.026 180.513 56.1546 180.451 56.431ZM83.9599 23.1706C84.0501 24.9669 84.1692 26.7343 85.1259 28.3325C85.8618 29.5619 87.084 30.0384 88.4649 29.6684C90.5545 29.1086 92.5952 25.9625 92.6847 24.0994C92.8472 20.7167 93.2049 17.3436 93.4519 13.9644C93.4809 13.5672 93.4192 13.1061 93.2339 12.7645C92.9748 12.287 92.6076 11.8412 92.2022 11.4752C91.167 10.5407 90.1768 10.4389 89.0862 11.2934C88.2535 11.9459 87.4614 12.7123 86.8452 13.5676C84.7862 16.4261 84.2277 19.764 83.9599 23.1706ZM112.386 26.9766C112.445 27.3116 112.5 27.8876 112.65 28.4376C112.948 29.5236 113.919 30.2293 115.052 30.3628C117.343 30.6325 120.276 28.3537 120.992 26.7034C122.361 23.5447 123.816 20.4238 125.225 17.2824C125.347 17.0105 125.467 16.6985 125.452 16.4119C125.407 15.5116 125.094 14.6964 124.513 13.992C123.981 13.347 123.294 12.9833 122.487 13.2293C121.508 13.5275 120.502 13.8501 119.633 14.3705C117.028 15.9298 115.412 18.374 114.022 20.9863C113.065 22.7852 112.477 24.6912 112.386 26.9766ZM165.495 64.299C166.553 64.1835 167.335 64.1094 168.113 64.0052C168.309 63.979 168.52 63.8926 168.677 63.7723C171.365 61.7129 174.267 59.9882 177.239 58.3897C178.323 57.8067 178.877 56.9291 179.209 55.8463C179.694 54.2682 179.091 53.0099 177.501 52.5656C176.542 52.298 175.484 52.152 174.5 52.2503C169.982 52.7021 166.184 54.652 163.157 58.0428C162.438 58.8476 161.889 59.7762 161.659 60.8567C161.376 62.181 161.869 63.265 163.132 63.7404C163.961 64.0524 164.868 64.1569 165.495 64.299ZM152.826 27.7301C152.58 27.7579 152.292 27.7729 152.01 27.8253C150.38 28.1287 148.912 28.8282 147.545 29.7365C144.948 31.4628 142.918 33.7502 141.215 36.3324C140.635 37.2131 140.239 38.2009 140.171 39.2815C140.094 40.5203 140.573 41.4819 141.633 42.1415C143.079 43.0403 146.058 42.7325 147.326 41.5526C147.41 41.4749 147.473 41.3763 147.548 41.2892C149.012 39.5919 150.457 37.8785 151.945 36.2031C152.989 35.0286 154.149 33.9545 155.149 32.7459C156.05 31.6563 156.048 30.3633 155.464 29.1109C154.96 28.0293 153.95 27.7903 152.826 27.7301ZM141.448 23.4418C141.416 23.4355 141.384 23.4291 141.352 23.4228C141.336 23.1933 141.324 22.9636 141.305 22.7344C141.095 20.1744 139.352 18.7919 136.816 19.1933C134.608 19.5427 133.099 20.873 132.097 22.773C131.05 24.7585 130.738 26.9067 131.033 29.1364C131.276 30.9712 131.922 32.6131 133.267 33.9432C133.612 34.2836 133.892 34.324 134.315 34.0865C137.555 32.2669 139.745 29.5764 140.926 26.0783C141.211 25.2367 141.28 24.3226 141.448 23.4418ZM57.2292 33.3401C57.097 31.1722 56.758 28.7827 55.9367 26.4976C55.4212 25.0633 54.9306 23.5919 53.8734 22.4247C52.4991 20.9074 50.6654 21.1024 49.6354 22.8652C47.4965 26.526 48.4664 31.4093 51.8469 33.966C53.1144 34.9247 54.5152 35.3542 56.1084 35.0026C57.2574 34.7491 57.2591 34.7568 57.2292 33.3401Z" fill="#758963" stroke="#758963" stroke-miterlimit="10"/>
<path d="M33.7582 45.2902C33.8437 45.6368 33.8845 45.817 33.9327 45.9952C34.8848 49.5141 35.7479 53.0521 35.9415 56.7102C36.0995 59.6943 35.9646 62.6597 34.9504 65.5093C34.1157 67.8545 32.7349 69.8127 30.5106 71.0325C27.6652 72.593 24.8071 72.2227 22.011 70.8668C19.753 69.7719 17.8548 68.1867 16.2278 66.2938C12.354 61.7871 9.82111 56.6824 9.39266 50.6668C9.28567 49.1646 9.40568 47.677 9.7981 46.2202C10.6869 42.9205 13.4677 41.4254 16.6951 42.5592C17.4626 42.8288 18.2399 43.1987 18.8739 43.6984C21.9296 46.1062 23.944 49.2484 25.1281 52.9309C25.272 53.3785 25.2821 53.8745 25.3149 54.3507C25.3445 54.78 25.1667 55.1235 24.6987 55.1729C24.2202 55.2235 24.0008 54.9017 23.9402 54.4821C23.3782 50.5916 21.1939 47.6483 18.4058 45.0751C17.5628 44.2971 16.5246 43.8263 15.383 43.6237C13.5875 43.305 12.0874 44.1034 11.3906 45.7932C10.6693 47.5421 10.5953 49.3837 10.8179 51.2259C11.6434 58.0589 14.8182 63.6304 20.0839 68.0017C21.0983 68.8438 22.3158 69.5213 23.5448 70.0108C27.4817 71.5789 30.9616 70.257 33.0027 66.5407C34.0317 64.6671 34.3787 62.6135 34.5441 60.5168C34.8759 56.3104 34.1325 52.2284 33.0945 48.1835C32.8185 47.108 32.4794 46.0488 32.1862 44.9776C32.062 44.5239 31.8103 44.2346 31.3861 44.0032C29.1985 42.8095 27.0254 41.589 24.8557 40.3628C21.7376 38.6006 19.2744 36.1792 17.6722 32.9637C17.2184 32.0529 16.9262 31.0339 16.7266 30.0314C16.4979 28.8825 16.7732 27.7881 17.7897 27.0614C18.7878 26.3478 19.8297 26.599 20.8428 27.0891C22.6072 27.9426 23.9546 29.3094 25.2695 30.7096C28.6044 34.2608 31.1587 38.3006 32.8725 42.8672C32.9656 43.1155 33.1567 43.3728 33.3738 43.5216C35.284 44.8318 37.2104 46.1184 39.1326 47.4111C39.1785 47.4421 39.2315 47.4626 39.3387 47.5174C39.3122 47.355 39.3027 47.2349 39.2725 47.1202C38.2864 43.381 37.9769 39.5761 38.1298 35.7214C38.1441 35.3624 38.051 34.9564 37.8817 34.6395C36.0145 31.1457 34.3823 27.5624 33.606 23.6477C33.0404 20.7958 32.9678 17.9404 33.6705 15.0985C33.9312 14.0441 34.3751 13.0707 35.1765 12.2999C36.2995 11.2196 37.6319 11.2263 38.7435 12.3232C39.6414 13.2092 40.0304 14.3655 40.3067 15.539C40.5467 16.5588 40.7026 17.6119 40.7632 18.6579C40.9392 21.6916 40.6218 24.7041 40.2707 27.7139C40.0022 30.0156 39.7759 32.3224 39.5515 34.629C39.5313 34.8364 39.6165 35.0869 39.73 35.2696C42.207 39.2579 44.9557 43.0288 48.5373 46.1212C49.0004 46.5211 49.4938 46.8881 49.9894 47.248C50.4912 47.6123 50.6286 47.9804 50.3546 48.3385C50.0955 48.677 49.7182 48.6665 49.25 48.3126C45.4996 45.4784 42.5601 41.912 39.9593 38.0395C39.8108 37.8185 39.6649 37.5958 39.4989 37.3453C39.4492 37.4125 39.3963 37.4506 39.3967 37.488C39.4428 41.0448 39.6975 44.5718 40.9096 47.9606C41.3389 49.161 41.8907 50.2911 42.7564 51.247C42.8579 51.359 43.0104 51.5064 42.9987 51.6234C42.9691 51.9205 42.9474 52.3238 42.7573 52.4695C42.5707 52.6125 42.1544 52.5612 41.8885 52.4621C41.6865 52.3869 41.5373 52.1187 41.4072 51.9098C40.1322 49.8619 38.3162 48.3687 36.3736 47.0099C35.5629 46.4428 34.7205 45.9207 33.7582 45.2902ZM38.3337 32.6727C38.3779 32.6605 38.4222 32.6482 38.4664 32.636C38.8095 29.0534 39.2414 25.4762 39.4584 21.886C39.5684 20.0658 39.3646 18.214 39.1605 16.3924C39.0378 15.2976 38.6659 14.2173 37.9344 13.3341C37.2959 12.5632 36.5698 12.511 35.9531 13.2876C35.5122 13.8428 35.15 14.5115 34.9383 15.1877C34.3218 17.1566 34.3193 19.201 34.5127 21.2272C34.8935 25.2167 36.3162 28.8844 38.1518 32.4097C38.2007 32.5035 38.2726 32.5853 38.3337 32.6727ZM31.1472 42.3201C31.0473 42.0326 31.0115 41.9051 30.9599 41.7845C28.9674 37.1301 26.0536 33.1296 22.2969 29.7516C21.5959 29.1213 20.7533 28.6093 19.902 28.1946C18.8367 27.6758 18.0105 28.2064 18.0777 29.3858C18.1266 30.2441 18.3199 31.1496 18.6832 31.9243C19.8318 34.3737 21.4514 36.4959 23.7382 37.9873C25.6939 39.2628 27.7438 40.3943 29.7567 41.5815C30.1645 41.822 30.5931 42.0272 31.1472 42.3201Z" fill="#758963" stroke="#758963" stroke-miterlimit="10"/>
<path d="M17.4194 150.615C21.2909 150.444 25.0015 150.279 28.7121 150.115C28.7298 150.15 28.7475 150.184 28.7651 150.218C25.518 152.468 22.2709 154.718 18.9935 156.989C18.8262 156.679 18.6823 156.412 18.5056 156.084C20.7931 154.493 23.0642 152.913 25.3353 151.332C25.3261 151.291 25.3168 151.25 25.3076 151.209C22.0866 151.35 18.8655 151.491 15.4919 151.638C17.4855 148.96 19.4164 146.367 21.3474 143.773C21.3267 143.739 21.306 143.706 21.2853 143.673C18.7108 144.674 16.1363 145.676 13.5157 146.695C13.3593 146.402 13.2182 146.137 13.0452 145.812C16.7351 144.37 20.3953 142.939 24.0554 141.508C24.0857 141.547 24.116 141.585 24.1462 141.624C21.931 144.585 19.7157 147.546 17.4194 150.615Z" fill="#758963" stroke="#758963" stroke-miterlimit="10"/>
<path d="M55.8981 191.063C54.7245 186.652 53.5924 182.397 52.418 177.983C50.8607 180.695 49.3802 183.274 47.8781 185.89C47.5828 185.723 47.3246 185.576 47.0073 185.396C48.9182 182.062 50.805 178.77 52.769 175.343C53.9417 179.751 55.0739 184.006 56.2492 188.423C57.8299 185.671 59.3379 183.045 60.8634 180.389C61.1659 180.56 61.4282 180.708 61.735 180.882C59.8023 184.253 57.8867 187.595 55.8981 191.063Z" fill="#758963" stroke="#758963" stroke-miterlimit="10"/>
<path d="M35.1131 162.368C38.4818 162.377 41.1814 165.09 41.1547 168.44C41.1294 171.615 38.6309 174.025 35.3745 174.015C32.0262 174.005 29.3333 171.319 29.3394 167.996C29.3454 164.754 31.8017 162.36 35.1131 162.368ZM35.1386 163.31C32.4317 163.347 30.2764 165.471 30.3188 168.059C30.3642 170.832 32.6067 173.109 35.2597 173.075C38.0067 173.041 40.2129 170.919 40.1753 168.348C40.1338 165.513 37.8928 163.272 35.1386 163.31Z" fill="#758963" stroke="#758963" stroke-miterlimit="10"/>
<path d="M9.0594 114.747C9.71462 114.688 9.81629 115.031 9.859 115.386C9.96185 116.241 10.0347 117.1 10.1286 117.956C10.7275 123.416 11.8696 128.762 13.4882 134.009C13.5613 134.246 13.7021 134.512 13.6494 134.725C13.5812 135 13.3911 135.387 13.1776 135.445C12.9643 135.502 12.6393 135.237 12.4001 135.063C12.2982 134.989 12.285 134.787 12.2398 134.641C10.3659 128.585 9.13292 122.402 8.5675 116.087C8.53934 115.773 8.57764 115.43 8.68237 115.134C8.75111 114.94 8.99523 114.809 9.0594 114.747Z" fill="#758963" stroke="#758963" stroke-miterlimit="10"/>
<path d="M186.093 116.147C185.67 118.947 185.373 121.773 184.794 124.54C184.07 128.002 183.122 131.417 182.251 134.847C182.052 135.63 181.696 135.903 181.243 135.752C180.801 135.603 180.701 135.178 180.943 134.41C182.838 128.398 184.08 122.256 184.634 115.976C184.649 115.805 184.648 115.606 184.736 115.476C184.859 115.295 185.062 115.046 185.227 115.048C185.442 115.052 185.714 115.229 185.848 115.414C185.981 115.597 185.973 115.883 186.026 116.124C186.048 116.131 186.07 116.139 186.093 116.147Z" fill="#758963" stroke="#758963" stroke-miterlimit="10"/>
<path d="M14.0578 79.7304C13.9599 80.1142 13.9079 80.3764 13.8265 80.6291C11.9514 86.4474 10.6715 92.3912 10.0479 98.4741C10.0324 98.6254 10.0405 98.8154 9.95416 98.9156C9.78542 99.1114 9.53298 99.4118 9.36031 99.3845C9.12705 99.3475 8.88915 99.0722 8.7439 98.8421C8.64648 98.6877 8.67793 98.4312 8.69991 98.2256C9.35926 92.0534 10.6439 86.013 12.547 80.1044C12.6166 79.8882 12.6864 79.628 12.8455 79.4955C13.0531 79.3228 13.3686 79.1433 13.6027 79.1814C13.7913 79.2121 13.928 79.5615 14.0578 79.7304Z" fill="#758963" stroke="#758963" stroke-miterlimit="10"/>
<path d="M185.909 98.7039C185.906 98.7735 185.908 98.8891 185.893 99.0025C185.84 99.4078 185.643 99.6917 185.205 99.7079C184.782 99.7235 184.652 99.3981 184.591 99.0718C184.513 98.6589 184.487 98.2362 184.441 97.8175C183.808 92.0469 182.576 86.405 180.817 80.8746C180.726 80.5885 180.656 80.2688 180.691 79.9789C180.716 79.7768 180.906 79.4932 181.082 79.4396C181.262 79.3847 181.561 79.5124 181.721 79.657C181.893 79.8129 181.998 80.0699 182.073 80.3019C183.985 86.2489 185.25 92.3319 185.898 98.544C185.902 98.582 185.903 98.6204 185.909 98.7039Z" fill="#758963" stroke="#758963" stroke-miterlimit="10"/>
<path d="M89.7917 200.028C91.585 196.218 93.372 192.42 95.2192 188.495C96.7291 192.546 98.1878 196.459 99.6477 200.376C98.7468 200.605 98.6188 200.542 98.3265 199.752C98.0081 198.891 97.6817 198.032 97.3783 197.166C97.2844 196.898 97.1621 196.77 96.8545 196.763C95.5515 196.734 94.2484 196.688 92.9468 196.62C92.6034 196.602 92.431 196.711 92.2969 197.023C91.9575 197.814 91.5829 198.59 91.222 199.372C90.9583 199.943 90.4815 200.162 89.7917 200.028ZM96.8025 195.711C96.2602 194.204 95.7133 192.684 95.1194 191.033C94.3822 192.622 93.697 194.099 92.9519 195.705L96.8025 195.711Z" fill="#758963" stroke="#758963" stroke-miterlimit="10"/>
<path d="M165.912 168.934C163.082 166.433 160.312 163.985 157.489 161.491C158.778 160.032 160.053 158.588 161.374 157.093C161.608 157.292 161.831 157.482 162.1 157.71C161.019 158.935 159.959 160.136 158.872 161.368C159.788 162.178 160.674 162.962 161.616 163.796C162.666 162.612 163.701 161.444 164.776 160.231C165.016 160.436 165.228 160.617 165.498 160.847C164.447 162.038 163.414 163.208 162.337 164.43C163.512 165.47 164.67 166.494 165.862 167.548C166.933 166.339 167.987 165.151 169.088 163.91C169.326 164.111 169.551 164.302 169.813 164.523C168.51 165.996 167.231 167.443 165.912 168.934Z" fill="#758963" stroke="#758963" stroke-miterlimit="10"/>
<path d="M141.462 175.864C141.968 175.374 142.478 175.309 142.991 175.669C145.187 177.21 147.381 178.752 149.577 180.292C149.732 180.401 149.892 180.502 150.153 180.676C149.97 180.001 149.819 179.436 149.663 178.871C149.064 176.695 148.464 174.519 147.863 172.344C147.694 171.734 147.915 171.252 148.524 170.898C149.63 174.945 150.731 178.972 151.869 183.139C148.325 180.662 144.897 178.266 141.462 175.864Z" fill="#758963" stroke="#758963" stroke-miterlimit="10"/>
<path d="M2.37097 113.098C1.70472 113.013 1.13997 112.809 0.768415 112.308C0.629979 112.121 0.714949 111.769 0.698037 111.492C0.961209 111.482 1.31698 111.358 1.4716 111.483C2.1584 112.037 2.76407 111.897 3.4037 111.428C4.25493 110.805 5.13721 110.74 6.00657 111.389C6.70783 111.912 7.34539 111.97 8.08249 111.391C8.92338 110.73 9.85719 110.796 10.6813 111.452C11.339 111.975 11.9336 111.928 12.5587 111.46C13.5058 110.753 14.4335 110.811 15.3592 111.505C15.9401 111.941 16.5251 112.048 17.1343 111.529C17.4109 111.294 17.7482 111.245 17.9994 111.564C18.2496 111.882 18.0911 112.175 17.844 112.43C17.2021 113.092 16.0978 113.225 15.1768 112.738C14.9408 112.614 14.7231 112.453 14.5024 112.301C14.1116 112.031 13.7255 112.02 13.3248 112.284C13.1013 112.432 12.8702 112.572 12.6292 112.688C11.846 113.065 11.0898 113.066 10.3493 112.546C9.51787 111.961 9.1512 111.961 8.32179 112.539C7.49302 113.116 6.63522 113.098 5.84981 112.557C5.07661 112.024 4.43619 111.97 3.6795 112.586C3.33358 112.867 2.81256 112.934 2.37097 113.098Z" fill="#758963" stroke="#758963" stroke-miterlimit="10"/>
<path d="M192.221 108.764C191.623 108.49 191.072 108.314 190.611 108.005C190.062 107.638 189.595 107.565 189.036 107.958C188.023 108.671 187.006 108.764 185.971 107.942C185.485 107.556 184.909 107.583 184.423 107.966C183.424 108.752 182.431 108.663 181.458 107.976C180.861 107.554 180.366 107.605 179.789 108.023C178.724 108.794 177.482 108.772 176.745 107.987C176.578 107.809 176.462 107.472 176.5 107.235C176.559 106.856 177.026 106.805 177.444 107.084C178.132 107.544 178.486 107.567 179.165 107.073C180.12 106.379 181.052 106.307 182.018 107.033C182.619 107.484 183.19 107.53 183.848 107.042C184.833 106.313 185.609 106.313 186.589 107.043C187.244 107.532 187.816 107.497 188.42 107.046C189.386 106.324 190.318 106.391 191.272 107.09C191.952 107.587 192.315 107.57 192.992 107.112C193.29 106.91 193.603 106.806 193.867 107.115C194.153 107.451 194.008 107.811 193.701 108.01C193.253 108.3 192.747 108.503 192.221 108.764Z" fill="#758963" stroke="#758963" stroke-miterlimit="10"/>
<path d="M16.3721 108.471C15.7719 108.202 15.2012 108.026 14.7235 107.709C14.169 107.342 13.7037 107.288 13.1479 107.675C12.1557 108.367 11.1527 108.486 10.1326 107.678C9.62629 107.276 9.04228 107.286 8.53444 107.684C7.55725 108.45 6.57644 108.386 5.62013 107.71C4.98238 107.259 4.46232 107.326 3.85292 107.773C2.89068 108.48 1.75783 108.465 0.976492 107.816C0.667369 107.559 0.373667 107.242 0.66784 106.84C0.969416 106.427 1.33725 106.614 1.66519 106.875C2.15948 107.269 2.69299 107.227 3.15165 106.873C4.20829 106.057 5.22848 106.016 6.29935 106.837C6.81006 107.229 7.32809 107.204 7.88111 106.808C8.99012 106.015 9.69964 106.02 10.819 106.822C11.3499 107.203 11.8573 107.243 12.3512 106.867C13.4397 106.04 14.4729 106.062 15.5491 106.902C16.0285 107.275 16.5772 107.278 17.081 106.856C17.3729 106.612 17.7123 106.499 17.9951 106.836C18.2777 107.173 18.1207 107.53 17.8148 107.73C17.3818 108.013 16.8928 108.21 16.3721 108.471Z" fill="#758963" stroke="#758963" stroke-miterlimit="10"/>
<path d="M192.142 103.893C191.631 103.659 191.08 103.483 190.619 103.174C190.07 102.806 189.602 102.734 189.044 103.127C188.03 103.84 187.014 103.933 185.979 103.111C185.493 102.725 184.916 102.752 184.43 103.135C183.432 103.921 182.439 103.832 181.466 103.145C180.869 102.723 180.373 102.774 179.796 103.192C178.732 103.963 177.49 103.941 176.753 103.156C176.585 102.977 176.473 102.642 176.508 102.403C176.559 102.042 177.047 101.936 177.399 102.229C178.058 102.779 178.655 102.639 179.274 102.184C180.145 101.544 181.038 101.48 181.926 102.144C182.609 102.654 183.234 102.71 183.952 102.146C184.789 101.488 185.724 101.52 186.552 102.177C187.228 102.715 187.833 102.667 188.478 102.186C189.406 101.495 190.323 101.553 191.229 102.232C191.831 102.682 192.413 102.772 193.065 102.27C193.234 102.14 193.604 102.269 193.881 102.278C193.853 102.555 193.922 102.906 193.778 103.094C193.398 103.589 192.83 103.784 192.142 103.893Z" fill="#758963" stroke="#758963" stroke-miterlimit="10"/>
<path d="M16.2655 103.605C15.7542 103.371 15.2032 103.195 14.7417 102.886C14.1935 102.52 13.7264 102.445 13.1671 102.838C12.1541 103.55 11.1374 103.646 10.1022 102.824C9.61643 102.438 9.0396 102.463 8.55352 102.846C7.55558 103.632 6.5625 103.544 5.58913 102.857C4.99284 102.436 4.49717 102.484 3.91952 102.903C2.85478 103.674 1.61363 103.653 0.875946 102.869C0.707951 102.69 0.592103 102.354 0.628663 102.117C0.687169 101.738 1.15487 101.685 1.57281 101.964C2.26354 102.425 2.61346 102.449 3.29345 101.954C4.24797 101.26 5.17968 101.187 6.14614 101.913C6.7466 102.364 7.31812 102.412 7.97651 101.924C8.96156 101.193 9.73819 101.193 10.7176 101.923C11.3719 102.411 11.9434 102.379 12.5479 101.928C13.5141 101.206 14.4547 101.259 15.398 101.973C15.9839 102.416 16.5571 102.461 17.1846 101.983C17.356 101.852 17.7239 101.98 18.0017 101.989C17.9743 102.265 18.0445 102.617 17.9007 102.804C17.521 103.3 16.9542 103.496 16.2655 103.605Z" fill="#758963" stroke="#758963" stroke-miterlimit="10"/>
<path d="M192.228 113.474C191.642 113.211 191.085 113.046 190.626 112.736C190.059 112.352 189.58 112.283 189.002 112.689C188.008 113.386 187.004 113.477 185.987 112.672C185.48 112.271 184.896 112.301 184.389 112.698C183.433 113.446 182.464 113.396 181.525 112.733C180.871 112.272 180.34 112.32 179.707 112.787C178.735 113.505 177.555 113.462 176.789 112.771C176.501 112.512 176.259 112.199 176.548 111.829C176.841 111.455 177.193 111.602 177.504 111.857C178.014 112.275 178.558 112.236 179.038 111.868C180.075 111.072 181.081 111.015 182.136 111.822C182.665 112.226 183.194 112.216 183.767 111.802C184.846 111.024 185.582 111.025 186.657 111.806C187.229 112.221 187.757 112.237 188.288 111.833C189.345 111.031 190.35 111.088 191.386 111.886C191.888 112.273 192.443 112.29 192.967 111.85C193.26 111.603 193.606 111.508 193.878 111.854C194.147 112.198 193.979 112.551 193.672 112.747C193.236 113.025 192.746 113.219 192.228 113.474Z" fill="#758963" stroke="#758963" stroke-miterlimit="10"/>
<path d="M72.8748 196.884C72.5239 196.778 72.2391 196.691 71.9178 196.593C72.8657 193.305 73.8016 190.058 74.759 186.736C73.8096 186.455 72.8843 186.18 71.9085 185.89C71.9856 185.588 72.0542 185.319 72.141 184.978C74.3907 185.626 76.6042 186.263 78.8783 186.918C78.7851 187.222 78.7036 187.488 78.6021 187.819C77.6554 187.553 76.7423 187.296 75.7326 187.013C74.7846 190.288 73.8417 193.544 72.8748 196.884Z" fill="#758963" stroke="#758963" stroke-miterlimit="10"/>
<path d="M171.323 141.025C171.641 141.192 171.889 141.323 172.163 141.467C171.704 142.352 171.265 143.197 170.787 144.118C173.817 145.704 176.826 147.279 179.896 148.887C179.747 149.174 179.61 149.437 179.435 149.773C176.404 148.191 173.393 146.618 170.32 145.014C169.854 145.895 169.393 146.766 168.921 147.658C168.625 147.503 168.377 147.373 168.083 147.219C169.164 145.151 170.226 143.122 171.323 141.025Z" fill="#758963" stroke="#758963" stroke-miterlimit="10"/>
<path d="M112.574 187.409C112.929 187.35 113.224 187.301 113.564 187.245C114.109 190.63 114.648 193.972 115.199 197.384C116.216 197.228 117.209 197.075 118.247 196.915C118.3 197.22 118.348 197.494 118.409 197.84C117.068 198.057 115.753 198.27 114.36 198.495C113.764 194.795 113.175 191.137 112.574 187.409Z" fill="#758963" stroke="#758963" stroke-miterlimit="10"/>
<path d="M134.462 192.405C134.138 192.547 133.863 192.667 133.543 192.807C132.06 189.363 130.59 185.947 129.105 182.497C129.433 182.351 129.708 182.23 130.022 182.091C131.507 185.541 132.978 188.958 134.462 192.405Z" fill="#758963" stroke="#758963" stroke-miterlimit="10"/>
</g>
<defs>
<clipPath id="clip0_624_306">
<rect width="194.261" height="200.723" fill="white" transform="translate(0.328979) rotate(0.093898)"/>
</clipPath>
</defs>
</svg>
