<svg width="295" height="76" viewBox="0 0 295 76" fill="none" xmlns="http://www.w3.org/2000/svg">
<g clip-path="url(#clip0_614_5)">
<path opacity="0.803" fill-rule="evenodd" clip-rule="evenodd" d="M61.6287 9.75C62.8982 9.55215 63.9795 9.8855 64.8723 10.75C64.491 18.022 61.996 24.522 57.387 30.25C55.5392 40.7396 56.2049 51.073 59.3831 61.25C60.7489 62.4825 61.4141 63.9825 61.3792 65.75C60.2479 66.4675 59.2499 66.301 58.3851 65.25C55.7657 60.3355 54.3515 55.0855 54.1434 49.5C53.8026 45.4232 53.5531 41.3398 53.3949 37.25C49.5277 44.7138 45.9514 52.297 42.666 60C41.8614 60.36 41.1129 60.277 40.4204 59.75C40.2792 53.572 39.9466 47.4053 39.4224 41.25C37.0634 47.7775 33.3208 53.361 28.1945 58C21.4513 61.914 16.5443 60.331 13.4735 53.25C11.389 44.6943 12.886 36.861 17.9646 29.75C21.8405 25.0012 25.999 24.6678 30.4401 28.75C30.9006 30.1389 30.4847 31.1389 29.1925 31.75C27.3252 28.5178 24.8301 27.9345 21.7073 30C14.7594 37.7975 13.5119 46.3808 17.9646 55.75C20.8708 57.735 23.7817 57.6515 26.6974 55.5C32.9826 49.2931 37.2243 41.8765 39.4224 33.25C39.4621 26.2115 39.9611 19.2115 40.9194 12.25C44.6202 10.4387 46.3668 11.6887 46.1591 16C45.5888 21.1903 44.5076 26.2736 42.9155 31.25C42.5828 38.4167 42.5828 45.5834 42.9155 52.75C46.3814 44.4712 50.3738 36.4712 54.8919 28.75C55.8336 23.8088 57.1645 18.9755 58.8841 14.25C59.5543 12.5691 60.469 11.0691 61.6287 9.75Z" fill="#D88254"/>
<path opacity="0.801" fill-rule="evenodd" clip-rule="evenodd" d="M107.538 15.25C108.478 15.3559 109.144 15.8559 109.534 16.75C108.836 18.6716 108.67 20.5883 109.035 22.5C112.119 23.6991 115.28 24.0324 118.517 23.5C119.261 24.5109 119.095 25.3442 118.018 26C114.626 26.468 111.299 26.218 108.037 25.25C105.371 35.7818 103.624 46.4484 102.798 57.25C103.007 57.836 103.339 58.336 103.796 58.75C106.149 57.2255 107.978 55.2255 109.285 52.75C109.797 45.8632 111.627 39.3632 114.774 33.25C117.857 29.118 121.184 28.7847 124.754 32.25C125.151 31.0494 125.733 29.9661 126.501 29C127.445 28.8457 128.11 29.2624 128.497 30.25C125.916 39.0932 124.336 48.0932 123.756 57.25C123.94 57.955 124.356 58.455 125.004 58.75C127.066 56.9575 128.646 54.7905 129.745 52.25C128.982 44.2086 131.228 37.1253 136.481 31C139.384 28.283 142.295 28.1997 145.214 30.75C147.531 37.1284 145.95 42.3784 140.473 46.5C139.263 46.9929 138.432 46.6596 137.978 45.5C139.552 43.589 141.132 41.6723 142.719 39.75C143.794 37.0996 143.711 34.5162 142.47 32C141.638 31.6666 140.806 31.6666 139.974 32C132.665 38.7833 130.752 46.8666 134.236 56.25C135.987 58.3065 138.066 58.723 140.473 57.5C142.517 55.648 144.264 53.5645 145.713 51.25C146.236 44.9837 148.066 39.1504 151.202 33.75C154.124 29.832 157.451 29.332 161.183 32.25C161.516 31.25 161.848 30.25 162.181 29.25C163.743 28.4172 164.492 28.9172 164.426 30.75C162.964 37.5433 161.716 44.3766 160.684 51.25C160.213 54.006 160.379 56.6725 161.183 59.25C163.473 56.9115 165.053 54.1615 165.923 51C166.728 50.64 167.476 50.723 168.169 51.25C167.382 59.296 169.795 60.379 175.405 54.5C171.807 54.0735 169.396 52.157 168.169 48.75C167.758 47.1076 167.508 45.4409 167.42 43.75C169.005 34.2267 171.001 24.8101 173.409 15.5C174.054 15.255 174.72 15.1717 175.405 15.25C174.928 20.0551 174.096 24.8051 172.91 29.5C172.993 29.9167 173.076 30.3334 173.159 30.75C174.892 29.1708 176.805 28.9208 178.898 30C180.053 30.5547 180.802 31.4713 181.143 32.75C181.665 34.6227 181.914 36.5393 181.892 38.5C181.606 42.4567 181.191 46.3734 180.644 50.25C182.035 49.4765 183.199 48.4765 184.138 47.25C184.733 42.292 186.23 37.6253 188.629 33.25C189.895 31.814 191.308 30.564 192.87 29.5C195.583 28.6726 197.662 29.4225 199.108 31.75C199.288 30.6961 199.621 29.6961 200.106 28.75C200.771 28.0834 201.437 28.0834 202.102 28.75C200.94 36.0817 199.61 43.4151 198.11 50.75C197.273 59.613 198.936 60.28 203.1 52.75C204.484 45.2611 205.815 37.7611 207.092 30.25C207.924 28.9167 208.756 28.9167 209.587 30.25C209.51 31.4054 209.51 32.572 209.587 33.75C212.833 29.4792 216.159 29.3126 219.568 33.25C219.785 34.4237 220.035 35.5904 220.316 36.75C219.154 43.7252 218.655 50.725 218.819 57.75C220.162 56.822 221.242 55.6555 222.063 54.25C221.707 46.3418 223.537 39.0084 227.552 32.25C230.637 28.7559 233.798 28.5891 237.033 31.75C237.519 30.804 237.852 29.804 238.031 28.75C238.708 28.3099 239.457 28.1433 240.277 28.25C238.698 37.5761 237.283 46.9094 236.035 56.25C236.368 56.9165 236.701 57.5835 237.033 58.25C238.198 57.75 239.029 56.9165 239.528 55.75C241.091 52.3865 242.255 48.8866 243.022 45.25C244.259 44.4552 245.174 44.7052 245.766 46C244.898 50.7795 243.151 55.1965 240.527 59.25C239.032 60.6325 237.285 61.049 235.287 60.5C234.38 59.6 233.798 58.517 233.54 57.25C230.204 61.608 226.794 61.775 223.31 57.75C222.404 58.4075 221.572 59.1575 220.815 60C219.354 60.3885 217.939 60.305 216.574 59.75C215.75 58.275 215.335 56.6915 215.326 55C216.074 49.1759 216.739 43.3425 217.322 37.5C216.793 32.637 214.88 32.0536 211.583 35.75C210.167 37.5859 209.003 39.5859 208.09 41.75C206.819 48.0577 205.655 54.391 204.597 60.75C203.237 62.076 202.239 61.7425 201.603 59.75C198.419 61.9065 196.256 61.073 195.116 57.25C193.336 60.182 190.758 61.265 187.381 60.5C186.357 60.035 185.609 59.285 185.136 58.25C184.348 56.1375 183.765 53.9705 183.389 51.75C182.019 52.7365 180.522 53.4865 178.898 54C176.979 57.9255 173.901 60.3425 169.666 61.25C167.768 61.0155 166.437 60.0155 165.674 58.25C164.946 59.48 164.032 60.5635 162.929 61.5C161.598 61.8335 160.268 61.8335 158.937 61.5C158.284 60.3225 157.785 59.0725 157.44 57.75C154.407 61.9735 150.996 62.307 147.21 58.75C146.725 57.804 146.392 56.804 146.212 55.75C144.965 57 143.717 58.25 142.47 59.5C137.59 61.9835 133.764 60.9 130.992 56.25C129.611 58.884 127.532 60.7175 124.754 61.75C122.944 61.186 121.696 60.0195 121.012 58.25C116.623 62.563 112.964 62.063 110.033 56.75C108.749 58.621 107.086 60.0375 105.043 61C102.338 61.5175 100.591 60.4345 99.8035 57.75C98.5355 60.0345 96.6223 60.7845 94.0648 60C93.3487 58.6705 92.8497 57.254 92.5678 55.75C93.1636 49.4559 93.9955 43.2059 95.0629 37C94.5514 33.3277 92.722 32.4943 89.5737 34.5C87.7812 35.9605 86.3675 37.7105 85.332 39.75C83.79 46.854 82.6253 54.0205 81.8389 61.25C80.4357 62.5955 79.521 62.262 79.0943 60.25C79.6203 57.593 79.8698 54.9265 79.8428 52.25C78.7195 53.1885 77.472 53.9385 76.1002 54.5C74.5981 57.1695 72.6021 59.3365 70.112 61C67.1763 61.961 65.0973 61.0445 63.8743 58.25C63.3248 56.3655 62.9092 54.4485 62.6267 52.5C62.9176 50.3455 63.8323 49.929 65.3713 51.25C65.258 53.963 66.0066 56.3795 67.6169 58.5C68.7586 58.709 69.7567 58.3755 70.611 57.5C71.0866 56.5225 71.7522 55.689 72.6071 55C68.7566 53.6355 66.5111 50.8855 65.8703 46.75C64.4222 39.78 66.5011 34.1968 72.108 30C74.6161 29.2532 76.695 29.8364 78.3458 31.75C79.6642 37.6741 79.4147 43.5908 77.5972 49.5C77.7634 49.75 77.9301 50 78.0963 50.25C79.0858 49.509 80.0005 48.6757 80.8409 47.75C81.9821 41.5318 83.313 35.3651 84.833 29.25C85.3884 28.6445 85.9708 28.6445 86.5796 29.25C86.9648 30.5674 87.0476 31.9007 86.8291 33.25C89.3606 30.7766 92.2714 30.1932 95.5619 31.5C97.02 33.217 97.6857 35.2169 97.5579 37.5C96.6752 43.3076 96.01 49.1409 95.5619 55C95.728 55.9165 95.8947 56.8335 96.0609 57.75C97.9646 55.944 99.3784 53.777 100.303 51.25C101.788 42.2275 103.368 33.2275 105.043 24.25C101.044 23.5015 97.3843 24.3348 94.0648 26.75C92.8462 26.308 92.4305 25.4747 92.8173 24.25C96.6038 21.5095 100.762 20.6762 105.293 21.75C105.949 19.5359 106.697 17.3692 107.538 15.25ZM194.367 31.75C197.298 33.1148 198.379 35.4481 197.611 38.75C196.715 43.0712 195.883 47.4046 195.116 51.75C193.965 54.65 192.052 56.8165 189.377 58.25C187.565 57.122 186.65 55.4555 186.633 53.25C186.453 47.3133 187.618 41.6466 190.126 36.25C191.304 34.4867 192.719 32.9867 194.367 31.75ZM73.6051 32.25C74.5482 32.1482 75.2968 32.4816 75.8507 33.25C77.0284 39.1921 76.5293 45.0254 74.3536 50.75C74.17 51.455 73.7543 51.955 73.1061 52.25C71.8116 51.704 70.7303 50.8705 69.8625 49.75C66.7905 42.904 68.0381 37.0707 73.6051 32.25ZM175.405 32.25C176.386 32.1303 177.301 32.297 178.149 32.75C178.917 34.4117 179.333 36.1617 179.397 38C179.045 42.6805 178.213 47.2638 176.902 51.75C172.36 51.276 170.197 48.6925 170.415 44C170.295 39.2613 171.959 35.3446 175.405 32.25ZM231.794 32.25C232.955 32.1235 233.953 32.4568 234.788 33.25C235.498 34.4216 235.997 35.6716 236.285 37C235.343 41.7463 234.428 46.4963 233.54 51.25C232.835 52.8305 232.003 54.3305 231.045 55.75C228.825 58.5665 226.995 58.4 225.556 55.25C224.593 48.8692 225.424 42.7025 228.051 36.75C229.076 35.0098 230.323 33.5098 231.794 32.25ZM119.016 32.75C121.783 32.7672 123.446 34.1839 124.006 37C122.736 42.2154 121.656 47.4654 120.762 52.75C119.905 55.6085 118.076 57.4415 115.273 58.25C113.9 58.027 113.068 57.1935 112.778 55.75C112.185 49.7202 113.017 43.8869 115.273 38.25C116.046 36.0648 117.294 34.2314 119.016 32.75ZM155.444 33.25C158.295 32.8513 159.958 34.1013 160.434 37C159.456 41.7354 158.541 46.4854 157.69 51.25C156.573 54.5275 154.577 57.0275 151.701 58.75C150.543 58.2565 149.712 57.423 149.206 56.25C148.226 49.0047 149.557 42.1714 153.198 35.75C154.05 34.9812 154.799 34.1479 155.444 33.25Z" fill="#D88254"/>
<path d="M266.193 50.1387C265.742 50.1387 265.334 49.6016 264.969 48.5273C264.582 47.4531 264.389 45.8311 264.389 43.6611C264.389 42.8232 264.432 41.2441 264.518 38.9238C264.604 36.7539 264.646 34.96 264.646 33.542C264.646 31.6514 264.593 28.042 264.485 22.7139C264.378 17.3857 264.324 13.7764 264.324 11.8857C264.324 11.1982 264.604 10.6074 265.162 10.1133C265.742 9.59766 266.397 9.33984 267.128 9.33984C267.579 9.33984 267.955 9.50098 268.256 9.82324C268.578 10.124 268.739 10.5 268.739 10.9512C268.739 14.4746 268.514 19.7383 268.062 26.7422C267.59 33.5742 267.354 38.8271 267.354 42.501C267.354 44.7998 267.321 46.4756 267.257 47.5283C267.192 48.5811 267.085 49.2793 266.935 49.623C266.784 49.9668 266.537 50.1387 266.193 50.1387ZM265.001 61.4824C264.464 61.4824 263.959 61.2354 263.486 60.7412C263.035 60.2686 262.81 59.667 262.81 58.9365C262.81 58.1631 263.078 57.4756 263.615 56.874C264.152 56.2725 264.797 55.9717 265.549 55.9717C266.365 55.9717 267.021 56.2832 267.515 56.9062C268.009 57.5078 268.256 58.2598 268.256 59.1621C268.256 60.709 267.171 61.4824 265.001 61.4824Z" fill="#D88254"/>
</g>
<defs>
<clipPath id="clip0_614_5">
<rect width="295" height="76" fill="white"/>
</clipPath>
</defs>
</svg>
