<svg width="1389" height="853" viewBox="0 0 1389 853" fill="none" xmlns="http://www.w3.org/2000/svg">
<g clip-path="url(#clip0_481_24)">
<path d="M69.7935 25.2421C78.759 25.9458 88.2205 24.31 96.4559 27.9241C112.596 35.0073 121.308 59.3939 141.106 45.4563C143.826 43.541 146.798 41.6633 150.122 41.5112C156.338 41.2267 161.411 47.5327 161.543 53.7535C161.675 59.9743 158.057 65.7145 153.629 70.0868C149.202 74.4591 143.902 77.8535 139.345 82.0898C136.233 84.983 133.422 88.3596 132.035 92.3759C129.454 99.8459 132.316 104.71 138.764 106.702C146.925 109.223 152.126 111.792 157.004 119.632C161.24 126.44 163.88 134.166 168.342 140.828C171.899 146.139 176.566 150.7 179.599 156.327C182.631 161.955 183.717 169.334 179.939 174.49C180.614 175.727 165.193 171.971 164.963 176.379C164.733 180.786 175.278 187.689 179.238 189.639C183.197 191.589 194.037 187.523 198.44 187.828C198.883 191.363 181.275 192.082 178.291 195.707C175.307 199.331 174.638 204.291 174.335 208.976C174.033 213.661 173.935 218.543 171.785 222.716C167.038 231.931 153.53 235.425 151.596 245.609C150.587 250.921 152.844 257.606 148.676 261.051C146.241 263.063 142.735 262.809 139.626 263.369C131.215 264.885 125.135 273.246 124.502 281.769C123.87 290.292 127.82 298.645 133.436 305.087C139.052 311.529 146.242 316.363 153.343 321.118C170.092 332.336 188.154 340.969 204.166 353.03C218.944 364.16 232.279 377.187 243.847 391.621C266.98 420.483 283.106 455.059 289.582 491.52C289.841 492.978 290.084 494.439 290.312 495.902C293.117 513.905 293.716 532.367 299.047 549.789C304.378 567.211 315.591 584.103 332.698 590.371C339.409 592.83 346.802 593.587 352.948 597.234C359.095 600.881 363.552 609.105 359.834 615.208C352.82 602.079 337.699 593.746 322.853 594.83C339.608 607.316 344.75 632.964 334.103 650.945C335.569 636.919 336.747 621.617 329.007 609.828C324.629 603.161 317.894 598.478 312.172 592.92C291.321 572.67 284.946 542.176 279.607 513.604C274.268 485.032 267.983 454.541 247.238 434.182C237.192 424.323 224.511 417.682 213.036 409.53C201.562 401.378 190.727 390.833 187.329 377.174C185.926 371.536 184.744 364.265 179.094 362.912C174.125 361.723 169.799 366.355 167.051 370.661C145.102 405.065 148.989 448.797 145.91 487.904C142.441 531.967 138.082 575.954 133.724 619.936C131.155 645.864 128.586 671.791 126.017 697.719C125.398 703.961 124.78 710.202 124.161 716.444C123.614 721.967 121.153 730.221 122.385 735.62C124.957 746.89 136.665 738.251 138.589 730.866C139.463 727.512 139.709 724.024 140.492 720.647C143.616 707.168 150.071 701.221 163.351 708.509C168.843 711.524 173.465 715.871 178.022 720.171C182.222 724.134 186.527 728.244 188.867 733.522C191.206 738.801 191.101 745.603 187.063 749.73C181.542 755.373 172.226 753.524 164.631 751.368C157.036 749.213 147.571 747.659 142.363 753.593C141.14 754.986 140.305 756.67 139.483 758.332C136.172 765.034 132.861 771.735 129.549 778.437C116.925 803.987 119.62 832.787 117.191 860.643C114.605 890.317 110.763 919.882 105.677 949.231C102.684 966.508 99.2602 983.707 95.8372 1000.9C95.8372 1009.36 92.193 1019.21 90.5361 1027.53C88.5831 1037.35 86.63 1047.16 84.6771 1056.97C81.1431 1074.72 78.0718 1092.21 74.9777 1110.03C68.6685 1146.38 57.947 1181.96 43.0948 1215.73C33.8254 1236.8 22.4923 1257.76 4.67229 1272.34C-17.638 1290.59 -47.214 1296.64 -75.5141 1302.12C-101.489 1307.14 -127.464 1312.17 -153.438 1317.19C-165.754 1319.58 -178.584 1322.19 -188.446 1329.94C-200.989 1339.8 -205.503 1355.62 -215.963 1367.13C-223.812 1375.76 -234.064 1379.3 -237.616 1391.14C-246.435 1420.56 -216.338 1458.19 -194.726 1473.75C-163.826 1496 -125.109 1503.89 -87.5298 1510.02C189.687 1555.28 472.918 1534.86 753.053 1514.33C914.887 1502.46 1076.72 1490.6 1238.55 1478.73C1281.39 1475.59 1325.91 1471.95 1363.06 1450.4C1443.21 1403.89 1458.34 1296.59 1464.7 1204.14C1479.28 991.994 1493.87 779.845 1508.46 567.696C1520.79 388.374 1532.25 202.6 1469.28 34.2435C1441.5 -40.0414 1394.7 -113.329 1321.2 -143.147C1253.82 -170.487 1176.82 -156.237 1108.12 -132.389C1039.43 -108.542 964.124 -143.131 892.207 -132.373C836.237 -124 763.237 -108.654 706.927 -114.297C484.956 -136.541 288.011 -111.956 66.04 -134.2C60.1683 -104.973 15.6491 20.9922 69.7935 25.2421Z" fill="#5F6F52"/>
</g>
<defs>
<clipPath id="clip0_481_24">
<rect width="1388.84" height="852.945" fill="white"/>
</clipPath>
</defs>
</svg>
