<svg width="1389" height="853" viewBox="0 0 1389 853" fill="none" xmlns="http://www.w3.org/2000/svg">
<g clip-path="url(#clip0_508_5)">
<path d="M69.7935 25.2421C78.759 25.9458 88.2205 24.31 96.4559 27.9241C112.596 35.0073 121.308 59.3939 141.106 45.4563C143.826 43.541 146.798 41.6633 150.122 41.5112C156.338 41.2267 161.411 47.5327 161.543 53.7535C161.675 59.9743 158.057 65.7145 153.629 70.0868C149.202 74.4591 143.902 77.8535 139.345 82.0898C136.233 84.983 133.422 88.3596 132.035 92.3759C129.454 99.8459 132.316 104.71 138.764 106.702C146.925 109.223 152.126 111.792 157.004 119.632C161.24 126.44 163.88 134.166 168.342 140.828C171.899 146.139 176.566 150.7 179.599 156.327C182.631 161.955 183.717 169.334 179.939 174.49C180.614 175.727 165.193 171.971 164.963 176.379C164.733 180.786 175.278 187.689 179.238 189.639C183.197 191.589 194.037 187.523 198.44 187.828C198.883 191.363 181.275 192.082 178.291 195.707C175.307 199.331 174.638 204.291 174.335 208.976C174.033 213.661 173.935 218.543 171.785 222.716C167.038 231.931 153.53 235.425 151.596 245.609C150.587 250.921 152.844 257.606 148.676 261.051C146.241 263.063 142.735 262.809 139.626 263.369C131.215 264.885 125.135 273.246 124.502 281.769C123.87 290.292 127.82 298.645 133.436 305.087C139.052 311.529 146.242 316.363 153.343 321.118C170.092 332.336 188.154 340.969 204.166 353.03C218.944 364.16 232.279 377.187 243.847 391.621C266.98 420.483 283.106 455.059 289.582 491.52C289.841 492.978 290.084 494.439 290.312 495.902C293.117 513.905 293.716 532.367 299.047 549.789C304.378 567.211 315.591 584.103 332.698 590.371C339.409 592.83 346.802 593.587 352.948 597.234C359.095 600.881 363.552 609.105 359.834 615.208C352.82 602.079 337.699 593.746 322.853 594.83C339.608 607.316 344.75 632.964 334.103 650.945C335.569 636.919 336.747 621.617 329.007 609.828C324.629 603.161 317.894 598.478 312.172 592.92C291.321 572.67 284.946 542.176 279.607 513.604C274.268 485.032 267.983 454.541 247.238 434.182C237.192 424.323 224.511 417.682 213.036 409.53C201.562 401.378 190.727 390.833 187.329 377.174C185.926 371.536 184.744 364.265 179.094 362.912C174.125 361.723 169.799 366.355 167.051 370.661C145.102 405.065 148.989 448.797 145.91 487.904C142.441 531.967 138.082 575.954 133.724 619.936C131.155 645.864 128.586 671.791 126.017 697.719C125.398 703.961 124.78 710.202 124.161 716.444C123.614 721.967 121.153 730.221 122.385 735.62C124.957 746.89 136.665 738.251 138.589 730.866C139.463 727.512 139.709 724.024 140.492 720.647C143.616 707.168 150.071 701.221 163.351 708.509C168.843 711.524 173.465 715.871 178.022 720.171C182.222 724.134 186.527 728.244 188.867 733.522C191.206 738.801 191.101 745.603 187.063 749.73C181.542 755.373 172.226 753.524 164.631 751.368C157.036 749.213 147.571 747.659 142.363 753.593C141.14 754.986 140.305 756.67 139.483 758.332C136.172 765.034 132.861 771.735 129.549 778.437C116.925 803.987 119.62 832.787 117.191 860.643C114.605 890.317 110.763 919.882 105.677 949.231C102.684 966.508 99.2602 983.707 95.8372 1000.9C95.8372 1009.36 92.193 1019.21 90.5361 1027.53C88.5831 1037.35 86.63 1047.16 84.6771 1056.97C81.1431 1074.72 78.0718 1092.21 74.9777 1110.03C68.6685 1146.38 57.947 1181.96 43.0948 1215.73C33.8254 1236.8 22.4923 1257.76 4.67229 1272.34C-17.638 1290.59 -47.214 1296.64 -75.5141 1302.12C-101.489 1307.14 -127.464 1312.17 -153.438 1317.19C-165.754 1319.58 -178.584 1322.19 -188.446 1329.94C-200.989 1339.8 -205.503 1355.62 -215.963 1367.13C-223.812 1375.76 -234.064 1379.3 -237.616 1391.14C-246.435 1420.56 -216.338 1458.19 -194.726 1473.75C-163.826 1496 -125.109 1503.89 -87.5298 1510.02C189.687 1555.28 472.918 1534.86 753.053 1514.33C914.887 1502.46 1076.72 1490.6 1238.55 1478.73C1281.39 1475.59 1325.91 1471.95 1363.06 1450.4C1443.21 1403.89 1458.34 1296.59 1464.7 1204.14C1479.28 991.994 1493.87 779.845 1508.46 567.696C1520.79 388.374 1532.25 202.6 1469.28 34.2435C1441.5 -40.0414 1394.7 -113.329 1321.2 -143.147C1253.82 -170.487 1176.82 -156.237 1108.12 -132.389C1039.43 -108.542 964.124 -143.131 892.207 -132.373C836.237 -124 763.237 -108.654 706.927 -114.297C484.956 -136.541 288.011 -111.956 66.04 -134.2C60.1683 -104.973 15.6491 20.9922 69.7935 25.2421Z" fill="#ABC396"/>
<circle cx="334.342" cy="673.5" r="8" fill="#343434" stroke="#ABC396"/>
<mask id="path-3-outside-1_508_5" maskUnits="userSpaceOnUse" x="351.842" y="683" width="92" height="15" fill="black">
<rect fill="white" x="351.842" y="683" width="92" height="15"/>
<path d="M352.853 696V684.364H357.512C358.368 684.364 359.082 684.491 359.654 684.744C360.226 684.998 360.656 685.35 360.944 685.801C361.232 686.248 361.376 686.763 361.376 687.347C361.376 687.801 361.285 688.201 361.103 688.545C360.921 688.886 360.671 689.167 360.353 689.386C360.039 689.602 359.679 689.756 359.274 689.847V689.96C359.717 689.979 360.132 690.104 360.518 690.335C360.908 690.566 361.224 690.89 361.467 691.307C361.709 691.72 361.83 692.212 361.83 692.784C361.83 693.402 361.677 693.953 361.37 694.438C361.067 694.919 360.618 695.299 360.024 695.58C359.429 695.86 358.696 696 357.825 696H352.853ZM355.313 693.989H357.319C358.005 693.989 358.505 693.858 358.819 693.597C359.133 693.331 359.291 692.979 359.291 692.54C359.291 692.218 359.213 691.934 359.058 691.688C358.902 691.441 358.681 691.248 358.393 691.108C358.109 690.968 357.77 690.898 357.376 690.898H355.313V693.989ZM355.313 689.233H357.137C357.474 689.233 357.774 689.174 358.035 689.057C358.3 688.936 358.508 688.765 358.66 688.545C358.815 688.326 358.893 688.062 358.893 687.756C358.893 687.335 358.743 686.996 358.444 686.739C358.149 686.481 357.728 686.352 357.183 686.352H355.313V689.233ZM374.124 690.182C374.124 691.451 373.884 692.53 373.403 693.42C372.926 694.311 372.274 694.991 371.448 695.46C370.626 695.926 369.702 696.159 368.676 696.159C367.642 696.159 366.713 695.924 365.892 695.455C365.07 694.985 364.42 694.305 363.943 693.415C363.465 692.525 363.227 691.447 363.227 690.182C363.227 688.913 363.465 687.833 363.943 686.943C364.42 686.053 365.07 685.375 365.892 684.909C366.713 684.439 367.642 684.205 368.676 684.205C369.702 684.205 370.626 684.439 371.448 684.909C372.274 685.375 372.926 686.053 373.403 686.943C373.884 687.833 374.124 688.913 374.124 690.182ZM371.63 690.182C371.63 689.36 371.507 688.667 371.261 688.102C371.018 687.538 370.676 687.11 370.232 686.818C369.789 686.527 369.27 686.381 368.676 686.381C368.081 686.381 367.562 686.527 367.119 686.818C366.676 687.11 366.331 687.538 366.085 688.102C365.842 688.667 365.721 689.36 365.721 690.182C365.721 691.004 365.842 691.697 366.085 692.261C366.331 692.826 366.676 693.254 367.119 693.545C367.562 693.837 368.081 693.983 368.676 693.983C369.27 693.983 369.789 693.837 370.232 693.545C370.676 693.254 371.018 692.826 371.261 692.261C371.507 691.697 371.63 691.004 371.63 690.182ZM375.947 696V684.364H380.538C381.417 684.364 382.167 684.521 382.788 684.835C383.413 685.146 383.888 685.587 384.214 686.159C384.544 686.727 384.708 687.396 384.708 688.165C384.708 688.937 384.542 689.602 384.208 690.159C383.875 690.712 383.392 691.136 382.759 691.432C382.131 691.727 381.369 691.875 380.475 691.875H377.401V689.898H380.078C380.547 689.898 380.937 689.833 381.248 689.705C381.559 689.576 381.79 689.383 381.941 689.125C382.097 688.867 382.174 688.547 382.174 688.165C382.174 687.778 382.097 687.453 381.941 687.188C381.79 686.922 381.557 686.722 381.242 686.585C380.932 686.445 380.54 686.375 380.066 686.375H378.407V696H375.947ZM382.231 690.705L385.123 696H382.407L379.578 690.705H382.231ZM390.572 696H386.447V684.364H390.606C391.776 684.364 392.784 684.597 393.629 685.062C394.473 685.525 395.123 686.189 395.578 687.057C396.036 687.924 396.265 688.962 396.265 690.17C396.265 691.383 396.036 692.424 395.578 693.295C395.123 694.167 394.47 694.835 393.617 695.301C392.769 695.767 391.754 696 390.572 696ZM388.907 693.892H390.47C391.197 693.892 391.809 693.763 392.305 693.506C392.805 693.244 393.18 692.841 393.43 692.295C393.684 691.746 393.811 691.038 393.811 690.17C393.811 689.311 393.684 688.608 393.43 688.062C393.18 687.517 392.807 687.116 392.311 686.858C391.814 686.6 391.203 686.472 390.475 686.472H388.907V693.892ZM398.088 696V684.364H405.928V686.392H400.548V689.165H405.525V691.193H400.548V693.972H405.951V696H398.088ZM409.89 696H407.254L411.271 684.364H414.441L418.453 696H415.816L412.901 687.023H412.811L409.89 696ZM409.725 691.426H415.953V693.347H409.725V691.426ZM427.041 684.364H429.501V691.92C429.501 692.769 429.298 693.511 428.893 694.148C428.491 694.784 427.929 695.28 427.205 695.636C426.482 695.989 425.639 696.165 424.677 696.165C423.711 696.165 422.866 695.989 422.143 695.636C421.419 695.28 420.857 694.784 420.455 694.148C420.054 693.511 419.853 692.769 419.853 691.92V684.364H422.313V691.71C422.313 692.153 422.41 692.547 422.603 692.892C422.8 693.237 423.077 693.508 423.433 693.705C423.789 693.902 424.204 694 424.677 694C425.154 694 425.569 693.902 425.921 693.705C426.277 693.508 426.552 693.237 426.745 692.892C426.942 692.547 427.041 692.153 427.041 691.71V684.364ZM433.832 684.364L436.178 688.33H436.269L438.627 684.364H441.406L437.855 690.182L441.485 696H438.656L436.269 692.028H436.178L433.792 696H430.974L434.616 690.182L431.042 684.364H433.832Z"/>
</mask>
<path d="M352.853 696V684.364H357.512C358.368 684.364 359.082 684.491 359.654 684.744C360.226 684.998 360.656 685.35 360.944 685.801C361.232 686.248 361.376 686.763 361.376 687.347C361.376 687.801 361.285 688.201 361.103 688.545C360.921 688.886 360.671 689.167 360.353 689.386C360.039 689.602 359.679 689.756 359.274 689.847V689.96C359.717 689.979 360.132 690.104 360.518 690.335C360.908 690.566 361.224 690.89 361.467 691.307C361.709 691.72 361.83 692.212 361.83 692.784C361.83 693.402 361.677 693.953 361.37 694.438C361.067 694.919 360.618 695.299 360.024 695.58C359.429 695.86 358.696 696 357.825 696H352.853ZM355.313 693.989H357.319C358.005 693.989 358.505 693.858 358.819 693.597C359.133 693.331 359.291 692.979 359.291 692.54C359.291 692.218 359.213 691.934 359.058 691.688C358.902 691.441 358.681 691.248 358.393 691.108C358.109 690.968 357.77 690.898 357.376 690.898H355.313V693.989ZM355.313 689.233H357.137C357.474 689.233 357.774 689.174 358.035 689.057C358.3 688.936 358.508 688.765 358.66 688.545C358.815 688.326 358.893 688.062 358.893 687.756C358.893 687.335 358.743 686.996 358.444 686.739C358.149 686.481 357.728 686.352 357.183 686.352H355.313V689.233ZM374.124 690.182C374.124 691.451 373.884 692.53 373.403 693.42C372.926 694.311 372.274 694.991 371.448 695.46C370.626 695.926 369.702 696.159 368.676 696.159C367.642 696.159 366.713 695.924 365.892 695.455C365.07 694.985 364.42 694.305 363.943 693.415C363.465 692.525 363.227 691.447 363.227 690.182C363.227 688.913 363.465 687.833 363.943 686.943C364.42 686.053 365.07 685.375 365.892 684.909C366.713 684.439 367.642 684.205 368.676 684.205C369.702 684.205 370.626 684.439 371.448 684.909C372.274 685.375 372.926 686.053 373.403 686.943C373.884 687.833 374.124 688.913 374.124 690.182ZM371.63 690.182C371.63 689.36 371.507 688.667 371.261 688.102C371.018 687.538 370.676 687.11 370.232 686.818C369.789 686.527 369.27 686.381 368.676 686.381C368.081 686.381 367.562 686.527 367.119 686.818C366.676 687.11 366.331 687.538 366.085 688.102C365.842 688.667 365.721 689.36 365.721 690.182C365.721 691.004 365.842 691.697 366.085 692.261C366.331 692.826 366.676 693.254 367.119 693.545C367.562 693.837 368.081 693.983 368.676 693.983C369.27 693.983 369.789 693.837 370.232 693.545C370.676 693.254 371.018 692.826 371.261 692.261C371.507 691.697 371.63 691.004 371.63 690.182ZM375.947 696V684.364H380.538C381.417 684.364 382.167 684.521 382.788 684.835C383.413 685.146 383.888 685.587 384.214 686.159C384.544 686.727 384.708 687.396 384.708 688.165C384.708 688.937 384.542 689.602 384.208 690.159C383.875 690.712 383.392 691.136 382.759 691.432C382.131 691.727 381.369 691.875 380.475 691.875H377.401V689.898H380.078C380.547 689.898 380.937 689.833 381.248 689.705C381.559 689.576 381.79 689.383 381.941 689.125C382.097 688.867 382.174 688.547 382.174 688.165C382.174 687.778 382.097 687.453 381.941 687.188C381.79 686.922 381.557 686.722 381.242 686.585C380.932 686.445 380.54 686.375 380.066 686.375H378.407V696H375.947ZM382.231 690.705L385.123 696H382.407L379.578 690.705H382.231ZM390.572 696H386.447V684.364H390.606C391.776 684.364 392.784 684.597 393.629 685.062C394.473 685.525 395.123 686.189 395.578 687.057C396.036 687.924 396.265 688.962 396.265 690.17C396.265 691.383 396.036 692.424 395.578 693.295C395.123 694.167 394.47 694.835 393.617 695.301C392.769 695.767 391.754 696 390.572 696ZM388.907 693.892H390.47C391.197 693.892 391.809 693.763 392.305 693.506C392.805 693.244 393.18 692.841 393.43 692.295C393.684 691.746 393.811 691.038 393.811 690.17C393.811 689.311 393.684 688.608 393.43 688.062C393.18 687.517 392.807 687.116 392.311 686.858C391.814 686.6 391.203 686.472 390.475 686.472H388.907V693.892ZM398.088 696V684.364H405.928V686.392H400.548V689.165H405.525V691.193H400.548V693.972H405.951V696H398.088ZM409.89 696H407.254L411.271 684.364H414.441L418.453 696H415.816L412.901 687.023H412.811L409.89 696ZM409.725 691.426H415.953V693.347H409.725V691.426ZM427.041 684.364H429.501V691.92C429.501 692.769 429.298 693.511 428.893 694.148C428.491 694.784 427.929 695.28 427.205 695.636C426.482 695.989 425.639 696.165 424.677 696.165C423.711 696.165 422.866 695.989 422.143 695.636C421.419 695.28 420.857 694.784 420.455 694.148C420.054 693.511 419.853 692.769 419.853 691.92V684.364H422.313V691.71C422.313 692.153 422.41 692.547 422.603 692.892C422.8 693.237 423.077 693.508 423.433 693.705C423.789 693.902 424.204 694 424.677 694C425.154 694 425.569 693.902 425.921 693.705C426.277 693.508 426.552 693.237 426.745 692.892C426.942 692.547 427.041 692.153 427.041 691.71V684.364ZM433.832 684.364L436.178 688.33H436.269L438.627 684.364H441.406L437.855 690.182L441.485 696H438.656L436.269 692.028H436.178L433.792 696H430.974L434.616 690.182L431.042 684.364H433.832Z" fill="#343434"/>
<path d="M352.853 696H351.853V697H352.853V696ZM352.853 684.364V683.364H351.853V684.364H352.853ZM359.654 684.744L359.249 685.658L359.249 685.658L359.654 684.744ZM360.944 685.801L360.101 686.339L360.103 686.343L360.944 685.801ZM361.103 688.545L361.986 689.016L361.988 689.012L361.103 688.545ZM360.353 689.386L360.919 690.211L360.921 690.209L360.353 689.386ZM359.274 689.847L359.055 688.871L358.274 689.046V689.847H359.274ZM359.274 689.96H358.274V690.918L359.231 690.959L359.274 689.96ZM360.518 690.335L360.005 691.193L360.008 691.196L360.518 690.335ZM361.467 691.307L360.602 691.81L360.604 691.813L361.467 691.307ZM361.37 694.438L360.525 693.903L360.524 693.905L361.37 694.438ZM360.024 695.58L359.597 694.675L359.597 694.675L360.024 695.58ZM355.313 693.989H354.313V694.989H355.313V693.989ZM358.819 693.597L359.458 694.366L359.464 694.361L358.819 693.597ZM359.058 691.688L358.212 692.221L358.212 692.221L359.058 691.688ZM358.393 691.108L357.951 692.005L357.955 692.007L358.393 691.108ZM355.313 690.898V689.898H354.313V690.898H355.313ZM355.313 689.233H354.313V690.233H355.313V689.233ZM358.035 689.057L358.445 689.969L358.451 689.966L358.035 689.057ZM358.66 688.545L357.843 687.968L357.837 687.978L358.66 688.545ZM358.444 686.739L357.787 687.492L357.792 687.497L358.444 686.739ZM355.313 686.352V685.352H354.313V686.352H355.313ZM353.853 696V684.364H351.853V696H353.853ZM352.853 685.364H357.512V683.364H352.853V685.364ZM357.512 685.364C358.277 685.364 358.842 685.478 359.249 685.658L360.06 683.83C359.322 683.503 358.46 683.364 357.512 683.364V685.364ZM359.249 685.658C359.672 685.846 359.936 686.081 360.101 686.339L361.787 685.263C361.376 684.62 360.78 684.15 360.06 683.83L359.249 685.658ZM360.103 686.343C360.277 686.613 360.376 686.936 360.376 687.347H362.376C362.376 686.591 362.187 685.884 361.785 685.26L360.103 686.343ZM360.376 687.347C360.376 687.666 360.313 687.9 360.219 688.079L361.988 689.012C362.257 688.501 362.376 687.937 362.376 687.347H360.376ZM360.221 688.075C360.114 688.275 359.972 688.434 359.785 688.563L360.921 690.209C361.371 689.899 361.729 689.498 361.986 689.016L360.221 688.075ZM359.787 688.562C359.587 688.7 359.347 688.805 359.055 688.871L359.492 690.822C360.011 690.706 360.491 690.505 360.919 690.211L359.787 688.562ZM358.274 689.847V689.96H360.274V689.847H358.274ZM359.231 690.959C359.505 690.971 359.759 691.046 360.005 691.193L361.031 689.477C360.504 689.162 359.928 688.987 359.316 688.961L359.231 690.959ZM360.008 691.196C360.242 691.334 360.44 691.531 360.602 691.81L362.331 690.804C362.009 690.249 361.574 689.798 361.028 689.475L360.008 691.196ZM360.604 691.813C360.741 692.045 360.83 692.355 360.83 692.784H362.83C362.83 692.069 362.678 691.394 362.329 690.8L360.604 691.813ZM360.83 692.784C360.83 693.227 360.723 693.59 360.525 693.903L362.215 694.972C362.631 694.315 362.83 693.576 362.83 692.784H360.83ZM360.524 693.905C360.338 694.2 360.047 694.463 359.597 694.675L360.45 696.484C361.19 696.135 361.797 695.637 362.216 694.97L360.524 693.905ZM359.597 694.675C359.172 694.875 358.594 695 357.825 695V697C358.798 697 359.686 696.844 360.45 696.484L359.597 694.675ZM357.825 695H352.853V697H357.825V695ZM355.313 694.989H357.319V692.989H355.313V694.989ZM357.319 694.989C358.093 694.989 358.878 694.848 359.458 694.366L358.18 692.828C358.132 692.868 357.916 692.989 357.319 692.989V694.989ZM359.464 694.361C360.02 693.892 360.291 693.251 360.291 692.54H358.291C358.291 692.707 358.246 692.771 358.174 692.832L359.464 694.361ZM360.291 692.54C360.291 692.05 360.17 691.577 359.904 691.154L358.212 692.221C358.256 692.291 358.291 692.386 358.291 692.54H360.291ZM359.904 691.154C359.639 690.735 359.269 690.422 358.831 690.209L357.955 692.007C358.093 692.074 358.166 692.148 358.212 692.221L359.904 691.154ZM358.835 690.211C358.384 689.989 357.887 689.898 357.376 689.898V691.898C357.653 691.898 357.833 691.947 357.951 692.005L358.835 690.211ZM357.376 689.898H355.313V691.898H357.376V689.898ZM354.313 690.898V693.989H356.313V690.898H354.313ZM355.313 690.233H357.137V688.233H355.313V690.233ZM357.137 690.233C357.591 690.233 358.034 690.154 358.445 689.969L357.625 688.145C357.513 688.195 357.358 688.233 357.137 688.233V690.233ZM358.451 689.966C358.864 689.777 359.22 689.495 359.483 689.113L357.837 687.978C357.797 688.035 357.736 688.094 357.619 688.147L358.451 689.966ZM359.477 689.123C359.767 688.711 359.893 688.239 359.893 687.756H357.893C357.893 687.886 357.863 687.94 357.843 687.968L359.477 689.123ZM359.893 687.756C359.893 687.066 359.632 686.442 359.096 685.981L357.792 687.497C357.854 687.551 357.893 687.605 357.893 687.756H359.893ZM359.101 685.985C358.563 685.516 357.875 685.352 357.183 685.352V687.352C357.581 687.352 357.734 687.446 357.787 687.492L359.101 685.985ZM357.183 685.352H355.313V687.352H357.183V685.352ZM354.313 686.352V689.233H356.313V686.352H354.313ZM373.403 693.42L372.523 692.945L372.522 692.948L373.403 693.42ZM371.448 695.46L371.941 696.33L371.943 696.329L371.448 695.46ZM365.892 695.455L366.388 694.586L365.892 695.455ZM363.943 693.415L363.061 693.887L363.061 693.887L363.943 693.415ZM363.943 686.943L364.824 687.416L364.824 687.416L363.943 686.943ZM365.892 684.909L366.385 685.779L366.388 685.777L365.892 684.909ZM371.448 684.909L370.952 685.777L370.957 685.78L371.448 684.909ZM373.403 686.943L372.522 687.416L372.523 687.419L373.403 686.943ZM371.261 688.102L370.342 688.497L370.344 688.502L371.261 688.102ZM370.232 686.818L369.683 687.654L369.683 687.654L370.232 686.818ZM367.119 686.818L367.669 687.654L367.669 687.654L367.119 686.818ZM366.085 688.102L365.168 687.702L365.166 687.708L366.085 688.102ZM366.085 692.261L365.166 692.656L365.168 692.661L366.085 692.261ZM367.119 693.545L367.669 692.71L367.669 692.71L367.119 693.545ZM370.232 693.545L369.683 692.71L369.683 692.71L370.232 693.545ZM371.261 692.261L370.344 691.862L370.342 691.867L371.261 692.261ZM373.124 690.182C373.124 691.326 372.908 692.233 372.523 692.945L374.283 693.896C374.86 692.827 375.124 691.575 375.124 690.182H373.124ZM372.522 692.948C372.127 693.683 371.605 694.22 370.954 694.591L371.943 696.329C372.943 695.761 373.724 694.938 374.284 693.893L372.522 692.948ZM370.955 694.59C370.296 694.964 369.545 695.159 368.676 695.159V697.159C369.86 697.159 370.956 696.889 371.941 696.33L370.955 694.59ZM368.676 695.159C367.799 695.159 367.045 694.962 366.388 694.586L365.395 696.323C366.382 696.887 367.484 697.159 368.676 697.159V695.159ZM366.388 694.586C365.74 694.216 365.219 693.678 364.824 692.942L363.061 693.887C363.621 694.931 364.399 695.754 365.395 696.323L366.388 694.586ZM364.824 692.942C364.442 692.23 364.227 691.323 364.227 690.182H362.227C362.227 691.571 362.489 692.82 363.061 693.887L364.824 692.942ZM364.227 690.182C364.227 689.036 364.442 688.128 364.824 687.416L363.061 686.471C362.489 687.539 362.227 688.789 362.227 690.182H364.227ZM364.824 687.416C365.218 686.68 365.738 686.145 366.385 685.779L365.398 684.039C364.401 684.605 363.621 685.426 363.061 686.471L364.824 687.416ZM366.388 685.777C367.045 685.402 367.799 685.205 368.676 685.205V683.205C367.484 683.205 366.382 683.477 365.395 684.041L366.388 685.777ZM368.676 685.205C369.543 685.205 370.294 685.401 370.952 685.777L371.944 684.041C370.959 683.478 369.861 683.205 368.676 683.205V685.205ZM370.957 685.78C371.607 686.147 372.128 686.681 372.522 687.416L374.284 686.471C373.723 685.425 372.942 684.603 371.94 684.038L370.957 685.78ZM372.523 687.419C372.908 688.13 373.124 689.037 373.124 690.182H375.124C375.124 688.788 374.86 687.536 374.283 686.468L372.523 687.419ZM372.63 690.182C372.63 689.266 372.494 688.428 372.177 687.702L370.344 688.502C370.52 688.906 370.63 689.454 370.63 690.182H372.63ZM372.18 687.708C371.872 686.992 371.413 686.398 370.782 685.983L369.683 687.654C369.938 687.821 370.164 688.083 370.342 688.497L372.18 687.708ZM370.782 685.983C370.156 685.571 369.441 685.381 368.676 685.381V687.381C369.099 687.381 369.422 687.482 369.683 687.654L370.782 685.983ZM368.676 685.381C367.91 685.381 367.195 685.571 366.569 685.983L367.669 687.654C367.929 687.482 368.252 687.381 368.676 687.381V685.381ZM366.569 685.983C365.939 686.397 365.479 686.99 365.168 687.702L367.001 688.502C367.183 688.086 367.412 687.822 367.669 687.654L366.569 685.983ZM365.166 687.708C364.855 688.431 364.721 689.268 364.721 690.182H366.721C366.721 689.452 366.829 688.902 367.004 688.497L365.166 687.708ZM364.721 690.182C364.721 691.096 364.855 691.932 365.166 692.656L367.004 691.867C366.829 691.461 366.721 690.911 366.721 690.182H364.721ZM365.168 692.661C365.479 693.374 365.939 693.966 366.569 694.381L367.669 692.71C367.412 692.541 367.183 692.277 367.001 691.862L365.168 692.661ZM366.569 694.381C367.195 694.793 367.91 694.983 368.676 694.983V692.983C368.252 692.983 367.929 692.882 367.669 692.71L366.569 694.381ZM368.676 694.983C369.441 694.983 370.156 694.793 370.782 694.381L369.683 692.71C369.422 692.882 369.099 692.983 368.676 692.983V694.983ZM370.782 694.381C371.413 693.965 371.872 693.371 372.18 692.656L370.342 691.867C370.164 692.28 369.938 692.542 369.683 692.71L370.782 694.381ZM372.177 692.661C372.494 691.936 372.63 691.098 372.63 690.182H370.63C370.63 690.91 370.52 691.458 370.344 691.862L372.177 692.661ZM375.947 696H374.947V697H375.947V696ZM375.947 684.364V683.364H374.947V684.364H375.947ZM382.788 684.835L382.336 685.727L382.343 685.731L382.788 684.835ZM384.214 686.159L383.345 686.654L383.349 686.661L384.214 686.159ZM384.208 690.159L385.065 690.675L385.066 690.673L384.208 690.159ZM382.759 691.432L382.336 690.526L382.334 690.527L382.759 691.432ZM377.401 691.875H376.401V692.875H377.401V691.875ZM377.401 689.898V688.898H376.401V689.898H377.401ZM381.248 689.705L381.631 690.628L381.631 690.628L381.248 689.705ZM381.941 689.125L381.085 688.609L381.079 688.618L381.941 689.125ZM381.941 687.188L381.073 687.684L381.078 687.693L381.941 687.188ZM381.242 686.585L380.831 687.497L380.838 687.5L380.844 687.503L381.242 686.585ZM378.407 686.375V685.375H377.407V686.375H378.407ZM378.407 696V697H379.407V696H378.407ZM382.231 690.705L383.109 690.225L382.824 689.705H382.231V690.705ZM385.123 696V697H386.809L386.001 695.521L385.123 696ZM382.407 696L381.525 696.471L381.808 697H382.407V696ZM379.578 690.705V689.705H377.909L378.696 691.176L379.578 690.705ZM376.947 696V684.364H374.947V696H376.947ZM375.947 685.364H380.538V683.364H375.947V685.364ZM380.538 685.364C381.3 685.364 381.887 685.5 382.336 685.727L383.239 683.943C382.446 683.542 381.533 683.364 380.538 683.364V685.364ZM382.343 685.731C382.801 685.959 383.124 686.265 383.345 686.654L385.083 685.664C384.653 684.909 384.025 684.333 383.233 683.94L382.343 685.731ZM383.349 686.661C383.576 687.052 383.708 687.542 383.708 688.165H385.708C385.708 687.25 385.511 686.402 385.079 685.657L383.349 686.661ZM383.708 688.165C383.708 688.791 383.574 689.271 383.35 689.645L385.066 690.673C385.509 689.933 385.708 689.084 385.708 688.165H383.708ZM383.352 689.643C383.129 690.012 382.804 690.307 382.336 690.526L383.183 692.338C383.98 691.966 384.62 691.412 385.065 690.675L383.352 689.643ZM382.334 690.527C381.871 690.744 381.263 690.875 380.475 690.875V692.875C381.476 692.875 382.39 692.71 383.185 692.337L382.334 690.527ZM380.475 690.875H377.401V692.875H380.475V690.875ZM378.401 691.875V689.898H376.401V691.875H378.401ZM377.401 690.898H380.078V688.898H377.401V690.898ZM380.078 690.898C380.63 690.898 381.161 690.823 381.631 690.628L380.865 688.781C380.714 688.844 380.464 688.898 380.078 688.898V690.898ZM381.631 690.628C382.116 690.427 382.528 690.1 382.803 689.632L381.079 688.618C381.052 688.665 381.001 688.724 380.865 688.781L381.631 690.628ZM382.798 689.641C383.069 689.191 383.174 688.681 383.174 688.165H381.174C381.174 688.414 381.124 688.544 381.085 688.609L382.798 689.641ZM383.174 688.165C383.174 687.646 383.07 687.135 382.804 686.682L381.078 687.693C381.124 687.77 381.174 687.911 381.174 688.165H383.174ZM382.809 686.691C382.538 686.216 382.127 685.879 381.64 685.668L380.844 687.503C380.986 687.564 381.042 687.629 381.073 687.684L382.809 686.691ZM381.654 685.674C381.174 685.457 380.63 685.375 380.066 685.375V687.375C380.45 687.375 380.69 687.433 380.831 687.497L381.654 685.674ZM380.066 685.375H378.407V687.375H380.066V685.375ZM377.407 686.375V696H379.407V686.375H377.407ZM378.407 695H375.947V697H378.407V695ZM381.353 691.184L384.245 696.479L386.001 695.521L383.109 690.225L381.353 691.184ZM385.123 695H382.407V697H385.123V695ZM383.289 695.529L380.46 690.233L378.696 691.176L381.525 696.471L383.289 695.529ZM379.578 691.705H382.231V689.705H379.578V691.705ZM386.447 696H385.447V697H386.447V696ZM386.447 684.364V683.364H385.447V684.364H386.447ZM393.629 685.062L393.146 685.938L393.149 685.94L393.629 685.062ZM395.578 687.057L394.692 687.521L394.693 687.524L395.578 687.057ZM395.578 693.295L394.693 692.83L394.691 692.833L395.578 693.295ZM393.617 695.301L393.138 694.424L393.136 694.425L393.617 695.301ZM388.907 693.892H387.907V694.892H388.907V693.892ZM392.305 693.506L392.766 694.393L392.768 694.392L392.305 693.506ZM393.43 692.295L392.522 691.876L392.521 691.879L393.43 692.295ZM393.43 688.062L392.521 688.479L392.523 688.484L393.43 688.062ZM392.311 686.858L392.771 685.97L392.771 685.97L392.311 686.858ZM388.907 686.472V685.472H387.907V686.472H388.907ZM390.572 695H386.447V697H390.572V695ZM387.447 696V684.364H385.447V696H387.447ZM386.447 685.364H390.606V683.364H386.447V685.364ZM390.606 685.364C391.643 685.364 392.477 685.57 393.146 685.938L394.112 684.187C393.091 683.624 391.91 683.364 390.606 683.364V685.364ZM393.149 685.94C393.817 686.306 394.327 686.825 394.692 687.521L396.463 686.593C395.919 685.554 395.13 684.744 394.109 684.185L393.149 685.94ZM394.693 687.524C395.06 688.218 395.265 689.088 395.265 690.17H397.265C397.265 688.836 397.012 687.631 396.462 686.59L394.693 687.524ZM395.265 690.17C395.265 691.257 395.06 692.132 394.693 692.83L396.463 693.761C397.012 692.717 397.265 691.508 397.265 690.17H395.265ZM394.691 692.833C394.327 693.531 393.814 694.054 393.138 694.424L394.097 696.179C395.125 695.617 395.919 694.803 396.464 693.758L394.691 692.833ZM393.136 694.425C392.464 694.793 391.622 695 390.572 695V697C391.885 697 393.073 696.741 394.099 696.178L393.136 694.425ZM388.907 694.892H390.47V692.892H388.907V694.892ZM390.47 694.892C391.311 694.892 392.091 694.744 392.766 694.393L391.844 692.618C391.527 692.783 391.083 692.892 390.47 692.892V694.892ZM392.768 694.392C393.478 694.021 394.003 693.446 394.339 692.712L392.521 691.879C392.357 692.236 392.132 692.468 391.842 692.619L392.768 694.392ZM394.338 692.715C394.673 691.99 394.811 691.125 394.811 690.17H392.811C392.811 690.951 392.695 691.502 392.522 691.876L394.338 692.715ZM394.811 690.17C394.811 689.223 394.672 688.362 394.337 687.641L392.523 688.484C392.695 688.854 392.811 689.398 392.811 690.17H394.811ZM394.339 687.646C394.003 686.914 393.48 686.338 392.771 685.97L391.85 687.746C392.133 687.893 392.356 688.12 392.521 688.479L394.339 687.646ZM392.771 685.97C392.096 685.62 391.316 685.472 390.475 685.472V687.472C391.089 687.472 391.532 687.581 391.85 687.746L392.771 685.97ZM390.475 685.472H388.907V687.472H390.475V685.472ZM387.907 686.472V693.892H389.907V686.472H387.907ZM398.088 696H397.088V697H398.088V696ZM398.088 684.364V683.364H397.088V684.364H398.088ZM405.928 684.364H406.928V683.364H405.928V684.364ZM405.928 686.392V687.392H406.928V686.392H405.928ZM400.548 686.392V685.392H399.548V686.392H400.548ZM400.548 689.165H399.548V690.165H400.548V689.165ZM405.525 689.165H406.525V688.165H405.525V689.165ZM405.525 691.193V692.193H406.525V691.193H405.525ZM400.548 691.193V690.193H399.548V691.193H400.548ZM400.548 693.972H399.548V694.972H400.548V693.972ZM405.951 693.972H406.951V692.972H405.951V693.972ZM405.951 696V697H406.951V696H405.951ZM399.088 696V684.364H397.088V696H399.088ZM398.088 685.364H405.928V683.364H398.088V685.364ZM404.928 684.364V686.392H406.928V684.364H404.928ZM405.928 685.392H400.548V687.392H405.928V685.392ZM399.548 686.392V689.165H401.548V686.392H399.548ZM400.548 690.165H405.525V688.165H400.548V690.165ZM404.525 689.165V691.193H406.525V689.165H404.525ZM405.525 690.193H400.548V692.193H405.525V690.193ZM399.548 691.193V693.972H401.548V691.193H399.548ZM400.548 694.972H405.951V692.972H400.548V694.972ZM404.951 693.972V696H406.951V693.972H404.951ZM405.951 695H398.088V697H405.951V695ZM409.89 696V697H410.616L410.841 696.309L409.89 696ZM407.254 696L406.308 695.674L405.851 697H407.254V696ZM411.271 684.364V683.364H410.558L410.326 684.037L411.271 684.364ZM414.441 684.364L415.387 684.038L415.154 683.364H414.441V684.364ZM418.453 696V697H419.855L419.398 695.674L418.453 696ZM415.816 696L414.865 696.309L415.09 697H415.816V696ZM412.901 687.023L413.853 686.714L413.628 686.023H412.901V687.023ZM412.811 687.023V686.023H412.084L411.86 686.713L412.811 687.023ZM409.725 691.426V690.426H408.725V691.426H409.725ZM415.953 691.426H416.953V690.426H415.953V691.426ZM415.953 693.347V694.347H416.953V693.347H415.953ZM409.725 693.347H408.725V694.347H409.725V693.347ZM409.89 695H407.254V697H409.89V695ZM408.199 696.326L412.216 684.69L410.326 684.037L406.308 695.674L408.199 696.326ZM411.271 685.364H414.441V683.364H411.271V685.364ZM413.496 684.69L417.507 696.326L419.398 695.674L415.387 684.038L413.496 684.69ZM418.453 695H415.816V697H418.453V695ZM416.767 695.691L413.853 686.714L411.95 687.332L414.865 696.309L416.767 695.691ZM412.901 686.023H412.811V688.023H412.901V686.023ZM411.86 686.713L408.939 695.691L410.841 696.309L413.761 687.332L411.86 686.713ZM409.725 692.426H415.953V690.426H409.725V692.426ZM414.953 691.426V693.347H416.953V691.426H414.953ZM415.953 692.347H409.725V694.347H415.953V692.347ZM410.725 693.347V691.426H408.725V693.347H410.725ZM427.041 684.364V683.364H426.041V684.364H427.041ZM429.501 684.364H430.501V683.364H429.501V684.364ZM428.893 694.148L428.049 693.611L428.047 693.614L428.893 694.148ZM427.205 695.636L427.643 696.535L427.647 696.534L427.205 695.636ZM422.143 695.636L421.701 696.534L421.705 696.535L422.143 695.636ZM420.455 694.148L419.61 694.681L419.61 694.681L420.455 694.148ZM419.853 684.364V683.364H418.853V684.364H419.853ZM422.313 684.364H423.313V683.364H422.313V684.364ZM422.603 692.892L421.731 693.381L421.735 693.388L422.603 692.892ZM423.433 693.705L422.949 694.58L422.949 694.58L423.433 693.705ZM425.921 693.705L425.437 692.83L425.433 692.832L425.921 693.705ZM426.745 692.892L425.877 692.396L425.873 692.403L426.745 692.892ZM427.041 685.364H429.501V683.364H427.041V685.364ZM428.501 684.364V691.92H430.501V684.364H428.501ZM428.501 691.92C428.501 692.603 428.34 693.154 428.049 693.611L429.736 694.685C430.256 693.869 430.501 692.935 430.501 691.92H428.501ZM428.047 693.614C427.751 694.083 427.334 694.459 426.764 694.739L427.647 696.534C428.524 696.102 429.231 695.485 429.739 694.681L428.047 693.614ZM426.768 694.737C426.205 695.011 425.517 695.165 424.677 695.165V697.165C425.761 697.165 426.759 696.966 427.643 696.535L426.768 694.737ZM424.677 695.165C423.833 695.165 423.143 695.011 422.581 694.737L421.705 696.535C422.59 696.966 423.589 697.165 424.677 697.165V695.165ZM422.585 694.739C422.014 694.459 421.597 694.083 421.301 693.614L419.61 694.681C420.117 695.485 420.825 696.102 421.701 696.534L422.585 694.739ZM421.301 693.614C421.013 693.157 420.853 692.605 420.853 691.92H418.853C418.853 692.933 419.095 693.865 419.61 694.681L421.301 693.614ZM420.853 691.92V684.364H418.853V691.92H420.853ZM419.853 685.364H422.313V683.364H419.853V685.364ZM421.313 684.364V691.71H423.313V684.364H421.313ZM421.313 691.71C421.313 692.303 421.444 692.869 421.731 693.381L423.476 692.403C423.376 692.225 423.313 692.003 423.313 691.71H421.313ZM421.735 693.388C422.025 693.896 422.436 694.296 422.949 694.58L423.917 692.83C423.717 692.719 423.575 692.577 423.471 692.396L421.735 693.388ZM422.949 694.58C423.476 694.871 424.062 695 424.677 695V693C424.345 693 424.102 692.932 423.917 692.83L422.949 694.58ZM424.677 695C425.294 695 425.883 694.872 426.409 694.577L425.433 692.832C425.255 692.931 425.015 693 424.677 693V695ZM426.405 694.58C426.919 694.295 427.331 693.893 427.618 693.381L425.873 692.403C425.773 692.58 425.636 692.72 425.437 692.83L426.405 694.58ZM427.613 693.388C427.906 692.875 428.041 692.307 428.041 691.71H426.041C426.041 692 425.978 692.219 425.877 692.396L427.613 693.388ZM428.041 691.71V684.364H426.041V691.71H428.041ZM433.832 684.364L434.692 683.854L434.402 683.364H433.832V684.364ZM436.178 688.33L435.318 688.839L435.608 689.33H436.178V688.33ZM436.269 688.33V689.33H436.838L437.129 688.841L436.269 688.33ZM438.627 684.364V683.364H438.058L437.768 683.853L438.627 684.364ZM441.406 684.364L442.259 684.885L443.188 683.364H441.406V684.364ZM437.855 690.182L437.001 689.661L436.679 690.188L437.006 690.711L437.855 690.182ZM441.485 696V697H443.288L442.334 695.471L441.485 696ZM438.656 696L437.799 696.515L438.09 697H438.656V696ZM436.269 692.028L437.127 691.513L436.835 691.028H436.269V692.028ZM436.178 692.028V691.028H435.613L435.321 691.513L436.178 692.028ZM433.792 696V697H434.358L434.649 696.515L433.792 696ZM430.974 696L430.126 695.469L429.168 697H430.974V696ZM434.616 690.182L435.464 690.712L435.793 690.187L435.468 689.658L434.616 690.182ZM431.042 684.364V683.364H429.254L430.19 684.887L431.042 684.364ZM432.971 684.873L435.318 688.839L437.039 687.82L434.692 683.854L432.971 684.873ZM436.178 689.33H436.269V687.33H436.178V689.33ZM437.129 688.841L439.487 684.875L437.768 683.853L435.41 687.818L437.129 688.841ZM438.627 685.364H441.406V683.364H438.627V685.364ZM440.552 683.843L437.001 689.661L438.708 690.703L442.259 684.885L440.552 683.843ZM437.006 690.711L440.637 696.529L442.334 695.471L438.703 689.652L437.006 690.711ZM441.485 695H438.656V697H441.485V695ZM439.513 695.485L437.127 691.513L435.412 692.543L437.799 696.515L439.513 695.485ZM436.269 691.028H436.178V693.028H436.269V691.028ZM435.321 691.513L432.935 695.485L434.649 696.515L437.036 692.543L435.321 691.513ZM433.792 695H430.974V697H433.792V695ZM431.822 696.531L435.464 690.712L433.768 689.651L430.126 695.469L431.822 696.531ZM435.468 689.658L431.894 683.84L430.19 684.887L433.764 690.705L435.468 689.658ZM431.042 685.364H433.832V683.364H431.042V685.364Z" fill="#ABC396" mask="url(#path-3-outside-1_508_5)"/>
<circle cx="142.342" cy="102.5" r="8" fill="#343434" stroke="#ABC396"/>
<mask id="path-6-outside-2_508_5" maskUnits="userSpaceOnUse" x="168.842" y="112" width="110" height="15" fill="black">
<rect fill="white" x="168.842" y="112" width="110" height="15"/>
<path d="M169.853 125V113.364H172.313V122.972H177.302V125H169.853ZM181.234 125H178.597L182.615 113.364H185.785L189.796 125H187.16L184.245 116.023H184.154L181.234 125ZM181.069 120.426H187.296V122.347H181.069V120.426ZM194.9 125V113.364H199.491C200.37 113.364 201.12 113.521 201.741 113.835C202.366 114.146 202.841 114.587 203.167 115.159C203.497 115.727 203.661 116.396 203.661 117.165C203.661 117.937 203.495 118.602 203.161 119.159C202.828 119.712 202.345 120.136 201.713 120.432C201.084 120.727 200.322 120.875 199.428 120.875H196.355V118.898H199.031C199.5 118.898 199.891 118.833 200.201 118.705C200.512 118.576 200.743 118.383 200.894 118.125C201.05 117.867 201.127 117.547 201.127 117.165C201.127 116.778 201.05 116.453 200.894 116.188C200.743 115.922 200.51 115.722 200.195 115.585C199.885 115.445 199.493 115.375 199.019 115.375H197.36V125H194.9ZM201.184 119.705L204.076 125H201.36L198.531 119.705H201.184ZM216.093 119.182C216.093 120.451 215.853 121.53 215.372 122.42C214.894 123.311 214.243 123.991 213.417 124.46C212.595 124.926 211.671 125.159 210.644 125.159C209.61 125.159 208.682 124.924 207.86 124.455C207.038 123.985 206.389 123.305 205.911 122.415C205.434 121.525 205.195 120.447 205.195 119.182C205.195 117.913 205.434 116.833 205.911 115.943C206.389 115.053 207.038 114.375 207.86 113.909C208.682 113.439 209.61 113.205 210.644 113.205C211.671 113.205 212.595 113.439 213.417 113.909C214.243 114.375 214.894 115.053 215.372 115.943C215.853 116.833 216.093 117.913 216.093 119.182ZM213.599 119.182C213.599 118.36 213.476 117.667 213.23 117.102C212.987 116.538 212.644 116.11 212.201 115.818C211.758 115.527 211.239 115.381 210.644 115.381C210.05 115.381 209.531 115.527 209.088 115.818C208.644 116.11 208.3 116.538 208.053 117.102C207.811 117.667 207.69 118.36 207.69 119.182C207.69 120.004 207.811 120.697 208.053 121.261C208.3 121.826 208.644 122.254 209.088 122.545C209.531 122.837 210.05 122.983 210.644 122.983C211.239 122.983 211.758 122.837 212.201 122.545C212.644 122.254 212.987 121.826 213.23 121.261C213.476 120.697 213.599 120.004 213.599 119.182ZM228.183 117.438H225.694C225.649 117.116 225.556 116.83 225.416 116.58C225.276 116.326 225.096 116.11 224.876 115.932C224.656 115.754 224.402 115.617 224.115 115.523C223.83 115.428 223.522 115.381 223.188 115.381C222.586 115.381 222.061 115.53 221.615 115.83C221.168 116.125 220.821 116.557 220.575 117.125C220.329 117.689 220.205 118.375 220.205 119.182C220.205 120.011 220.329 120.708 220.575 121.273C220.825 121.837 221.173 122.263 221.62 122.551C222.067 122.839 222.584 122.983 223.171 122.983C223.501 122.983 223.806 122.939 224.086 122.852C224.37 122.765 224.622 122.638 224.842 122.472C225.061 122.301 225.243 122.095 225.387 121.852C225.535 121.61 225.637 121.333 225.694 121.023L228.183 121.034C228.118 121.568 227.957 122.083 227.7 122.58C227.446 123.072 227.103 123.513 226.671 123.903C226.243 124.29 225.732 124.597 225.137 124.824C224.546 125.047 223.878 125.159 223.132 125.159C222.094 125.159 221.166 124.924 220.347 124.455C219.533 123.985 218.889 123.305 218.416 122.415C217.946 121.525 217.711 120.447 217.711 119.182C217.711 117.913 217.95 116.833 218.427 115.943C218.904 115.053 219.552 114.375 220.37 113.909C221.188 113.439 222.109 113.205 223.132 113.205C223.806 113.205 224.431 113.299 225.007 113.489C225.586 113.678 226.099 113.955 226.546 114.318C226.993 114.678 227.357 115.119 227.637 115.642C227.921 116.165 228.103 116.763 228.183 117.438ZM229.947 125V113.364H232.407V118.165H237.401V113.364H239.856V125H237.401V120.193H232.407V125H229.947ZM241.884 125V113.364H249.725V115.392H244.345V118.165H249.322V120.193H244.345V122.972H249.748V125H241.884ZM251.681 125V113.364H254.142V122.972H259.13V125H251.681ZM260.759 125V113.364H263.22V122.972H268.208V125H260.759ZM269.838 125V113.364H277.678V115.392H272.298V118.165H277.275V120.193H272.298V122.972H277.701V125H269.838Z"/>
</mask>
<path d="M169.853 125V113.364H172.313V122.972H177.302V125H169.853ZM181.234 125H178.597L182.615 113.364H185.785L189.796 125H187.16L184.245 116.023H184.154L181.234 125ZM181.069 120.426H187.296V122.347H181.069V120.426ZM194.9 125V113.364H199.491C200.37 113.364 201.12 113.521 201.741 113.835C202.366 114.146 202.841 114.587 203.167 115.159C203.497 115.727 203.661 116.396 203.661 117.165C203.661 117.937 203.495 118.602 203.161 119.159C202.828 119.712 202.345 120.136 201.713 120.432C201.084 120.727 200.322 120.875 199.428 120.875H196.355V118.898H199.031C199.5 118.898 199.891 118.833 200.201 118.705C200.512 118.576 200.743 118.383 200.894 118.125C201.05 117.867 201.127 117.547 201.127 117.165C201.127 116.778 201.05 116.453 200.894 116.188C200.743 115.922 200.51 115.722 200.195 115.585C199.885 115.445 199.493 115.375 199.019 115.375H197.36V125H194.9ZM201.184 119.705L204.076 125H201.36L198.531 119.705H201.184ZM216.093 119.182C216.093 120.451 215.853 121.53 215.372 122.42C214.894 123.311 214.243 123.991 213.417 124.46C212.595 124.926 211.671 125.159 210.644 125.159C209.61 125.159 208.682 124.924 207.86 124.455C207.038 123.985 206.389 123.305 205.911 122.415C205.434 121.525 205.195 120.447 205.195 119.182C205.195 117.913 205.434 116.833 205.911 115.943C206.389 115.053 207.038 114.375 207.86 113.909C208.682 113.439 209.61 113.205 210.644 113.205C211.671 113.205 212.595 113.439 213.417 113.909C214.243 114.375 214.894 115.053 215.372 115.943C215.853 116.833 216.093 117.913 216.093 119.182ZM213.599 119.182C213.599 118.36 213.476 117.667 213.23 117.102C212.987 116.538 212.644 116.11 212.201 115.818C211.758 115.527 211.239 115.381 210.644 115.381C210.05 115.381 209.531 115.527 209.088 115.818C208.644 116.11 208.3 116.538 208.053 117.102C207.811 117.667 207.69 118.36 207.69 119.182C207.69 120.004 207.811 120.697 208.053 121.261C208.3 121.826 208.644 122.254 209.088 122.545C209.531 122.837 210.05 122.983 210.644 122.983C211.239 122.983 211.758 122.837 212.201 122.545C212.644 122.254 212.987 121.826 213.23 121.261C213.476 120.697 213.599 120.004 213.599 119.182ZM228.183 117.438H225.694C225.649 117.116 225.556 116.83 225.416 116.58C225.276 116.326 225.096 116.11 224.876 115.932C224.656 115.754 224.402 115.617 224.115 115.523C223.83 115.428 223.522 115.381 223.188 115.381C222.586 115.381 222.061 115.53 221.615 115.83C221.168 116.125 220.821 116.557 220.575 117.125C220.329 117.689 220.205 118.375 220.205 119.182C220.205 120.011 220.329 120.708 220.575 121.273C220.825 121.837 221.173 122.263 221.62 122.551C222.067 122.839 222.584 122.983 223.171 122.983C223.501 122.983 223.806 122.939 224.086 122.852C224.37 122.765 224.622 122.638 224.842 122.472C225.061 122.301 225.243 122.095 225.387 121.852C225.535 121.61 225.637 121.333 225.694 121.023L228.183 121.034C228.118 121.568 227.957 122.083 227.7 122.58C227.446 123.072 227.103 123.513 226.671 123.903C226.243 124.29 225.732 124.597 225.137 124.824C224.546 125.047 223.878 125.159 223.132 125.159C222.094 125.159 221.166 124.924 220.347 124.455C219.533 123.985 218.889 123.305 218.416 122.415C217.946 121.525 217.711 120.447 217.711 119.182C217.711 117.913 217.95 116.833 218.427 115.943C218.904 115.053 219.552 114.375 220.37 113.909C221.188 113.439 222.109 113.205 223.132 113.205C223.806 113.205 224.431 113.299 225.007 113.489C225.586 113.678 226.099 113.955 226.546 114.318C226.993 114.678 227.357 115.119 227.637 115.642C227.921 116.165 228.103 116.763 228.183 117.438ZM229.947 125V113.364H232.407V118.165H237.401V113.364H239.856V125H237.401V120.193H232.407V125H229.947ZM241.884 125V113.364H249.725V115.392H244.345V118.165H249.322V120.193H244.345V122.972H249.748V125H241.884ZM251.681 125V113.364H254.142V122.972H259.13V125H251.681ZM260.759 125V113.364H263.22V122.972H268.208V125H260.759ZM269.838 125V113.364H277.678V115.392H272.298V118.165H277.275V120.193H272.298V122.972H277.701V125H269.838Z" fill="#343434"/>
<path d="M169.853 125H168.853V126H169.853V125ZM169.853 113.364V112.364H168.853V113.364H169.853ZM172.313 113.364H173.313V112.364H172.313V113.364ZM172.313 122.972H171.313V123.972H172.313V122.972ZM177.302 122.972H178.302V121.972H177.302V122.972ZM177.302 125V126H178.302V125H177.302ZM170.853 125V113.364H168.853V125H170.853ZM169.853 114.364H172.313V112.364H169.853V114.364ZM171.313 113.364V122.972H173.313V113.364H171.313ZM172.313 123.972H177.302V121.972H172.313V123.972ZM176.302 122.972V125H178.302V122.972H176.302ZM177.302 124H169.853V126H177.302V124ZM181.234 125V126H181.96L182.185 125.309L181.234 125ZM178.597 125L177.652 124.674L177.194 126H178.597V125ZM182.615 113.364V112.364H181.902L181.669 113.037L182.615 113.364ZM185.785 113.364L186.73 113.038L186.498 112.364H185.785V113.364ZM189.796 125V126H191.199L190.742 124.674L189.796 125ZM187.16 125L186.209 125.309L186.433 126H187.16V125ZM184.245 116.023L185.196 115.714L184.972 115.023H184.245V116.023ZM184.154 116.023V115.023H183.428L183.203 115.713L184.154 116.023ZM181.069 120.426V119.426H180.069V120.426H181.069ZM187.296 120.426H188.296V119.426H187.296V120.426ZM187.296 122.347V123.347H188.296V122.347H187.296ZM181.069 122.347H180.069V123.347H181.069V122.347ZM181.234 124H178.597V126H181.234V124ZM179.543 125.326L183.56 113.69L181.669 113.037L177.652 124.674L179.543 125.326ZM182.615 114.364H185.785V112.364H182.615V114.364ZM184.84 113.69L188.851 125.326L190.742 124.674L186.73 113.038L184.84 113.69ZM189.796 124H187.16V126H189.796V124ZM188.111 124.691L185.196 115.714L183.294 116.332L186.209 125.309L188.111 124.691ZM184.245 115.023H184.154V117.023H184.245V115.023ZM183.203 115.713L180.283 124.691L182.185 125.309L185.105 116.332L183.203 115.713ZM181.069 121.426H187.296V119.426H181.069V121.426ZM186.296 120.426V122.347H188.296V120.426H186.296ZM187.296 121.347H181.069V123.347H187.296V121.347ZM182.069 122.347V120.426H180.069V122.347H182.069ZM194.9 125H193.9V126H194.9V125ZM194.9 113.364V112.364H193.9V113.364H194.9ZM201.741 113.835L201.289 114.727L201.296 114.731L201.741 113.835ZM203.167 115.159L202.298 115.654L202.302 115.661L203.167 115.159ZM203.161 119.159L204.018 119.675L204.019 119.673L203.161 119.159ZM201.713 120.432L201.289 119.526L201.287 119.527L201.713 120.432ZM196.355 120.875H195.355V121.875H196.355V120.875ZM196.355 118.898V117.898H195.355V118.898H196.355ZM200.201 118.705L200.584 119.628L200.584 119.628L200.201 118.705ZM200.894 118.125L200.038 117.609L200.032 117.618L200.894 118.125ZM200.894 116.188L200.026 116.684L200.031 116.693L200.894 116.188ZM200.195 115.585L199.784 116.497L199.791 116.5L199.798 116.503L200.195 115.585ZM197.36 115.375V114.375H196.36V115.375H197.36ZM197.36 125V126H198.36V125H197.36ZM201.184 119.705L202.062 119.225L201.777 118.705H201.184V119.705ZM204.076 125V126H205.762L204.954 124.521L204.076 125ZM201.36 125L200.478 125.471L200.761 126H201.36V125ZM198.531 119.705V118.705H196.863L197.649 120.176L198.531 119.705ZM195.9 125V113.364H193.9V125H195.9ZM194.9 114.364H199.491V112.364H194.9V114.364ZM199.491 114.364C200.253 114.364 200.84 114.5 201.289 114.727L202.193 112.943C201.399 112.542 200.487 112.364 199.491 112.364V114.364ZM201.296 114.731C201.754 114.959 202.077 115.265 202.298 115.654L204.036 114.664C203.606 113.909 202.978 113.333 202.186 112.94L201.296 114.731ZM202.302 115.661C202.529 116.052 202.661 116.542 202.661 117.165H204.661C204.661 116.25 204.464 115.402 204.032 114.657L202.302 115.661ZM202.661 117.165C202.661 117.791 202.527 118.271 202.303 118.645L204.019 119.673C204.462 118.933 204.661 118.084 204.661 117.165H202.661ZM202.305 118.643C202.083 119.012 201.757 119.307 201.289 119.526L202.136 121.338C202.933 120.966 203.574 120.412 204.018 119.675L202.305 118.643ZM201.287 119.527C200.824 119.744 200.216 119.875 199.428 119.875V121.875C200.429 121.875 201.344 121.71 202.138 121.337L201.287 119.527ZM199.428 119.875H196.355V121.875H199.428V119.875ZM197.355 120.875V118.898H195.355V120.875H197.355ZM196.355 119.898H199.031V117.898H196.355V119.898ZM199.031 119.898C199.583 119.898 200.114 119.823 200.584 119.628L199.818 117.781C199.667 117.844 199.417 117.898 199.031 117.898V119.898ZM200.584 119.628C201.069 119.427 201.481 119.1 201.756 118.632L200.032 117.618C200.005 117.665 199.954 117.724 199.818 117.781L200.584 119.628ZM201.751 118.641C202.022 118.191 202.127 117.681 202.127 117.165H200.127C200.127 117.414 200.077 117.544 200.038 117.609L201.751 118.641ZM202.127 117.165C202.127 116.646 202.023 116.135 201.757 115.682L200.031 116.693C200.077 116.77 200.127 116.911 200.127 117.165H202.127ZM201.763 115.691C201.491 115.216 201.081 114.879 200.593 114.668L199.798 116.503C199.939 116.564 199.995 116.629 200.026 116.684L201.763 115.691ZM200.607 114.674C200.127 114.457 199.583 114.375 199.019 114.375V116.375C199.403 116.375 199.643 116.433 199.784 116.497L200.607 114.674ZM199.019 114.375H197.36V116.375H199.019V114.375ZM196.36 115.375V125H198.36V115.375H196.36ZM197.36 124H194.9V126H197.36V124ZM200.306 120.184L203.199 125.479L204.954 124.521L202.062 119.225L200.306 120.184ZM204.076 124H201.36V126H204.076V124ZM202.242 124.529L199.413 119.233L197.649 120.176L200.478 125.471L202.242 124.529ZM198.531 120.705H201.184V118.705H198.531V120.705ZM215.372 122.42L214.492 121.945L214.49 121.948L215.372 122.42ZM213.417 124.46L213.91 125.33L213.912 125.329L213.417 124.46ZM207.86 124.455L208.356 123.586L207.86 124.455ZM205.911 122.415L205.03 122.887L205.03 122.887L205.911 122.415ZM205.911 115.943L206.793 116.416L206.793 116.416L205.911 115.943ZM207.86 113.909L208.353 114.779L208.356 114.777L207.86 113.909ZM213.417 113.909L212.921 114.777L212.926 114.78L213.417 113.909ZM215.372 115.943L214.49 116.416L214.492 116.419L215.372 115.943ZM213.23 117.102L212.311 117.497L212.313 117.502L213.23 117.102ZM212.201 115.818L211.651 116.654L211.651 116.654L212.201 115.818ZM209.088 115.818L209.637 116.654L209.637 116.654L209.088 115.818ZM208.053 117.102L207.137 116.702L207.135 116.708L208.053 117.102ZM208.053 121.261L207.135 121.656L207.137 121.661L208.053 121.261ZM209.088 122.545L209.637 121.71L209.637 121.71L209.088 122.545ZM212.201 122.545L211.651 121.71L211.651 121.71L212.201 122.545ZM213.23 121.261L212.313 120.862L212.311 120.867L213.23 121.261ZM215.093 119.182C215.093 120.326 214.876 121.233 214.492 121.945L216.251 122.896C216.829 121.827 217.093 120.575 217.093 119.182H215.093ZM214.49 121.948C214.096 122.683 213.574 123.22 212.923 123.591L213.912 125.329C214.912 124.761 215.693 123.938 216.253 122.893L214.49 121.948ZM212.924 123.59C212.265 123.964 211.513 124.159 210.644 124.159V126.159C211.828 126.159 212.925 125.889 213.91 125.33L212.924 123.59ZM210.644 124.159C209.768 124.159 209.014 123.962 208.356 123.586L207.364 125.323C208.351 125.887 209.453 126.159 210.644 126.159V124.159ZM208.356 123.586C207.708 123.216 207.187 122.678 206.793 121.942L205.03 122.887C205.59 123.931 206.368 124.754 207.364 125.323L208.356 123.586ZM206.793 121.942C206.411 121.23 206.195 120.323 206.195 119.182H204.195C204.195 120.571 204.458 121.82 205.03 122.887L206.793 121.942ZM206.195 119.182C206.195 118.036 206.411 117.128 206.793 116.416L205.03 115.471C204.457 116.539 204.195 117.789 204.195 119.182H206.195ZM206.793 116.416C207.187 115.68 207.707 115.145 208.353 114.779L207.367 113.039C206.369 113.605 205.59 114.426 205.03 115.471L206.793 116.416ZM208.356 114.777C209.014 114.402 209.768 114.205 210.644 114.205V112.205C209.453 112.205 208.351 112.477 207.364 113.041L208.356 114.777ZM210.644 114.205C211.512 114.205 212.263 114.401 212.921 114.777L213.913 113.041C212.928 112.478 211.83 112.205 210.644 112.205V114.205ZM212.926 114.78C213.575 115.147 214.097 115.681 214.49 116.416L216.253 115.471C215.692 114.425 214.91 113.603 213.908 113.038L212.926 114.78ZM214.492 116.419C214.876 117.13 215.093 118.037 215.093 119.182H217.093C217.093 117.788 216.829 116.536 216.251 115.468L214.492 116.419ZM214.599 119.182C214.599 118.266 214.463 117.428 214.146 116.702L212.313 117.502C212.489 117.906 212.599 118.454 212.599 119.182H214.599ZM214.148 116.708C213.841 115.992 213.382 115.398 212.751 114.983L211.651 116.654C211.907 116.821 212.133 117.083 212.311 117.497L214.148 116.708ZM212.751 114.983C212.125 114.571 211.41 114.381 210.644 114.381V116.381C211.068 116.381 211.391 116.482 211.651 116.654L212.751 114.983ZM210.644 114.381C209.879 114.381 209.163 114.571 208.538 114.983L209.637 116.654C209.898 116.482 210.221 116.381 210.644 116.381V114.381ZM208.538 114.983C207.908 115.397 207.448 115.99 207.137 116.702L208.97 117.502C209.151 117.086 209.381 116.822 209.637 116.654L208.538 114.983ZM207.135 116.708C206.824 117.431 206.69 118.268 206.69 119.182H208.69C208.69 118.452 208.798 117.902 208.972 117.497L207.135 116.708ZM206.69 119.182C206.69 120.096 206.824 120.932 207.135 121.656L208.972 120.867C208.798 120.461 208.69 119.911 208.69 119.182H206.69ZM207.137 121.661C207.448 122.374 207.908 122.966 208.538 123.381L209.637 121.71C209.381 121.541 209.151 121.277 208.97 120.862L207.137 121.661ZM208.538 123.381C209.163 123.793 209.879 123.983 210.644 123.983V121.983C210.221 121.983 209.898 121.882 209.637 121.71L208.538 123.381ZM210.644 123.983C211.41 123.983 212.125 123.793 212.751 123.381L211.651 121.71C211.391 121.882 211.068 121.983 210.644 121.983V123.983ZM212.751 123.381C213.382 122.965 213.841 122.371 214.148 121.656L212.311 120.867C212.133 121.28 211.907 121.542 211.651 121.71L212.751 123.381ZM214.146 121.661C214.463 120.936 214.599 120.098 214.599 119.182H212.599C212.599 119.91 212.489 120.458 212.313 120.862L214.146 121.661ZM228.183 117.438V118.438H229.308L229.176 117.32L228.183 117.438ZM225.694 117.438L224.704 117.577L224.825 118.438H225.694V117.438ZM225.416 116.58L224.54 117.063L224.543 117.069L225.416 116.58ZM224.876 115.932L224.246 116.709L224.246 116.709L224.876 115.932ZM224.115 115.523L223.798 116.471L223.802 116.473L224.115 115.523ZM221.615 115.83L222.166 116.664L222.171 116.661L221.615 115.83ZM220.575 117.125L221.491 117.525L221.492 117.523L220.575 117.125ZM220.575 121.273L219.658 121.673L219.66 121.678L220.575 121.273ZM221.62 122.551L221.079 123.392L221.079 123.392L221.62 122.551ZM224.086 122.852L223.793 121.896L223.789 121.897L224.086 122.852ZM224.842 122.472L225.446 123.268L225.455 123.262L224.842 122.472ZM225.387 121.852L224.533 121.332L224.527 121.342L225.387 121.852ZM225.694 121.023L225.699 120.023L224.861 120.019L224.71 120.843L225.694 121.023ZM228.183 121.034L229.176 121.154L229.31 120.039L228.187 120.034L228.183 121.034ZM227.7 122.58L226.812 122.119L226.811 122.121L227.7 122.58ZM226.671 123.903L227.341 124.646L227.342 124.645L226.671 123.903ZM225.137 124.824L225.491 125.759L225.494 125.758L225.137 124.824ZM220.347 124.455L219.848 125.321L219.85 125.322L220.347 124.455ZM218.416 122.415L217.531 122.881L217.533 122.884L218.416 122.415ZM218.427 115.943L219.308 116.416L219.308 116.416L218.427 115.943ZM220.37 113.909L220.865 114.778L220.868 114.776L220.37 113.909ZM225.007 113.489L224.694 114.439L224.696 114.439L225.007 113.489ZM226.546 114.318L225.915 115.094L225.919 115.097L226.546 114.318ZM227.637 115.642L226.756 116.115L226.759 116.12L227.637 115.642ZM228.183 116.438H225.694V118.438H228.183V116.438ZM226.684 117.298C226.624 116.869 226.496 116.462 226.288 116.091L224.543 117.069C224.615 117.197 224.673 117.362 224.704 117.577L226.684 117.298ZM226.291 116.096C226.09 115.732 225.828 115.416 225.505 115.155L224.246 116.709C224.363 116.804 224.461 116.919 224.54 117.063L226.291 116.096ZM225.505 115.155C225.185 114.895 224.822 114.703 224.427 114.573L223.802 116.473C223.983 116.532 224.128 116.612 224.246 116.709L225.505 115.155ZM224.431 114.574C224.034 114.442 223.617 114.381 223.188 114.381V116.381C223.426 116.381 223.627 116.414 223.798 116.471L224.431 114.574ZM223.188 114.381C222.413 114.381 221.689 114.576 221.058 114.999L222.171 116.661C222.434 116.484 222.76 116.381 223.188 116.381V114.381ZM221.063 114.995C220.43 115.414 219.968 116.01 219.657 116.727L221.492 117.523C221.674 117.104 221.905 116.836 222.166 116.664L221.063 114.995ZM219.658 116.725C219.343 117.448 219.205 118.278 219.205 119.182H221.205C221.205 118.472 221.314 117.931 221.491 117.525L219.658 116.725ZM219.205 119.182C219.205 120.104 219.341 120.946 219.658 121.673L221.491 120.873C221.316 120.47 221.205 119.919 221.205 119.182H219.205ZM219.66 121.678C219.976 122.391 220.442 122.982 221.079 123.392L222.162 121.71C221.904 121.544 221.673 121.283 221.489 120.868L219.66 121.678ZM221.079 123.392C221.704 123.794 222.413 123.983 223.171 123.983V121.983C222.755 121.983 222.431 121.884 222.162 121.71L221.079 123.392ZM223.171 123.983C223.589 123.983 223.996 123.928 224.383 123.807L223.789 121.897C223.616 121.951 223.412 121.983 223.171 121.983V123.983ZM224.379 123.808C224.767 123.689 225.126 123.511 225.446 123.268L224.237 121.675C224.118 121.765 223.973 121.841 223.793 121.896L224.379 123.808ZM225.455 123.262C225.775 123.013 226.04 122.712 226.247 122.363L224.527 121.342C224.447 121.478 224.348 121.589 224.229 121.682L225.455 123.262ZM226.241 122.373C226.459 122.015 226.601 121.62 226.678 121.203L224.71 120.843C224.673 121.046 224.611 121.205 224.533 121.332L226.241 122.373ZM225.69 122.023L228.178 122.034L228.187 120.034L225.699 120.023L225.69 122.023ZM227.19 120.914C227.14 121.325 227.017 121.725 226.812 122.119L228.587 123.04C228.898 122.442 229.096 121.812 229.176 121.154L227.19 120.914ZM226.811 122.121C226.615 122.502 226.348 122.848 226.001 123.161L227.342 124.645C227.858 124.179 228.277 123.642 228.589 123.038L226.811 122.121ZM226.001 123.161C225.674 123.457 225.272 123.702 224.78 123.89L225.494 125.758C226.192 125.491 226.813 125.123 227.341 124.646L226.001 123.161ZM224.784 123.889C224.324 124.062 223.778 124.159 223.132 124.159V126.159C223.977 126.159 224.769 126.032 225.491 125.759L224.784 123.889ZM223.132 124.159C222.25 124.159 221.497 123.961 220.845 123.587L219.85 125.322C220.834 125.887 221.937 126.159 223.132 126.159V124.159ZM220.847 123.588C220.207 123.219 219.691 122.682 219.299 121.945L217.533 122.884C218.088 123.928 218.859 124.751 219.848 125.321L220.847 123.588ZM219.3 121.948C218.923 121.234 218.711 120.325 218.711 119.182H216.711C216.711 120.569 216.969 121.815 217.531 122.881L219.3 121.948ZM218.711 119.182C218.711 118.036 218.926 117.128 219.308 116.416L217.546 115.471C216.973 116.539 216.711 117.789 216.711 119.182H218.711ZM219.308 116.416C219.703 115.679 220.222 115.144 220.865 114.778L219.875 113.04C218.882 113.606 218.105 114.427 217.546 115.471L219.308 116.416ZM220.868 114.776C221.522 114.401 222.268 114.205 223.132 114.205V112.205C221.949 112.205 220.855 112.478 219.872 113.042L220.868 114.776ZM223.132 114.205C223.711 114.205 224.23 114.286 224.694 114.439L225.319 112.539C224.632 112.313 223.9 112.205 223.132 112.205V114.205ZM224.696 114.439C225.166 114.593 225.569 114.812 225.915 115.094L227.177 113.542C226.63 113.097 226.007 112.763 225.317 112.538L224.696 114.439ZM225.919 115.097C226.258 115.37 226.537 115.706 226.756 116.115L228.519 115.169C228.177 114.533 227.728 113.986 227.173 113.539L225.919 115.097ZM226.759 116.12C226.974 116.516 227.123 116.989 227.19 117.555L229.176 117.32C229.083 116.537 228.869 115.814 228.516 115.165L226.759 116.12ZM229.947 125H228.947V126H229.947V125ZM229.947 113.364V112.364H228.947V113.364H229.947ZM232.407 113.364H233.407V112.364H232.407V113.364ZM232.407 118.165H231.407V119.165H232.407V118.165ZM237.401 118.165V119.165H238.401V118.165H237.401ZM237.401 113.364V112.364H236.401V113.364H237.401ZM239.856 113.364H240.856V112.364H239.856V113.364ZM239.856 125V126H240.856V125H239.856ZM237.401 125H236.401V126H237.401V125ZM237.401 120.193H238.401V119.193H237.401V120.193ZM232.407 120.193V119.193H231.407V120.193H232.407ZM232.407 125V126H233.407V125H232.407ZM230.947 125V113.364H228.947V125H230.947ZM229.947 114.364H232.407V112.364H229.947V114.364ZM231.407 113.364V118.165H233.407V113.364H231.407ZM232.407 119.165H237.401V117.165H232.407V119.165ZM238.401 118.165V113.364H236.401V118.165H238.401ZM237.401 114.364H239.856V112.364H237.401V114.364ZM238.856 113.364V125H240.856V113.364H238.856ZM239.856 124H237.401V126H239.856V124ZM238.401 125V120.193H236.401V125H238.401ZM237.401 119.193H232.407V121.193H237.401V119.193ZM231.407 120.193V125H233.407V120.193H231.407ZM232.407 124H229.947V126H232.407V124ZM241.884 125H240.884V126H241.884V125ZM241.884 113.364V112.364H240.884V113.364H241.884ZM249.725 113.364H250.725V112.364H249.725V113.364ZM249.725 115.392V116.392H250.725V115.392H249.725ZM244.345 115.392V114.392H243.345V115.392H244.345ZM244.345 118.165H243.345V119.165H244.345V118.165ZM249.322 118.165H250.322V117.165H249.322V118.165ZM249.322 120.193V121.193H250.322V120.193H249.322ZM244.345 120.193V119.193H243.345V120.193H244.345ZM244.345 122.972H243.345V123.972H244.345V122.972ZM249.748 122.972H250.748V121.972H249.748V122.972ZM249.748 125V126H250.748V125H249.748ZM242.884 125V113.364H240.884V125H242.884ZM241.884 114.364H249.725V112.364H241.884V114.364ZM248.725 113.364V115.392H250.725V113.364H248.725ZM249.725 114.392H244.345V116.392H249.725V114.392ZM243.345 115.392V118.165H245.345V115.392H243.345ZM244.345 119.165H249.322V117.165H244.345V119.165ZM248.322 118.165V120.193H250.322V118.165H248.322ZM249.322 119.193H244.345V121.193H249.322V119.193ZM243.345 120.193V122.972H245.345V120.193H243.345ZM244.345 123.972H249.748V121.972H244.345V123.972ZM248.748 122.972V125H250.748V122.972H248.748ZM249.748 124H241.884V126H249.748V124ZM251.681 125H250.681V126H251.681V125ZM251.681 113.364V112.364H250.681V113.364H251.681ZM254.142 113.364H255.142V112.364H254.142V113.364ZM254.142 122.972H253.142V123.972H254.142V122.972ZM259.13 122.972H260.13V121.972H259.13V122.972ZM259.13 125V126H260.13V125H259.13ZM252.681 125V113.364H250.681V125H252.681ZM251.681 114.364H254.142V112.364H251.681V114.364ZM253.142 113.364V122.972H255.142V113.364H253.142ZM254.142 123.972H259.13V121.972H254.142V123.972ZM258.13 122.972V125H260.13V122.972H258.13ZM259.13 124H251.681V126H259.13V124ZM260.759 125H259.759V126H260.759V125ZM260.759 113.364V112.364H259.759V113.364H260.759ZM263.22 113.364H264.22V112.364H263.22V113.364ZM263.22 122.972H262.22V123.972H263.22V122.972ZM268.208 122.972H269.208V121.972H268.208V122.972ZM268.208 125V126H269.208V125H268.208ZM261.759 125V113.364H259.759V125H261.759ZM260.759 114.364H263.22V112.364H260.759V114.364ZM262.22 113.364V122.972H264.22V113.364H262.22ZM263.22 123.972H268.208V121.972H263.22V123.972ZM267.208 122.972V125H269.208V122.972H267.208ZM268.208 124H260.759V126H268.208V124ZM269.838 125H268.838V126H269.838V125ZM269.838 113.364V112.364H268.838V113.364H269.838ZM277.678 113.364H278.678V112.364H277.678V113.364ZM277.678 115.392V116.392H278.678V115.392H277.678ZM272.298 115.392V114.392H271.298V115.392H272.298ZM272.298 118.165H271.298V119.165H272.298V118.165ZM277.275 118.165H278.275V117.165H277.275V118.165ZM277.275 120.193V121.193H278.275V120.193H277.275ZM272.298 120.193V119.193H271.298V120.193H272.298ZM272.298 122.972H271.298V123.972H272.298V122.972ZM277.701 122.972H278.701V121.972H277.701V122.972ZM277.701 125V126H278.701V125H277.701ZM270.838 125V113.364H268.838V125H270.838ZM269.838 114.364H277.678V112.364H269.838V114.364ZM276.678 113.364V115.392H278.678V113.364H276.678ZM277.678 114.392H272.298V116.392H277.678V114.392ZM271.298 115.392V118.165H273.298V115.392H271.298ZM272.298 119.165H277.275V117.165H272.298V119.165ZM276.275 118.165V120.193H278.275V118.165H276.275ZM277.275 119.193H272.298V121.193H277.275V119.193ZM271.298 120.193V122.972H273.298V120.193H271.298ZM272.298 123.972H277.701V121.972H272.298V123.972ZM276.701 122.972V125H278.701V122.972H276.701ZM277.701 124H269.838V126H277.701V124Z" fill="#ABC396" mask="url(#path-6-outside-2_508_5)"/>
<circle cx="157.842" cy="421" r="10.5" fill="#343434" stroke="#ABC396"/>
<path d="M151.98 449.909H155.393L158.998 458.705H159.151L162.757 449.909H166.17V463H163.485V454.479H163.377L159.989 462.936H158.161L154.773 454.447H154.664V463H151.98V449.909ZM180.48 456.455C180.48 457.882 180.21 459.097 179.668 460.098C179.131 461.099 178.398 461.864 177.469 462.393C176.545 462.917 175.505 463.179 174.35 463.179C173.187 463.179 172.143 462.915 171.218 462.386C170.293 461.858 169.563 461.093 169.026 460.092C168.489 459.09 168.22 457.878 168.22 456.455C168.22 455.027 168.489 453.812 169.026 452.811C169.563 451.81 170.293 451.047 171.218 450.523C172.143 449.994 173.187 449.73 174.35 449.73C175.505 449.73 176.545 449.994 177.469 450.523C178.398 451.047 179.131 451.81 179.668 452.811C180.21 453.812 180.48 455.027 180.48 456.455ZM177.674 456.455C177.674 455.53 177.536 454.75 177.259 454.115C176.986 453.48 176.6 452.999 176.102 452.67C175.603 452.342 175.019 452.178 174.35 452.178C173.681 452.178 173.097 452.342 172.599 452.67C172.1 452.999 171.712 453.48 171.435 454.115C171.163 454.75 171.026 455.53 171.026 456.455C171.026 457.379 171.163 458.159 171.435 458.794C171.712 459.429 172.1 459.911 172.599 460.239C173.097 460.567 173.681 460.731 174.35 460.731C175.019 460.731 175.603 460.567 176.102 460.239C176.6 459.911 176.986 459.429 177.259 458.794C177.536 458.159 177.674 457.379 177.674 456.455ZM193.48 449.909V463H191.089L185.394 454.761H185.298V463H182.53V449.909H184.959L190.61 458.142H190.725V449.909H193.48ZM195.268 452.191V449.909H206.02V452.191H202.012V463H199.276V452.191H195.268ZM208.447 463H205.481L210 449.909H213.567L218.08 463H215.114L211.835 452.901H211.732L208.447 463ZM208.262 457.854H215.267V460.015H208.262V457.854ZM219.655 463V449.909H222.423V460.718H228.035V463H219.655ZM232.636 449.909V463H229.868V449.909H232.636ZM237.278 449.909L240.442 459.855H240.564L243.734 449.909H246.802L242.29 463H238.723L234.204 449.909H237.278ZM248.378 463V449.909H257.199V452.191H251.146V455.31H256.745V457.592H251.146V460.718H257.225V463H248.378ZM258.901 452.191V449.909H269.652V452.191H265.645V463H262.909V452.191H258.901Z" fill="#343434"/>
</g>
<defs>
<clipPath id="clip0_508_5">
<rect width="1388.84" height="852.945" fill="white"/>
</clipPath>
</defs>
</svg>
