<?xml version="1.0" encoding="UTF-8"?>
<svg fill="none" viewBox="0 0 1437 853" xmlns="http://www.w3.org/2000/svg">
<g clip-path="url(#d)">
<path d="m69.794 25.242c8.9655 0.7037 18.427-0.9321 26.662 2.682 16.14 7.0832 24.852 31.47 44.65 17.532 2.72-1.9153 5.692-3.793 9.016-3.9451 6.216-0.2845 11.289 6.0215 11.421 12.242s-3.486 11.961-7.914 16.333c-4.427 4.3723-9.727 7.7667-14.284 12.003-3.112 2.8932-5.923 6.2698-7.31 10.286-2.581 7.47 0.281 12.334 6.729 14.326 8.161 2.521 13.362 5.09 18.24 12.93 4.236 6.808 6.876 14.534 11.338 21.196 3.557 5.311 8.224 9.872 11.257 15.499 3.032 5.628 4.118 13.007 0.34 18.163 0.675 1.237-14.746-2.519-14.976 1.889-0.23 4.407 10.315 11.31 14.275 13.26 3.959 1.95 14.799-2.116 19.202-1.811 0.443 3.535-17.165 4.254-20.149 7.879-2.984 3.624-3.653 8.584-3.956 13.269-0.302 4.685-0.4 9.567-2.55 13.74-4.747 9.215-18.255 12.709-20.189 22.893-1.009 5.312 1.248 11.997-2.92 15.442-2.435 2.012-5.941 1.758-9.05 2.318-8.411 1.516-14.491 9.877-15.124 18.4-0.632 8.523 3.318 16.876 8.934 23.318s12.806 11.276 19.907 16.031c16.749 11.218 34.811 19.851 50.823 31.912 14.778 11.13 28.113 24.157 39.681 38.591 23.133 28.862 39.259 63.438 45.735 99.899 0.259 1.458 0.502 2.919 0.73 4.382 2.805 18.003 3.404 36.465 8.735 53.887s16.544 34.314 33.651 40.582c6.711 2.459 14.104 3.216 20.25 6.863 6.147 3.647 10.604 11.871 6.886 17.974-7.014-13.129-22.135-21.462-36.981-20.378 16.755 12.486 21.897 38.134 11.25 56.115 1.466-14.026 2.644-29.328-5.096-41.117-4.378-6.667-11.113-11.35-16.835-16.908-20.851-20.25-27.226-50.744-32.565-79.316s-11.624-59.063-32.369-79.422c-10.046-9.859-22.727-16.5-34.202-24.652-11.474-8.152-22.309-18.697-25.707-32.356-1.403-5.638-2.585-12.909-8.235-14.262-4.969-1.189-9.295 3.443-12.043 7.749-21.949 34.404-18.062 78.136-21.141 117.24-3.469 44.063-7.828 88.05-12.186 132.03-2.569 25.928-5.138 51.855-7.707 77.783-0.619 6.242-1.237 12.483-1.856 18.725-0.547 5.523-3.008 13.777-1.776 19.176 2.572 11.27 14.28 2.631 16.204-4.754 0.874-3.354 1.12-6.842 1.903-10.219 3.124-13.479 9.579-19.426 22.859-12.138 5.492 3.015 10.114 7.362 14.671 11.662 4.2 3.963 8.505 8.073 10.845 13.351 2.339 5.279 2.234 12.081-1.804 16.208-5.521 5.643-14.837 3.794-22.432 1.638-7.595-2.155-17.06-3.709-22.268 2.225-1.223 1.393-2.058 3.077-2.88 4.739-3.311 6.702-6.622 13.403-9.934 20.105-12.624 25.55-9.929 54.35-12.358 82.206-2.586 29.674-6.428 59.239-11.514 88.588-2.993 17.277-6.4168 34.476-9.8398 51.669 0 8.46-3.6442 18.31-5.3011 26.63-1.953 9.82-3.9061 19.63-5.859 29.44-3.534 17.75-6.6053 35.24-9.6994 53.06-6.3092 36.35-17.031 71.93-31.883 105.7-9.2694 21.07-20.602 42.03-38.423 56.61-22.31 18.25-51.886 24.3-80.186 29.78-25.975 5.02-51.95 10.05-77.924 15.07-12.316 2.39-25.146 5-35.008 12.75-12.543 9.86-17.057 25.68-27.517 37.19-7.849 8.63-18.101 12.17-21.653 24.01-8.819 29.42 21.278 67.05 42.89 82.61 30.9 22.25 69.617 30.14 107.2 36.27 277.22 45.26 560.45 24.84 840.58 4.31 161.83-11.87 323.67-23.73 485.5-35.6 42.84-3.14 87.36-6.78 124.51-28.33 80.15-46.51 95.28-153.81 101.64-246.26 14.58-212.15 29.17-424.3 43.76-636.44 12.33-179.32 23.79-365.1-39.18-533.45-27.78-74.285-74.58-147.57-148.08-177.39-67.38-27.34-144.38-13.09-213.08 10.758-68.69 23.847-144-10.742-215.91 0.016-55.97 8.373-128.97 23.719-185.28 18.076-221.97-22.244-418.92 2.341-640.89-19.903-5.8717 29.227-50.391 155.19 3.7535 159.44z" fill="#ABC396"/>
<circle cx="334.34" cy="673.5" r="8" fill="#404A37" stroke="#ABC396"/>
<mask id="c" x="351.842" y="683" width="92" height="15" fill="black" maskUnits="userSpaceOnUse">
<rect x="351.84" y="683" width="92" height="15" fill="#fff"/>
<path d="m352.85 696v-11.636h4.659c0.856 0 1.57 0.127 2.142 0.38 0.572 0.254 1.002 0.606 1.29 1.057 0.288 0.447 0.432 0.962 0.432 1.546 0 0.454-0.091 0.854-0.273 1.198-0.182 0.341-0.432 0.622-0.75 0.841-0.314 0.216-0.674 0.37-1.079 0.461v0.113c0.443 0.019 0.858 0.144 1.244 0.375 0.39 0.231 0.706 0.555 0.949 0.972 0.242 0.413 0.363 0.905 0.363 1.477 0 0.618-0.153 1.169-0.46 1.654-0.303 0.481-0.752 0.861-1.346 1.142-0.595 0.28-1.328 0.42-2.199 0.42h-4.972zm2.46-2.011h2.006c0.686 0 1.186-0.131 1.5-0.392 0.314-0.266 0.472-0.618 0.472-1.057 0-0.322-0.078-0.606-0.233-0.852-0.156-0.247-0.377-0.44-0.665-0.58-0.284-0.14-0.623-0.21-1.017-0.21h-2.063v3.091zm0-4.756h1.824c0.337 0 0.637-0.059 0.898-0.176 0.265-0.121 0.473-0.292 0.625-0.512 0.155-0.219 0.233-0.483 0.233-0.789 0-0.421-0.15-0.76-0.449-1.017-0.295-0.258-0.716-0.387-1.261-0.387h-1.87v2.881zm18.811 0.949c0 1.269-0.24 2.348-0.721 3.238-0.477 0.891-1.129 1.571-1.955 2.04-0.822 0.466-1.746 0.699-2.772 0.699-1.034 0-1.963-0.235-2.784-0.704-0.822-0.47-1.472-1.15-1.949-2.04-0.478-0.89-0.716-1.968-0.716-3.233 0-1.269 0.238-2.349 0.716-3.239 0.477-0.89 1.127-1.568 1.949-2.034 0.821-0.47 1.75-0.704 2.784-0.704 1.026 0 1.95 0.234 2.772 0.704 0.826 0.466 1.478 1.144 1.955 2.034 0.481 0.89 0.721 1.97 0.721 3.239zm-2.494 0c0-0.822-0.123-1.515-0.369-2.08-0.243-0.564-0.585-0.992-1.029-1.284-0.443-0.291-0.962-0.437-1.556-0.437-0.595 0-1.114 0.146-1.557 0.437-0.443 0.292-0.788 0.72-1.034 1.284-0.243 0.565-0.364 1.258-0.364 2.08s0.121 1.515 0.364 2.079c0.246 0.565 0.591 0.993 1.034 1.284 0.443 0.292 0.962 0.438 1.557 0.438 0.594 0 1.113-0.146 1.556-0.438 0.444-0.291 0.786-0.719 1.029-1.284 0.246-0.564 0.369-1.257 0.369-2.079zm4.317 5.818v-11.636h4.591c0.879 0 1.629 0.157 2.25 0.471 0.625 0.311 1.1 0.752 1.426 1.324 0.33 0.568 0.494 1.237 0.494 2.006 0 0.772-0.166 1.437-0.5 1.994-0.333 0.553-0.816 0.977-1.449 1.273-0.628 0.295-1.39 0.443-2.284 0.443h-3.074v-1.977h2.677c0.469 0 0.859-0.065 1.17-0.193 0.311-0.129 0.542-0.322 0.693-0.58 0.156-0.258 0.233-0.578 0.233-0.96 0-0.387-0.077-0.712-0.233-0.977-0.151-0.266-0.384-0.466-0.699-0.603-0.31-0.14-0.702-0.21-1.176-0.21h-1.659v9.625h-2.46zm6.284-5.295 2.892 5.295h-2.716l-2.829-5.295h2.653zm8.341 5.295h-4.125v-11.636h4.159c1.17 0 2.178 0.233 3.023 0.698 0.844 0.463 1.494 1.127 1.949 1.995 0.458 0.867 0.687 1.905 0.687 3.113 0 1.213-0.229 2.254-0.687 3.125-0.455 0.872-1.108 1.54-1.961 2.006-0.848 0.466-1.863 0.699-3.045 0.699zm-1.665-2.108h1.563c0.727 0 1.339-0.129 1.835-0.386 0.5-0.262 0.875-0.665 1.125-1.211 0.254-0.549 0.381-1.257 0.381-2.125 0-0.859-0.127-1.562-0.381-2.108-0.25-0.545-0.623-0.946-1.119-1.204-0.497-0.258-1.108-0.386-1.836-0.386h-1.568v7.42zm9.181 2.108v-11.636h7.84v2.028h-5.38v2.773h4.977v2.028h-4.977v2.779h5.403v2.028h-7.863zm11.802 0h-2.636l4.017-11.636h3.17l4.012 11.636h-2.637l-2.915-8.977h-0.09l-2.921 8.977zm-0.165-4.574h6.228v1.921h-6.228v-1.921zm17.316-7.062h2.46v7.556c0 0.849-0.203 1.591-0.608 2.228-0.402 0.636-0.964 1.132-1.688 1.488-0.723 0.353-1.566 0.529-2.528 0.529-0.966 0-1.811-0.176-2.534-0.529-0.724-0.356-1.286-0.852-1.688-1.488-0.401-0.637-0.602-1.379-0.602-2.228v-7.556h2.46v7.346c0 0.443 0.097 0.837 0.29 1.182 0.197 0.345 0.474 0.616 0.83 0.813s0.771 0.295 1.244 0.295c0.477 0 0.892-0.098 1.244-0.295 0.356-0.197 0.631-0.468 0.824-0.813 0.197-0.345 0.296-0.739 0.296-1.182v-7.346zm6.791 0 2.346 3.966h0.091l2.358-3.966h2.779l-3.551 5.818 3.63 5.818h-2.829l-2.387-3.972h-0.091l-2.386 3.972h-2.818l3.642-5.818-3.574-5.818h2.79z"/>
</mask>
<path d="m352.85 696v-11.636h4.659c0.856 0 1.57 0.127 2.142 0.38 0.572 0.254 1.002 0.606 1.29 1.057 0.288 0.447 0.432 0.962 0.432 1.546 0 0.454-0.091 0.854-0.273 1.198-0.182 0.341-0.432 0.622-0.75 0.841-0.314 0.216-0.674 0.37-1.079 0.461v0.113c0.443 0.019 0.858 0.144 1.244 0.375 0.39 0.231 0.706 0.555 0.949 0.972 0.242 0.413 0.363 0.905 0.363 1.477 0 0.618-0.153 1.169-0.46 1.654-0.303 0.481-0.752 0.861-1.346 1.142-0.595 0.28-1.328 0.42-2.199 0.42h-4.972zm2.46-2.011h2.006c0.686 0 1.186-0.131 1.5-0.392 0.314-0.266 0.472-0.618 0.472-1.057 0-0.322-0.078-0.606-0.233-0.852-0.156-0.247-0.377-0.44-0.665-0.58-0.284-0.14-0.623-0.21-1.017-0.21h-2.063v3.091zm0-4.756h1.824c0.337 0 0.637-0.059 0.898-0.176 0.265-0.121 0.473-0.292 0.625-0.512 0.155-0.219 0.233-0.483 0.233-0.789 0-0.421-0.15-0.76-0.449-1.017-0.295-0.258-0.716-0.387-1.261-0.387h-1.87v2.881zm18.811 0.949c0 1.269-0.24 2.348-0.721 3.238-0.477 0.891-1.129 1.571-1.955 2.04-0.822 0.466-1.746 0.699-2.772 0.699-1.034 0-1.963-0.235-2.784-0.704-0.822-0.47-1.472-1.15-1.949-2.04-0.478-0.89-0.716-1.968-0.716-3.233 0-1.269 0.238-2.349 0.716-3.239 0.477-0.89 1.127-1.568 1.949-2.034 0.821-0.47 1.75-0.704 2.784-0.704 1.026 0 1.95 0.234 2.772 0.704 0.826 0.466 1.478 1.144 1.955 2.034 0.481 0.89 0.721 1.97 0.721 3.239zm-2.494 0c0-0.822-0.123-1.515-0.369-2.08-0.243-0.564-0.585-0.992-1.029-1.284-0.443-0.291-0.962-0.437-1.556-0.437-0.595 0-1.114 0.146-1.557 0.437-0.443 0.292-0.788 0.72-1.034 1.284-0.243 0.565-0.364 1.258-0.364 2.08s0.121 1.515 0.364 2.079c0.246 0.565 0.591 0.993 1.034 1.284 0.443 0.292 0.962 0.438 1.557 0.438 0.594 0 1.113-0.146 1.556-0.438 0.444-0.291 0.786-0.719 1.029-1.284 0.246-0.564 0.369-1.257 0.369-2.079zm4.317 5.818v-11.636h4.591c0.879 0 1.629 0.157 2.25 0.471 0.625 0.311 1.1 0.752 1.426 1.324 0.33 0.568 0.494 1.237 0.494 2.006 0 0.772-0.166 1.437-0.5 1.994-0.333 0.553-0.816 0.977-1.449 1.273-0.628 0.295-1.39 0.443-2.284 0.443h-3.074v-1.977h2.677c0.469 0 0.859-0.065 1.17-0.193 0.311-0.129 0.542-0.322 0.693-0.58 0.156-0.258 0.233-0.578 0.233-0.96 0-0.387-0.077-0.712-0.233-0.977-0.151-0.266-0.384-0.466-0.699-0.603-0.31-0.14-0.702-0.21-1.176-0.21h-1.659v9.625h-2.46zm6.284-5.295 2.892 5.295h-2.716l-2.829-5.295h2.653zm8.341 5.295h-4.125v-11.636h4.159c1.17 0 2.178 0.233 3.023 0.698 0.844 0.463 1.494 1.127 1.949 1.995 0.458 0.867 0.687 1.905 0.687 3.113 0 1.213-0.229 2.254-0.687 3.125-0.455 0.872-1.108 1.54-1.961 2.006-0.848 0.466-1.863 0.699-3.045 0.699zm-1.665-2.108h1.563c0.727 0 1.339-0.129 1.835-0.386 0.5-0.262 0.875-0.665 1.125-1.211 0.254-0.549 0.381-1.257 0.381-2.125 0-0.859-0.127-1.562-0.381-2.108-0.25-0.545-0.623-0.946-1.119-1.204-0.497-0.258-1.108-0.386-1.836-0.386h-1.568v7.42zm9.181 2.108v-11.636h7.84v2.028h-5.38v2.773h4.977v2.028h-4.977v2.779h5.403v2.028h-7.863zm11.802 0h-2.636l4.017-11.636h3.17l4.012 11.636h-2.637l-2.915-8.977h-0.09l-2.921 8.977zm-0.165-4.574h6.228v1.921h-6.228v-1.921zm17.316-7.062h2.46v7.556c0 0.849-0.203 1.591-0.608 2.228-0.402 0.636-0.964 1.132-1.688 1.488-0.723 0.353-1.566 0.529-2.528 0.529-0.966 0-1.811-0.176-2.534-0.529-0.724-0.356-1.286-0.852-1.688-1.488-0.401-0.637-0.602-1.379-0.602-2.228v-7.556h2.46v7.346c0 0.443 0.097 0.837 0.29 1.182 0.197 0.345 0.474 0.616 0.83 0.813s0.771 0.295 1.244 0.295c0.477 0 0.892-0.098 1.244-0.295 0.356-0.197 0.631-0.468 0.824-0.813 0.197-0.345 0.296-0.739 0.296-1.182v-7.346zm6.791 0 2.346 3.966h0.091l2.358-3.966h2.779l-3.551 5.818 3.63 5.818h-2.829l-2.387-3.972h-0.091l-2.386 3.972h-2.818l3.642-5.818-3.574-5.818h2.79z" fill="#404A37"/>
<path d="m352.85 696h-1v1h1v-1zm0-11.636v-1h-1v1h1zm6.801 0.38-0.405 0.914 0.405-0.914zm1.29 1.057-0.843 0.538 2e-3 4e-3 0.841-0.542zm0.159 2.744 0.883 0.471 2e-3 -4e-3 -0.885-0.467zm-0.75 0.841 0.566 0.825 2e-3 -2e-3 -0.568-0.823zm-1.079 0.461-0.219-0.976-0.781 0.175v0.801h1zm0 0.113h-1v0.958l0.957 0.041 0.043-0.999zm1.244 0.375-0.513 0.858 3e-3 3e-3 0.51-0.861zm0.949 0.972-0.865 0.503 2e-3 3e-3 0.863-0.506zm-0.097 3.131-0.845-0.535-1e-3 2e-3 0.846 0.533zm-1.346 1.142-0.427-0.905 0.427 0.905zm-4.711-1.591h-1v1h1v-1zm3.506-0.392 0.639 0.769 6e-3 -5e-3 -0.645-0.764zm0.239-1.909-0.846 0.533 0.846-0.533zm-0.665-0.58-0.442 0.897 4e-3 2e-3 0.438-0.899zm-3.08-0.21v-1h-1v1h1zm0-1.665h-1v1h1v-1zm2.722-0.176 0.41 0.912 6e-3 -3e-3 -0.416-0.909zm0.625-0.512-0.817-0.577-6e-3 0.01 0.823 0.567zm-0.216-1.806-0.657 0.753 5e-3 5e-3 0.652-0.758zm-3.131-0.387v-1h-1v1h1zm-1.46 9.648v-11.636h-2v11.636h2zm-1-10.636h4.659v-2h-4.659v2zm4.659 0c0.765 0 1.33 0.114 1.737 0.294l0.811-1.828c-0.738-0.327-1.6-0.466-2.548-0.466v2zm1.737 0.294c0.423 0.188 0.687 0.423 0.852 0.681l1.686-1.076c-0.411-0.643-1.007-1.113-1.727-1.433l-0.811 1.828zm0.854 0.685c0.174 0.27 0.273 0.593 0.273 1.004h2c0-0.756-0.189-1.463-0.591-2.087l-1.682 1.083zm0.273 1.004c0 0.319-0.063 0.553-0.157 0.732l1.769 0.933c0.269-0.511 0.388-1.075 0.388-1.665h-2zm-0.155 0.728c-0.107 0.2-0.249 0.359-0.436 0.488l1.136 1.646c0.45-0.31 0.808-0.711 1.065-1.193l-1.765-0.941zm-0.434 0.487c-0.2 0.138-0.44 0.243-0.732 0.309l0.437 1.951c0.519-0.116 0.999-0.317 1.427-0.611l-1.132-1.649zm-1.513 1.285v0.113h2v-0.113h-2zm0.957 1.112c0.274 0.012 0.528 0.087 0.774 0.234l1.026-1.716c-0.527-0.315-1.103-0.49-1.715-0.516l-0.085 1.998zm0.777 0.237c0.234 0.138 0.432 0.335 0.594 0.614l1.729-1.006c-0.322-0.555-0.757-1.006-1.303-1.329l-1.02 1.721zm0.596 0.617c0.137 0.232 0.226 0.542 0.226 0.971h2c0-0.715-0.152-1.39-0.501-1.984l-1.725 1.013zm0.226 0.971c0 0.443-0.107 0.806-0.305 1.119l1.69 1.069c0.416-0.657 0.615-1.396 0.615-2.188h-2zm-0.306 1.121c-0.186 0.295-0.477 0.558-0.927 0.77l0.853 1.809c0.74-0.349 1.347-0.847 1.766-1.514l-1.692-1.065zm-0.927 0.77c-0.425 0.2-1.003 0.325-1.772 0.325v2c0.973 0 1.861-0.156 2.625-0.516l-0.853-1.809zm-1.772 0.325h-4.972v2h4.972v-2zm-2.512-0.011h2.006v-2h-2.006v2zm2.006 0c0.774 0 1.559-0.141 2.139-0.623l-1.278-1.538c-0.048 0.04-0.264 0.161-0.861 0.161v2zm2.145-0.628c0.556-0.469 0.827-1.11 0.827-1.821h-2c0 0.167-0.045 0.231-0.117 0.292l1.29 1.529zm0.827-1.821c0-0.49-0.121-0.963-0.387-1.386l-1.692 1.067c0.044 0.07 0.079 0.165 0.079 0.319h2zm-0.387-1.386c-0.265-0.419-0.635-0.732-1.073-0.945l-0.876 1.798c0.138 0.067 0.211 0.141 0.257 0.214l1.692-1.067zm-1.069-0.943c-0.451-0.222-0.948-0.313-1.459-0.313v2c0.277 0 0.457 0.049 0.575 0.107l0.884-1.794zm-1.459-0.313h-2.063v2h2.063v-2zm-3.063 1v3.091h2v-3.091h-2zm1-0.665h1.824v-2h-1.824v2zm1.824 0c0.454 0 0.897-0.079 1.308-0.264l-0.82-1.824c-0.112 0.05-0.267 0.088-0.488 0.088v2zm1.314-0.267c0.413-0.189 0.769-0.471 1.032-0.853l-1.646-1.135c-0.04 0.057-0.101 0.116-0.218 0.169l0.832 1.819zm1.026-0.843c0.29-0.412 0.416-0.884 0.416-1.367h-2c0 0.13-0.03 0.184-0.05 0.212l1.634 1.155zm0.416-1.367c0-0.69-0.261-1.314-0.797-1.775l-1.304 1.516c0.062 0.054 0.101 0.108 0.101 0.259h2zm-0.792-1.771c-0.538-0.469-1.226-0.633-1.918-0.633v2c0.398 0 0.551 0.094 0.604 0.14l1.314-1.507zm-1.918-0.633h-1.87v2h1.87v-2zm-2.87 1v2.881h2v-2.881h-2zm19.09 7.068-0.88-0.475-1e-3 3e-3 0.881 0.472zm-1.955 2.04 0.493 0.87 2e-3 -1e-3 -0.495-0.869zm-5.556-5e-3 0.496-0.869-0.496 0.869zm-1.949-2.04-0.882 0.472 0.882-0.472zm0-6.472 0.881 0.473-0.881-0.473zm1.949-2.034 0.493 0.87 3e-3 -2e-3 -0.496-0.868zm5.556 0-0.496 0.868 5e-3 3e-3 0.491-0.871zm1.955 2.034-0.881 0.473 1e-3 3e-3 0.88-0.476zm-2.142 1.159-0.919 0.395 2e-3 5e-3 0.917-0.4zm-1.029-1.284-0.549 0.836 0.549-0.836zm-3.113 0 0.55 0.836-0.55-0.836zm-1.034 1.284-0.917-0.4-2e-3 6e-3 0.919 0.394zm0 4.159-0.919 0.395 2e-3 5e-3 0.917-0.4zm1.034 1.284 0.55-0.835-0.55 0.835zm3.113 0-0.549-0.835 0.549 0.835zm1.029-1.284-0.917-0.399-2e-3 5e-3 0.919 0.394zm1.863-2.079c0 1.144-0.216 2.051-0.601 2.763l1.76 0.951c0.577-1.069 0.841-2.321 0.841-3.714h-2zm-0.602 2.766c-0.395 0.735-0.917 1.272-1.568 1.643l0.989 1.738c1-0.568 1.781-1.391 2.341-2.436l-1.762-0.945zm-1.567 1.642c-0.659 0.374-1.41 0.569-2.279 0.569v2c1.184 0 2.28-0.27 3.265-0.829l-0.986-1.74zm-2.279 0.569c-0.877 0-1.631-0.197-2.288-0.573l-0.993 1.737c0.987 0.564 2.089 0.836 3.281 0.836v-2zm-2.288-0.573c-0.648-0.37-1.169-0.908-1.564-1.644l-1.763 0.945c0.56 1.044 1.338 1.867 2.334 2.436l0.993-1.737zm-1.564-1.644c-0.382-0.712-0.597-1.619-0.597-2.76h-2c0 1.389 0.262 2.638 0.834 3.705l1.763-0.945zm-0.597-2.76c0-1.146 0.215-2.054 0.597-2.766l-1.763-0.945c-0.572 1.068-0.834 2.318-0.834 3.711h2zm0.597-2.766c0.394-0.736 0.914-1.271 1.561-1.637l-0.987-1.74c-0.997 0.566-1.777 1.387-2.337 2.432l1.763 0.945zm1.564-1.639c0.657-0.375 1.411-0.572 2.288-0.572v-2c-1.192 0-2.294 0.272-3.281 0.836l0.993 1.736zm2.288-0.572c0.867 0 1.618 0.196 2.276 0.572l0.992-1.736c-0.985-0.563-2.083-0.836-3.268-0.836v2zm2.281 0.575c0.65 0.367 1.171 0.901 1.565 1.636l1.762-0.945c-0.561-1.046-1.342-1.868-2.344-2.433l-0.983 1.742zm1.566 1.639c0.385 0.711 0.601 1.618 0.601 2.763h2c0-1.394-0.264-2.646-0.841-3.714l-1.76 0.951zm0.107 2.763c0-0.916-0.136-1.754-0.453-2.48l-1.833 0.8c0.176 0.404 0.286 0.952 0.286 1.68h2zm-0.45-2.474c-0.308-0.716-0.767-1.31-1.398-1.725l-1.099 1.671c0.255 0.167 0.481 0.429 0.659 0.843l1.838-0.789zm-1.398-1.725c-0.626-0.412-1.341-0.602-2.106-0.602v2c0.423 0 0.746 0.101 1.007 0.273l1.099-1.671zm-2.106-0.602c-0.766 0-1.481 0.19-2.107 0.602l1.1 1.671c0.26-0.172 0.583-0.273 1.007-0.273v-2zm-2.107 0.602c-0.63 0.414-1.09 1.007-1.401 1.719l1.833 0.8c0.182-0.416 0.411-0.68 0.668-0.848l-1.1-1.671zm-1.403 1.725c-0.311 0.723-0.445 1.56-0.445 2.474h2c0-0.73 0.108-1.28 0.283-1.685l-1.838-0.789zm-0.445 2.474c0 0.914 0.134 1.75 0.445 2.474l1.838-0.789c-0.175-0.406-0.283-0.956-0.283-1.685h-2zm0.447 2.479c0.311 0.713 0.771 1.305 1.401 1.72l1.1-1.671c-0.257-0.169-0.486-0.433-0.668-0.848l-1.833 0.799zm1.401 1.72c0.626 0.412 1.341 0.602 2.107 0.602v-2c-0.424 0-0.747-0.101-1.007-0.273l-1.1 1.671zm2.107 0.602c0.765 0 1.48-0.19 2.106-0.602l-1.099-1.671c-0.261 0.172-0.584 0.273-1.007 0.273v2zm2.106-0.602c0.631-0.416 1.09-1.01 1.398-1.725l-1.838-0.789c-0.178 0.413-0.404 0.675-0.659 0.843l1.099 1.671zm1.395-1.72c0.317-0.725 0.453-1.563 0.453-2.479h-2c0 0.728-0.11 1.276-0.286 1.68l1.833 0.799zm3.77 3.339h-1v1h1v-1zm0-11.636v-1h-1v1h1zm6.841 0.471-0.452 0.892 7e-3 4e-3 0.445-0.896zm1.426 1.324-0.869 0.495 4e-3 7e-3 0.865-0.502zm-6e-3 4 0.857 0.516 1e-3 -2e-3 -0.858-0.514zm-1.449 1.273-0.423-0.906-2e-3 1e-3 0.425 0.905zm-5.358 0.443h-1v1h1v-1zm0-1.977v-1h-1v1h1zm3.847-0.193 0.383 0.923-0.383-0.923zm0.693-0.58-0.856-0.516-6e-3 9e-3 0.862 0.507zm0-1.937-0.868 0.496 5e-3 9e-3 0.863-0.505zm-0.699-0.603-0.411 0.912 7e-3 3e-3 6e-3 3e-3 0.398-0.918zm-2.835-0.21v-1h-1v1h1zm0 9.625v1h1v-1h-1zm3.824-5.295 0.878-0.48-0.285-0.52h-0.593v1zm2.892 5.295v1h1.686l-0.808-1.479-0.878 0.479zm-2.716 0-0.882 0.471 0.283 0.529h0.599v-1zm-2.829-5.295v-1h-1.669l0.787 1.471 0.882-0.471zm-2.631 5.295v-11.636h-2v11.636h2zm-1-10.636h4.591v-2h-4.591v2zm4.591 0c0.762 0 1.349 0.136 1.798 0.363l0.903-1.784c-0.793-0.401-1.706-0.579-2.701-0.579v2zm1.805 0.367c0.458 0.228 0.781 0.534 1.002 0.923l1.738-0.99c-0.43-0.755-1.058-1.331-1.85-1.724l-0.89 1.791zm1.006 0.93c0.227 0.391 0.359 0.881 0.359 1.504h2c0-0.915-0.197-1.763-0.629-2.508l-1.73 1.004zm0.359 1.504c0 0.626-0.134 1.106-0.358 1.48l1.716 1.028c0.443-0.74 0.642-1.589 0.642-2.508h-2zm-0.356 1.478c-0.223 0.369-0.548 0.664-1.016 0.883l0.847 1.812c0.797-0.372 1.437-0.926 1.882-1.663l-1.713-1.032zm-1.018 0.884c-0.463 0.217-1.071 0.348-1.859 0.348v2c1.001 0 1.915-0.165 2.71-0.538l-0.851-1.81zm-1.859 0.348h-3.074v2h3.074v-2zm-2.074 1v-1.977h-2v1.977h2zm-1-0.977h2.677v-2h-2.677v2zm2.677 0c0.552 0 1.083-0.075 1.553-0.27l-0.766-1.847c-0.151 0.063-0.401 0.117-0.787 0.117v2zm1.553-0.27c0.485-0.201 0.897-0.528 1.172-0.996l-1.724-1.014c-0.027 0.047-0.078 0.106-0.214 0.163l0.766 1.847zm1.167-0.987c0.271-0.45 0.376-0.96 0.376-1.476h-2c0 0.249-0.05 0.379-0.089 0.444l1.713 1.032zm0.376-1.476c0-0.519-0.104-1.03-0.37-1.483l-1.726 1.011c0.046 0.077 0.096 0.218 0.096 0.472h2zm-0.365-1.474c-0.271-0.475-0.682-0.812-1.169-1.023l-0.796 1.835c0.142 0.061 0.198 0.126 0.229 0.181l1.736-0.993zm-1.155-1.017c-0.48-0.217-1.024-0.299-1.588-0.299v2c0.384 0 0.624 0.058 0.765 0.122l0.823-1.823zm-1.588-0.299h-1.659v2h1.659v-2zm-2.659 1v9.625h2v-9.625h-2zm1 8.625h-2.46v2h2.46v-2zm2.946-3.816 2.892 5.295 1.756-0.958-2.892-5.296-1.756 0.959zm3.77 3.816h-2.716v2h2.716v-2zm-1.834 0.529-2.829-5.296-1.764 0.943 2.829 5.295 1.764-0.942zm-3.711-3.824h2.653v-2h-2.653v2zm6.869 4.295h-1v1h1v-1zm0-11.636v-1h-1v1h1zm7.182 0.698-0.483 0.876 3e-3 2e-3 0.48-0.878zm1.949 1.995-0.886 0.464 1e-3 3e-3 0.885-0.467zm0 6.238-0.885-0.465-2e-3 3e-3 0.887 0.462zm-1.961 2.006-0.479-0.877-2e-3 1e-3 0.481 0.876zm-4.71-1.409h-1v1h1v-1zm3.398-0.386 0.461 0.887 2e-3 -1e-3 -0.463-0.886zm1.125-1.211-0.908-0.419-1e-3 3e-3 0.909 0.416zm0-4.233-0.909 0.417 2e-3 5e-3 0.907-0.422zm-1.119-1.204 0.46-0.888-0.46 0.888zm-3.404-0.386v-1h-1v1h1zm1.665 8.528h-4.125v2h4.125v-2zm-3.125 1v-11.636h-2v11.636h2zm-1-10.636h4.159v-2h-4.159v2zm4.159 0c1.037 0 1.871 0.206 2.54 0.574l0.966-1.751c-1.021-0.563-2.202-0.823-3.506-0.823v2zm2.543 0.576c0.668 0.366 1.178 0.885 1.543 1.581l1.771-0.928c-0.544-1.039-1.333-1.849-2.354-2.408l-0.96 1.755zm1.544 1.584c0.367 0.694 0.572 1.564 0.572 2.646h2c0-1.334-0.253-2.539-0.803-3.58l-1.769 0.934zm0.572 2.646c0 1.087-0.205 1.962-0.572 2.66l1.77 0.931c0.549-1.044 0.802-2.253 0.802-3.591h-2zm-0.574 2.663c-0.364 0.698-0.877 1.221-1.553 1.591l0.959 1.755c1.028-0.562 1.822-1.376 2.367-2.421l-1.773-0.925zm-1.555 1.592c-0.672 0.368-1.514 0.575-2.564 0.575v2c1.313 0 2.501-0.259 3.527-0.822l-0.963-1.753zm-4.229 0.467h1.563v-2h-1.563v2zm1.563 0c0.841 0 1.621-0.148 2.296-0.499l-0.922-1.775c-0.317 0.165-0.761 0.274-1.374 0.274v2zm2.298-0.5c0.71-0.371 1.235-0.946 1.571-1.68l-1.818-0.833c-0.164 0.357-0.389 0.589-0.679 0.74l0.926 1.773zm1.57-1.677c0.335-0.725 0.473-1.59 0.473-2.545h-2c0 0.781-0.116 1.332-0.289 1.706l1.816 0.839zm0.473-2.545c0-0.947-0.139-1.808-0.474-2.529l-1.814 0.843c0.172 0.37 0.288 0.914 0.288 1.686h2zm-0.472-2.524c-0.336-0.732-0.859-1.308-1.568-1.676l-0.921 1.776c0.283 0.147 0.506 0.374 0.671 0.733l1.818-0.833zm-1.568-1.676c-0.675-0.35-1.455-0.498-2.296-0.498v2c0.614 0 1.057 0.109 1.375 0.274l0.921-1.776zm-2.296-0.498h-1.568v2h1.568v-2zm-2.568 1v7.42h2v-7.42h-2zm10.181 9.528h-1v1h1v-1zm0-11.636v-1h-1v1h1zm7.84 0h1v-1h-1v1zm0 2.028v1h1v-1h-1zm-5.38 0v-1h-1v1h1zm0 2.773h-1v1h1v-1zm4.977 0h1v-1h-1v1zm0 2.028v1h1v-1h-1zm-4.977 0v-1h-1v1h1zm0 2.779h-1v1h1v-1zm5.403 0h1v-1h-1v1zm0 2.028v1h1v-1h-1zm-6.863 0v-11.636h-2v11.636h2zm-1-10.636h7.84v-2h-7.84v2zm6.84-1v2.028h2v-2.028h-2zm1 1.028h-5.38v2h5.38v-2zm-6.38 1v2.773h2v-2.773h-2zm1 3.773h4.977v-2h-4.977v2zm3.977-1v2.028h2v-2.028h-2zm1 1.028h-4.977v2h4.977v-2zm-5.977 1v2.779h2v-2.779h-2zm1 3.779h5.403v-2h-5.403v2zm4.403-1v2.028h2v-2.028h-2zm1 1.028h-7.863v2h7.863v-2zm3.939 1v1h0.726l0.225-0.691-0.951-0.309zm-2.636 0-0.946-0.326-0.457 1.326h1.403v-1zm4.017-11.636v-1h-0.713l-0.232 0.673 0.945 0.327zm3.17 0 0.946-0.326-0.233-0.674h-0.713v1zm4.012 11.636v1h1.402l-0.457-1.326-0.945 0.326zm-2.637 0-0.951 0.309 0.225 0.691h0.726v-1zm-2.915-8.977 0.952-0.309-0.225-0.691h-0.727v1zm-0.09 0v-1h-0.727l-0.224 0.69 0.951 0.31zm-3.086 4.403v-1h-1v1h1zm6.228 0h1v-1h-1v1zm0 1.921v1h1v-1h-1zm-6.228 0h-1v1h1v-1zm0.165 1.653h-2.636v2h2.636v-2zm-1.691 1.326 4.017-11.636-1.89-0.653-4.018 11.637 1.891 0.652zm3.072-10.962h3.17v-2h-3.17v2zm2.225-0.674 4.011 11.636 1.891-0.652-4.011-11.636-1.891 0.652zm4.957 10.31h-2.637v2h2.637v-2zm-1.686 0.691-2.914-8.977-1.903 0.618 2.915 8.977 1.902-0.618zm-3.866-9.668h-0.09v2h0.09v-2zm-1.041 0.69-2.921 8.978 1.902 0.618 2.92-8.977-1.901-0.619zm-2.135 5.713h6.228v-2h-6.228v2zm5.228-1v1.921h2v-1.921h-2zm1 0.921h-6.228v2h6.228v-2zm-5.228 1v-1.921h-2v1.921h2zm16.316-8.983v-1h-1v1h1zm2.46 0h1v-1h-1v1zm-0.608 9.784-0.844-0.537-2e-3 3e-3 0.846 0.534zm-1.688 1.488 0.438 0.899 4e-3 -1e-3 -0.442-0.898zm-5.062 0-0.442 0.898 4e-3 1e-3 0.438-0.899zm-1.688-1.488-0.845 0.533 0.845-0.533zm-0.602-9.784v-1h-1v1h1zm2.46 0h1v-1h-1v1zm0.29 8.528-0.872 0.489 4e-3 7e-3 0.868-0.496zm0.83 0.813-0.484 0.875 0.484-0.875zm2.488 0-0.484-0.875-4e-3 2e-3 0.488 0.873zm0.824-0.813-0.868-0.496-4e-3 7e-3 0.872 0.489zm0.296-7.528h2.46v-2h-2.46v2zm1.46-1v7.556h2v-7.556h-2zm0 7.556c0 0.683-0.161 1.234-0.452 1.691l1.687 1.074c0.52-0.816 0.765-1.75 0.765-2.765h-2zm-0.454 1.694c-0.296 0.469-0.713 0.845-1.283 1.125l0.883 1.795c0.877-0.432 1.584-1.049 2.092-1.853l-1.692-1.067zm-1.279 1.123c-0.563 0.274-1.251 0.428-2.091 0.428v2c1.084 0 2.082-0.199 2.966-0.63l-0.875-1.798zm-2.091 0.428c-0.844 0-1.534-0.154-2.096-0.428l-0.876 1.798c0.885 0.431 1.884 0.63 2.972 0.63v-2zm-2.092-0.426c-0.571-0.28-0.988-0.656-1.284-1.125l-1.691 1.067c0.507 0.804 1.215 1.421 2.091 1.853l0.884-1.795zm-1.284-1.125c-0.288-0.457-0.448-1.009-0.448-1.694h-2c0 1.013 0.242 1.945 0.757 2.761l1.691-1.067zm-0.448-1.694v-7.556h-2v7.556h2zm-1-6.556h2.46v-2h-2.46v2zm1.46-1v7.346h2v-7.346h-2zm0 7.346c0 0.593 0.131 1.159 0.418 1.671l1.745-0.978c-0.1-0.178-0.163-0.4-0.163-0.693h-2zm0.422 1.678c0.29 0.508 0.701 0.908 1.214 1.192l0.968-1.75c-0.2-0.111-0.342-0.253-0.446-0.434l-1.736 0.992zm1.214 1.192c0.527 0.291 1.113 0.42 1.728 0.42v-2c-0.332 0-0.575-0.068-0.76-0.17l-0.968 1.75zm1.728 0.42c0.617 0 1.206-0.128 1.732-0.423l-0.976-1.745c-0.178 0.099-0.418 0.168-0.756 0.168v2zm1.728-0.42c0.514-0.285 0.926-0.687 1.213-1.199l-1.745-0.978c-0.1 0.177-0.237 0.317-0.436 0.427l0.968 1.75zm1.208-1.192c0.293-0.513 0.428-1.081 0.428-1.678h-2c0 0.29-0.063 0.509-0.164 0.686l1.736 0.992zm0.428-1.678v-7.346h-2v7.346h2zm5.791-7.346 0.86-0.51-0.29-0.49h-0.57v1zm2.346 3.966-0.86 0.509 0.29 0.491h0.57v-1zm0.091 0v1h0.569l0.291-0.489-0.86-0.511zm2.358-3.966v-1h-0.569l-0.29 0.489 0.859 0.511zm2.779 0 0.853 0.521 0.929-1.521h-1.782v1zm-3.551 5.818-0.854-0.521-0.322 0.527 0.327 0.523 0.849-0.529zm3.63 5.818v1h1.803l-0.954-1.529-0.849 0.529zm-2.829 0-0.857 0.515 0.291 0.485h0.566v-1zm-2.387-3.972 0.858-0.515-0.292-0.485h-0.566v1zm-0.091 0v-1h-0.565l-0.292 0.485 0.857 0.515zm-2.386 3.972v1h0.566l0.291-0.485-0.857-0.515zm-2.818 0-0.848-0.531-0.958 1.531h1.806v-1zm3.642-5.818 0.848 0.53 0.329-0.525-0.325-0.529-0.852 0.524zm-3.574-5.818v-1h-1.788l0.936 1.523 0.852-0.523zm1.929 0.509 2.347 3.966 1.721-1.019-2.347-3.966-1.721 1.019zm3.207 4.457h0.091v-2h-0.091v2zm0.951-0.489 2.358-3.966-1.719-1.022-2.358 3.965 1.719 1.023zm1.498-3.477h2.779v-2h-2.779v2zm1.925-1.521-3.551 5.818 1.707 1.042 3.551-5.818-1.707-1.042zm-3.546 6.868 3.631 5.818 1.697-1.058-3.631-5.819-1.697 1.059zm4.479 4.289h-2.829v2h2.829v-2zm-1.972 0.485-2.386-3.972-1.715 1.03 2.387 3.972 1.714-1.03zm-3.244-4.457h-0.091v2h0.091v-2zm-0.948 0.485-2.386 3.972 1.714 1.03 2.387-3.972-1.715-1.03zm-1.529 3.487h-2.818v2h2.818v-2zm-1.97 1.531 3.642-5.819-1.696-1.061-3.642 5.818 1.696 1.062zm3.646-6.873-3.574-5.818-1.704 1.047 3.574 5.818 1.704-1.047zm-4.426-4.294h2.79v-2h-2.79v2z" fill="#ABC396" mask="url(#c)"/>
<circle cx="142.34" cy="102.5" r="8" fill="#404A37" stroke="#ABC396"/>
<mask id="b" x="168.842" y="112" width="110" height="15" fill="black" maskUnits="userSpaceOnUse">
<rect x="168.84" y="112" width="110" height="15" fill="#fff"/>
<path d="m169.85 125v-11.636h2.46v9.608h4.989v2.028h-7.449zm11.381 0h-2.637l4.018-11.636h3.17l4.011 11.636h-2.636l-2.915-8.977h-0.091l-2.92 8.977zm-0.165-4.574h6.227v1.921h-6.227v-1.921zm13.831 4.574v-11.636h4.591c0.879 0 1.629 0.157 2.25 0.471 0.625 0.311 1.1 0.752 1.426 1.324 0.33 0.568 0.494 1.237 0.494 2.006 0 0.772-0.166 1.437-0.5 1.994-0.333 0.553-0.816 0.977-1.448 1.273-0.629 0.295-1.391 0.443-2.285 0.443h-3.073v-1.977h2.676c0.469 0 0.86-0.065 1.17-0.193 0.311-0.129 0.542-0.322 0.693-0.58 0.156-0.258 0.233-0.578 0.233-0.96 0-0.387-0.077-0.712-0.233-0.977-0.151-0.266-0.384-0.466-0.699-0.603-0.31-0.14-0.702-0.21-1.176-0.21h-1.659v9.625h-2.46zm6.284-5.295 2.892 5.295h-2.716l-2.829-5.295h2.653zm14.909-0.523c0 1.269-0.24 2.348-0.721 3.238-0.478 0.891-1.129 1.571-1.955 2.04-0.822 0.466-1.746 0.699-2.773 0.699-1.034 0-1.962-0.235-2.784-0.704-0.822-0.47-1.471-1.15-1.949-2.04-0.477-0.89-0.716-1.968-0.716-3.233 0-1.269 0.239-2.349 0.716-3.239 0.478-0.89 1.127-1.568 1.949-2.034 0.822-0.47 1.75-0.704 2.784-0.704 1.027 0 1.951 0.234 2.773 0.704 0.826 0.466 1.477 1.144 1.955 2.034 0.481 0.89 0.721 1.97 0.721 3.239zm-2.494 0c0-0.822-0.123-1.515-0.369-2.08-0.243-0.564-0.586-0.992-1.029-1.284-0.443-0.291-0.962-0.437-1.557-0.437-0.594 0-1.113 0.146-1.556 0.437-0.444 0.292-0.788 0.72-1.035 1.284-0.242 0.565-0.363 1.258-0.363 2.08s0.121 1.515 0.363 2.079c0.247 0.565 0.591 0.993 1.035 1.284 0.443 0.292 0.962 0.438 1.556 0.438 0.595 0 1.114-0.146 1.557-0.438 0.443-0.291 0.786-0.719 1.029-1.284 0.246-0.564 0.369-1.257 0.369-2.079zm14.584-1.744h-2.489c-0.045-0.322-0.138-0.608-0.278-0.858-0.14-0.254-0.32-0.47-0.54-0.648s-0.474-0.315-0.761-0.409c-0.285-0.095-0.593-0.142-0.927-0.142-0.602 0-1.127 0.149-1.573 0.449-0.447 0.295-0.794 0.727-1.04 1.295-0.246 0.564-0.37 1.25-0.37 2.057 0 0.829 0.124 1.526 0.37 2.091 0.25 0.564 0.598 0.99 1.045 1.278s0.964 0.432 1.551 0.432c0.33 0 0.635-0.044 0.915-0.131 0.284-0.087 0.536-0.214 0.756-0.38 0.219-0.171 0.401-0.377 0.545-0.62 0.148-0.242 0.25-0.519 0.307-0.829l2.489 0.011c-0.065 0.534-0.226 1.049-0.483 1.546-0.254 0.492-0.597 0.933-1.029 1.323-0.428 0.387-0.939 0.694-1.534 0.921-0.591 0.223-1.259 0.335-2.005 0.335-1.038 0-1.966-0.235-2.785-0.704-0.814-0.47-1.458-1.15-1.931-2.04-0.47-0.89-0.705-1.968-0.705-3.233 0-1.269 0.239-2.349 0.716-3.239s1.125-1.568 1.943-2.034c0.818-0.47 1.739-0.704 2.762-0.704 0.674 0 1.299 0.094 1.875 0.284 0.579 0.189 1.092 0.466 1.539 0.829 0.447 0.36 0.811 0.801 1.091 1.324 0.284 0.523 0.466 1.121 0.546 1.796zm1.764 7.562v-11.636h2.46v4.801h4.994v-4.801h2.455v11.636h-2.455v-4.807h-4.994v4.807h-2.46zm11.937 0v-11.636h7.841v2.028h-5.38v2.773h4.977v2.028h-4.977v2.779h5.403v2.028h-7.864zm9.797 0v-11.636h2.461v9.608h4.988v2.028h-7.449zm9.078 0v-11.636h2.461v9.608h4.988v2.028h-7.449zm9.079 0v-11.636h7.84v2.028h-5.38v2.773h4.977v2.028h-4.977v2.779h5.403v2.028h-7.863z"/>
</mask>
<path d="m169.85 125v-11.636h2.46v9.608h4.989v2.028h-7.449zm11.381 0h-2.637l4.018-11.636h3.17l4.011 11.636h-2.636l-2.915-8.977h-0.091l-2.92 8.977zm-0.165-4.574h6.227v1.921h-6.227v-1.921zm13.831 4.574v-11.636h4.591c0.879 0 1.629 0.157 2.25 0.471 0.625 0.311 1.1 0.752 1.426 1.324 0.33 0.568 0.494 1.237 0.494 2.006 0 0.772-0.166 1.437-0.5 1.994-0.333 0.553-0.816 0.977-1.448 1.273-0.629 0.295-1.391 0.443-2.285 0.443h-3.073v-1.977h2.676c0.469 0 0.86-0.065 1.17-0.193 0.311-0.129 0.542-0.322 0.693-0.58 0.156-0.258 0.233-0.578 0.233-0.96 0-0.387-0.077-0.712-0.233-0.977-0.151-0.266-0.384-0.466-0.699-0.603-0.31-0.14-0.702-0.21-1.176-0.21h-1.659v9.625h-2.46zm6.284-5.295 2.892 5.295h-2.716l-2.829-5.295h2.653zm14.909-0.523c0 1.269-0.24 2.348-0.721 3.238-0.478 0.891-1.129 1.571-1.955 2.04-0.822 0.466-1.746 0.699-2.773 0.699-1.034 0-1.962-0.235-2.784-0.704-0.822-0.47-1.471-1.15-1.949-2.04-0.477-0.89-0.716-1.968-0.716-3.233 0-1.269 0.239-2.349 0.716-3.239 0.478-0.89 1.127-1.568 1.949-2.034 0.822-0.47 1.75-0.704 2.784-0.704 1.027 0 1.951 0.234 2.773 0.704 0.826 0.466 1.477 1.144 1.955 2.034 0.481 0.89 0.721 1.97 0.721 3.239zm-2.494 0c0-0.822-0.123-1.515-0.369-2.08-0.243-0.564-0.586-0.992-1.029-1.284-0.443-0.291-0.962-0.437-1.557-0.437-0.594 0-1.113 0.146-1.556 0.437-0.444 0.292-0.788 0.72-1.035 1.284-0.242 0.565-0.363 1.258-0.363 2.08s0.121 1.515 0.363 2.079c0.247 0.565 0.591 0.993 1.035 1.284 0.443 0.292 0.962 0.438 1.556 0.438 0.595 0 1.114-0.146 1.557-0.438 0.443-0.291 0.786-0.719 1.029-1.284 0.246-0.564 0.369-1.257 0.369-2.079zm14.584-1.744h-2.489c-0.045-0.322-0.138-0.608-0.278-0.858-0.14-0.254-0.32-0.47-0.54-0.648s-0.474-0.315-0.761-0.409c-0.285-0.095-0.593-0.142-0.927-0.142-0.602 0-1.127 0.149-1.573 0.449-0.447 0.295-0.794 0.727-1.04 1.295-0.246 0.564-0.37 1.25-0.37 2.057 0 0.829 0.124 1.526 0.37 2.091 0.25 0.564 0.598 0.99 1.045 1.278s0.964 0.432 1.551 0.432c0.33 0 0.635-0.044 0.915-0.131 0.284-0.087 0.536-0.214 0.756-0.38 0.219-0.171 0.401-0.377 0.545-0.62 0.148-0.242 0.25-0.519 0.307-0.829l2.489 0.011c-0.065 0.534-0.226 1.049-0.483 1.546-0.254 0.492-0.597 0.933-1.029 1.323-0.428 0.387-0.939 0.694-1.534 0.921-0.591 0.223-1.259 0.335-2.005 0.335-1.038 0-1.966-0.235-2.785-0.704-0.814-0.47-1.458-1.15-1.931-2.04-0.47-0.89-0.705-1.968-0.705-3.233 0-1.269 0.239-2.349 0.716-3.239s1.125-1.568 1.943-2.034c0.818-0.47 1.739-0.704 2.762-0.704 0.674 0 1.299 0.094 1.875 0.284 0.579 0.189 1.092 0.466 1.539 0.829 0.447 0.36 0.811 0.801 1.091 1.324 0.284 0.523 0.466 1.121 0.546 1.796zm1.764 7.562v-11.636h2.46v4.801h4.994v-4.801h2.455v11.636h-2.455v-4.807h-4.994v4.807h-2.46zm11.937 0v-11.636h7.841v2.028h-5.38v2.773h4.977v2.028h-4.977v2.779h5.403v2.028h-7.864zm9.797 0v-11.636h2.461v9.608h4.988v2.028h-7.449zm9.078 0v-11.636h2.461v9.608h4.988v2.028h-7.449zm9.079 0v-11.636h7.84v2.028h-5.38v2.773h4.977v2.028h-4.977v2.779h5.403v2.028h-7.863z" fill="#404A37"/>
<path d="m169.85 125h-1v1h1v-1zm0-11.636v-1h-1v1h1zm2.46 0h1v-1h-1v1zm0 9.608h-1v1h1v-1zm4.989 0h1v-1h-1v1zm0 2.028v1h1v-1h-1zm-6.449 0v-11.636h-2v11.636h2zm-1-10.636h2.46v-2h-2.46v2zm1.46-1v9.608h2v-9.608h-2zm1 10.608h4.989v-2h-4.989v2zm3.989-1v2.028h2v-2.028h-2zm1 1.028h-7.449v2h7.449v-2zm3.932 1v1h0.726l0.225-0.691-0.951-0.309zm-2.637 0-0.945-0.326-0.458 1.326h1.403v-1zm4.018-11.636v-1h-0.713l-0.233 0.673 0.946 0.327zm3.17 0 0.945-0.326-0.232-0.674h-0.713v1zm4.011 11.636v1h1.403l-0.457-1.326-0.946 0.326zm-2.636 0-0.951 0.309 0.224 0.691h0.727v-1zm-2.915-8.977 0.951-0.309-0.224-0.691h-0.727v1zm-0.091 0v-1h-0.726l-0.225 0.69 0.951 0.31zm-3.085 4.403v-1h-1v1h1zm6.227 0h1v-1h-1v1zm0 1.921v1h1v-1h-1zm-6.227 0h-1v1h1v-1zm0.165 1.653h-2.637v2h2.637v-2zm-1.691 1.326 4.017-11.636-1.891-0.653-4.017 11.637 1.891 0.652zm3.072-10.962h3.17v-2h-3.17v2zm2.225-0.674 4.011 11.636 1.891-0.652-4.012-11.636-1.89 0.652zm4.956 10.31h-2.636v2h2.636v-2zm-1.685 0.691-2.915-8.977-1.902 0.618 2.915 8.977 1.902-0.618zm-3.866-9.668h-0.091v2h0.091v-2zm-1.042 0.69-2.92 8.978 1.902 0.618 2.92-8.977-1.902-0.619zm-2.134 5.713h6.227v-2h-6.227v2zm5.227-1v1.921h2v-1.921h-2zm1 0.921h-6.227v2h6.227v-2zm-5.227 1v-1.921h-2v1.921h2zm12.831 2.653h-1v1h1v-1zm0-11.636v-1h-1v1h1zm6.841 0.471-0.452 0.892 7e-3 4e-3 0.445-0.896zm1.426 1.324-0.869 0.495 4e-3 7e-3 0.865-0.502zm-6e-3 4 0.857 0.516 1e-3 -2e-3 -0.858-0.514zm-1.448 1.273-0.424-0.906-2e-3 1e-3 0.426 0.905zm-5.358 0.443h-1v1h1v-1zm0-1.977v-1h-1v1h1zm3.846-0.193 0.383 0.923-0.383-0.923zm0.693-0.58-0.856-0.516-6e-3 9e-3 0.862 0.507zm0-1.937-0.868 0.496 5e-3 9e-3 0.863-0.505zm-0.699-0.603-0.411 0.912 0.014 6e-3 0.397-0.918zm-2.835-0.21v-1h-1v1h1zm0 9.625v1h1v-1h-1zm3.824-5.295 0.878-0.48-0.285-0.52h-0.593v1zm2.892 5.295v1h1.686l-0.808-1.479-0.878 0.479zm-2.716 0-0.882 0.471 0.283 0.529h0.599v-1zm-2.829-5.295v-1h-1.668l0.786 1.471 0.882-0.471zm-2.631 5.295v-11.636h-2v11.636h2zm-1-10.636h4.591v-2h-4.591v2zm4.591 0c0.762 0 1.349 0.136 1.798 0.363l0.904-1.784c-0.794-0.401-1.706-0.579-2.702-0.579v2zm1.805 0.367c0.458 0.228 0.781 0.534 1.002 0.923l1.738-0.99c-0.43-0.755-1.058-1.331-1.85-1.724l-0.89 1.791zm1.006 0.93c0.227 0.391 0.359 0.881 0.359 1.504h2c0-0.915-0.197-1.763-0.629-2.508l-1.73 1.004zm0.359 1.504c0 0.626-0.134 1.106-0.358 1.48l1.716 1.028c0.443-0.74 0.642-1.589 0.642-2.508h-2zm-0.356 1.478c-0.222 0.369-0.548 0.664-1.016 0.883l0.847 1.812c0.797-0.372 1.438-0.926 1.882-1.663l-1.713-1.032zm-1.018 0.884c-0.463 0.217-1.071 0.348-1.859 0.348v2c1.001 0 1.916-0.165 2.71-0.538l-0.851-1.81zm-1.859 0.348h-3.073v2h3.073v-2zm-2.073 1v-1.977h-2v1.977h2zm-1-0.977h2.676v-2h-2.676v2zm2.676 0c0.552 0 1.083-0.075 1.553-0.27l-0.766-1.847c-0.151 0.063-0.401 0.117-0.787 0.117v2zm1.553-0.27c0.485-0.201 0.897-0.528 1.172-0.996l-1.724-1.014c-0.027 0.047-0.078 0.106-0.214 0.163l0.766 1.847zm1.167-0.987c0.271-0.45 0.376-0.96 0.376-1.476h-2c0 0.249-0.05 0.379-0.089 0.444l1.713 1.032zm0.376-1.476c0-0.519-0.104-1.03-0.37-1.483l-1.726 1.011c0.046 0.077 0.096 0.218 0.096 0.472h2zm-0.364-1.474c-0.272-0.475-0.682-0.812-1.17-1.023l-0.795 1.835c0.141 0.061 0.197 0.126 0.228 0.181l1.737-0.993zm-1.156-1.017c-0.48-0.217-1.024-0.299-1.588-0.299v2c0.384 0 0.624 0.058 0.765 0.122l0.823-1.823zm-1.588-0.299h-1.659v2h1.659v-2zm-2.659 1v9.625h2v-9.625h-2zm1 8.625h-2.46v2h2.46v-2zm2.946-3.816 2.893 5.295 1.755-0.958-2.892-5.296-1.756 0.959zm3.77 3.816h-2.716v2h2.716v-2zm-1.834 0.529-2.829-5.296-1.764 0.943 2.829 5.295 1.764-0.942zm-3.711-3.824h2.653v-2h-2.653v2zm16.841 1.715-0.88-0.475-2e-3 3e-3 0.882 0.472zm-1.955 2.04 0.493 0.87 2e-3 -1e-3 -0.495-0.869zm-5.557-5e-3 0.496-0.869-0.496 0.869zm-1.949-2.04-0.881 0.472 0.881-0.472zm0-6.472 0.882 0.473-0.882-0.473zm1.949-2.034 0.493 0.87 3e-3 -2e-3 -0.496-0.868zm5.557 0-0.496 0.868 5e-3 3e-3 0.491-0.871zm1.955 2.034-0.882 0.473 2e-3 3e-3 0.88-0.476zm-2.142 1.159-0.919 0.395 2e-3 5e-3 0.917-0.4zm-1.029-1.284-0.55 0.836 0.55-0.836zm-3.113 0 0.549 0.836-0.549-0.836zm-1.035 1.284-0.916-0.4-2e-3 6e-3 0.918 0.394zm0 4.159-0.918 0.395 2e-3 5e-3 0.916-0.4zm1.035 1.284 0.549-0.835-0.549 0.835zm3.113 0-0.55-0.835 0.55 0.835zm1.029-1.284-0.917-0.399-2e-3 5e-3 0.919 0.394zm1.863-2.079c0 1.144-0.217 2.051-0.601 2.763l1.759 0.951c0.578-1.069 0.842-2.321 0.842-3.714h-2zm-0.603 2.766c-0.394 0.735-0.916 1.272-1.567 1.643l0.989 1.738c1-0.568 1.781-1.391 2.341-2.436l-1.763-0.945zm-1.566 1.642c-0.659 0.374-1.411 0.569-2.28 0.569v2c1.184 0 2.281-0.27 3.266-0.829l-0.986-1.74zm-2.28 0.569c-0.876 0-1.63-0.197-2.288-0.573l-0.992 1.737c0.987 0.564 2.089 0.836 3.28 0.836v-2zm-2.288-0.573c-0.648-0.37-1.169-0.908-1.563-1.644l-1.763 0.945c0.56 1.044 1.338 1.867 2.334 2.436l0.992-1.737zm-1.563-1.644c-0.382-0.712-0.598-1.619-0.598-2.76h-2c0 1.389 0.263 2.638 0.835 3.705l1.763-0.945zm-0.598-2.76c0-1.146 0.216-2.054 0.598-2.766l-1.763-0.945c-0.573 1.068-0.835 2.318-0.835 3.711h2zm0.598-2.766c0.394-0.736 0.914-1.271 1.56-1.637l-0.986-1.74c-0.998 0.566-1.777 1.387-2.337 2.432l1.763 0.945zm1.563-1.639c0.658-0.375 1.412-0.572 2.288-0.572v-2c-1.191 0-2.293 0.272-3.28 0.836l0.992 1.736zm2.288-0.572c0.868 0 1.619 0.196 2.277 0.572l0.992-1.736c-0.985-0.563-2.083-0.836-3.269-0.836v2zm2.282 0.575c0.649 0.367 1.171 0.901 1.564 1.636l1.763-0.945c-0.561-1.046-1.343-1.868-2.345-2.433l-0.982 1.742zm1.566 1.639c0.384 0.711 0.601 1.618 0.601 2.763h2c0-1.394-0.264-2.646-0.842-3.714l-1.759 0.951zm0.107 2.763c0-0.916-0.136-1.754-0.453-2.48l-1.833 0.8c0.176 0.404 0.286 0.952 0.286 1.68h2zm-0.451-2.474c-0.307-0.716-0.766-1.31-1.397-1.725l-1.1 1.671c0.256 0.167 0.482 0.429 0.66 0.843l1.837-0.789zm-1.397-1.725c-0.626-0.412-1.341-0.602-2.107-0.602v2c0.424 0 0.747 0.101 1.007 0.273l1.1-1.671zm-2.107-0.602c-0.765 0-1.481 0.19-2.106 0.602l1.099 1.671c0.261-0.172 0.584-0.273 1.007-0.273v-2zm-2.106 0.602c-0.63 0.414-1.09 1.007-1.401 1.719l1.833 0.8c0.181-0.416 0.411-0.68 0.667-0.848l-1.099-1.671zm-1.403 1.725c-0.311 0.723-0.445 1.56-0.445 2.474h2c0-0.73 0.108-1.28 0.282-1.685l-1.837-0.789zm-0.445 2.474c0 0.914 0.134 1.75 0.445 2.474l1.837-0.789c-0.174-0.406-0.282-0.956-0.282-1.685h-2zm0.447 2.479c0.311 0.713 0.771 1.305 1.401 1.72l1.099-1.671c-0.256-0.169-0.486-0.433-0.667-0.848l-1.833 0.799zm1.401 1.72c0.625 0.412 1.341 0.602 2.106 0.602v-2c-0.423 0-0.746-0.101-1.007-0.273l-1.099 1.671zm2.106 0.602c0.766 0 1.481-0.19 2.107-0.602l-1.1-1.671c-0.26 0.172-0.583 0.273-1.007 0.273v2zm2.107-0.602c0.631-0.416 1.09-1.01 1.397-1.725l-1.837-0.789c-0.178 0.413-0.404 0.675-0.66 0.843l1.1 1.671zm1.395-1.72c0.317-0.725 0.453-1.563 0.453-2.479h-2c0 0.728-0.11 1.276-0.286 1.68l1.833 0.799zm14.037-4.223v1h1.125l-0.132-1.118-0.993 0.118zm-2.489 0-0.99 0.139 0.121 0.861h0.869v-1zm-0.278-0.858-0.876 0.483 3e-3 6e-3 0.873-0.489zm-0.54-0.648-0.63 0.777 0.63-0.777zm-0.761-0.409-0.317 0.948 4e-3 2e-3 0.313-0.95zm-2.5 0.307 0.551 0.834 5e-3 -3e-3 -0.556-0.831zm-1.04 1.295 0.916 0.4 1e-3 -2e-3 -0.917-0.398zm0 4.148-0.917 0.4 2e-3 5e-3 0.915-0.405zm1.045 1.278-0.541 0.841 0.541-0.841zm2.466 0.301-0.293-0.956-4e-3 1e-3 0.297 0.955zm0.756-0.38 0.604 0.796 9e-3 -6e-3 -0.613-0.79zm0.545-0.62-0.854-0.52-6e-3 0.01 0.86 0.51zm0.307-0.829 5e-3 -1-0.838-4e-3 -0.151 0.824 0.984 0.18zm2.489 0.011 0.993 0.12 0.134-1.115-1.123-5e-3 -4e-3 1zm-0.483 1.546-0.888-0.461-1e-3 2e-3 0.889 0.459zm-1.029 1.323 0.67 0.743 1e-3 -1e-3 -0.671-0.742zm-1.534 0.921 0.354 0.935 3e-3 -1e-3 -0.357-0.934zm-4.79-0.369-0.499 0.866 2e-3 1e-3 0.497-0.867zm-1.931-2.04-0.885 0.466 2e-3 3e-3 0.883-0.469zm0.011-6.472 0.881 0.473-0.881-0.473zm1.943-2.034 0.495 0.869 3e-3 -2e-3 -0.498-0.867zm4.637-0.42-0.313 0.95h2e-3l0.311-0.95zm1.539 0.829-0.631 0.776 4e-3 3e-3 0.627-0.779zm1.091 1.324-0.881 0.473 3e-3 5e-3 0.878-0.478zm0.546 0.796h-2.489v2h2.489v-2zm-1.499 0.86c-0.06-0.429-0.188-0.836-0.396-1.207l-1.745 0.978c0.072 0.128 0.13 0.293 0.161 0.508l1.98-0.279zm-0.393-1.202c-0.201-0.364-0.463-0.68-0.786-0.941l-1.259 1.554c0.117 0.095 0.215 0.21 0.294 0.354l1.751-0.967zm-0.786-0.941c-0.32-0.26-0.683-0.452-1.078-0.582l-0.625 1.9c0.181 0.059 0.326 0.139 0.444 0.236l1.259-1.554zm-1.074-0.581c-0.397-0.132-0.814-0.193-1.243-0.193v2c0.238 0 0.439 0.033 0.61 0.09l0.633-1.897zm-1.243-0.193c-0.775 0-1.499 0.195-2.13 0.618l1.113 1.662c0.263-0.177 0.589-0.28 1.017-0.28v-2zm-2.125 0.614c-0.633 0.419-1.095 1.015-1.406 1.732l1.835 0.796c0.182-0.419 0.413-0.687 0.674-0.859l-1.103-1.669zm-1.405 1.73c-0.315 0.723-0.453 1.553-0.453 2.457h2c0-0.71 0.109-1.251 0.286-1.657l-1.833-0.8zm-0.453 2.457c0 0.922 0.136 1.764 0.453 2.491l1.833-0.8c-0.175-0.403-0.286-0.954-0.286-1.691h-2zm0.455 2.496c0.316 0.713 0.782 1.304 1.419 1.714l1.083-1.682c-0.258-0.166-0.489-0.427-0.673-0.842l-1.829 0.81zm1.419 1.714c0.625 0.402 1.334 0.591 2.092 0.591v-2c-0.416 0-0.74-0.099-1.009-0.273l-1.083 1.682zm2.092 0.591c0.418 0 0.825-0.055 1.212-0.176l-0.594-1.91c-0.173 0.054-0.377 0.086-0.618 0.086v2zm1.208-0.175c0.388-0.119 0.747-0.297 1.067-0.54l-1.209-1.593c-0.119 0.09-0.264 0.166-0.444 0.221l0.586 1.912zm1.076-0.546c0.32-0.249 0.585-0.55 0.792-0.899l-1.72-1.021c-0.08 0.136-0.179 0.247-0.298 0.34l1.226 1.58zm0.786-0.889c0.218-0.358 0.36-0.753 0.437-1.17l-1.968-0.36c-0.037 0.203-0.099 0.362-0.177 0.489l1.708 1.041zm-0.551-0.35 2.488 0.011 9e-3 -2-2.488-0.011-9e-3 2zm1.5-1.109c-0.05 0.411-0.173 0.811-0.378 1.205l1.775 0.921c0.311-0.598 0.509-1.228 0.589-1.886l-1.986-0.24zm-0.379 1.207c-0.196 0.381-0.463 0.727-0.81 1.04l1.341 1.484c0.516-0.466 0.935-1.003 1.247-1.607l-1.778-0.917zm-0.81 1.04c-0.327 0.296-0.729 0.541-1.221 0.729l0.714 1.868c0.698-0.267 1.319-0.635 1.847-1.112l-1.34-1.485zm-1.217 0.728c-0.46 0.173-1.006 0.27-1.652 0.27v2c0.845 0 1.637-0.127 2.359-0.4l-0.707-1.87zm-1.652 0.27c-0.882 0-1.635-0.198-2.287-0.572l-0.995 1.735c0.984 0.565 2.087 0.837 3.282 0.837v-2zm-2.285-0.571c-0.64-0.369-1.156-0.906-1.548-1.643l-1.766 0.939c0.555 1.044 1.326 1.867 2.315 2.437l0.999-1.733zm-1.547-1.64c-0.377-0.714-0.589-1.623-0.589-2.766h-2c0 1.387 0.258 2.633 0.82 3.699l1.769-0.933zm-0.589-2.766c0-1.146 0.215-2.054 0.597-2.766l-1.762-0.945c-0.573 1.068-0.835 2.318-0.835 3.711h2zm0.597-2.766c0.395-0.737 0.914-1.272 1.557-1.638l-0.99-1.738c-0.993 0.566-1.77 1.387-2.329 2.431l1.762 0.945zm1.56-1.64c0.654-0.375 1.4-0.571 2.264-0.571v-2c-1.183 0-2.277 0.273-3.26 0.837l0.996 1.734zm2.264-0.571c0.579 0 1.098 0.081 1.562 0.234l0.625-1.9c-0.687-0.226-1.419-0.334-2.187-0.334v2zm1.564 0.234c0.47 0.154 0.873 0.373 1.219 0.655l1.262-1.552c-0.547-0.445-1.17-0.779-1.86-1.004l-0.621 1.901zm1.223 0.658c0.339 0.273 0.618 0.609 0.837 1.018l1.763-0.946c-0.342-0.636-0.791-1.183-1.346-1.63l-1.254 1.558zm0.84 1.023c0.215 0.396 0.364 0.869 0.431 1.435l1.986-0.235c-0.093-0.783-0.307-1.506-0.66-2.155l-1.757 0.955zm3.188 8.88h-1v1h1v-1zm0-11.636v-1h-1v1h1zm2.46 0h1v-1h-1v1zm0 4.801h-1v1h1v-1zm4.994 0v1h1v-1h-1zm0-4.801v-1h-1v1h1zm2.455 0h1v-1h-1v1zm0 11.636v1h1v-1h-1zm-2.455 0h-1v1h1v-1zm0-4.807h1v-1h-1v1zm-4.994 0v-1h-1v1h1zm0 4.807v1h1v-1h-1zm-1.46 0v-11.636h-2v11.636h2zm-1-10.636h2.46v-2h-2.46v2zm1.46-1v4.801h2v-4.801h-2zm1 5.801h4.994v-2h-4.994v2zm5.994-1v-4.801h-2v4.801h2zm-1-3.801h2.455v-2h-2.455v2zm1.455-1v11.636h2v-11.636h-2zm1 10.636h-2.455v2h2.455v-2zm-1.455 1v-4.807h-2v4.807h2zm-1-5.807h-4.994v2h4.994v-2zm-5.994 1v4.807h2v-4.807h-2zm1 3.807h-2.46v2h2.46v-2zm9.477 1h-1v1h1v-1zm0-11.636v-1h-1v1h1zm7.841 0h1v-1h-1v1zm0 2.028v1h1v-1h-1zm-5.38 0v-1h-1v1h1zm0 2.773h-1v1h1v-1zm4.977 0h1v-1h-1v1zm0 2.028v1h1v-1h-1zm-4.977 0v-1h-1v1h1zm0 2.779h-1v1h1v-1zm5.403 0h1v-1h-1v1zm0 2.028v1h1v-1h-1zm-6.864 0v-11.636h-2v11.636h2zm-1-10.636h7.841v-2h-7.841v2zm6.841-1v2.028h2v-2.028h-2zm1 1.028h-5.38v2h5.38v-2zm-6.38 1v2.773h2v-2.773h-2zm1 3.773h4.977v-2h-4.977v2zm3.977-1v2.028h2v-2.028h-2zm1 1.028h-4.977v2h4.977v-2zm-5.977 1v2.779h2v-2.779h-2zm1 3.779h5.403v-2h-5.403v2zm4.403-1v2.028h2v-2.028h-2zm1 1.028h-7.864v2h7.864v-2zm1.933 1h-1v1h1v-1zm0-11.636v-1h-1v1h1zm2.461 0h1v-1h-1v1zm0 9.608h-1v1h1v-1zm4.988 0h1v-1h-1v1zm0 2.028v1h1v-1h-1zm-6.449 0v-11.636h-2v11.636h2zm-1-10.636h2.461v-2h-2.461v2zm1.461-1v9.608h2v-9.608h-2zm1 10.608h4.988v-2h-4.988v2zm3.988-1v2.028h2v-2.028h-2zm1 1.028h-7.449v2h7.449v-2zm1.629 1h-1v1h1v-1zm0-11.636v-1h-1v1h1zm2.461 0h1v-1h-1v1zm0 9.608h-1v1h1v-1zm4.988 0h1v-1h-1v1zm0 2.028v1h1v-1h-1zm-6.449 0v-11.636h-2v11.636h2zm-1-10.636h2.461v-2h-2.461v2zm1.461-1v9.608h2v-9.608h-2zm1 10.608h4.988v-2h-4.988v2zm3.988-1v2.028h2v-2.028h-2zm1 1.028h-7.449v2h7.449v-2zm1.63 1h-1v1h1v-1zm0-11.636v-1h-1v1h1zm7.84 0h1v-1h-1v1zm0 2.028v1h1v-1h-1zm-5.38 0v-1h-1v1h1zm0 2.773h-1v1h1v-1zm4.977 0h1v-1h-1v1zm0 2.028v1h1v-1h-1zm-4.977 0v-1h-1v1h1zm0 2.779h-1v1h1v-1zm5.403 0h1v-1h-1v1zm0 2.028v1h1v-1h-1zm-6.863 0v-11.636h-2v11.636h2zm-1-10.636h7.84v-2h-7.84v2zm6.84-1v2.028h2v-2.028h-2zm1 1.028h-5.38v2h5.38v-2zm-6.38 1v2.773h2v-2.773h-2zm1 3.773h4.977v-2h-4.977v2zm3.977-1v2.028h2v-2.028h-2zm1 1.028h-4.977v2h4.977v-2zm-5.977 1v2.779h2v-2.779h-2zm1 3.779h5.403v-2h-5.403v2zm4.403-1v2.028h2v-2.028h-2zm1 1.028h-7.863v2h7.863v-2z" fill="#ABC396" mask="url(#b)"/>
<circle cx="157.84" cy="421" r="10.5" fill="#D88254" stroke="#ABC396"/>
<mask id="a" x="150.842" y="460" width="114" height="16" fill="black" maskUnits="userSpaceOnUse">
<rect x="150.84" y="460" width="114" height="16" fill="#fff"/>
<path d="m151.92 461.64h3.224l3.405 8.307h0.145l3.405-8.307h3.223v12.364h-2.535v-8.047h-0.103l-3.199 7.987h-1.727l-3.199-8.017h-0.103v8.077h-2.536v-12.364zm26.918 6.182c0 1.348-0.256 2.495-0.767 3.441-0.507 0.946-1.199 1.668-2.077 2.167-0.873 0.496-1.855 0.743-2.946 0.743-1.099 0-2.085-0.249-2.958-0.749-0.873-0.499-1.564-1.221-2.071-2.167s-0.76-2.091-0.76-3.435c0-1.348 0.253-2.495 0.76-3.441s1.198-1.666 2.071-2.161c0.873-0.499 1.859-0.749 2.958-0.749 1.091 0 2.073 0.25 2.946 0.749 0.878 0.495 1.57 1.215 2.077 2.161 0.511 0.946 0.767 2.093 0.767 3.441zm-2.651 0c0-0.873-0.13-1.61-0.392-2.209-0.258-0.6-0.622-1.055-1.093-1.365s-1.022-0.465-1.654-0.465-1.183 0.155-1.654 0.465-0.837 0.765-1.099 1.365c-0.257 0.599-0.386 1.336-0.386 2.209 0 0.874 0.129 1.61 0.386 2.21 0.262 0.599 0.628 1.054 1.099 1.364s1.022 0.465 1.654 0.465 1.183-0.155 1.654-0.465 0.835-0.765 1.093-1.364c0.262-0.6 0.392-1.336 0.392-2.21zm14.928-6.182v12.364h-2.258l-5.379-7.782h-0.09v7.782h-2.614v-12.364h2.294l5.337 7.776h0.108v-7.776h2.602zm1.689 2.156v-2.156h10.154v2.156h-3.785v10.208h-2.584v-10.208h-3.785zm12.447 10.208h-2.802l4.269-12.364h3.368l4.262 12.364h-2.801l-3.097-9.538h-0.096l-3.103 9.538zm-0.175-4.86h6.616v2.041h-6.616v-2.041zm10.76 4.86v-12.364h2.614v10.209h5.301v2.155h-7.915zm12.26-12.364v12.364h-2.614v-12.364h2.614zm4.384 0 2.988 9.394h0.115l2.995-9.394h2.897l-4.262 12.364h-3.368l-4.269-12.364h2.904zm10.483 12.364v-12.364h8.331v2.156h-5.717v2.946h5.289v2.155h-5.289v2.952h5.741v2.155h-8.355zm9.939-10.208v-2.156h10.154v2.156h-3.785v10.208h-2.584v-10.208h-3.785z"/>
</mask>
<path d="m151.92 461.64h3.224l3.405 8.307h0.145l3.405-8.307h3.223v12.364h-2.535v-8.047h-0.103l-3.199 7.987h-1.727l-3.199-8.017h-0.103v8.077h-2.536v-12.364zm26.918 6.182c0 1.348-0.256 2.495-0.767 3.441-0.507 0.946-1.199 1.668-2.077 2.167-0.873 0.496-1.855 0.743-2.946 0.743-1.099 0-2.085-0.249-2.958-0.749-0.873-0.499-1.564-1.221-2.071-2.167s-0.76-2.091-0.76-3.435c0-1.348 0.253-2.495 0.76-3.441s1.198-1.666 2.071-2.161c0.873-0.499 1.859-0.749 2.958-0.749 1.091 0 2.073 0.25 2.946 0.749 0.878 0.495 1.57 1.215 2.077 2.161 0.511 0.946 0.767 2.093 0.767 3.441zm-2.651 0c0-0.873-0.13-1.61-0.392-2.209-0.258-0.6-0.622-1.055-1.093-1.365s-1.022-0.465-1.654-0.465-1.183 0.155-1.654 0.465-0.837 0.765-1.099 1.365c-0.257 0.599-0.386 1.336-0.386 2.209 0 0.874 0.129 1.61 0.386 2.21 0.262 0.599 0.628 1.054 1.099 1.364s1.022 0.465 1.654 0.465 1.183-0.155 1.654-0.465 0.835-0.765 1.093-1.364c0.262-0.6 0.392-1.336 0.392-2.21zm14.928-6.182v12.364h-2.258l-5.379-7.782h-0.09v7.782h-2.614v-12.364h2.294l5.337 7.776h0.108v-7.776h2.602zm1.689 2.156v-2.156h10.154v2.156h-3.785v10.208h-2.584v-10.208h-3.785zm12.447 10.208h-2.802l4.269-12.364h3.368l4.262 12.364h-2.801l-3.097-9.538h-0.096l-3.103 9.538zm-0.175-4.86h6.616v2.041h-6.616v-2.041zm10.76 4.86v-12.364h2.614v10.209h5.301v2.155h-7.915zm12.26-12.364v12.364h-2.614v-12.364h2.614zm4.384 0 2.988 9.394h0.115l2.995-9.394h2.897l-4.262 12.364h-3.368l-4.269-12.364h2.904zm10.483 12.364v-12.364h8.331v2.156h-5.717v2.946h5.289v2.155h-5.289v2.952h5.741v2.155h-8.355zm9.939-10.208v-2.156h10.154v2.156h-3.785v10.208h-2.584v-10.208h-3.785z" fill="#AF5C2F"/>
<path d="m151.92 461.64v-1h-1v1h1zm3.224 0 0.925-0.379-0.254-0.621h-0.671v1zm3.405 8.307-0.925 0.379 0.254 0.621h0.671v-1zm0.145 0v1h0.671l0.254-0.621-0.925-0.379zm3.405-8.307v-1h-0.671l-0.255 0.621 0.926 0.379zm3.223 0h1v-1h-1v1zm0 12.364v1h1v-1h-1zm-2.535 0h-1v1h1v-1zm0-8.047h1v-1h-1v1zm-0.103 0v-1h-0.676l-0.252 0.628 0.928 0.372zm-3.199 7.987v1h0.676l0.252-0.628-0.928-0.372zm-1.727 0-0.929 0.37 0.251 0.63h0.678v-1zm-3.199-8.017 0.928-0.371-0.251-0.629h-0.677v1zm-0.103 0v-1h-1v1h1zm0 8.077v1h1v-1h-1zm-2.536 0h-1v1h1v-1zm0-11.364h3.224v-2h-3.224v2zm2.299-0.62 3.405 8.306 1.85-0.758-3.405-8.307-1.85 0.759zm4.33 8.927h0.145v-2h-0.145v2zm1.07-0.621 3.405-8.306-1.851-0.759-3.404 8.307 1.85 0.758zm2.48-7.686h3.223v-2h-3.223v2zm2.223-1v12.364h2v-12.364h-2zm1 11.364h-2.535v2h2.535v-2zm-1.535 1v-8.047h-2v8.047h2zm-1-9.047h-0.103v2h0.103v-2zm-1.031 0.628-3.2 7.987 1.857 0.744 3.2-7.987-1.857-0.744zm-2.271 7.359h-1.727v2h1.727v-2zm-0.798 0.629-3.2-8.017-1.857 0.741 3.199 8.017 1.858-0.741zm-4.128-8.646h-0.103v2h0.103v-2zm-1.103 1v8.077h2v-8.077h-2zm1 7.077h-2.536v2h2.536v-2zm-1.536 1v-12.364h-2v12.364h2zm25.151-2.741-0.88-0.475-1e-3 3e-3 0.881 0.472zm-2.077 2.167 0.493 0.87h2e-3l-0.495-0.87zm-5.904-6e-3 0.496-0.868-0.496 0.868zm-2.071-2.167-0.881 0.473 0.881-0.473zm0-6.876 0.882 0.473-0.882-0.473zm2.071-2.161 0.493 0.87 3e-3 -2e-3 -0.496-0.868zm5.904 0-0.496 0.868 5e-3 3e-3 0.491-0.871zm2.077 2.161-0.881 0.473 1e-3 3e-3 0.88-0.476zm-2.276 1.232-0.919 0.394 2e-3 6e-3 0.917-0.4zm-1.093-1.365-0.55 0.836 0.55-0.836zm-3.308 0 0.55 0.836-0.55-0.836zm-1.099 1.365-0.916-0.4-3e-3 5e-3 0.919 0.395zm0 4.419-0.919 0.394 3e-3 6e-3 0.916-0.4zm1.099 1.364 0.55-0.835-0.55 0.835zm3.308 0-0.55-0.835 0.55 0.835zm1.093-1.364-0.917-0.4-2e-3 5e-3 0.919 0.395zm2.043-2.21c0 1.224-0.232 2.199-0.647 2.966l1.76 0.951c0.607-1.125 0.887-2.444 0.887-3.917h-2zm-0.648 2.969c-0.424 0.79-0.987 1.37-1.69 1.77l0.989 1.739c1.051-0.598 1.873-1.463 2.463-2.564l-1.762-0.945zm-1.689 1.77c-0.71 0.402-1.52 0.612-2.453 0.612v2c1.248 0 2.403-0.285 3.439-0.873l-0.986-1.739zm-2.453 0.612c-0.941 0-1.753-0.212-2.462-0.617l-0.992 1.737c1.038 0.593 2.198 0.88 3.454 0.88v-2zm-2.462-0.617c-0.699-0.399-1.261-0.979-1.685-1.771l-1.763 0.945c0.59 1.099 1.409 1.964 2.456 2.563l0.992-1.737zm-1.685-1.771c-0.412-0.769-0.642-1.743-0.642-2.963h-2c0 1.468 0.277 2.784 0.879 3.908l1.763-0.945zm-0.642-2.963c0-1.225 0.23-2.2 0.642-2.968l-1.763-0.945c-0.602 1.123-0.879 2.441-0.879 3.913h2zm0.642-2.968c0.424-0.792 0.985-1.369 1.682-1.764l-0.986-1.74c-1.049 0.595-1.869 1.458-2.459 2.559l1.763 0.945zm1.685-1.766c0.709-0.405 1.521-0.617 2.462-0.617v-2c-1.256 0-2.416 0.287-3.454 0.881l0.992 1.736zm2.462-0.617c0.932 0 1.74 0.212 2.45 0.617l0.992-1.736c-1.037-0.593-2.192-0.881-3.442-0.881v2zm2.455 0.62c0.701 0.396 1.263 0.973 1.687 1.763l1.762-0.945c-0.59-1.102-1.413-1.966-2.466-2.56l-0.983 1.742zm1.688 1.766c0.415 0.767 0.647 1.742 0.647 2.965h2c0-1.473-0.28-2.792-0.887-3.916l-1.76 0.951zm-4e-3 2.965c0-0.967-0.144-1.849-0.475-2.609l-1.834 0.8c0.192 0.438 0.309 1.03 0.309 1.809h2zm-0.473-2.604c-0.323-0.75-0.803-1.371-1.462-1.805l-1.1 1.671c0.283 0.186 0.531 0.474 0.724 0.923l1.838-0.789zm-1.462-1.805c-0.653-0.43-1.401-0.63-2.204-0.63v2c0.461 0 0.816 0.111 1.104 0.301l1.1-1.671zm-2.204-0.63c-0.803 0-1.55 0.2-2.204 0.63l1.1 1.671c0.288-0.19 0.643-0.301 1.104-0.301v-2zm-2.204 0.63c-0.657 0.433-1.139 1.052-1.465 1.8l1.833 0.8c0.197-0.452 0.447-0.742 0.732-0.929l-1.1-1.671zm-1.468 1.805c-0.325 0.759-0.467 1.639-0.467 2.604h2c0-0.781 0.116-1.374 0.305-1.815l-1.838-0.789zm-0.467 2.604c0 0.966 0.142 1.846 0.467 2.604l1.838-0.789c-0.189-0.44-0.305-1.034-0.305-1.815h-2zm0.47 2.61c0.326 0.748 0.808 1.367 1.465 1.799l1.1-1.67c-0.285-0.187-0.535-0.478-0.732-0.929l-1.833 0.8zm1.465 1.799c0.654 0.43 1.401 0.63 2.204 0.63v-2c-0.461 0-0.816-0.111-1.104-0.3l-1.1 1.67zm2.204 0.63c0.803 0 1.551-0.2 2.204-0.63l-1.1-1.67c-0.288 0.189-0.643 0.3-1.104 0.3v2zm2.204-0.63c0.659-0.433 1.139-1.054 1.462-1.805l-1.838-0.789c-0.193 0.449-0.441 0.738-0.724 0.924l1.1 1.67zm1.46-1.799c0.331-0.761 0.475-1.643 0.475-2.61h-2c0 0.78-0.117 1.371-0.309 1.81l1.834 0.8zm14.403-8.792h1v-1h-1v1zm0 12.364v1h1v-1h-1zm-2.258 0-0.822 0.569 0.298 0.431h0.524v-1zm-5.379-7.782 0.823-0.568-0.298-0.432h-0.525v1zm-0.09 0v-1h-1v1h1zm0 7.782v1h1v-1h-1zm-2.614 0h-1v1h1v-1zm0-12.364v-1h-1v1h1zm2.294 0 0.824-0.566-0.298-0.434h-0.526v1zm5.337 7.776-0.825 0.566 0.298 0.434h0.527v-1zm0.108 0v1h1v-1h-1zm0-7.776v-1h-1v1h1zm1.602 0v12.364h2v-12.364h-2zm1 11.364h-2.258v2h2.258v-2zm-1.435 0.431-5.379-7.781-1.645 1.137 5.379 7.782 1.645-1.138zm-6.202-8.213h-0.09v2h0.09v-2zm-1.09 1v7.782h2v-7.782h-2zm1 6.782h-2.614v2h2.614v-2zm-1.614 1v-12.364h-2v12.364h2zm-1-11.364h2.294v-2h-2.294v2zm1.469-0.434 5.337 7.776 1.649-1.132-5.337-7.776-1.649 1.132zm6.162 8.21h0.108v-2h-0.108v2zm1.108-1v-7.776h-2v7.776h2zm-1-6.776h2.602v-2h-2.602v2zm4.291 1.156h-1v1h1v-1zm0-2.156v-1h-1v1h1zm10.154 0h1v-1h-1v1zm0 2.156v1h1v-1h-1zm-3.785 0v-1h-1v1h1zm0 10.208v1h1v-1h-1zm-2.584 0h-1v1h1v-1zm0-10.208h1v-1h-1v1zm-2.785 0v-2.156h-2v2.156h2zm-1-1.156h10.154v-2h-10.154v2zm9.154-1v2.156h2v-2.156h-2zm1 1.156h-3.785v2h3.785v-2zm-4.785 1v10.208h2v-10.208h-2zm1 9.208h-2.584v2h2.584v-2zm-1.584 1v-10.208h-2v10.208h2zm-1-11.208h-3.785v2h3.785v-2zm8.662 11.208v1h0.726l0.225-0.691-0.951-0.309zm-2.802 0-0.945-0.326-0.458 1.326h1.403v-1zm4.269-12.364v-1h-0.713l-0.233 0.674 0.946 0.326zm3.368 0 0.946-0.326-0.233-0.674h-0.713v1zm4.262 12.364v1h1.403l-0.457-1.326-0.946 0.326zm-2.801 0-0.951 0.309 0.224 0.691h0.727v-1zm-3.097-9.538 0.951-0.309-0.224-0.691h-0.727v1zm-0.096 0v-1h-0.727l-0.224 0.69 0.951 0.31zm-3.278 4.678v-1h-1v1h1zm6.616 0h1v-1h-1v1zm0 2.041v1h1v-1h-1zm-6.616 0h-1v1h1v-1zm0.175 1.819h-2.802v2h2.802v-2zm-1.856 1.326 4.268-12.363-1.891-0.653-4.268 12.364 1.891 0.652zm3.323-11.69h3.368v-2h-3.368v2zm2.423-0.674 4.262 12.364 1.891-0.652-4.262-12.364-1.891 0.652zm5.207 11.038h-2.801v2h2.801v-2zm-1.85 0.691-3.097-9.538-1.902 0.617 3.097 9.539 1.902-0.618zm-4.048-10.229h-0.096v2h0.096v-2zm-1.047 0.69-3.103 9.539 1.902 0.618 3.103-9.538-1.902-0.619zm-2.327 5.988h6.616v-2h-6.616v2zm5.616-1v2.041h2v-2.041h-2zm1 1.041h-6.616v2h6.616v-2zm-5.616 1v-2.041h-2v2.041h2zm9.76 2.819h-1v1h1v-1zm0-12.364v-1h-1v1h1zm2.614 0h1v-1h-1v1zm0 10.209h-1v1h1v-1zm5.301 0h1v-1h-1v1zm0 2.155v1h1v-1h-1zm-6.915 0v-12.364h-2v12.364h2zm-1-11.364h2.614v-2h-2.614v2zm1.614-1v10.209h2v-10.209h-2zm1 11.209h5.301v-2h-5.301v2zm4.301-1v2.155h2v-2.155h-2zm1 1.155h-7.915v2h7.915v-2zm4.345-11.364h1v-1h-1v1zm0 12.364v1h1v-1h-1zm-2.614 0h-1v1h1v-1zm0-12.364v-1h-1v1h1zm1.614 0v12.364h2v-12.364h-2zm1 11.364h-2.614v2h2.614v-2zm-1.614 1v-12.364h-2v12.364h2zm-1-11.364h2.614v-2h-2.614v2zm6.998-1 0.953-0.303-0.222-0.697h-0.731v1zm2.988 9.394-0.952 0.303 0.221 0.697h0.731v-1zm0.115 0v1h0.731l0.222-0.696-0.953-0.304zm2.995-9.394v-1h-0.731l-0.222 0.697 0.953 0.303zm2.897 0 0.946 0.326 0.457-1.326h-1.403v1zm-4.262 12.364v1h0.713l0.233-0.674-0.946-0.326zm-3.368 0-0.946 0.326 0.233 0.674h0.713v-1zm-4.269-12.364v-1h-1.403l0.458 1.327 0.945-0.327zm1.951 0.304 2.989 9.393 1.905-0.606-2.988-9.394-1.906 0.607zm3.941 10.09h0.115v-2h-0.115v2zm1.068-0.696 2.994-9.394-1.905-0.607-2.995 9.393 1.906 0.608zm2.042-8.698h2.897v-2h-2.897v2zm1.952-1.326-4.262 12.364 1.891 0.652 4.262-12.364-1.891-0.652zm-3.317 11.69h-3.368v2h3.368v-2zm-2.423 0.674-4.268-12.364-1.891 0.653 4.268 12.363 1.891-0.652zm-5.214-11.038h2.904v-2h-2.904v2zm13.387 11.364h-1v1h1v-1zm0-12.364v-1h-1v1h1zm8.331 0h1v-1h-1v1zm0 2.156v1h1v-1h-1zm-5.717 0v-1h-1v1h1zm0 2.946h-1v1h1v-1zm5.289 0h1v-1h-1v1zm0 2.155v1h1v-1h-1zm-5.289 0v-1h-1v1h1zm0 2.952h-1v1h1v-1zm5.741 0h1v-1h-1v1zm0 2.155v1h1v-1h-1zm-7.355 0v-12.364h-2v12.364h2zm-1-11.364h8.331v-2h-8.331v2zm7.331-1v2.156h2v-2.156h-2zm1 1.156h-5.717v2h5.717v-2zm-6.717 1v2.946h2v-2.946h-2zm1 3.946h5.289v-2h-5.289v2zm4.289-1v2.155h2v-2.155h-2zm1 1.155h-5.289v2h5.289v-2zm-6.289 1v2.952h2v-2.952h-2zm1 3.952h5.741v-2h-5.741v2zm4.741-1v2.155h2v-2.155h-2zm1 1.155h-8.355v2h8.355v-2zm1.584-9.208h-1v1h1v-1zm0-2.156v-1h-1v1h1zm10.154 0h1v-1h-1v1zm0 2.156v1h1v-1h-1zm-3.785 0v-1h-1v1h1zm0 10.208v1h1v-1h-1zm-2.584 0h-1v1h1v-1zm0-10.208h1v-1h-1v1zm-2.785 0v-2.156h-2v2.156h2zm-1-1.156h10.154v-2h-10.154v2zm9.154-1v2.156h2v-2.156h-2zm1 1.156h-3.785v2h3.785v-2zm-4.785 1v10.208h2v-10.208h-2zm1 9.208h-2.584v2h2.584v-2zm-1.584 1v-10.208h-2v10.208h2zm-1-11.208h-3.785v2h3.785v-2z" fill="#ABC396" mask="url(#a)"/>
</g>
<defs>
<clipPath id="d">
<rect width="1437" height="853" fill="#fff"/>
</clipPath>
</defs>
</svg>
