<svg width="62" height="62" viewBox="0 0 62 62" fill="none" xmlns="http://www.w3.org/2000/svg">
<path d="M8 25.5H54L50.3236 13H11.6305L8 25.5ZM46 28.4167H16L15.5 33.5834H46.5L46 28.4167ZM10.3334 51.6667L13.4979 28.4167H7.75002C6.88891 28.4167 6.21078 28.0723 5.71564 27.3834C5.2205 26.6945 5.08057 25.941 5.29585 25.123L8.9771 12.2063C9.14932 11.6466 9.45071 11.1945 9.88127 10.85C10.3118 10.5056 10.8285 10.3334 11.4313 10.3334H31H50.5688C51.1715 10.3334 51.6882 10.5056 52.1188 10.85C52.5493 11.1945 52.8507 11.6466 53.0229 12.2063L56.7042 25.123C56.9195 25.941 56.7795 26.6945 56.2844 27.3834C55.7893 28.0723 55.1111 28.4167 54.25 28.4167H48.5667L51.6667 51.6667H49L47 36.5H15L13 51.6667H10.3334Z" fill="#d88254"/>
</svg>
