<svg width="61" height="61" viewBox="0 0 61 61" fill="none" xmlns="http://www.w3.org/2000/svg">
<path d="M27.9583 15.25C30.7658 15.25 33.0417 12.9742 33.0417 10.1667C33.0417 7.35926 30.7658 5.08337 27.9583 5.08337C25.1509 5.08337 22.875 7.35926 22.875 10.1667C22.875 12.9742 25.1509 15.25 27.9583 15.25Z" stroke="#9F5D39" stroke-width="2" stroke-linecap="round" stroke-linejoin="round"/>
<path d="M45.75 25.4167C48.5574 25.4167 50.8333 23.1408 50.8333 20.3333C50.8333 17.5259 48.5574 15.25 45.75 15.25C42.9425 15.25 40.6667 17.5259 40.6667 20.3333C40.6667 23.1408 42.9425 25.4167 45.75 25.4167Z" stroke="#9F5D39" stroke-width="2" stroke-linecap="round" stroke-linejoin="round"/>
<path d="M50.8333 45.75C53.6408 45.75 55.9167 43.4742 55.9167 40.6667C55.9167 37.8593 53.6408 35.5834 50.8333 35.5834C48.0259 35.5834 45.75 37.8593 45.75 40.6667C45.75 43.4742 48.0259 45.75 50.8333 45.75Z" stroke="#9F5D39" stroke-width="2" stroke-linecap="round" stroke-linejoin="round"/>
<path d="M22.875 25.4166C24.5439 25.4166 26.1964 25.7453 27.7383 26.384C29.2801 27.0226 30.6811 27.9587 31.8612 29.1388C33.0412 30.3189 33.9773 31.7198 34.616 33.2617C35.2546 34.8035 35.5833 36.4561 35.5833 38.125V47.0208C35.5827 49.1468 34.8206 51.2023 33.4352 52.8149C32.0498 54.4275 30.1326 55.4906 28.031 55.8117C25.9294 56.1328 23.7823 55.6906 21.9786 54.5652C20.1748 53.4398 18.8338 51.7057 18.1983 49.6768C17.1139 46.1778 14.8264 43.8861 11.3358 42.8016C9.30806 42.1665 7.5746 40.8265 6.44914 39.0241C5.32368 37.2217 4.88056 35.076 5.19998 32.9752C5.51939 30.8745 6.58024 28.9574 8.19055 27.571C9.80086 26.1846 11.8543 25.4203 13.9792 25.4166H22.875Z" stroke="#9F5D39" stroke-width="2" stroke-linecap="round" stroke-linejoin="round"/>
</svg>
