<svg width="46" height="59" viewBox="0 0 46 59" fill="none" xmlns="http://www.w3.org/2000/svg">
<path d="M21.0037 7.90689C20.6597 8.71435 20.0828 9.404 19.3577 9.88996C18.6321 10.3758 17.763 10.6585 16.8197 10.659C16.1906 10.6589 15.5954 10.5329 15.0527 10.3052C14.239 9.9638 13.544 9.39139 13.0543 8.67192C12.5647 7.95187 12.2797 7.08935 12.2794 6.15336C12.2795 5.52896 12.4065 4.93852 12.6358 4.3999C12.9798 3.59242 13.5567 2.90278 14.2818 2.4169C15.0075 1.93094 15.8766 1.64824 16.8197 1.64791C17.449 1.64799 18.0441 1.77388 18.5868 2.00162C19.4006 2.3429 20.0955 2.91539 20.5852 3.63486C21.0748 4.35499 21.3598 5.21742 21.3601 6.15336C21.36 6.77782 21.2331 7.36835 21.0037 7.90689ZM20.2874 1.05137C19.2987 0.387999 18.1012 -0.000331662 16.8197 2.12547e-07C15.9659 -0.000159579 15.1481 0.172206 14.4058 0.483911C13.2919 0.951584 12.3468 1.73079 11.6783 2.71245C11.0098 3.69345 10.6184 4.88183 10.6187 6.15336C10.6186 7.00071 10.7923 7.81222 11.1064 8.54882C11.5777 9.65423 12.3629 10.5921 13.3521 11.2554C14.3408 11.9188 15.5384 12.3072 16.8197 12.3068C17.6737 12.3069 18.4914 12.1347 19.2338 11.823C20.3476 11.3552 21.2928 10.5761 21.9613 9.59442C22.6298 8.61334 23.0211 7.42495 23.0208 6.15336C23.0209 5.30609 22.8472 4.49457 22.5331 3.75796C22.0618 2.65263 21.2767 1.71472 20.2874 1.05137Z" fill="#d88254"/>
<mask id="path-2-inside-1_609_10" fill="white">
<path d="M32.3182 26.4458C32.3085 26.7028 32.2488 26.9421 32.1487 27.1601C31.9986 27.4866 31.7557 27.7646 31.4553 27.9595C31.1544 28.1543 30.8003 28.266 30.4164 28.2663C30.3929 28.2663 30.3694 28.2658 30.3452 28.265L30.3445 28.2649L20.2187 27.8946C19.6425 27.8736 19.1069 27.5945 18.762 27.1358L14.3273 21.2357C14.1483 20.9977 13.8551 20.8738 13.5582 20.9108C13.2612 20.9479 13.008 21.1398 12.894 21.4145C12.6061 22.1079 12.462 22.8442 12.462 23.5801C12.462 24.2992 12.5994 25.0185 12.8743 25.6981C13.149 26.3777 13.5619 27.0173 14.1079 27.5739L14.1134 27.5794C14.6077 28.0808 14.9264 28.6803 15.0774 29.3146C15.1014 29.4159 15.1485 29.5191 15.2093 29.6038L24.2689 42.2226C24.5555 42.6218 24.707 43.0975 24.7071 43.5818C24.707 43.7008 24.6979 43.8204 24.6794 43.9393L22.9016 55.3665C22.8562 55.6579 22.7599 55.9251 22.6229 56.1649C22.4174 56.5245 22.1186 56.8222 21.7639 57.0292C21.409 57.2363 21.001 57.352 20.5725 57.3521C20.453 57.3521 20.3316 57.343 20.2084 57.3241C19.9147 57.2791 19.6454 57.1834 19.4037 57.0475C19.0413 56.8436 18.7413 56.5471 18.5327 56.1951C18.3241 55.843 18.2074 55.4381 18.2073 55.0129C18.2074 54.8942 18.2164 54.7737 18.2354 54.6518L19.8154 44.4966C19.8483 44.2852 19.796 44.0669 19.671 43.8928L14.7114 36.9846C14.7099 36.9825 14.7084 36.9805 14.7069 36.9785L14.705 36.9757C14.6913 36.9566 14.6768 36.9382 14.6617 36.9207C14.6564 36.9144 14.6505 36.9087 14.6449 36.9025C14.633 36.8895 14.6209 36.8764 14.6082 36.8642C14.6018 36.858 14.595 36.852 14.5883 36.846C14.5753 36.8342 14.5619 36.8228 14.5482 36.8119C14.5445 36.8089 14.5411 36.8055 14.5374 36.8026L7.77267 31.6001C5.98573 29.3098 5.01649 26.5186 5.01582 23.5795C5.01698 20.1328 6.34659 16.8885 8.76955 14.4191L8.77686 14.4116L8.77753 14.4109L8.78591 14.4024L8.78517 14.4032C9.152 14.0317 9.57447 13.7551 10.0277 13.5699C10.4809 13.3849 10.9649 13.2918 11.4493 13.2918C11.9204 13.2918 12.3914 13.3798 12.8345 13.5556C13.2776 13.7315 13.693 13.9942 14.0575 14.3481C14.4526 14.7323 14.7403 15.179 14.9269 15.6593C14.9549 15.7313 14.9898 15.7939 15.0362 15.8558L21.0328 23.8339C21.1836 24.0344 21.4158 24.1554 21.6678 24.1647L30.4849 24.4872C30.744 24.4967 30.9851 24.556 31.2047 24.6553C31.5338 24.8042 31.814 25.0452 32.0104 25.3433C32.2066 25.6419 32.3192 25.9932 32.3195 26.3743C32.3195 26.3982 32.3191 26.4221 32.3182 26.4458ZM13.361 46.2055L5.9335 56.3831C5.70093 56.7014 5.40749 56.9413 5.07835 57.1046C4.74945 57.2676 4.38502 57.3519 4.01893 57.3519C3.53776 57.3514 3.05801 57.2085 2.63694 56.9063C2.31619 56.6756 2.0744 56.3843 1.90983 56.0576C1.74567 55.7312 1.66057 55.3697 1.66064 55.0065C1.66114 54.529 1.80521 54.0528 2.1096 53.6351L8.84296 44.4086C8.95954 44.2487 9.01443 44.0532 8.9979 43.8565L8.16499 33.9867L13.2317 37.8834L13.8015 44.6359C13.8071 44.7011 13.8097 44.7663 13.8097 44.8313C13.8097 45.3232 13.6537 45.8044 13.361 46.2055ZM33.9801 26.3743C33.9802 25.9021 33.8856 25.4471 33.7136 25.0321C33.4555 24.4095 33.0253 23.8763 32.4782 23.4904C31.9318 23.1044 31.2642 22.8662 30.5459 22.8403L22.1263 22.5324L16.4284 14.9518C16.1589 14.3023 15.7564 13.6923 15.2192 13.1706C14.6967 12.6627 14.0927 12.2798 13.4507 12.0253C12.8086 11.7707 12.1286 11.6439 11.4493 11.6439C10.7509 11.6439 10.0525 11.7779 9.39579 12.046C8.73925 12.314 8.12456 12.717 7.59856 13.2503L7.5978 13.2511L7.58942 13.2596L7.59008 13.2589L7.58261 13.2664L7.58136 13.2678C4.85848 16.0386 3.3541 19.7092 3.35518 23.5795C3.35459 26.8318 4.41733 29.9426 6.37283 32.497L7.31724 43.6895L0.764561 52.6685C0.249842 53.3732 -0.000581165 54.1963 1.0127e-06 55.0065C1.0127e-06 55.624 0.143811 56.2362 0.423962 56.7936C0.703779 57.3505 1.12184 57.8525 1.66289 58.241C2.37307 58.7519 3.20265 59.0003 4.01893 58.9998C4.64134 58.9998 5.25844 58.8571 5.81991 58.5791C6.38121 58.3014 6.88704 57.8864 7.27862 57.3495L14.7061 47.172C15.2045 46.4889 15.4704 45.6692 15.4704 44.8313C15.4704 44.7206 15.4657 44.6095 15.4564 44.4985L15.1087 40.3781L18.1227 44.5762L16.5943 54.4002C16.5623 54.6054 16.5466 54.8103 16.5467 55.0129C16.5467 55.9819 16.9028 56.8913 17.5054 57.5945C17.8069 57.9464 18.1708 58.2479 18.5841 58.4807C18.9972 58.7134 19.4602 58.8771 19.955 58.9528C20.1618 58.9844 20.3681 59 20.5725 59C21.5492 58.9999 22.4655 58.6466 23.1741 58.0486C23.5288 57.7495 23.8326 57.3884 24.0672 56.9783C24.3017 56.5683 24.4666 56.1088 24.5428 55.6178L26.3206 44.1907C26.3521 43.988 26.3677 43.7844 26.3676 43.5818C26.3677 42.7568 26.1096 41.9464 25.6214 41.2664L16.6522 28.7735C16.4201 27.917 15.9679 27.103 15.2996 26.426L15.297 26.4235C14.9029 26.0212 14.6107 25.5667 14.4155 25.0843C14.2386 24.6471 14.1428 24.1869 14.1262 23.7243L17.4309 28.121C18.0763 28.9796 19.0788 29.5019 20.1576 29.5415L30.2833 29.9117L30.2826 29.9117C30.3272 29.9134 30.3718 29.9142 30.4164 29.9142C30.8922 29.9143 31.3508 29.8204 31.7689 29.6496C32.3964 29.3936 32.9337 28.9666 33.3226 28.4238C33.7115 27.8815 33.9516 27.2191 33.9777 26.5064L33.148 26.4761L33.9777 26.5063C33.9794 26.4619 33.9801 26.4179 33.9801 26.3743Z"/>
</mask>
<path d="M32.3182 26.4458C32.3085 26.7028 32.2488 26.9421 32.1487 27.1601C31.9986 27.4866 31.7557 27.7646 31.4553 27.9595C31.1544 28.1543 30.8003 28.266 30.4164 28.2663C30.3929 28.2663 30.3694 28.2658 30.3452 28.265L30.3445 28.2649L20.2187 27.8946C19.6425 27.8736 19.1069 27.5945 18.762 27.1358L14.3273 21.2357C14.1483 20.9977 13.8551 20.8738 13.5582 20.9108C13.2612 20.9479 13.008 21.1398 12.894 21.4145C12.6061 22.1079 12.462 22.8442 12.462 23.5801C12.462 24.2992 12.5994 25.0185 12.8743 25.6981C13.149 26.3777 13.5619 27.0173 14.1079 27.5739L14.1134 27.5794C14.6077 28.0808 14.9264 28.6803 15.0774 29.3146C15.1014 29.4159 15.1485 29.5191 15.2093 29.6038L24.2689 42.2226C24.5555 42.6218 24.707 43.0975 24.7071 43.5818C24.707 43.7008 24.6979 43.8204 24.6794 43.9393L22.9016 55.3665C22.8562 55.6579 22.7599 55.9251 22.6229 56.1649C22.4174 56.5245 22.1186 56.8222 21.7639 57.0292C21.409 57.2363 21.001 57.352 20.5725 57.3521C20.453 57.3521 20.3316 57.343 20.2084 57.3241C19.9147 57.2791 19.6454 57.1834 19.4037 57.0475C19.0413 56.8436 18.7413 56.5471 18.5327 56.1951C18.3241 55.843 18.2074 55.4381 18.2073 55.0129C18.2074 54.8942 18.2164 54.7737 18.2354 54.6518L19.8154 44.4966C19.8483 44.2852 19.796 44.0669 19.671 43.8928L14.7114 36.9846C14.7099 36.9825 14.7084 36.9805 14.7069 36.9785L14.705 36.9757C14.6913 36.9566 14.6768 36.9382 14.6617 36.9207C14.6564 36.9144 14.6505 36.9087 14.6449 36.9025C14.633 36.8895 14.6209 36.8764 14.6082 36.8642C14.6018 36.858 14.595 36.852 14.5883 36.846C14.5753 36.8342 14.5619 36.8228 14.5482 36.8119C14.5445 36.8089 14.5411 36.8055 14.5374 36.8026L7.77267 31.6001C5.98573 29.3098 5.01649 26.5186 5.01582 23.5795C5.01698 20.1328 6.34659 16.8885 8.76955 14.4191L8.77686 14.4116L8.77753 14.4109L8.78591 14.4024L8.78517 14.4032C9.152 14.0317 9.57447 13.7551 10.0277 13.5699C10.4809 13.3849 10.9649 13.2918 11.4493 13.2918C11.9204 13.2918 12.3914 13.3798 12.8345 13.5556C13.2776 13.7315 13.693 13.9942 14.0575 14.3481C14.4526 14.7323 14.7403 15.179 14.9269 15.6593C14.9549 15.7313 14.9898 15.7939 15.0362 15.8558L21.0328 23.8339C21.1836 24.0344 21.4158 24.1554 21.6678 24.1647L30.4849 24.4872C30.744 24.4967 30.9851 24.556 31.2047 24.6553C31.5338 24.8042 31.814 25.0452 32.0104 25.3433C32.2066 25.6419 32.3192 25.9932 32.3195 26.3743C32.3195 26.3982 32.3191 26.4221 32.3182 26.4458ZM13.361 46.2055L5.9335 56.3831C5.70093 56.7014 5.40749 56.9413 5.07835 57.1046C4.74945 57.2676 4.38502 57.3519 4.01893 57.3519C3.53776 57.3514 3.05801 57.2085 2.63694 56.9063C2.31619 56.6756 2.0744 56.3843 1.90983 56.0576C1.74567 55.7312 1.66057 55.3697 1.66064 55.0065C1.66114 54.529 1.80521 54.0528 2.1096 53.6351L8.84296 44.4086C8.95954 44.2487 9.01443 44.0532 8.9979 43.8565L8.16499 33.9867L13.2317 37.8834L13.8015 44.6359C13.8071 44.7011 13.8097 44.7663 13.8097 44.8313C13.8097 45.3232 13.6537 45.8044 13.361 46.2055ZM33.9801 26.3743C33.9802 25.9021 33.8856 25.4471 33.7136 25.0321C33.4555 24.4095 33.0253 23.8763 32.4782 23.4904C31.9318 23.1044 31.2642 22.8662 30.5459 22.8403L22.1263 22.5324L16.4284 14.9518C16.1589 14.3023 15.7564 13.6923 15.2192 13.1706C14.6967 12.6627 14.0927 12.2798 13.4507 12.0253C12.8086 11.7707 12.1286 11.6439 11.4493 11.6439C10.7509 11.6439 10.0525 11.7779 9.39579 12.046C8.73925 12.314 8.12456 12.717 7.59856 13.2503L7.5978 13.2511L7.58942 13.2596L7.59008 13.2589L7.58261 13.2664L7.58136 13.2678C4.85848 16.0386 3.3541 19.7092 3.35518 23.5795C3.35459 26.8318 4.41733 29.9426 6.37283 32.497L7.31724 43.6895L0.764561 52.6685C0.249842 53.3732 -0.000581165 54.1963 1.0127e-06 55.0065C1.0127e-06 55.624 0.143811 56.2362 0.423962 56.7936C0.703779 57.3505 1.12184 57.8525 1.66289 58.241C2.37307 58.7519 3.20265 59.0003 4.01893 58.9998C4.64134 58.9998 5.25844 58.8571 5.81991 58.5791C6.38121 58.3014 6.88704 57.8864 7.27862 57.3495L14.7061 47.172C15.2045 46.4889 15.4704 45.6692 15.4704 44.8313C15.4704 44.7206 15.4657 44.6095 15.4564 44.4985L15.1087 40.3781L18.1227 44.5762L16.5943 54.4002C16.5623 54.6054 16.5466 54.8103 16.5467 55.0129C16.5467 55.9819 16.9028 56.8913 17.5054 57.5945C17.8069 57.9464 18.1708 58.2479 18.5841 58.4807C18.9972 58.7134 19.4602 58.8771 19.955 58.9528C20.1618 58.9844 20.3681 59 20.5725 59C21.5492 58.9999 22.4655 58.6466 23.1741 58.0486C23.5288 57.7495 23.8326 57.3884 24.0672 56.9783C24.3017 56.5683 24.4666 56.1088 24.5428 55.6178L26.3206 44.1907C26.3521 43.988 26.3677 43.7844 26.3676 43.5818C26.3677 42.7568 26.1096 41.9464 25.6214 41.2664L16.6522 28.7735C16.4201 27.917 15.9679 27.103 15.2996 26.426L15.297 26.4235C14.9029 26.0212 14.6107 25.5667 14.4155 25.0843C14.2386 24.6471 14.1428 24.1869 14.1262 23.7243L17.4309 28.121C18.0763 28.9796 19.0788 29.5019 20.1576 29.5415L30.2833 29.9117L30.2826 29.9117C30.3272 29.9134 30.3718 29.9142 30.4164 29.9142C30.8922 29.9143 31.3508 29.8204 31.7689 29.6496C32.3964 29.3936 32.9337 28.9666 33.3226 28.4238C33.7115 27.8815 33.9516 27.2191 33.9777 26.5064L33.148 26.4761L33.9777 26.5063C33.9794 26.4619 33.9801 26.4179 33.9801 26.3743Z" fill="#d88254" stroke="#d88254" stroke-width="2" mask="url(#path-2-inside-1_609_10)"/>
<path d="M44.061 34.5795C43.7925 35.2099 43.3418 35.7489 42.7754 36.1283C42.2084 36.5079 41.5307 36.7285 40.7934 36.7288C40.3016 36.7287 39.8372 36.6303 39.4134 36.4526C38.7781 36.1861 38.2351 35.7389 37.8525 35.1769C37.4702 34.6143 37.2478 33.9417 37.2475 33.2101C37.2476 32.722 37.3467 32.2613 37.5258 31.8407C37.7943 31.2104 38.245 30.6714 38.8114 30.2918C39.3783 29.9123 40.0562 29.6917 40.7934 29.6914C41.2853 29.6914 41.7497 29.7899 42.1734 29.9675C42.8086 30.234 43.3518 30.6812 43.7342 31.2433C44.1167 31.8059 44.339 32.4785 44.3394 33.2101C44.3393 33.6982 44.2401 34.159 44.061 34.5795ZM43.7051 28.9263C42.8751 28.3693 41.8689 28.0431 40.7934 28.0435C40.0768 28.0433 39.3899 28.188 38.7665 28.4498C37.8311 28.8426 37.0377 29.4967 36.4765 30.3209C35.9152 31.1444 35.5865 32.1429 35.5868 33.2101C35.5866 33.9212 35.7325 34.6029 35.9963 35.2215C36.3922 36.1497 37.0513 36.9369 37.8818 37.4938C38.7118 38.0508 39.7179 38.377 40.7934 38.3766C41.51 38.3768 42.197 38.2322 42.8203 37.9703C43.7557 37.5775 44.549 36.9236 45.1103 36.0994C45.6716 35.2759 46.0003 34.2773 46 33.2101C46.0001 32.4991 45.8543 31.8174 45.5905 31.1988C45.1947 30.2706 44.5356 29.4833 43.7051 28.9263Z" fill="#d88254"/>
</svg>
