<svg width="129" height="60" viewBox="0 0 129 60" fill="none" xmlns="http://www.w3.org/2000/svg">
<path d="M125.853 45.5554H121.672L111.617 30.0191C111.473 29.796 111.224 29.6613 110.958 29.6613H101.358V27.6063H110.958C111.391 27.6063 111.742 27.2567 111.742 26.8254V22.4174C111.742 21.9861 111.391 21.6365 110.958 21.6365H101.358V15.3533C101.358 14.922 101.007 14.5724 100.574 14.5724H92.516C92.083 14.5724 91.7319 14.922 91.7319 15.3533V37.7323C91.7319 38.1636 92.083 38.5132 92.516 38.5132H108.455L118.433 50.8527C118.582 51.0367 118.807 51.1438 119.044 51.1438H125.853C126.286 51.1438 126.637 50.7942 126.637 50.3629V46.3364C126.637 45.9051 126.286 45.5554 125.853 45.5554ZM125.069 49.582H119.419L109.441 37.2425C109.292 37.0585 109.067 36.9514 108.83 36.9514H93.3002V16.1342H99.7896V22.4174C99.7896 22.8487 100.141 23.1983 100.574 23.1983H110.174V26.0444H100.574C100.141 26.0444 99.7896 26.3941 99.7896 26.8254V30.4422C99.7896 30.8735 100.141 31.2231 100.574 31.2231H110.53L120.585 46.7594C120.73 46.9825 120.978 47.1173 121.245 47.1173H125.069V49.582Z" fill="#d88254"/>
<path d="M111.943 47.6913C111.556 47.4977 111.085 47.6531 110.891 48.0385C109.563 50.6697 107.537 52.8911 105.03 54.4628C102.455 56.0774 99.4776 56.9308 96.4193 56.9308C92.096 56.9308 88.0315 55.2541 84.9746 52.2096C81.9176 49.1651 80.234 45.1172 80.234 40.8116C80.234 37.9198 81.0116 35.0836 82.4827 32.6099C83.9118 30.2069 85.9529 28.2031 88.3855 26.8152C88.7612 26.6008 88.8913 26.1236 88.676 25.7494C88.4607 25.3751 87.9816 25.2457 87.6058 25.46C84.9385 26.982 82.7004 29.1791 81.1334 31.8139C79.5191 34.5285 78.6658 37.6399 78.6658 40.8116C78.6658 43.1982 79.1353 45.5138 80.0612 47.6941C80.9555 49.7996 82.2355 51.6905 83.8657 53.314C85.4959 54.9376 87.3944 56.2123 89.5086 57.1028C91.6978 58.0251 94.0229 58.4927 96.4193 58.4927C99.7737 58.4927 103.04 57.5562 105.866 55.7845C108.614 54.0612 110.836 51.6252 112.292 48.7397C112.486 48.3543 112.33 47.885 111.943 47.6913Z" fill="#d88254"/>
<path d="M96.5448 13.2109C93.4586 13.2109 90.9478 10.7104 90.9478 7.63678V7.18464C90.9478 4.11104 93.4586 1.61047 96.5448 1.61047C99.631 1.61047 102.142 4.11104 102.142 7.18464V7.63678C102.142 10.7104 99.631 13.2109 96.5448 13.2109ZM96.5448 3.1722C94.3232 3.1722 92.5159 4.97217 92.5159 7.18464V7.63678C92.5159 9.84925 94.3232 11.6492 96.5448 11.6492C98.7663 11.6492 100.574 9.84925 100.574 7.63678V7.18464C100.574 4.97217 98.7663 3.1722 96.5448 3.1722Z" fill="#d88254"/>
<path d="M14.2674 13.056C17.3536 13.056 19.8644 10.5555 19.8644 7.48187V7.02973C19.8644 3.95613 17.3536 1.45557 14.2674 1.45557C11.1812 1.45557 8.67035 3.95613 8.67035 7.02973V7.48187C8.67035 10.5555 11.1812 13.056 14.2674 13.056ZM10.2385 7.02973C10.2385 4.81726 12.0459 3.01731 14.2674 3.01731C16.489 3.01731 18.2963 4.81726 18.2963 7.02973V7.48187C18.2963 9.69434 16.489 11.4943 14.2674 11.4943C12.0459 11.4943 10.2385 9.69434 10.2385 7.48187V7.02973Z" fill="#d88254"/>
<path d="M22.3381 14.7529C22.1901 14.5982 21.9849 14.5106 21.7704 14.5106H7.31802C7.10346 14.5106 6.89828 14.5982 6.75026 14.7529C6.60228 14.9077 6.52443 15.116 6.53486 15.3295L7.49239 34.9152C7.51274 35.3312 7.85731 35.6581 8.27555 35.6581H9.2517L9.92257 54.1882C9.93775 54.6082 10.2841 54.9409 10.7061 54.9409H18.3822C18.8043 54.9409 19.1506 54.6082 19.1658 54.1882L19.8367 35.6581H20.8128C21.231 35.6581 21.5757 35.3312 21.596 34.9152L22.5535 15.3295C22.5639 15.116 22.4861 14.9077 22.3381 14.7529ZM20.066 34.0963H19.0804C18.6583 34.0963 18.312 34.429 18.2968 34.8491L17.6259 53.3792H11.4624L10.7916 34.8491C10.7763 34.429 10.43 34.0963 10.008 34.0963H9.02233L8.1412 16.0724H20.9472L20.066 34.0963Z" fill="#d88254"/>
<path d="M54.4104 13.056C57.4966 13.056 60.0074 10.5555 60.0074 7.48187V7.02973C60.0074 3.95613 57.4965 1.45557 54.4103 1.45557C51.3241 1.45557 48.8133 3.95613 48.8133 7.02973V7.48187C48.8133 10.5555 51.3241 13.056 54.4104 13.056ZM50.3814 7.02973C50.3814 4.81726 52.1888 3.01731 54.4104 3.01731C56.6319 3.01731 58.4392 4.81726 58.4392 7.02973V7.48187C58.4392 9.69434 56.6319 11.4943 54.4104 11.4943C52.1888 11.4943 50.3814 9.69434 50.3814 7.48187V7.02973Z" fill="#d88254"/>
<path d="M64.3849 38.777L60.6877 25.4551V15.2915C60.6877 14.8602 60.3367 14.5106 59.9036 14.5106H49.0635C48.6305 14.5106 48.2795 14.8602 48.2795 15.2915V25.4551L44.5822 38.777C44.517 39.012 44.5658 39.2639 44.7141 39.4579C44.8624 39.652 45.0932 39.7659 45.338 39.7659H49.2975L49.8576 54.1903C49.8739 54.6095 50.2199 54.9409 50.6411 54.9409H58.326C58.7473 54.9409 59.0932 54.6095 59.1095 54.1903L59.6696 39.7659H63.6292C63.874 39.7659 64.1048 39.652 64.2531 39.4579C64.4014 39.2639 64.4501 39.012 64.3849 38.777ZM58.9153 38.2041C58.4941 38.2041 58.1481 38.5356 58.1318 38.9549L57.5717 53.3792H51.3954L50.8353 38.9549C50.8191 38.5356 50.4731 38.2041 50.0519 38.2041H46.3682L49.8193 25.769C49.8381 25.7013 49.8476 25.6313 49.8476 25.561V16.0724H59.1196V25.561C59.1196 25.6313 59.1291 25.7013 59.1479 25.769L62.599 38.2041H58.9153Z" fill="#d88254"/>
<path d="M74.015 56.9402C73.582 56.9402 73.231 56.5906 73.231 56.1593V2.29331C73.231 1.86205 73.582 1.51245 74.015 1.51245C74.4481 1.51245 74.7991 1.86205 74.7991 2.29331V56.1593C74.7991 56.5906 74.4481 56.9402 74.015 56.9402Z" fill="#d88254"/>
<path d="M33.5542 56.9402C33.1211 56.9402 32.7701 56.5906 32.7701 56.1593V2.29331C32.7701 1.86205 33.1211 1.51245 33.5542 1.51245C33.9872 1.51245 34.3382 1.86205 34.3382 2.29331V56.1593C34.3382 56.5906 33.9872 56.9402 33.5542 56.9402Z" fill="#d88254"/>
</svg>
