<svg width="61" height="61" viewBox="0 0 61 61" fill="none" xmlns="http://www.w3.org/2000/svg">
<path d="M7.625 15.25H15.25" stroke="#9F5D39" stroke-width="2" stroke-linecap="round" stroke-linejoin="round"/>
<path d="M43.2084 15.25H43.2338" stroke="#9F5D39" stroke-width="2" stroke-linecap="round" stroke-linejoin="round"/>
<path d="M48.2917 5.08337H12.7083C9.90089 5.08337 7.625 7.35926 7.625 10.1667V50.8334C7.625 53.6408 9.90089 55.9167 12.7083 55.9167H48.2917C51.0991 55.9167 53.375 53.6408 53.375 50.8334V10.1667C53.375 7.35926 51.0991 5.08337 48.2917 5.08337Z" stroke="#9F5D39" stroke-width="2" stroke-linecap="round" stroke-linejoin="round"/>
<path d="M30.5 45.75C37.5186 45.75 43.2084 40.0603 43.2084 33.0417C43.2084 26.0231 37.5186 20.3334 30.5 20.3334C23.4814 20.3334 17.7917 26.0231 17.7917 33.0417C17.7917 40.0603 23.4814 45.75 30.5 45.75Z" stroke="#9F5D39" stroke-width="2" stroke-linecap="round" stroke-linejoin="round"/>
<path d="M30.5 45.75C32.1852 45.75 33.8014 45.0806 34.9931 43.8889C36.1847 42.6973 36.8541 41.0811 36.8541 39.3959C36.8541 37.7106 36.1847 36.0944 34.9931 34.9028C33.8014 33.7112 32.1852 33.0417 30.5 33.0417C28.8147 33.0417 27.1985 32.3723 26.0069 31.1806C24.8153 29.989 24.1458 28.3728 24.1458 26.6875C24.1458 25.0023 24.8153 23.3861 26.0069 22.1945C27.1985 21.0028 28.8147 20.3334 30.5 20.3334" stroke="#9F5D39" stroke-width="2" stroke-linecap="round" stroke-linejoin="round"/>
</svg>
