<svg width="77" height="77" viewBox="0 0 77 77" fill="none" xmlns="http://www.w3.org/2000/svg">
<path d="M60.9583 9.625H16.0417C12.4978 9.625 9.625 12.4978 9.625 16.0417V60.9583C9.625 64.5022 12.4978 67.375 16.0417 67.375H60.9583C64.5022 67.375 67.375 64.5022 67.375 60.9583V16.0417C67.375 12.4978 64.5022 9.625 60.9583 9.625Z" stroke="#d88254" stroke-width="2" stroke-linecap="round" stroke-linejoin="round"/>
<path d="M23.9131 59.7826V17.6957H40.5839C43.8999 17.6957 47.0801 19.0259 49.4249 21.3938C51.7697 23.7616 53.087 26.9731 53.087 30.3218C53.087 33.6704 51.7697 36.8819 49.4249 39.2498C47.0801 41.6176 43.8999 42.9479 40.5839 42.9479H23.9131" stroke="#d88254" stroke-width="5" stroke-linecap="round" stroke-linejoin="round"/>
<path d="M58.6667 49.241C59.1399 49.241 59.5236 48.8573 59.5236 48.3841C59.5236 47.9109 59.1399 47.5272 58.6667 47.5272C58.1934 47.5272 57.8098 47.9109 57.8098 48.3841C57.8098 48.8573 58.1934 49.241 58.6667 49.241Z" stroke="#d88254" stroke-width="2" stroke-linecap="round" stroke-linejoin="round"/>
<path d="M60.3804 61.2373L61.2373 55.2391L56.096 56.096" stroke="#d88254" stroke-width="2" stroke-linecap="round" stroke-linejoin="round"/>
<path d="M49.241 51.8116L51.8116 49.241L56.5245 51.8116L54.5022 54.8107" stroke="#d88254" stroke-width="2" stroke-linecap="round" stroke-linejoin="round"/>
<path d="M48.5897 57.3813C48.3479 58.1723 48.3403 59.0163 48.5676 59.8116C48.795 60.6068 49.2476 61.3192 49.871 61.8628C50.4943 62.4064 51.2617 62.758 52.0804 62.8751C52.8992 62.9922 53.7344 62.8698 54.4851 62.5227" stroke="#d88254" stroke-width="2" stroke-linecap="round" stroke-linejoin="round"/>
<path d="M56.7472 59.952C56.989 59.1611 56.9967 58.3171 56.7693 57.5218C56.542 56.7266 56.0893 56.0142 55.466 55.4706C54.8426 54.927 54.0752 54.5754 53.2565 54.4583C52.4377 54.3412 51.6026 54.4636 50.8519 54.8107" stroke="#d88254" stroke-width="2" stroke-linecap="round" stroke-linejoin="round"/>
</svg>
